<svg xmlns="http://www.w3.org/2000/svg" xmlns:xlink="http://www.w3.org/1999/xlink" width="400" zoomAndPan="magnify" viewBox="0 0 300 299.999988" height="400" preserveAspectRatio="xMidYMid meet" version="1.0"><defs><clipPath id="328584578c"><path d="M 44.363281 5.046875 L 255.863281 5.046875 L 255.863281 295 L 44.363281 295 Z M 44.363281 5.046875 " clip-rule="nonzero"/></clipPath></defs><g clip-path="url(#328584578c)"><path fill="#013927" d="M 44.535156 43.613281 C 44.75 43.269531 44.878906 42.929688 44.921875 42.542969 C 45.648438 38.644531 47.875 35.777344 51 33.507812 C 51.644531 33.039062 52.328125 32.609375 53.015625 32.136719 C 53.398438 31.882812 53.613281 31.582031 53.527344 31.066406 C 52.542969 26.699219 54.425781 23.1875 57.039062 19.976562 C 60.121094 16.253906 63.976562 13.726562 68.855469 13 C 70.65625 12.742188 72.453125 12.699219 74.253906 13 C 74.980469 13.125 75.367188 13 75.792969 12.355469 C 77.078125 10.429688 78.746094 8.84375 80.761719 7.644531 C 84.355469 5.460938 87.996094 5.332031 91.636719 7.601562 C 92.535156 8.160156 93.476562 8.714844 94.25 9.488281 C 94.71875 9.957031 95.320312 10.128906 96.003906 10.171875 C 100.027344 10.300781 103.539062 11.714844 106.621094 14.324219 C 110.476562 17.621094 112.402344 21.90625 113.21875 26.785156 C 113.34375 27.554688 113.429688 28.328125 113.472656 29.054688 C 113.472656 29.824219 113.816406 30.425781 114.5 30.851562 C 117.753906 32.996094 119.8125 35.992188 120.882812 39.71875 C 121.566406 42.199219 121.609375 44.726562 120.753906 47.210938 C 120.410156 48.238281 119.980469 49.222656 119.597656 50.207031 C 119.167969 51.277344 119.167969 51.40625 120.109375 52.132812 C 121.738281 53.375 123.40625 54.660156 125.078125 55.859375 C 128.761719 58.558594 132.699219 60.910156 136.722656 63.054688 C 137.453125 63.4375 138.222656 63.609375 139.035156 63.566406 C 141.863281 63.308594 144.6875 63.351562 147.558594 63.566406 C 149.441406 63.695312 151.324219 63.695312 153.210938 63.78125 C 157.703125 64.039062 162.15625 64.421875 166.609375 64.9375 C 171.0625 65.449219 175.476562 66.265625 179.84375 67.335938 C 187.035156 69.175781 193.757812 72.214844 200.09375 76.070312 C 205.917969 79.625 211.355469 83.691406 216.496094 88.144531 C 218.59375 89.984375 220.691406 91.871094 222.746094 93.753906 C 222.875 93.882812 223.046875 94.011719 223.175781 94.097656 C 224.375 94.738281 225.015625 95.636719 224.800781 97.050781 C 224.714844 97.777344 225.273438 98.121094 225.785156 98.464844 C 228.011719 99.917969 230.152344 101.503906 232.292969 103.046875 C 238.117188 107.242188 243.855469 111.609375 248.824219 116.832031 C 251.347656 119.488281 253.445312 122.484375 254.601562 126.039062 C 255.628906 129.121094 255.503906 132.160156 254.21875 135.160156 C 253.0625 137.941406 251.519531 140.511719 249.9375 143.039062 C 245.78125 149.546875 241.285156 155.796875 236.363281 161.792969 C 234.394531 164.191406 232.207031 166.460938 230.023438 168.644531 C 227.925781 170.742188 225.828125 172.796875 223.859375 174.980469 C 223.34375 175.535156 223.261719 176.050781 223.472656 176.734375 C 224.714844 181.101562 226.171875 185.382812 227.457031 189.753906 C 229.597656 196.988281 232.082031 204.097656 234.179688 211.289062 C 235.464844 215.65625 236.234375 220.109375 237.003906 224.5625 C 237.390625 226.660156 237.734375 228.800781 238.074219 230.945312 C 238.246094 231.886719 238.289062 232.785156 237.347656 233.382812 C 236.875 233.683594 237.046875 234.199219 237.132812 234.667969 C 237.519531 236.765625 237.902344 238.820312 238.246094 240.921875 C 238.804688 244.304688 239.058594 247.683594 239.316406 251.109375 C 240.34375 264.171875 239.832031 277.230469 239.957031 290.246094 C 239.957031 291.832031 239.746094 291.960938 238.160156 292.386719 C 233.621094 293.542969 228.996094 293.757812 224.332031 293.929688 C 213.753906 294.316406 203.136719 294.273438 192.515625 294.101562 C 184.9375 293.972656 177.402344 293.800781 169.824219 293.628906 C 166.527344 293.542969 163.230469 293.542969 159.929688 293.285156 C 158.945312 293.203125 158.859375 293.203125 158.691406 292.171875 C 158.132812 288.75 157.664062 285.324219 157.105469 281.941406 C 156.976562 281.125 156.804688 280.355469 156.675781 279.585938 C 156.632812 279.371094 156.507812 279.113281 156.207031 279.15625 C 155.90625 279.15625 155.820312 279.457031 155.863281 279.671875 C 155.949219 280.484375 156.035156 281.253906 156.164062 282.070312 C 156.675781 285.410156 157.234375 288.75 157.789062 292.089844 C 157.960938 293.117188 157.832031 293.285156 156.847656 293.585938 C 154.964844 294.058594 153.039062 294.101562 151.152344 294.230469 C 149.871094 294.316406 148.542969 294.359375 147.257812 294.65625 L 139.207031 294.65625 C 138.351562 294.359375 137.453125 294.359375 136.59375 294.316406 C 132.097656 294.058594 127.648438 293.5 123.195312 293.074219 C 122.464844 292.988281 121.738281 292.945312 121.007812 292.859375 C 120.023438 292.730469 119.683594 292.257812 119.855469 291.273438 C 120.066406 290.246094 120.324219 289.261719 120.582031 288.234375 C 122.550781 279.671875 125.164062 271.320312 128.203125 263.101562 C 130.6875 256.378906 133.128906 249.613281 135.609375 242.847656 C 135.867188 242.117188 136.167969 241.390625 136.425781 240.707031 C 136.59375 240.320312 136.636719 239.976562 136.382812 239.636719 C 135.996094 239.164062 136.167969 238.695312 136.382812 238.222656 C 138.007812 233.855469 139.722656 229.53125 141.132812 225.121094 C 142.761719 219.980469 144.34375 214.84375 145.246094 209.535156 C 145.714844 206.878906 146.058594 207.566406 143.746094 206.109375 C 139.851562 203.667969 135.867188 201.3125 132.3125 198.359375 C 130.386719 196.773438 128.546875 195.105469 126.960938 193.136719 C 125.378906 191.25 124.308594 189.066406 123.707031 186.710938 C 123.363281 185.425781 123.066406 184.1875 122.851562 182.902344 C 122.335938 180.203125 121.480469 177.632812 120.410156 175.109375 C 117.925781 169.328125 115.527344 163.503906 113.6875 157.46875 C 113.429688 156.695312 113.132812 156.011719 112.359375 155.582031 C 111.632812 155.199219 111.332031 154.382812 111.03125 153.613281 C 110.003906 150.875 109.019531 148.132812 108.035156 145.390625 C 105.808594 139.226562 103.753906 133.0625 102.082031 126.722656 C 101.140625 123.042969 100.328125 119.316406 100.285156 115.503906 C 100.242188 112.679688 100.757812 109.9375 101.785156 107.285156 C 103.410156 103.089844 105.722656 99.191406 108.121094 95.378906 C 108.847656 94.222656 109.621094 93.152344 110.390625 92.039062 C 110.734375 91.570312 110.777344 91.183594 110.304688 90.757812 C 107.820312 88.316406 105.339844 85.832031 102.855469 83.347656 C 102.339844 82.835938 102.296875 82.878906 101.742188 83.433594 C 100.96875 84.289062 100.242188 85.191406 99.34375 85.917969 C 94.847656 89.644531 89.835938 90.457031 84.3125 88.699219 C 81.273438 87.714844 78.621094 86.003906 76.136719 84.035156 C 72.28125 80.949219 68.898438 77.355469 65.730469 73.585938 C 62.132812 69.304688 58.921875 64.765625 56.3125 59.839844 C 55.925781 59.113281 55.582031 58.386719 55.242188 57.65625 C 54.8125 56.757812 54.769531 56.714844 53.871094 56.929688 C 51.214844 57.488281 49.117188 56.542969 47.449219 54.53125 C 46.078125 52.863281 45.265625 50.933594 44.792969 48.835938 C 44.707031 48.367188 44.621094 47.9375 44.363281 47.550781 L 44.363281 43.613281 Z M 121.738281 156.652344 C 121.652344 156.140625 121.308594 155.839844 121.050781 155.539062 C 119.597656 153.699219 118.183594 151.859375 116.855469 149.886719 C 111.761719 142.351562 107.652344 134.257812 104.480469 125.738281 C 104.097656 124.753906 103.796875 123.683594 103.453125 122.699219 C 103.324219 122.269531 103.324219 121.84375 103.796875 121.628906 C 104.183594 121.457031 104.523438 121.714844 104.78125 122.3125 C 104.78125 122.398438 104.824219 122.441406 104.867188 122.527344 C 107.050781 128.734375 109.792969 134.6875 112.917969 140.46875 C 116.257812 146.589844 120.152344 152.328125 124.777344 157.59375 C 128.417969 161.75 131.714844 166.074219 134.242188 171.039062 C 135.566406 173.652344 137.066406 176.222656 138.4375 178.832031 C 140.363281 182.472656 143.019531 185.425781 146.574219 187.570312 C 147.472656 188.125 148.328125 188.253906 149.269531 187.824219 C 150.898438 187.183594 152.394531 186.414062 153.765625 185.300781 C 154.578125 184.65625 155.4375 183.972656 156.464844 183.84375 C 157.578125 183.714844 158.519531 183.285156 159.460938 182.773438 C 159.675781 182.644531 159.890625 182.558594 160.101562 182.472656 C 164.425781 180.589844 168.796875 178.707031 172.992188 176.5625 C 176.074219 174.980469 179.242188 174.679688 182.625 175.109375 C 184.9375 175.40625 187.292969 175.664062 189.605469 175.664062 C 192.773438 175.664062 195.511719 174.722656 197.613281 172.109375 C 200.007812 169.113281 202.535156 166.203125 204.761719 163.078125 C 208.144531 158.324219 210.886719 153.140625 214.4375 148.476562 C 214.78125 148.003906 214.738281 147.578125 214.609375 147.0625 C 213.453125 142.652344 212.296875 138.242188 211.140625 133.789062 C 210.757812 132.332031 210.371094 130.878906 210.027344 129.421875 C 209.902344 128.90625 209.644531 128.691406 209.128906 128.949219 C 208.230469 129.378906 207.332031 129.207031 206.433594 128.863281 C 205.917969 128.691406 205.449219 128.480469 204.933594 128.265625 C 200.652344 126.464844 196.328125 124.796875 191.875 123.339844 C 189.433594 122.570312 186.949219 121.800781 184.59375 120.816406 C 184.296875 120.6875 184.039062 120.558594 183.78125 120.386719 C 183.480469 120.214844 183.394531 119.914062 183.523438 119.574219 C 183.652344 119.230469 183.953125 119.144531 184.296875 119.1875 C 184.59375 119.230469 184.894531 119.359375 185.152344 119.488281 C 186.820312 120.171875 188.535156 120.6875 190.289062 121.242188 C 193.285156 122.183594 196.285156 123.125 199.238281 124.28125 C 201.765625 125.3125 204.292969 126.296875 206.816406 127.324219 C 207.84375 127.75 208.660156 127.621094 209.429688 126.808594 C 210.285156 125.953125 211.183594 125.097656 212 124.15625 C 217.007812 118.160156 220.433594 111.351562 222.617188 103.902344 C 223.21875 101.804688 223.558594 99.621094 223.386719 97.394531 C 223.34375 96.664062 223.261719 95.9375 222.617188 95.421875 C 220.261719 93.625 218.207031 91.484375 215.980469 89.558594 C 210.628906 84.890625 205.019531 80.652344 198.9375 77.011719 C 192.945312 73.414062 186.648438 70.546875 179.84375 68.789062 C 175.304688 67.632812 170.679688 66.820312 166.011719 66.265625 C 159.546875 65.535156 153.082031 65.023438 146.613281 64.894531 C 145.929688 64.894531 145.246094 64.808594 144.558594 64.765625 C 142.890625 64.765625 141.261719 64.722656 139.59375 64.765625 C 138.820312 64.765625 138.695312 64.894531 138.652344 65.75 C 138.652344 66.394531 138.652344 67.078125 138.652344 67.71875 C 138.566406 69.003906 138.566406 70.332031 138.351562 71.617188 C 137.238281 78.382812 134.753906 84.546875 129.914062 89.601562 C 127.6875 91.914062 125.207031 93.925781 122.207031 95.167969 C 120.496094 95.894531 118.699219 96.238281 116.8125 96.109375 C 115.742188 96.023438 114.84375 95.679688 114.160156 94.738281 C 113.6875 94.097656 113.132812 93.496094 112.574219 92.941406 C 112.0625 92.425781 111.976562 92.425781 111.503906 92.984375 C 111.375 93.109375 111.289062 93.28125 111.160156 93.453125 C 108.550781 97.394531 106.152344 101.460938 104.183594 105.785156 C 103.238281 107.753906 102.554688 109.851562 102.210938 112.035156 C 101.742188 115.078125 102.042969 118.074219 102.597656 121.070312 C 103.582031 126.382812 105.167969 131.519531 106.792969 136.613281 C 108.550781 142.09375 110.691406 147.449219 112.574219 152.886719 C 112.917969 153.828125 113.515625 154.425781 114.457031 154.769531 C 116.429688 155.496094 118.484375 156.054688 120.539062 156.566406 C 120.925781 156.652344 121.308594 156.738281 121.738281 156.566406 Z M 221.890625 177.378906 C 221.804688 177.421875 221.71875 177.464844 221.632812 177.550781 C 219.234375 180.289062 216.835938 183.03125 214.480469 185.855469 C 211.785156 189.109375 209.515625 192.664062 207.074219 196.132812 C 204.761719 199.429688 202.277344 202.640625 199.152344 205.210938 C 197.097656 206.878906 195.042969 208.550781 193.03125 210.261719 C 191.660156 211.417969 190.160156 212.488281 188.664062 213.429688 C 186.691406 214.671875 184.636719 215.699219 182.367188 216.171875 C 180.742188 216.515625 179.199219 216.300781 177.828125 215.441406 C 177.101562 215.015625 176.460938 214.972656 175.644531 215.101562 C 172.5625 215.65625 169.523438 215.570312 166.695312 214.03125 C 166.398438 213.859375 166.097656 213.859375 165.796875 213.902344 C 164.855469 214.03125 163.957031 213.902344 163.058594 213.730469 C 161.988281 213.515625 160.917969 213.214844 160.1875 212.402344 C 159.589844 211.71875 158.859375 211.546875 158.046875 211.460938 C 156.632812 211.332031 155.222656 211.117188 153.808594 210.90625 C 151.710938 210.5625 149.910156 209.535156 148.070312 208.550781 C 147.214844 208.078125 147.128906 208.121094 146.957031 209.0625 C 146.144531 214.246094 144.730469 219.253906 143.148438 224.265625 C 141.734375 228.757812 140.0625 233.171875 138.351562 237.582031 C 137.792969 239.035156 137.835938 239.121094 139.121094 240.0625 C 140.835938 241.304688 142.675781 242.332031 144.601562 243.230469 C 150.210938 245.800781 156.078125 247.601562 162.117188 248.925781 C 168.066406 250.210938 174.0625 250.554688 180.097656 249.910156 C 184.59375 249.441406 189.046875 248.585938 193.457031 247.472656 C 201.679688 245.457031 209.859375 243.105469 217.992188 240.75 C 224.375 238.90625 230.238281 236.039062 235.847656 232.613281 C 236.832031 232.015625 236.832031 232.015625 236.621094 230.859375 C 236.191406 228.503906 235.761719 226.191406 235.335938 223.835938 C 234.394531 218.570312 233.320312 213.34375 231.652344 208.25 C 228.398438 198.230469 225.316406 188.167969 222.273438 178.105469 C 222.1875 177.847656 222.230469 177.550781 221.890625 177.421875 Z M 178.6875 214.246094 C 179.929688 214.84375 180.785156 214.972656 181.984375 214.757812 C 182.925781 214.542969 183.824219 214.246094 184.722656 213.859375 C 186.863281 212.875 188.875 211.675781 190.71875 210.175781 C 193.203125 208.164062 195.683594 206.152344 198.125 204.097656 C 199.195312 203.195312 200.265625 202.253906 201.25 201.183594 C 203.222656 198.914062 205.0625 196.558594 206.730469 194.035156 C 210.886719 187.652344 215.765625 181.832031 220.863281 176.136719 C 224.074219 172.582031 227.414062 169.113281 230.796875 165.730469 C 232.851562 163.71875 234.820312 161.578125 236.621094 159.351562 C 240.902344 153.957031 244.882812 148.347656 248.609375 142.566406 C 250.320312 139.910156 251.90625 137.214844 253.105469 134.257812 C 254.175781 131.691406 254.175781 129.121094 253.277344 126.507812 C 252.332031 123.769531 250.835938 121.371094 248.992188 119.1875 C 246.167969 115.804688 242.828125 112.980469 239.402344 110.238281 C 235.847656 107.328125 232.082031 104.757812 228.398438 102.058594 C 227.542969 101.417969 226.640625 100.820312 225.699219 100.261719 C 225.144531 99.875 225.015625 99.960938 224.929688 100.648438 C 224.757812 101.847656 224.542969 103.089844 224.203125 104.242188 C 222.105469 111.523438 218.808594 118.203125 214.097656 124.15625 C 213.796875 124.539062 213.496094 124.925781 213.15625 125.3125 C 212.769531 125.738281 212.898438 125.996094 213.367188 126.210938 C 213.453125 126.253906 213.582031 126.296875 213.667969 126.382812 C 217.136719 128.179688 220.605469 130.019531 224.074219 131.863281 C 224.671875 132.160156 225.230469 132.503906 225.785156 131.820312 C 226 131.5625 226.34375 131.605469 226.640625 131.820312 C 226.855469 132.03125 226.898438 132.289062 226.8125 132.546875 C 226.683594 132.890625 226.515625 133.230469 226.300781 133.574219 C 223.6875 137.984375 220.863281 142.222656 217.949219 146.421875 C 215.46875 149.972656 212.855469 153.441406 210.628906 157.167969 C 208.273438 161.105469 205.703125 164.875 202.792969 168.429688 C 201.039062 170.613281 199.324219 172.839844 197.269531 174.765625 C 196.199219 175.75 195 176.480469 193.542969 176.734375 C 192.386719 176.949219 191.1875 177.121094 189.988281 177.164062 C 187.335938 177.25 184.679688 176.90625 182.070312 176.5625 C 179.371094 176.222656 176.800781 176.480469 174.320312 177.71875 C 171.792969 179.003906 169.222656 180.203125 166.609375 181.316406 C 164.46875 182.214844 162.328125 183.242188 160.1875 184.1875 C 158.476562 184.957031 158.816406 186.371094 159.972656 187.097656 C 160.703125 187.570312 161.515625 187.738281 162.371094 187.910156 C 164.769531 188.339844 167.125 187.910156 169.4375 187.3125 C 170.378906 187.054688 171.363281 186.796875 172.347656 186.539062 C 172.777344 186.414062 173.207031 186.371094 173.503906 186.796875 C 173.761719 187.183594 173.589844 187.527344 173.417969 187.867188 C 173.332031 187.996094 173.289062 188.125 173.207031 188.253906 C 171.449219 190.867188 169.566406 193.390625 167.210938 195.53125 C 165.496094 197.117188 163.613281 198.53125 161.6875 199.898438 C 159.972656 201.097656 158.21875 202.339844 156.632812 203.710938 C 155.820312 204.4375 155.09375 205.253906 154.664062 206.238281 C 154.195312 207.265625 154.535156 207.777344 155.691406 207.734375 C 156.71875 207.691406 157.664062 207.308594 158.5625 206.921875 C 162.929688 205.039062 167.296875 203.15625 171.449219 200.757812 C 171.621094 200.671875 171.792969 200.585938 171.964844 200.5 C 172.21875 200.414062 172.476562 200.5 172.691406 200.671875 C 172.949219 200.929688 172.949219 201.226562 172.777344 201.527344 C 172.605469 201.785156 172.390625 202 172.175781 202.210938 C 170.078125 204.480469 167.554688 206.238281 164.898438 207.777344 C 163.828125 208.378906 162.757812 208.976562 161.730469 209.664062 C 160.703125 210.304688 160.746094 211.03125 161.816406 211.675781 C 162.542969 212.101562 163.355469 212.316406 164.214844 212.359375 C 166.441406 212.53125 168.539062 212.019531 170.59375 211.203125 C 173.121094 210.175781 175.433594 208.847656 177.445312 207.050781 C 177.828125 206.707031 178.214844 206.410156 178.644531 206.152344 C 178.898438 205.980469 179.242188 206.066406 179.5 206.324219 C 179.757812 206.578125 179.714844 206.921875 179.5 207.179688 C 179.285156 207.480469 178.984375 207.777344 178.730469 207.992188 C 176.117188 210.304688 173.164062 211.976562 169.910156 213.089844 C 169.652344 213.175781 169.351562 213.175781 169.09375 213.472656 C 169.308594 213.558594 169.4375 213.644531 169.566406 213.644531 C 172.5625 214.289062 175.433594 213.945312 178.257812 212.789062 C 180.441406 211.847656 182.238281 210.347656 183.953125 208.761719 C 184.296875 208.464844 184.59375 208.121094 185.023438 207.90625 C 185.28125 207.777344 185.535156 207.777344 185.792969 207.992188 C 186.050781 208.25 186.09375 208.550781 185.921875 208.847656 C 185.75 209.148438 185.496094 209.40625 185.238281 209.621094 C 183.351562 211.460938 181.339844 213.046875 178.773438 214.289062 Z M 72.109375 36.207031 C 71.769531 36.503906 71.726562 36.761719 71.597656 37.019531 C 70.742188 39.074219 69.757812 41.085938 68.472656 42.929688 C 66.628906 45.539062 64.359375 47.59375 61.148438 48.410156 C 60.464844 48.582031 60.25 49.007812 60.078125 49.609375 C 59.4375 51.707031 58.453125 53.675781 56.867188 55.261719 C 56.355469 55.773438 56.398438 56.246094 56.652344 56.800781 C 57.46875 58.640625 58.496094 60.355469 59.523438 62.066406 C 59.992188 62.796875 60.164062 62.796875 60.636719 62.066406 C 61.363281 60.953125 61.921875 59.796875 62.390625 58.558594 C 62.5625 58.171875 62.648438 57.742188 62.992188 57.445312 C 63.203125 57.230469 63.460938 57.144531 63.71875 57.273438 C 63.976562 57.402344 64.105469 57.613281 64.148438 57.914062 C 64.148438 58.214844 64.019531 58.515625 63.933594 58.8125 C 63.460938 60.054688 62.863281 61.296875 62.132812 62.410156 C 61.277344 63.78125 61.347656 65.121094 62.347656 66.433594 C 62.90625 67.164062 63.078125 67.207031 63.890625 66.949219 C 65.132812 66.519531 66.160156 65.835938 67.015625 64.851562 C 67.230469 64.59375 67.488281 64.335938 67.742188 64.125 C 68 63.910156 68.300781 63.867188 68.601562 64.082031 C 68.898438 64.292969 68.941406 64.59375 68.855469 64.894531 C 68.769531 65.195312 68.558594 65.449219 68.34375 65.664062 C 67.617188 66.519531 66.714844 67.207031 65.730469 67.71875 C 65.347656 67.890625 64.960938 68.0625 64.574219 68.234375 C 64.019531 68.535156 63.976562 68.621094 64.359375 69.175781 C 64.402344 69.261719 64.488281 69.347656 64.574219 69.433594 C 68.042969 73.800781 71.640625 78.039062 75.878906 81.679688 C 78.535156 83.949219 81.316406 85.960938 84.65625 87.117188 C 90.179688 89.042969 95.148438 88.101562 99.300781 83.949219 C 104.269531 79.023438 106.023438 72.816406 105.980469 65.964844 C 105.980469 63.523438 105.722656 61.039062 105.253906 58.640625 C 105.210938 58.429688 105.210938 58.171875 105.253906 57.957031 C 105.253906 57.570312 105.464844 57.273438 105.851562 57.1875 C 106.238281 57.101562 106.539062 57.316406 106.664062 57.699219 C 106.792969 58.042969 106.835938 58.386719 106.921875 58.683594 C 107.179688 60.269531 107.351562 61.898438 107.480469 63.480469 C 107.863281 67.421875 107.480469 71.316406 106.324219 75.085938 C 105.722656 77.097656 104.824219 78.9375 103.796875 80.78125 C 103.367188 81.550781 103.367188 81.636719 104.054688 82.234375 C 104.183594 82.320312 104.3125 82.449219 104.394531 82.535156 C 108.25 86.175781 112.101562 89.8125 115.484375 93.925781 C 115.957031 94.480469 116.472656 94.695312 117.15625 94.738281 C 118.996094 94.867188 120.667969 94.394531 122.25 93.582031 C 126.535156 91.441406 129.789062 88.144531 132.269531 84.121094 C 135.695312 78.511719 137.367188 72.386719 137.066406 65.792969 C 137.066406 65.066406 136.765625 64.679688 136.167969 64.335938 C 134.753906 63.609375 133.296875 62.839844 131.929688 62.023438 C 124.90625 57.828125 118.398438 52.949219 112.402344 47.425781 C 111.890625 46.953125 111.375 46.523438 110.863281 46.097656 C 110.476562 46.394531 110.476562 46.78125 110.390625 47.082031 C 109.707031 49.050781 108.292969 50.464844 106.496094 51.449219 C 105.9375 51.75 105.382812 51.960938 104.738281 51.835938 C 104.394531 51.75 104.097656 51.578125 104.054688 51.191406 C 104.054688 50.765625 104.269531 50.550781 104.652344 50.464844 C 105.125 50.378906 105.550781 50.25 105.9375 50.035156 C 108.378906 48.75 109.535156 46.3125 109.0625 43.441406 C 108.636719 40.871094 107.648438 38.519531 106.238281 36.335938 C 105.296875 34.835938 104.011719 33.679688 102.339844 33.039062 C 100.714844 32.394531 99.042969 32.308594 97.714844 33.636719 C 96.476562 34.878906 95.875 36.417969 96.21875 38.175781 C 96.433594 39.289062 96.21875 40.144531 95.703125 41.128906 C 94.417969 43.613281 92.40625 44.984375 89.710938 45.496094 C 87.738281 45.882812 85.8125 45.710938 83.929688 45.070312 C 79.605469 43.699219 76.050781 41.128906 73.265625 37.574219 C 72.925781 37.148438 72.582031 36.675781 72.195312 36.164062 Z M 115.402344 157.125 C 115.484375 157.511719 115.570312 157.765625 115.65625 158.066406 C 117.070312 162.777344 118.953125 167.316406 120.796875 171.855469 C 121.996094 174.808594 123.40625 177.675781 124.09375 180.804688 C 124.476562 182.601562 124.863281 184.398438 125.292969 186.199219 C 125.847656 188.554688 126.960938 190.609375 128.546875 192.492188 C 130.644531 194.976562 133.128906 197.03125 135.738281 198.914062 C 139.550781 201.699219 143.617188 204.097656 147.644531 206.578125 C 150.941406 208.59375 154.492188 209.835938 158.347656 210.089844 C 158.859375 210.089844 159.246094 210.089844 159.460938 209.578125 C 159.675781 209.019531 160.144531 208.679688 160.660156 208.378906 C 161.558594 207.820312 162.457031 207.308594 163.3125 206.792969 C 163.527344 206.664062 163.785156 206.621094 163.871094 206.152344 C 163.3125 206.410156 162.929688 206.578125 162.5 206.75 C 161.171875 207.351562 159.847656 207.949219 158.476562 208.507812 C 157.320312 208.976562 156.164062 209.320312 154.878906 209.191406 C 153.210938 209.0625 152.394531 207.949219 152.78125 206.324219 C 152.953125 205.636719 153.292969 205.039062 153.679688 204.480469 C 154.28125 203.582031 155.050781 202.8125 155.863281 202.125 C 157.746094 200.585938 159.71875 199.214844 161.6875 197.800781 C 165.027344 195.402344 167.980469 192.664062 170.421875 189.324219 C 170.59375 189.109375 170.851562 188.894531 170.722656 188.511719 C 169.738281 188.765625 168.753906 189.023438 167.765625 189.195312 C 165.414062 189.710938 163.058594 189.753906 160.703125 189.109375 C 158.988281 188.640625 157.621094 187.695312 157.191406 185.8125 C 157.0625 185.257812 156.761719 185.300781 156.335938 185.425781 C 155.648438 185.726562 155.050781 186.15625 154.492188 186.582031 C 152.054688 188.46875 149.3125 189.539062 146.273438 189.921875 C 145.972656 189.921875 145.671875 189.964844 145.375 189.921875 C 144.988281 189.878906 144.644531 189.539062 144.816406 189.195312 C 145.332031 188.296875 144.644531 188.039062 144.132812 187.695312 C 141.5625 185.984375 139.550781 183.757812 137.964844 181.101562 C 136.253906 178.234375 134.667969 175.28125 133.171875 172.324219 C 130.730469 167.53125 127.648438 163.203125 124.09375 159.179688 C 123.664062 158.707031 123.234375 158.453125 122.636719 158.410156 C 120.582031 158.324219 118.65625 157.722656 116.683594 157.167969 C 116.300781 157.039062 115.914062 156.824219 115.316406 157.039062 Z M 216.109375 145.949219 C 216.238281 145.820312 216.324219 145.777344 216.410156 145.691406 C 219.019531 142.011719 221.460938 138.285156 223.902344 134.472656 C 224.332031 133.832031 224.289062 133.746094 223.558594 133.316406 C 219.921875 131.390625 216.324219 129.464844 212.683594 127.496094 C 212.425781 127.367188 212.210938 127.238281 211.957031 127.152344 C 211.398438 126.980469 211.058594 127.238281 211.140625 127.878906 C 211.183594 128.265625 211.3125 128.609375 211.398438 128.992188 C 212.855469 134.386719 214.398438 139.742188 215.722656 145.136719 C 215.765625 145.390625 215.808594 145.648438 216.109375 145.90625 Z M 216.109375 145.949219 " fill-opacity="1" fill-rule="nonzero"/></g><path fill="#013927" d="M 173.804688 93.753906 C 173.71875 91.054688 174.191406 87.929688 174.832031 84.804688 C 174.917969 84.375 175.003906 83.90625 175.304688 83.519531 C 175.476562 83.304688 175.730469 83.175781 176.03125 83.261719 C 176.332031 83.347656 176.460938 83.5625 176.503906 83.863281 C 176.546875 84.332031 176.417969 84.761719 176.332031 85.234375 C 175.6875 88.273438 175.261719 91.355469 175.304688 94.480469 C 175.433594 101.503906 177.015625 108.226562 180.054688 114.605469 C 180.183594 114.863281 180.3125 115.164062 180.398438 115.460938 C 180.484375 115.761719 180.398438 115.976562 180.140625 116.148438 C 179.886719 116.320312 179.628906 116.277344 179.371094 116.105469 C 179.027344 115.890625 178.855469 115.503906 178.6875 115.207031 C 178 114.007812 177.488281 112.722656 177.015625 111.394531 C 174.917969 105.871094 173.71875 100.21875 173.761719 93.753906 Z M 173.804688 93.753906 " fill-opacity="1" fill-rule="nonzero"/><path fill="#013927" d="M 75.492188 73.328125 C 73.265625 73.328125 71.898438 72.171875 71.46875 70.203125 C 71.382812 69.816406 71.296875 69.433594 71.296875 69.046875 C 71.296875 66.863281 70.527344 64.9375 69.457031 63.09375 C 69.285156 62.796875 69.113281 62.496094 68.984375 62.195312 C 68.855469 61.898438 68.898438 61.597656 69.199219 61.382812 C 69.5 61.210938 69.800781 61.253906 70.054688 61.46875 C 70.269531 61.683594 70.441406 61.941406 70.613281 62.195312 C 72.027344 64.335938 72.839844 66.734375 72.96875 69.304688 C 72.96875 69.859375 73.054688 70.375 73.394531 70.847656 C 73.824219 71.402344 74.378906 71.660156 75.066406 71.703125 C 75.449219 71.703125 75.835938 71.703125 76.222656 71.703125 C 76.648438 71.703125 76.992188 71.917969 77.035156 72.34375 C 77.035156 72.816406 76.734375 73.03125 76.351562 73.15625 C 76.007812 73.242188 75.664062 73.285156 75.535156 73.328125 Z M 75.492188 73.328125 " fill-opacity="1" fill-rule="nonzero"/><path fill="#013927" d="M 100.671875 41.128906 C 100.972656 40.789062 101.140625 40.617188 101.269531 40.488281 C 102.46875 39.375 103.96875 39.632812 104.695312 41.085938 C 105.253906 42.199219 105.167969 43.398438 104.695312 44.511719 C 104.652344 44.640625 104.523438 44.769531 104.4375 44.898438 C 104.140625 45.199219 103.839844 45.367188 103.410156 45.113281 C 103.070312 44.898438 103.027344 44.554688 103.15625 44.210938 C 103.238281 43.914062 103.367188 43.65625 103.453125 43.355469 C 103.496094 43.058594 103.496094 42.757812 103.453125 42.457031 C 103.453125 42.070312 103.324219 41.644531 102.941406 41.515625 C 102.46875 41.34375 102.253906 41.773438 102.042969 42.070312 C 101.785156 42.414062 101.613281 42.800781 101.355469 43.140625 C 100.84375 43.785156 100.15625 43.742188 99.773438 43.058594 C 98.914062 41.515625 98.660156 39.800781 98.957031 38.046875 C 99 37.789062 99.171875 37.53125 99.34375 37.363281 C 99.601562 37.0625 99.941406 36.804688 100.328125 37.019531 C 100.757812 37.234375 100.714844 37.617188 100.542969 38.003906 C 100.113281 39.03125 100.242188 40.015625 100.628906 41.171875 Z M 100.671875 41.128906 " fill-opacity="1" fill-rule="nonzero"/><path fill="#013927" d="M 67.445312 55.386719 C 66.929688 55.386719 66.460938 55.300781 66.417969 54.789062 C 66.375 54.1875 66.886719 54.0625 67.359375 53.976562 C 69.84375 53.503906 71.941406 52.304688 73.867188 50.765625 C 74.296875 50.421875 74.679688 50.035156 75.066406 49.695312 C 75.28125 49.523438 75.449219 49.351562 75.75 49.308594 C 76.308594 49.222656 76.734375 49.652344 76.5625 50.207031 C 76.480469 50.464844 76.308594 50.679688 76.09375 50.847656 C 73.738281 52.949219 71.167969 54.617188 68.042969 55.300781 C 67.828125 55.34375 67.574219 55.386719 67.445312 55.429688 Z M 67.445312 55.386719 " fill-opacity="1" fill-rule="nonzero"/><path fill="#013927" d="M 73.4375 60.953125 C 73.011719 60.953125 72.796875 60.867188 72.667969 60.570312 C 72.539062 60.269531 72.667969 60.054688 72.882812 59.839844 C 73.011719 59.753906 73.140625 59.671875 73.265625 59.585938 C 75.066406 58.472656 76.4375 56.972656 77.507812 55.132812 C 77.632812 54.917969 77.71875 54.746094 77.847656 54.53125 C 78.105469 54.148438 78.40625 53.761719 78.960938 54.019531 C 79.390625 54.1875 79.433594 54.660156 79.132812 55.34375 C 79.089844 55.472656 79.003906 55.601562 78.917969 55.730469 C 77.804688 57.570312 76.4375 59.113281 74.679688 60.355469 C 74.253906 60.65625 73.867188 60.910156 73.4375 60.910156 Z M 73.4375 60.953125 " fill-opacity="1" fill-rule="nonzero"/><path fill="#013927" d="M 87.613281 70.460938 C 87.527344 71.015625 87.097656 71.1875 86.667969 71.359375 C 85.171875 72 83.886719 72.988281 82.773438 74.1875 C 82.472656 74.484375 82.257812 74.828125 81.960938 75.171875 C 81.789062 75.382812 81.617188 75.554688 81.402344 75.726562 C 81.1875 75.898438 80.890625 75.941406 80.675781 75.726562 C 80.417969 75.554688 80.332031 75.300781 80.460938 75 C 80.546875 74.742188 80.675781 74.484375 80.847656 74.269531 C 82.171875 72.515625 83.800781 71.058594 85.769531 70.03125 C 86.113281 69.859375 86.457031 69.691406 86.839844 69.691406 C 87.3125 69.691406 87.570312 69.902344 87.613281 70.375 Z M 87.613281 70.460938 " fill-opacity="1" fill-rule="nonzero"/></svg>