<svg xmlns="http://www.w3.org/2000/svg" xmlns:xlink="http://www.w3.org/1999/xlink" width="40" zoomAndPan="magnify" viewBox="0 0 30 30.000001" height="40" preserveAspectRatio="xMidYMid meet" version="1.0"><defs><clipPath id="0cafa14048"><path d="M 2.140625 19 L 27 19 L 27 28.378906 L 2.140625 28.378906 Z M 2.140625 19 " clip-rule="nonzero"/></clipPath><clipPath id="c7d10f9543"><path d="M 12 0.796875 L 17 0.796875 L 17 6 L 12 6 Z M 12 0.796875 " clip-rule="nonzero"/></clipPath></defs><g clip-path="url(#0cafa14048)"><path fill="#004225" d="M 23.410156 28.230469 L 5.285156 28.230469 C 5.148438 28.230469 5.027344 28.144531 4.980469 28.015625 L 2.21875 20.25 C 2.144531 20.042969 2.300781 19.820312 2.523438 19.820312 L 26.171875 19.820312 C 26.394531 19.820312 26.550781 20.039062 26.476562 20.25 L 23.710938 28.015625 C 23.667969 28.144531 23.546875 28.230469 23.410156 28.230469 Z M 8.121094 22.996094 C 7.0625 22.699219 7.167969 20.921875 8.445312 20.921875 C 9.71875 20.921875 9.828125 22.699219 8.765625 22.996094 L 8.765625 23.492188 L 9.492188 23.492188 C 9.914062 23.492188 9.914062 24.136719 9.492188 24.136719 L 8.765625 24.136719 L 8.765625 26.472656 C 9.972656 26.207031 9.707031 25.109375 10.285156 25.320312 C 10.964844 25.570312 9.84375 27.148438 8.445312 27.148438 C 7.042969 27.148438 5.921875 25.570312 6.605469 25.320312 C 7.179688 25.109375 6.914062 26.207031 8.121094 26.472656 L 8.121094 24.136719 L 7.398438 24.136719 C 6.972656 24.136719 6.972656 23.492188 7.398438 23.492188 L 8.121094 23.492188 Z M 8.445312 21.566406 C 7.898438 21.566406 7.898438 22.394531 8.445312 22.394531 C 8.992188 22.394531 8.988281 21.566406 8.445312 21.566406 Z M 13.371094 24.796875 C 11.664062 24.796875 11.664062 22.203125 13.371094 22.203125 C 15.078125 22.203125 15.078125 24.796875 13.371094 24.796875 Z M 13.371094 22.847656 C 12.507812 22.847656 12.511719 24.15625 13.371094 24.15625 C 14.234375 24.15625 14.234375 22.847656 13.371094 22.847656 Z M 17.6875 24.796875 C 15.976562 24.796875 15.976562 22.203125 17.6875 22.203125 C 19.394531 22.203125 19.394531 24.796875 17.6875 24.796875 Z M 17.6875 22.847656 C 16.824219 22.847656 16.824219 24.15625 17.6875 24.15625 C 18.546875 24.15625 18.546875 22.847656 17.6875 22.847656 Z M 22 24.796875 C 20.292969 24.796875 20.292969 22.203125 22 22.203125 C 23.710938 22.203125 23.710938 24.796875 22 24.796875 Z M 22 22.847656 C 21.140625 22.847656 21.140625 24.15625 22 24.15625 C 22.863281 24.15625 22.863281 22.847656 22 22.847656 Z M 21.386719 26.296875 L 13.984375 26.296875 C 13.5625 26.296875 13.5625 25.652344 13.984375 25.652344 L 21.386719 25.652344 C 21.808594 25.652344 21.808594 26.296875 21.386719 26.296875 Z M 21.386719 26.296875 " fill-opacity="1" fill-rule="evenodd"/></g><path fill="#004225" d="M 14.347656 20.730469 C 14.023438 20.730469 13.757812 20.464844 13.757812 20.140625 L 13.757812 4.800781 C 13.757812 4.023438 14.9375 4.023438 14.9375 4.800781 L 14.9375 20.140625 C 14.9375 20.46875 14.671875 20.730469 14.347656 20.730469 Z M 14.347656 20.730469 " fill-opacity="1" fill-rule="evenodd"/><g clip-path="url(#c7d10f9543)"><path fill="#004225" d="M 14.347656 5.121094 C 13.15625 5.121094 12.1875 4.152344 12.1875 2.960938 C 12.1875 1.765625 13.15625 0.796875 14.347656 0.796875 C 15.539062 0.796875 16.507812 1.765625 16.507812 2.960938 C 16.507812 4.152344 15.539062 5.121094 14.347656 5.121094 Z M 14.347656 5.121094 " fill-opacity="1" fill-rule="evenodd"/></g><path fill="#004225" d="M 22.851562 20.464844 L 15.703125 20.464844 C 15.421875 20.464844 15.273438 20.121094 15.472656 19.917969 C 15.515625 19.875 19.667969 15.375 15.691406 3.882812 C 15.621094 3.679688 15.769531 3.464844 15.980469 3.457031 C 15.664062 3.222656 15.972656 2.730469 16.320312 2.914062 C 19.046875 4.351562 27.851562 9.566406 26.660156 16.261719 C 26.628906 16.40625 25.921875 19.515625 22.949219 20.449219 C 22.917969 20.457031 22.886719 20.464844 22.851562 20.464844 Z M 22.851562 20.464844 " fill-opacity="1" fill-rule="evenodd"/><path fill="#004225" d="M 11.933594 18.46875 L 5.964844 18.46875 C 5.722656 18.46875 5.566406 18.214844 5.675781 18 L 11.648438 6.410156 C 11.800781 6.113281 12.253906 6.222656 12.253906 6.558594 L 12.253906 18.148438 C 12.253906 18.324219 12.113281 18.46875 11.933594 18.46875 Z M 11.933594 18.46875 " fill-opacity="1" fill-rule="evenodd"/></svg>