<svg xmlns="http://www.w3.org/2000/svg" xmlns:xlink="http://www.w3.org/1999/xlink" width="50" zoomAndPan="magnify" viewBox="0 0 37.5 30.000001" height="40" preserveAspectRatio="xMidYMid meet" version="1.0"><defs><clipPath id="206a721a18"><path d="M 0.363281 1.578125 L 13 1.578125 L 13 27.707031 L 0.363281 27.707031 Z M 0.363281 1.578125 " clip-rule="nonzero"/></clipPath><clipPath id="35862c230d"><path d="M 12 1.578125 L 26 1.578125 L 26 27.707031 L 12 27.707031 Z M 12 1.578125 " clip-rule="nonzero"/></clipPath><clipPath id="9e4024ca2c"><path d="M 25 1.578125 L 36.652344 1.578125 L 36.652344 27.707031 L 25 27.707031 Z M 25 1.578125 " clip-rule="nonzero"/></clipPath></defs><g clip-path="url(#206a721a18)"><path fill="#009246" d="M -0.886719 1.578125 L 12.148438 1.578125 L 12.148438 27.707031 L -0.886719 27.707031 Z M -0.886719 1.578125 " fill-opacity="1" fill-rule="nonzero"/></g><g clip-path="url(#35862c230d)"><path fill="#ffffff" d="M 12.148438 1.578125 L 25.183594 1.578125 L 25.183594 27.707031 L 12.148438 27.707031 Z M 12.148438 1.578125 " fill-opacity="1" fill-rule="nonzero"/></g><g clip-path="url(#9e4024ca2c)"><path fill="#ce2b37" d="M 25.183594 1.578125 L 38.21875 1.578125 L 38.21875 27.707031 L 25.183594 27.707031 Z M 25.183594 1.578125 " fill-opacity="1" fill-rule="nonzero"/></g></svg>