<svg xmlns="http://www.w3.org/2000/svg" xmlns:xlink="http://www.w3.org/1999/xlink" width="50" zoomAndPan="magnify" viewBox="0 0 37.5 30.000001" height="40" preserveAspectRatio="xMidYMid meet" version="1.0"><defs><clipPath id="48a09dc58c"><path d="M 0.363281 19 L 36.652344 19 L 36.652344 29 L 0.363281 29 Z M 0.363281 19 " clip-rule="nonzero"/></clipPath><clipPath id="4e7ff4bccb"><path d="M 0.363281 9 L 36.652344 9 L 36.652344 20 L 0.363281 20 Z M 0.363281 9 " clip-rule="nonzero"/></clipPath><clipPath id="a9fa155bf8"><path d="M 0.363281 0 L 36.652344 0 L 36.652344 10 L 0.363281 10 Z M 0.363281 0 " clip-rule="nonzero"/></clipPath></defs><g clip-path="url(#48a09dc58c)"><path fill="#100f0d" d="M 40.40625 19.308594 L 40.40625 28.933594 L -3.144531 28.933594 L -3.144531 19.308594 L 40.40625 19.308594 " fill-opacity="1" fill-rule="nonzero"/></g><g clip-path="url(#4e7ff4bccb)"><path fill="#ffffff" d="M 40.40625 9.683594 L 40.40625 19.308594 L -3.144531 19.308594 L -3.144531 9.683594 L 40.40625 9.683594 " fill-opacity="1" fill-rule="nonzero"/></g><g clip-path="url(#a9fa155bf8)"><path fill="#d01e27" d="M 40.40625 0.0546875 L 40.40625 9.683594 L -3.144531 9.683594 L -3.144531 0.0546875 L 40.40625 0.0546875 " fill-opacity="1" fill-rule="nonzero"/></g><path fill="#b9901c" d="M 19.222656 10.324219 C 19.128906 10.074219 18.898438 10.085938 18.78125 10.109375 C 18.660156 10.132812 18.675781 10.230469 18.597656 10.230469 C 18.542969 10.230469 18.515625 10.191406 18.503906 10.167969 C 18.496094 10.15625 18.484375 10.152344 18.476562 10.152344 C 18.414062 10.152344 18.347656 10.101562 18.347656 10.101562 C 18.1875 10 18.125 9.914062 17.964844 9.914062 C 17.855469 9.914062 17.8125 9.972656 17.792969 10.035156 C 17.785156 10.074219 17.832031 10.101562 17.859375 10.078125 C 17.875 10.066406 17.890625 10.058594 17.902344 10.050781 C 17.9375 10.027344 17.984375 10.023438 18.023438 10.035156 C 18.328125 10.136719 18.464844 10.441406 18.464844 10.441406 C 18.332031 10.390625 18.257812 10.441406 18.214844 10.503906 C 18.136719 10.125 17.863281 10.117188 17.753906 10.242188 C 17.753906 10.242188 17.597656 9.878906 18.011719 9.84375 C 18.011719 9.84375 18.226562 9.820312 18.320312 9.917969 C 18.320312 9.917969 18.296875 9.761719 18.601562 9.824219 C 18.878906 9.878906 19.15625 9.949219 19.222656 10.324219 " fill-opacity="1" fill-rule="nonzero"/><path fill="#b9901c" d="M 18.476562 10.117188 C 18.5 10.117188 18.519531 10.128906 18.53125 10.152344 C 18.546875 10.183594 18.570312 10.199219 18.597656 10.199219 C 18.617188 10.199219 18.621094 10.1875 18.640625 10.164062 C 18.664062 10.132812 18.699219 10.09375 18.773438 10.078125 C 18.847656 10.0625 19 10.046875 19.125 10.132812 C 19.019531 9.957031 18.828125 9.902344 18.597656 9.855469 C 18.449219 9.824219 18.390625 9.851562 18.371094 9.871094 C 18.351562 9.886719 18.355469 9.910156 18.355469 9.910156 L 18.367188 10.007812 L 18.296875 9.9375 C 18.230469 9.871094 18.070312 9.871094 18.015625 9.875 C 18 9.875 17.988281 9.878906 17.976562 9.878906 C 18.097656 9.882812 18.171875 9.9375 18.257812 10 C 18.292969 10.023438 18.324219 10.050781 18.367188 10.074219 C 18.382812 10.085938 18.4375 10.117188 18.472656 10.117188 C 18.472656 10.117188 18.476562 10.117188 18.476562 10.117188 Z M 17.917969 10.136719 C 17.9375 10.136719 17.960938 10.140625 17.980469 10.144531 C 18.050781 10.164062 18.171875 10.226562 18.234375 10.433594 C 18.269531 10.40625 18.324219 10.382812 18.398438 10.390625 C 18.339844 10.300781 18.214844 10.136719 18.011719 10.066406 C 17.980469 10.058594 17.949219 10.0625 17.921875 10.078125 C 17.910156 10.085938 17.894531 10.09375 17.882812 10.101562 C 17.855469 10.125 17.820312 10.125 17.792969 10.105469 C 17.777344 10.09375 17.765625 10.078125 17.761719 10.058594 C 17.753906 10.105469 17.761719 10.152344 17.769531 10.183594 C 17.8125 10.152344 17.863281 10.136719 17.917969 10.136719 Z M 18.199219 10.589844 L 18.183594 10.511719 C 18.148438 10.34375 18.070312 10.238281 17.964844 10.210938 C 17.898438 10.191406 17.824219 10.214844 17.78125 10.265625 L 17.746094 10.304688 L 17.726562 10.257812 C 17.722656 10.25 17.648438 10.082031 17.726562 9.949219 C 17.777344 9.867188 17.871094 9.820312 18.007812 9.808594 C 18.015625 9.808594 18.1875 9.792969 18.296875 9.859375 C 18.304688 9.847656 18.3125 9.835938 18.324219 9.820312 C 18.375 9.773438 18.472656 9.761719 18.609375 9.792969 C 18.867188 9.84375 19.183594 9.90625 19.257812 10.316406 L 19.191406 10.335938 C 19.109375 10.113281 18.902344 10.117188 18.785156 10.140625 C 18.734375 10.152344 18.714844 10.175781 18.695312 10.203125 C 18.675781 10.230469 18.648438 10.265625 18.597656 10.265625 C 18.542969 10.265625 18.496094 10.234375 18.472656 10.179688 C 18.40625 10.1875 18.335938 10.136719 18.328125 10.128906 C 18.289062 10.105469 18.253906 10.078125 18.21875 10.054688 C 18.132812 9.988281 18.070312 9.949219 17.964844 9.949219 C 17.890625 9.949219 17.84375 9.976562 17.828125 10.042969 C 17.824219 10.046875 17.828125 10.050781 17.832031 10.050781 C 17.832031 10.054688 17.835938 10.054688 17.839844 10.050781 C 17.855469 10.039062 17.871094 10.03125 17.886719 10.023438 C 17.929688 9.996094 17.984375 9.988281 18.03125 10.003906 C 18.347656 10.109375 18.488281 10.417969 18.492188 10.429688 L 18.527344 10.503906 L 18.453125 10.472656 C 18.359375 10.4375 18.289062 10.453125 18.242188 10.523438 L 18.199219 10.589844 " fill-opacity="1" fill-rule="nonzero"/><path fill="#ffffff" d="M 18.625 10.0625 C 18.625 10.09375 18.597656 10.121094 18.566406 10.121094 C 18.535156 10.121094 18.507812 10.09375 18.507812 10.0625 C 18.507812 10.03125 18.535156 10.003906 18.566406 10.003906 C 18.597656 10.003906 18.625 10.03125 18.625 10.0625 " fill-opacity="1" fill-rule="nonzero"/><path fill="#ffffff" d="M 22.128906 17.761719 C 22.128906 17.820312 22.0625 17.855469 22.019531 17.8125 L 18.632812 14.726562 L 15.246094 17.8125 C 15.203125 17.855469 15.132812 17.820312 15.136719 17.761719 L 15.394531 12.039062 C 15.417969 11.523438 15.789062 11.226562 16.421875 11.53125 C 17.210938 11.902344 17.902344 12.132812 18.632812 11.765625 C 19.363281 12.132812 20.050781 11.902344 20.839844 11.53125 C 21.476562 11.226562 21.847656 11.523438 21.871094 12.039062 L 22.128906 17.761719 " fill-opacity="1" fill-rule="nonzero"/><path fill="#b9901c" d="M 18.632812 14.691406 C 18.640625 14.691406 18.648438 14.695312 18.652344 14.699219 L 22.039062 17.789062 C 22.054688 17.804688 22.070312 17.796875 22.078125 17.792969 C 22.082031 17.792969 22.097656 17.785156 22.09375 17.765625 L 21.835938 12.039062 C 21.824219 11.792969 21.730469 11.601562 21.574219 11.507812 C 21.394531 11.402344 21.144531 11.417969 20.851562 11.558594 C 20.152344 11.890625 19.40625 12.183594 18.632812 11.800781 C 17.855469 12.183594 17.109375 11.890625 16.410156 11.558594 C 16.117188 11.417969 15.867188 11.402344 15.691406 11.507812 C 15.53125 11.601562 15.4375 11.792969 15.425781 12.039062 L 15.167969 17.765625 C 15.167969 17.785156 15.183594 17.792969 15.1875 17.792969 C 15.191406 17.796875 15.207031 17.804688 15.222656 17.789062 L 18.609375 14.699219 C 18.617188 14.695312 18.621094 14.691406 18.632812 14.691406 Z M 22.0625 17.863281 C 22.039062 17.863281 22.015625 17.855469 21.996094 17.839844 L 18.632812 14.769531 L 15.269531 17.839844 C 15.238281 17.867188 15.195312 17.871094 15.160156 17.855469 C 15.121094 17.835938 15.101562 17.800781 15.101562 17.761719 L 15.359375 12.035156 C 15.371094 11.765625 15.476562 11.558594 15.65625 11.453125 C 15.792969 11.367188 16.042969 11.3125 16.4375 11.5 C 17.300781 11.910156 17.933594 12.078125 18.617188 11.734375 C 18.625 11.730469 18.636719 11.730469 18.648438 11.734375 C 19.328125 12.078125 19.960938 11.910156 20.824219 11.5 C 21.21875 11.308594 21.46875 11.367188 21.605469 11.453125 C 21.785156 11.558594 21.890625 11.765625 21.902344 12.035156 L 22.160156 17.761719 C 22.164062 17.800781 22.140625 17.835938 22.105469 17.855469 C 22.089844 17.859375 22.078125 17.863281 22.0625 17.863281 " fill-opacity="1" fill-rule="nonzero"/><path fill="#b9901c" d="M 16.726562 12.582031 L 16.566406 16.484375 L 16.25 16.769531 L 16.433594 12.378906 C 16.523438 12.449219 16.621094 12.515625 16.726562 12.582031 " fill-opacity="1" fill-rule="nonzero"/><path fill="#b9901c" d="M 16.277344 12.265625 L 16.085938 16.917969 L 15.6875 17.28125 L 15.910156 11.945312 C 15.996094 12.023438 16.121094 12.136719 16.277344 12.265625 " fill-opacity="1" fill-rule="nonzero"/><path fill="#b9901c" d="M 17.195312 12.832031 L 17.054688 16.164062 L 16.722656 16.464844 L 16.558594 16.613281 L 16.242188 16.902344 L 16.078125 17.054688 L 15.683594 17.414062 L 15.578125 17.511719 L 15.242188 17.816406 C 15.195312 17.855469 15.128906 17.824219 15.128906 17.765625 L 15.394531 12.039062 L 15.800781 11.835938 C 15.800781 11.835938 15.804688 11.839844 15.816406 11.847656 L 15.582031 17.378906 L 15.6875 17.28125 L 16.085938 16.917969 L 16.25 16.769531 L 16.566406 16.484375 L 16.726562 16.332031 L 16.878906 12.671875 C 16.980469 12.730469 17.085938 12.785156 17.195312 12.832031 " fill-opacity="1" fill-rule="nonzero"/><path fill="#b9901c" d="M 17.347656 12.890625 L 17.21875 16.015625 L 18.632812 14.726562 L 18.632812 12.785156 C 18.238281 13.070312 17.777344 13.042969 17.347656 12.890625 " fill-opacity="1" fill-rule="nonzero"/><path fill="#b9901c" d="M 20.535156 12.582031 L 20.699219 16.484375 L 21.015625 16.769531 L 20.832031 12.378906 C 20.742188 12.449219 20.640625 12.515625 20.535156 12.582031 " fill-opacity="1" fill-rule="nonzero"/><path fill="#b9901c" d="M 20.984375 12.265625 L 21.179688 16.917969 L 21.574219 17.28125 L 21.351562 11.945312 C 21.269531 12.023438 21.140625 12.136719 20.984375 12.265625 " fill-opacity="1" fill-rule="nonzero"/><path fill="#b9901c" d="M 20.070312 12.832031 L 20.207031 16.164062 L 20.542969 16.464844 L 20.707031 16.613281 L 21.023438 16.902344 L 21.183594 17.054688 L 21.582031 17.414062 L 21.6875 17.511719 L 22.023438 17.816406 C 22.066406 17.855469 22.136719 17.824219 22.132812 17.765625 L 21.871094 12.039062 L 21.460938 11.835938 C 21.460938 11.835938 21.457031 11.839844 21.449219 11.847656 L 21.679688 17.378906 L 21.574219 17.28125 L 21.179688 16.917969 L 21.015625 16.769531 L 20.699219 16.484375 L 20.535156 16.332031 L 20.382812 12.671875 C 20.28125 12.730469 20.175781 12.785156 20.070312 12.832031 " fill-opacity="1" fill-rule="nonzero"/><path fill="#b9901c" d="M 19.914062 12.890625 L 20.046875 16.015625 L 18.632812 14.726562 L 18.632812 12.785156 C 19.027344 13.070312 19.484375 13.042969 19.914062 12.890625 " fill-opacity="1" fill-rule="nonzero"/><path fill="#b9901c" d="M 18.820312 17.496094 L 18.632812 17.722656 L 18.445312 17.496094 L 18.558594 15.527344 L 18.632812 15.511719 L 18.703125 15.527344 L 18.820312 17.496094 " fill-opacity="1" fill-rule="nonzero"/><path fill="#b9901c" d="M 18.46875 17.488281 L 18.632812 17.683594 L 18.792969 17.488281 L 18.679688 15.546875 L 18.632812 15.539062 L 18.582031 15.546875 Z M 18.632812 17.761719 L 18.417969 17.503906 L 18.535156 15.503906 L 18.632812 15.488281 L 18.726562 15.503906 L 18.84375 17.503906 L 18.632812 17.761719 " fill-opacity="1" fill-rule="nonzero"/><path fill="#b9901c" d="M 17.996094 17.371094 L 18.148438 17.621094 L 18.367188 17.425781 L 18.550781 15.460938 L 18.484375 15.4375 L 18.410156 15.4375 L 17.996094 17.371094 " fill-opacity="1" fill-rule="nonzero"/><path fill="#b9901c" d="M 18.023438 17.363281 L 18.152344 17.582031 L 18.34375 17.414062 L 18.523438 15.480469 L 18.476562 15.460938 L 18.429688 15.464844 Z M 18.140625 17.660156 L 17.96875 17.371094 L 17.96875 17.363281 L 18.390625 15.414062 L 18.488281 15.410156 L 18.578125 15.445312 L 18.390625 17.4375 L 18.140625 17.660156 " fill-opacity="1" fill-rule="nonzero"/><path fill="#b9901c" d="M 19.269531 17.371094 L 19.117188 17.621094 L 18.898438 17.425781 L 18.710938 15.460938 L 18.78125 15.4375 L 18.855469 15.4375 L 19.269531 17.371094 " fill-opacity="1" fill-rule="nonzero"/><path fill="#b9901c" d="M 18.921875 17.414062 L 19.109375 17.582031 L 19.242188 17.363281 L 18.832031 15.464844 L 18.785156 15.460938 L 18.738281 15.480469 Z M 19.125 17.660156 L 18.875 17.4375 L 18.683594 15.445312 L 18.777344 15.410156 L 18.875 15.414062 L 19.296875 17.371094 L 19.125 17.660156 " fill-opacity="1" fill-rule="nonzero"/><path fill="#ffffff" d="M 19.195312 12.035156 C 19.214844 12.078125 19.234375 12.121094 19.253906 12.15625 C 19.265625 12.171875 19.253906 12.191406 19.234375 12.1875 C 19.148438 12.167969 18.96875 12.117188 18.847656 11.996094 C 18.835938 11.988281 18.820312 11.988281 18.8125 12.003906 C 18.773438 12.101562 18.679688 12.183594 18.644531 12.214844 C 18.636719 12.21875 18.625 12.21875 18.617188 12.214844 C 18.582031 12.183594 18.488281 12.101562 18.449219 12.003906 C 18.445312 11.988281 18.425781 11.988281 18.417969 11.996094 C 18.292969 12.117188 18.113281 12.167969 18.027344 12.1875 C 18.011719 12.191406 17.996094 12.171875 18.007812 12.15625 C 18.027344 12.125 18.046875 12.089844 18.0625 12.046875 C 18.070312 12.027344 18.050781 12.011719 18.035156 12.019531 C 17.914062 12.078125 17.757812 12.117188 17.667969 12.132812 C 17.648438 12.136719 17.636719 12.113281 17.648438 12.101562 C 17.792969 11.960938 18.1875 11.527344 18.234375 10.855469 C 18.242188 10.71875 18.238281 10.605469 18.21875 10.511719 C 18.214844 10.507812 18.21875 10.5 18.222656 10.496094 C 18.257812 10.445312 18.320312 10.40625 18.417969 10.429688 C 18.4375 10.433594 18.449219 10.414062 18.441406 10.398438 C 18.390625 10.3125 18.257812 10.113281 18.023438 10.035156 C 17.984375 10.023438 17.9375 10.027344 17.902344 10.050781 C 17.882812 10.0625 17.859375 10.078125 17.839844 10.09375 C 17.820312 10.113281 17.785156 10.097656 17.789062 10.066406 C 17.796875 9.996094 17.832031 9.914062 17.964844 9.914062 C 18.125 9.914062 18.1875 10 18.347656 10.101562 C 18.347656 10.101562 18.414062 10.152344 18.476562 10.152344 C 18.484375 10.152344 18.496094 10.15625 18.503906 10.167969 C 18.515625 10.191406 18.542969 10.230469 18.597656 10.230469 C 18.675781 10.230469 18.660156 10.132812 18.78125 10.109375 C 18.898438 10.085938 19.128906 10.074219 19.222656 10.320312 C 19.222656 10.324219 19.226562 10.324219 19.226562 10.328125 C 19.230469 10.367188 19.234375 10.40625 19.238281 10.453125 C 19.257812 10.925781 19.253906 11.71875 19.578125 12.101562 C 19.59375 12.117188 19.578125 12.140625 19.558594 12.136719 C 19.484375 12.121094 19.347656 12.085938 19.226562 12.011719 C 19.207031 12 19.1875 12.015625 19.195312 12.035156 " fill-opacity="1" fill-rule="nonzero"/><path fill="#b9901c" d="M 18.84375 12.015625 Z M 19.226562 12.023438 Z M 18.429688 11.957031 C 18.433594 11.957031 18.4375 11.957031 18.441406 11.960938 C 18.460938 11.960938 18.476562 11.976562 18.480469 11.988281 C 18.515625 12.074219 18.59375 12.148438 18.632812 12.179688 C 18.667969 12.152344 18.75 12.074219 18.78125 11.988281 C 18.789062 11.976562 18.804688 11.960938 18.820312 11.957031 C 18.835938 11.953125 18.855469 11.960938 18.871094 11.972656 C 18.976562 12.078125 19.128906 12.128906 19.214844 12.148438 C 19.195312 12.117188 19.179688 12.085938 19.164062 12.046875 C 19.15625 12.027344 19.164062 12 19.179688 11.988281 C 19.199219 11.972656 19.222656 11.96875 19.242188 11.980469 C 19.34375 12.042969 19.453125 12.078125 19.53125 12.09375 C 19.253906 11.734375 19.230469 11.089844 19.210938 10.609375 C 19.210938 10.554688 19.207031 10.503906 19.203125 10.453125 C 19.203125 10.410156 19.199219 10.367188 19.191406 10.332031 C 19.105469 10.113281 18.898438 10.117188 18.785156 10.140625 C 18.734375 10.152344 18.714844 10.175781 18.695312 10.203125 C 18.675781 10.230469 18.648438 10.265625 18.597656 10.265625 C 18.542969 10.265625 18.496094 10.234375 18.472656 10.179688 C 18.40625 10.1875 18.335938 10.136719 18.328125 10.128906 C 18.289062 10.105469 18.253906 10.078125 18.21875 10.054688 C 18.132812 9.988281 18.070312 9.949219 17.964844 9.949219 C 17.878906 9.949219 17.832031 9.988281 17.820312 10.074219 C 17.835938 10.054688 17.859375 10.035156 17.886719 10.023438 C 17.929688 9.996094 17.984375 9.988281 18.03125 10.003906 C 18.28125 10.085938 18.421875 10.296875 18.46875 10.382812 C 18.480469 10.402344 18.480469 10.425781 18.464844 10.441406 C 18.453125 10.457031 18.429688 10.464844 18.410156 10.460938 C 18.34375 10.445312 18.289062 10.460938 18.253906 10.511719 C 18.269531 10.609375 18.277344 10.726562 18.265625 10.859375 C 18.222656 11.488281 17.882812 11.914062 17.703125 12.09375 C 17.785156 12.074219 17.917969 12.042969 18.019531 11.988281 C 18.042969 11.980469 18.066406 11.984375 18.082031 12 C 18.097656 12.015625 18.101562 12.039062 18.09375 12.058594 C 18.082031 12.089844 18.066406 12.121094 18.050781 12.148438 C 18.136719 12.128906 18.289062 12.078125 18.394531 11.972656 C 18.402344 11.960938 18.417969 11.957031 18.429688 11.957031 Z M 18.632812 12.253906 C 18.621094 12.253906 18.609375 12.246094 18.597656 12.238281 C 18.558594 12.207031 18.472656 12.128906 18.425781 12.035156 C 18.300781 12.148438 18.128906 12.199219 18.035156 12.21875 C 18.015625 12.226562 17.992188 12.214844 17.980469 12.199219 C 17.96875 12.183594 17.964844 12.160156 17.976562 12.140625 C 17.992188 12.117188 18.003906 12.09375 18.019531 12.066406 C 17.890625 12.121094 17.738281 12.152344 17.671875 12.164062 C 17.652344 12.171875 17.628906 12.160156 17.617188 12.140625 C 17.605469 12.117188 17.609375 12.09375 17.628906 12.078125 C 17.75 11.957031 18.152344 11.519531 18.199219 10.855469 C 18.210938 10.726562 18.203125 10.613281 18.1875 10.519531 C 18.183594 10.503906 18.1875 10.492188 18.195312 10.476562 C 18.226562 10.429688 18.292969 10.378906 18.398438 10.390625 C 18.34375 10.300781 18.214844 10.136719 18.011719 10.066406 C 17.980469 10.058594 17.949219 10.0625 17.921875 10.078125 C 17.898438 10.089844 17.878906 10.105469 17.863281 10.121094 C 17.84375 10.136719 17.816406 10.140625 17.792969 10.128906 C 17.765625 10.117188 17.753906 10.089844 17.753906 10.0625 C 17.769531 9.945312 17.84375 9.878906 17.964844 9.878906 C 18.09375 9.878906 18.167969 9.933594 18.257812 10 C 18.292969 10.023438 18.324219 10.050781 18.367188 10.074219 C 18.382812 10.085938 18.4375 10.117188 18.472656 10.117188 C 18.5 10.117188 18.519531 10.128906 18.53125 10.152344 C 18.546875 10.183594 18.570312 10.199219 18.597656 10.199219 C 18.617188 10.199219 18.621094 10.1875 18.640625 10.164062 C 18.664062 10.132812 18.699219 10.09375 18.773438 10.078125 C 18.882812 10.054688 19.148438 10.03125 19.253906 10.308594 C 19.253906 10.3125 19.257812 10.316406 19.257812 10.320312 C 19.265625 10.359375 19.269531 10.40625 19.269531 10.449219 C 19.273438 10.5 19.277344 10.554688 19.277344 10.609375 C 19.296875 11.089844 19.320312 11.746094 19.605469 12.082031 C 19.621094 12.097656 19.621094 12.121094 19.609375 12.140625 C 19.597656 12.164062 19.574219 12.171875 19.554688 12.167969 C 19.484375 12.152344 19.359375 12.121094 19.242188 12.058594 C 19.253906 12.089844 19.269531 12.117188 19.285156 12.140625 C 19.296875 12.160156 19.296875 12.183594 19.28125 12.199219 C 19.269531 12.214844 19.246094 12.226562 19.226562 12.21875 C 19.136719 12.199219 18.964844 12.148438 18.835938 12.035156 C 18.792969 12.128906 18.703125 12.207031 18.664062 12.238281 C 18.65625 12.246094 18.644531 12.253906 18.632812 12.253906 " fill-opacity="1" fill-rule="nonzero"/><path fill="#b9901c" d="M 19.171875 12.007812 C 19.15625 12.007812 19.144531 11.996094 19.140625 11.984375 C 19 11.59375 18.949219 11.003906 18.945312 10.980469 C 18.945312 10.960938 18.957031 10.945312 18.976562 10.945312 C 18.996094 10.941406 19.011719 10.957031 19.011719 10.972656 C 19.011719 10.980469 19.066406 11.582031 19.203125 11.960938 L 19.203125 11.972656 C 19.203125 11.992188 19.191406 12.007812 19.171875 12.007812 " fill-opacity="1" fill-rule="nonzero"/><path fill="#b9901c" d="M 18.824219 12.003906 C 18.820312 12.003906 18.816406 12.003906 18.816406 12.003906 C 18.796875 12 18.785156 11.980469 18.792969 11.964844 C 18.792969 11.949219 18.796875 11.9375 18.796875 11.921875 C 18.796875 11.773438 18.734375 10.933594 18.734375 10.921875 C 18.734375 10.90625 18.75 10.890625 18.765625 10.886719 C 18.785156 10.886719 18.800781 10.902344 18.800781 10.917969 C 18.804688 10.953125 18.863281 11.773438 18.863281 11.921875 C 18.863281 11.941406 18.859375 11.960938 18.855469 11.980469 C 18.851562 11.996094 18.839844 12.003906 18.824219 12.003906 " fill-opacity="1" fill-rule="nonzero"/><path fill="#b9901c" d="M 18.082031 12.027344 C 18.082031 12.027344 18.074219 12.027344 18.070312 12.027344 C 18.054688 12.019531 18.046875 12 18.054688 11.984375 C 18.195312 11.605469 18.25 10.980469 18.253906 10.972656 C 18.253906 10.957031 18.269531 10.941406 18.289062 10.945312 C 18.304688 10.945312 18.320312 10.960938 18.320312 10.980469 C 18.316406 11.003906 18.261719 11.617188 18.113281 12.003906 C 18.109375 12.019531 18.097656 12.027344 18.082031 12.027344 " fill-opacity="1" fill-rule="nonzero"/><path fill="#b9901c" d="M 18.4375 12.003906 C 18.425781 12.003906 18.410156 11.996094 18.40625 11.980469 C 18.402344 11.960938 18.398438 11.941406 18.398438 11.921875 C 18.398438 11.773438 18.457031 10.953125 18.460938 10.917969 C 18.464844 10.902344 18.480469 10.886719 18.496094 10.886719 C 18.515625 10.890625 18.53125 10.90625 18.527344 10.921875 C 18.527344 10.933594 18.464844 11.773438 18.464844 11.921875 C 18.464844 11.9375 18.46875 11.949219 18.472656 11.964844 C 18.476562 11.980469 18.464844 12 18.449219 12.003906 C 18.445312 12.003906 18.441406 12.003906 18.4375 12.003906 " fill-opacity="1" fill-rule="nonzero"/><path fill="#ffffff" d="M 16.554688 17.78125 L 17.609375 14.125 L 18.632812 14.492188 L 17.847656 18.21875 L 16.554688 17.78125 " fill-opacity="1" fill-rule="nonzero"/><path fill="#b9901c" d="M 16.597656 17.757812 L 17.824219 18.171875 L 18.59375 14.515625 L 17.628906 14.167969 Z M 17.847656 18.25 C 17.84375 18.25 17.839844 18.25 17.835938 18.246094 L 16.546875 17.8125 C 16.527344 17.804688 16.519531 17.789062 16.523438 17.773438 L 17.574219 14.117188 C 17.578125 14.105469 17.582031 14.097656 17.59375 14.09375 C 17.601562 14.089844 17.609375 14.089844 17.621094 14.09375 L 18.644531 14.460938 C 18.660156 14.46875 18.667969 14.484375 18.664062 14.5 L 17.882812 18.222656 C 17.878906 18.234375 17.871094 18.242188 17.863281 18.246094 C 17.859375 18.246094 17.855469 18.25 17.847656 18.25 " fill-opacity="1" fill-rule="nonzero"/><path fill="#b9901c" d="M 17.785156 15.984375 C 17.78125 15.984375 17.777344 15.984375 17.777344 15.984375 C 17.765625 15.980469 17.753906 15.96875 17.753906 15.953125 L 17.574219 14.128906 L 17.640625 14.121094 L 17.8125 15.867188 L 18.488281 15.039062 L 18.539062 15.078125 L 17.8125 15.972656 C 17.804688 15.980469 17.796875 15.984375 17.785156 15.984375 " fill-opacity="1" fill-rule="nonzero"/><path fill="#b9901c" d="M 17.339844 15.734375 C 17.339844 15.734375 17.335938 15.734375 17.332031 15.734375 C 17.320312 15.730469 17.3125 15.726562 17.308594 15.714844 L 17.203125 15.4375 L 17.265625 15.414062 L 17.355469 15.644531 L 18.609375 14.46875 L 18.652344 14.519531 L 17.363281 15.726562 C 17.355469 15.730469 17.347656 15.734375 17.339844 15.734375 " fill-opacity="1" fill-rule="nonzero"/><path fill="#b9901c" d="M 16.722656 17.847656 L 16.667969 17.808594 L 17.132812 17.195312 L 17.390625 16.746094 C 17.398438 16.738281 17.410156 16.730469 17.421875 16.730469 C 17.4375 16.730469 17.445312 16.738281 17.449219 16.75 L 17.613281 17.144531 L 18.214844 16.296875 L 18.007812 15.648438 L 18.074219 15.628906 L 18.28125 16.289062 C 18.285156 16.300781 18.285156 16.308594 18.28125 16.320312 L 17.632812 17.234375 C 17.628906 17.246094 17.617188 17.25 17.605469 17.246094 C 17.59375 17.246094 17.582031 17.238281 17.578125 17.226562 L 17.414062 16.839844 L 17.1875 17.234375 L 16.722656 17.847656 " fill-opacity="1" fill-rule="nonzero"/><path fill="#b9901c" d="M 17.382812 18.023438 L 17.792969 18.164062 L 17.554688 17.464844 L 17.316406 17.792969 Z M 17.847656 18.25 C 17.84375 18.25 17.839844 18.25 17.835938 18.246094 L 17.34375 18.082031 C 17.332031 18.078125 17.324219 18.070312 17.320312 18.058594 L 16.894531 16.5 L 16.960938 16.484375 L 17.292969 17.710938 L 17.535156 17.371094 C 17.542969 17.363281 17.554688 17.359375 17.566406 17.359375 C 17.582031 17.359375 17.589844 17.371094 17.59375 17.382812 L 17.878906 18.207031 C 17.882812 18.21875 17.882812 18.230469 17.871094 18.238281 C 17.867188 18.246094 17.859375 18.25 17.847656 18.25 " fill-opacity="1" fill-rule="nonzero"/><path fill="#b9901c" d="M 17.988281 17.40625 L 17.757812 16.199219 L 17.5 16.511719 C 17.492188 16.523438 17.480469 16.527344 17.46875 16.523438 C 17.453125 16.519531 17.445312 16.511719 17.441406 16.5 L 17.324219 16.121094 L 16.960938 16.484375 L 16.914062 16.433594 L 17.316406 16.035156 C 17.324219 16.027344 17.339844 16.023438 17.347656 16.023438 C 17.359375 16.027344 17.371094 16.035156 17.371094 16.046875 L 17.488281 16.421875 L 17.753906 16.101562 C 17.761719 16.09375 17.773438 16.085938 17.789062 16.089844 C 17.800781 16.09375 17.808594 16.105469 17.8125 16.117188 L 18.050781 17.394531 L 17.988281 17.40625 " fill-opacity="1" fill-rule="nonzero"/><path fill="#ffffff" d="M 20.707031 17.78125 L 19.65625 14.125 L 18.632812 14.492188 L 19.414062 18.21875 L 20.707031 17.78125 " fill-opacity="1" fill-rule="nonzero"/><path fill="#b9901c" d="M 18.671875 14.515625 L 19.441406 18.171875 L 20.667969 17.757812 L 19.632812 14.167969 Z M 19.414062 18.25 C 19.410156 18.25 19.402344 18.246094 19.398438 18.246094 C 19.390625 18.242188 19.386719 18.234375 19.382812 18.222656 L 18.597656 14.5 C 18.597656 14.484375 18.605469 14.46875 18.621094 14.460938 L 19.644531 14.09375 C 19.652344 14.089844 19.664062 14.089844 19.671875 14.09375 C 19.679688 14.097656 19.683594 14.105469 19.6875 14.117188 L 20.738281 17.773438 C 20.742188 17.789062 20.734375 17.804688 20.71875 17.8125 L 19.425781 18.246094 C 19.421875 18.25 19.417969 18.25 19.414062 18.25 " fill-opacity="1" fill-rule="nonzero"/><path fill="#b9901c" d="M 19.480469 15.984375 C 19.46875 15.984375 19.457031 15.980469 19.453125 15.972656 L 18.726562 15.078125 L 18.777344 15.039062 L 19.453125 15.867188 L 19.625 14.121094 L 19.6875 14.128906 L 19.511719 15.953125 C 19.507812 15.96875 19.5 15.980469 19.488281 15.984375 C 19.484375 15.984375 19.480469 15.984375 19.480469 15.984375 " fill-opacity="1" fill-rule="nonzero"/><path fill="#b9901c" d="M 19.921875 15.734375 C 19.914062 15.734375 19.90625 15.730469 19.898438 15.726562 L 18.609375 14.519531 L 18.652344 14.46875 L 19.910156 15.644531 L 20 15.414062 L 20.058594 15.4375 L 19.953125 15.714844 C 19.949219 15.726562 19.941406 15.730469 19.929688 15.734375 C 19.929688 15.734375 19.925781 15.734375 19.921875 15.734375 " fill-opacity="1" fill-rule="nonzero"/><path fill="#b9901c" d="M 20.539062 17.847656 L 20.078125 17.234375 L 19.847656 16.839844 L 19.6875 17.226562 C 19.679688 17.238281 19.671875 17.246094 19.660156 17.246094 C 19.648438 17.25 19.636719 17.246094 19.628906 17.234375 L 18.984375 16.320312 C 18.980469 16.308594 18.976562 16.300781 18.980469 16.289062 L 19.191406 15.628906 L 19.253906 15.648438 L 19.046875 16.296875 L 19.648438 17.144531 L 19.8125 16.75 C 19.816406 16.738281 19.828125 16.730469 19.839844 16.730469 C 19.855469 16.730469 19.867188 16.738281 19.871094 16.746094 L 20.132812 17.199219 L 20.59375 17.808594 L 20.539062 17.847656 " fill-opacity="1" fill-rule="nonzero"/><path fill="#b9901c" d="M 19.710938 17.464844 L 19.46875 18.164062 L 19.882812 18.023438 L 19.945312 17.792969 Z M 19.414062 18.25 C 19.40625 18.25 19.398438 18.246094 19.390625 18.238281 C 19.382812 18.230469 19.378906 18.21875 19.382812 18.207031 L 19.667969 17.382812 C 19.671875 17.371094 19.683594 17.359375 19.695312 17.359375 C 19.707031 17.359375 19.71875 17.363281 19.726562 17.371094 L 19.96875 17.710938 L 20.304688 16.484375 L 20.367188 16.5 L 19.941406 18.058594 C 19.941406 18.070312 19.929688 18.078125 19.921875 18.082031 L 19.425781 18.246094 C 19.421875 18.25 19.417969 18.25 19.414062 18.25 " fill-opacity="1" fill-rule="nonzero"/><path fill="#b9901c" d="M 19.277344 17.40625 L 19.210938 17.394531 L 19.453125 16.117188 C 19.453125 16.105469 19.464844 16.09375 19.476562 16.089844 C 19.488281 16.085938 19.503906 16.09375 19.511719 16.101562 L 19.777344 16.421875 L 19.890625 16.046875 C 19.894531 16.035156 19.902344 16.027344 19.914062 16.023438 C 19.925781 16.023438 19.9375 16.027344 19.945312 16.035156 L 20.351562 16.433594 L 20.304688 16.484375 L 19.9375 16.121094 L 19.820312 16.5 C 19.816406 16.511719 19.808594 16.519531 19.796875 16.523438 C 19.78125 16.523438 19.769531 16.523438 19.765625 16.511719 L 19.503906 16.199219 L 19.277344 17.40625 " fill-opacity="1" fill-rule="nonzero"/><path fill="#ffffff" d="M 18.632812 15.824219 C 17.066406 14.617188 17.121094 12.761719 17.121094 12.761719 C 17.121094 12.761719 17.160156 12.800781 17.332031 12.800781 C 17.570312 12.804688 18.46875 12.597656 18.632812 12.367188 C 18.792969 12.597656 19.691406 12.804688 19.929688 12.800781 C 20.101562 12.800781 20.144531 12.761719 20.144531 12.761719 C 20.144531 12.761719 20.199219 14.617188 18.632812 15.824219 " fill-opacity="1" fill-rule="nonzero"/><path fill="#b9901c" d="M 17.144531 12.796875 C 17.144531 13.0625 17.226562 14.699219 18.632812 15.796875 C 20.039062 14.699219 20.117188 13.0625 20.121094 12.796875 C 20.085938 12.8125 20.03125 12.824219 19.929688 12.824219 C 19.929688 12.824219 19.929688 12.824219 19.925781 12.824219 C 19.699219 12.824219 18.835938 12.632812 18.632812 12.402344 C 18.425781 12.632812 17.566406 12.824219 17.335938 12.824219 C 17.335938 12.824219 17.332031 12.824219 17.332031 12.824219 C 17.234375 12.824219 17.175781 12.8125 17.144531 12.796875 Z M 18.632812 15.851562 L 18.617188 15.839844 C 17.058594 14.640625 17.097656 12.777344 17.097656 12.761719 L 17.097656 12.710938 L 17.136719 12.746094 C 17.136719 12.746094 17.175781 12.777344 17.332031 12.78125 C 17.335938 12.78125 17.335938 12.78125 17.339844 12.78125 C 17.59375 12.78125 18.464844 12.566406 18.613281 12.355469 L 18.632812 12.332031 L 18.648438 12.355469 C 18.800781 12.566406 19.667969 12.78125 19.925781 12.78125 C 19.929688 12.78125 19.929688 12.78125 19.929688 12.78125 C 20.085938 12.777344 20.128906 12.746094 20.128906 12.746094 L 20.164062 12.714844 L 20.164062 12.761719 C 20.164062 12.777344 20.203125 14.640625 18.644531 15.839844 L 18.632812 15.851562 " fill-opacity="1" fill-rule="nonzero"/><path fill="#b9901c" d="M 18.046875 12.777344 C 18.089844 12.765625 18.132812 12.75 18.171875 12.738281 L 18.171875 15.238281 C 18.046875 15.097656 17.933594 14.941406 17.832031 14.78125 C 17.648438 14.484375 17.5 14.160156 17.398438 13.816406 C 17.277344 13.421875 17.246094 13.089844 17.234375 12.910156 C 17.265625 12.910156 17.296875 12.914062 17.332031 12.914062 L 17.335938 12.914062 C 17.480469 12.914062 17.777344 12.855469 18.046875 12.777344 " fill-opacity="1" fill-rule="nonzero"/><path fill="#b9901c" d="M 17.257812 12.933594 C 17.269531 13.105469 17.304688 13.429688 17.417969 13.808594 C 17.519531 14.15625 17.664062 14.476562 17.851562 14.769531 C 17.941406 14.914062 18.042969 15.050781 18.148438 15.179688 L 18.148438 12.769531 C 18.117188 12.777344 18.085938 12.789062 18.054688 12.800781 C 17.78125 12.878906 17.480469 12.9375 17.335938 12.9375 C 17.308594 12.9375 17.28125 12.933594 17.257812 12.933594 Z M 18.191406 15.296875 L 18.15625 15.253906 C 18.03125 15.109375 17.914062 14.957031 17.8125 14.792969 C 17.625 14.496094 17.480469 14.167969 17.375 13.824219 C 17.253906 13.417969 17.222656 13.078125 17.210938 12.910156 L 17.210938 12.882812 L 17.238281 12.886719 C 17.265625 12.886719 17.300781 12.890625 17.332031 12.890625 C 17.476562 12.890625 17.773438 12.835938 18.039062 12.757812 L 18.042969 12.757812 C 18.082031 12.742188 18.125 12.730469 18.164062 12.71875 L 18.191406 12.707031 L 18.191406 15.296875 " fill-opacity="1" fill-rule="nonzero"/><path fill="#b9901c" d="M 20.027344 12.910156 C 20.019531 13.089844 19.984375 13.421875 19.867188 13.816406 C 19.761719 14.160156 19.617188 14.484375 19.433594 14.78125 C 19.332031 14.941406 19.214844 15.097656 19.09375 15.238281 L 19.09375 12.738281 C 19.132812 12.75 19.171875 12.765625 19.214844 12.777344 C 19.484375 12.855469 19.785156 12.914062 19.925781 12.914062 L 19.929688 12.914062 C 19.96875 12.914062 20 12.910156 20.027344 12.910156 " fill-opacity="1" fill-rule="nonzero"/><path fill="#b9901c" d="M 19.113281 12.769531 L 19.113281 15.179688 C 19.222656 15.050781 19.324219 14.914062 19.414062 14.769531 C 19.597656 14.476562 19.742188 14.15625 19.84375 13.808594 C 19.957031 13.429688 19.992188 13.105469 20.003906 12.933594 C 19.980469 12.933594 19.957031 12.9375 19.929688 12.9375 C 19.78125 12.9375 19.480469 12.878906 19.210938 12.800781 C 19.175781 12.789062 19.144531 12.777344 19.113281 12.769531 Z M 19.070312 15.296875 L 19.070312 12.707031 L 19.097656 12.71875 C 19.136719 12.730469 19.179688 12.742188 19.222656 12.757812 C 19.492188 12.835938 19.785156 12.890625 19.925781 12.890625 C 19.964844 12.890625 19.996094 12.886719 20.027344 12.886719 L 20.050781 12.882812 L 20.050781 12.910156 C 20.042969 13.078125 20.007812 13.417969 19.886719 13.824219 C 19.785156 14.167969 19.636719 14.496094 19.453125 14.792969 C 19.347656 14.957031 19.234375 15.109375 19.109375 15.253906 L 19.070312 15.296875 " fill-opacity="1" fill-rule="nonzero"/><path fill="#ffffff" d="M 19.09375 12.738281 L 19.09375 15.238281 C 18.953125 15.398438 18.796875 15.546875 18.632812 15.683594 C 18.464844 15.546875 18.3125 15.398438 18.171875 15.238281 L 18.171875 12.738281 C 18.378906 12.671875 18.53125 12.597656 18.632812 12.523438 C 18.730469 12.597656 18.886719 12.671875 19.09375 12.738281 " fill-opacity="1" fill-rule="nonzero"/><path fill="#b9901c" d="M 18.191406 15.230469 C 18.328125 15.382812 18.476562 15.527344 18.632812 15.65625 C 18.789062 15.523438 18.9375 15.382812 19.070312 15.230469 L 19.070312 12.753906 C 18.875 12.691406 18.730469 12.621094 18.632812 12.550781 C 18.53125 12.621094 18.386719 12.691406 18.191406 12.753906 Z M 18.632812 15.710938 L 18.617188 15.699219 C 18.453125 15.566406 18.292969 15.414062 18.15625 15.253906 L 18.148438 15.246094 L 18.148438 12.722656 L 18.164062 12.71875 C 18.371094 12.648438 18.519531 12.578125 18.617188 12.503906 L 18.632812 12.496094 L 18.644531 12.503906 C 18.742188 12.578125 18.894531 12.648438 19.097656 12.71875 L 19.113281 12.722656 L 19.113281 15.246094 L 19.109375 15.253906 C 18.96875 15.414062 18.8125 15.5625 18.644531 15.699219 L 18.632812 15.710938 " fill-opacity="1" fill-rule="nonzero"/><path fill="#ffffff" d="M 18.382812 17.816406 C 18.382812 17.835938 18.25 18.035156 18.25 18.035156 C 17.925781 18.035156 17.632812 18.019531 17.382812 17.996094 C 17.382812 17.996094 17.382812 17.996094 17.378906 17.996094 C 17.414062 17.898438 17.359375 17.824219 17.316406 17.78125 C 17.316406 17.78125 17.3125 17.777344 17.3125 17.777344 C 17.308594 17.777344 17.308594 17.773438 17.304688 17.773438 C 17.304688 17.769531 17.304688 17.769531 17.300781 17.769531 C 17.300781 17.765625 17.300781 17.765625 17.296875 17.765625 C 17.277344 17.753906 17.265625 17.742188 17.265625 17.742188 C 17.265625 17.742188 17.152344 17.777344 17.121094 17.871094 C 17.117188 17.878906 17.117188 17.886719 17.113281 17.898438 C 17.113281 17.90625 17.113281 17.917969 17.113281 17.925781 C 17.113281 17.929688 17.113281 17.933594 17.113281 17.941406 C 17.113281 17.941406 17.113281 17.941406 17.113281 17.945312 C 17.113281 17.945312 17.113281 17.949219 17.117188 17.953125 C 17.117188 17.953125 17.117188 17.957031 17.117188 17.957031 C 17.117188 17.960938 17.117188 17.960938 17.117188 17.964844 C 16.554688 17.890625 16.246094 17.785156 16.246094 17.785156 C 16.242188 17.769531 16.242188 17.757812 16.238281 17.742188 C 16.230469 17.695312 16.230469 17.648438 16.242188 17.605469 C 16.242188 17.601562 16.242188 17.601562 16.242188 17.601562 C 16.25 17.5625 16.269531 17.53125 16.300781 17.503906 C 16.300781 17.5 16.300781 17.5 16.304688 17.5 C 16.414062 17.410156 16.609375 17.605469 17.308594 17.675781 C 17.730469 17.71875 18.28125 17.707031 18.28125 17.707031 C 18.289062 17.714844 18.367188 17.734375 18.382812 17.816406 " fill-opacity="1" fill-rule="nonzero"/><path fill="#b9901c" d="M 17.421875 17.96875 C 17.6875 17.992188 17.957031 18.003906 18.230469 18.003906 C 18.261719 17.957031 18.335938 17.84375 18.347656 17.816406 C 18.335938 17.769531 18.296875 17.753906 18.277344 17.742188 C 18.277344 17.742188 18.277344 17.742188 18.273438 17.742188 C 18.199219 17.742188 17.695312 17.75 17.304688 17.710938 C 16.9375 17.671875 16.707031 17.601562 16.554688 17.554688 C 16.421875 17.511719 16.363281 17.496094 16.328125 17.523438 C 16.300781 17.550781 16.285156 17.574219 16.277344 17.613281 C 16.265625 17.648438 16.265625 17.691406 16.273438 17.738281 C 16.273438 17.746094 16.273438 17.753906 16.277344 17.757812 C 16.34375 17.78125 16.625 17.863281 17.078125 17.925781 C 17.078125 17.914062 17.082031 17.902344 17.082031 17.890625 C 17.082031 17.882812 17.085938 17.871094 17.089844 17.859375 C 17.125 17.75 17.25 17.714844 17.257812 17.710938 C 17.265625 17.710938 17.277344 17.710938 17.285156 17.714844 C 17.285156 17.714844 17.300781 17.722656 17.316406 17.738281 C 17.324219 17.742188 17.328125 17.746094 17.328125 17.75 C 17.332031 17.753906 17.335938 17.753906 17.339844 17.757812 C 17.40625 17.816406 17.433594 17.890625 17.421875 17.96875 Z M 18.25 18.070312 C 17.953125 18.070312 17.660156 18.054688 17.378906 18.027344 C 17.367188 18.027344 17.355469 18.023438 17.351562 18.011719 C 17.347656 18.003906 17.34375 17.992188 17.347656 17.984375 C 17.375 17.90625 17.335938 17.84375 17.292969 17.804688 L 17.304688 17.773438 L 17.285156 17.796875 L 17.296875 17.765625 L 17.277344 17.789062 C 17.269531 17.785156 17.265625 17.78125 17.261719 17.78125 C 17.234375 17.789062 17.171875 17.820312 17.152344 17.878906 C 17.148438 17.886719 17.148438 17.894531 17.148438 17.902344 C 17.144531 17.910156 17.144531 17.917969 17.144531 17.925781 L 17.144531 17.9375 L 17.121094 17.949219 L 17.132812 17.949219 L 17.140625 17.941406 C 17.144531 17.941406 17.144531 17.945312 17.144531 17.949219 L 17.148438 17.949219 C 17.148438 17.949219 17.148438 17.957031 17.148438 17.957031 C 17.152344 17.964844 17.152344 17.972656 17.148438 17.980469 C 17.140625 17.992188 17.128906 18 17.113281 18 C 16.550781 17.921875 16.25 17.820312 16.234375 17.816406 C 16.222656 17.8125 16.214844 17.804688 16.214844 17.789062 C 16.210938 17.777344 16.207031 17.761719 16.207031 17.75 C 16.195312 17.691406 16.199219 17.640625 16.210938 17.597656 C 16.222656 17.546875 16.246094 17.507812 16.28125 17.476562 C 16.347656 17.421875 16.429688 17.445312 16.578125 17.488281 C 16.722656 17.539062 16.949219 17.605469 17.3125 17.644531 C 17.726562 17.683594 18.277344 17.675781 18.28125 17.675781 C 18.289062 17.675781 18.296875 17.675781 18.300781 17.679688 C 18.332031 17.695312 18.398438 17.726562 18.414062 17.808594 L 18.417969 17.816406 C 18.417969 17.851562 18.277344 18.054688 18.277344 18.058594 C 18.269531 18.066406 18.261719 18.070312 18.25 18.070312 " fill-opacity="1" fill-rule="nonzero"/><path fill="#b9901c" d="M 18.304688 18.03125 C 18.378906 18.082031 18.441406 18.148438 18.476562 18.195312 C 18.515625 18.117188 18.53125 18.050781 18.53125 17.996094 C 18.53125 17.917969 18.492188 17.867188 18.417969 17.835938 C 18.414062 17.910156 18.351562 17.984375 18.304688 18.03125 Z M 18.484375 18.289062 C 18.472656 18.289062 18.460938 18.285156 18.457031 18.273438 C 18.453125 18.273438 18.355469 18.128906 18.234375 18.066406 C 18.226562 18.0625 18.21875 18.054688 18.21875 18.042969 C 18.214844 18.035156 18.214844 18.027344 18.222656 18.019531 C 18.222656 18.015625 18.226562 18.011719 18.230469 18.007812 C 18.289062 17.957031 18.359375 17.878906 18.351562 17.820312 C 18.347656 17.8125 18.347656 17.808594 18.34375 17.800781 C 18.339844 17.789062 18.339844 17.777344 18.347656 17.765625 C 18.355469 17.753906 18.371094 17.753906 18.382812 17.753906 C 18.519531 17.789062 18.597656 17.871094 18.597656 17.992188 C 18.601562 18.070312 18.570312 18.164062 18.511719 18.273438 C 18.507812 18.28125 18.496094 18.289062 18.484375 18.289062 " fill-opacity="1" fill-rule="nonzero"/><path fill="#b9901c" d="M 16.203125 17.515625 C 16.167969 17.515625 16.128906 17.523438 16.097656 17.550781 C 16.035156 17.597656 16.011719 17.703125 16.023438 17.859375 C 16.066406 17.804688 16.132812 17.769531 16.207031 17.753906 C 16.207031 17.753906 16.207031 17.75 16.207031 17.75 C 16.195312 17.691406 16.199219 17.640625 16.210938 17.597656 C 16.21875 17.566406 16.226562 17.542969 16.242188 17.519531 C 16.230469 17.515625 16.21875 17.515625 16.203125 17.515625 Z M 16 17.992188 C 16 17.992188 16 17.992188 15.996094 17.992188 C 15.980469 17.992188 15.96875 17.980469 15.96875 17.964844 C 15.929688 17.730469 15.960938 17.574219 16.054688 17.496094 C 16.164062 17.410156 16.308594 17.46875 16.316406 17.46875 C 16.328125 17.472656 16.335938 17.484375 16.335938 17.496094 C 16.339844 17.507812 16.335938 17.519531 16.328125 17.523438 C 16.300781 17.550781 16.285156 17.578125 16.277344 17.613281 C 16.265625 17.648438 16.265625 17.691406 16.273438 17.738281 C 16.273438 17.753906 16.277344 17.765625 16.277344 17.777344 C 16.28125 17.785156 16.277344 17.796875 16.273438 17.804688 C 16.265625 17.8125 16.257812 17.816406 16.25 17.816406 C 16.117188 17.828125 16.058594 17.90625 16.03125 17.972656 C 16.027344 17.984375 16.011719 17.992188 16 17.992188 " fill-opacity="1" fill-rule="nonzero"/><path fill="#b9901c" d="M 17.238281 18.308594 C 17.21875 18.308594 17.203125 18.296875 17.203125 18.277344 L 17.203125 18.167969 C 17.203125 18.148438 17.21875 18.136719 17.238281 18.136719 C 17.257812 18.136719 17.269531 18.148438 17.269531 18.167969 L 17.269531 18.277344 C 17.269531 18.296875 17.257812 18.308594 17.238281 18.308594 " fill-opacity="1" fill-rule="nonzero"/><path fill="#b9901c" d="M 20.011719 18.300781 C 19.992188 18.300781 19.980469 18.285156 19.980469 18.269531 L 19.980469 18.160156 C 19.980469 18.140625 19.992188 18.128906 20.011719 18.128906 C 20.03125 18.128906 20.046875 18.140625 20.046875 18.160156 L 20.046875 18.269531 C 20.046875 18.285156 20.03125 18.300781 20.011719 18.300781 " fill-opacity="1" fill-rule="nonzero"/><path fill="#b9901c" d="M 15.679688 18.320312 C 15.679688 18.320312 15.675781 18.316406 15.675781 18.316406 L 15.539062 18.292969 C 15.519531 18.289062 15.507812 18.273438 15.511719 18.253906 C 15.515625 18.234375 15.535156 18.222656 15.550781 18.226562 L 15.6875 18.25 C 15.707031 18.253906 15.71875 18.273438 15.714844 18.292969 C 15.710938 18.308594 15.695312 18.320312 15.679688 18.320312 " fill-opacity="1" fill-rule="nonzero"/><path fill="#ffffff" d="M 17.378906 17.996094 C 17.382812 17.996094 17.382812 17.996094 17.382812 17.996094 C 17.363281 18.046875 17.320312 18.105469 17.238281 18.167969 C 17.164062 18.085938 17.128906 18.019531 17.117188 17.964844 C 17.117188 17.960938 17.117188 17.960938 17.117188 17.957031 C 17.117188 17.957031 17.117188 17.953125 17.117188 17.953125 C 17.113281 17.949219 17.113281 17.945312 17.113281 17.945312 C 17.113281 17.941406 17.113281 17.941406 17.113281 17.941406 C 17.113281 17.933594 17.113281 17.929688 17.113281 17.925781 C 17.113281 17.917969 17.113281 17.90625 17.113281 17.898438 C 17.117188 17.886719 17.117188 17.878906 17.121094 17.871094 C 17.152344 17.777344 17.265625 17.742188 17.265625 17.742188 C 17.265625 17.742188 17.277344 17.753906 17.296875 17.765625 C 17.300781 17.765625 17.300781 17.765625 17.300781 17.769531 C 17.304688 17.769531 17.304688 17.769531 17.304688 17.773438 C 17.308594 17.773438 17.308594 17.777344 17.3125 17.777344 C 17.3125 17.777344 17.316406 17.78125 17.316406 17.78125 C 17.359375 17.824219 17.414062 17.898438 17.378906 17.996094 " fill-opacity="1" fill-rule="nonzero"/><path fill="#b9901c" d="M 17.148438 17.957031 C 17.160156 18.007812 17.191406 18.0625 17.242188 18.121094 C 17.292969 18.078125 17.332031 18.035156 17.347656 17.992188 C 17.347656 17.988281 17.347656 17.988281 17.347656 17.984375 C 17.375 17.90625 17.335938 17.84375 17.292969 17.804688 L 17.304688 17.773438 L 17.285156 17.796875 L 17.296875 17.765625 L 17.277344 17.789062 C 17.269531 17.785156 17.265625 17.78125 17.261719 17.78125 C 17.234375 17.789062 17.171875 17.820312 17.152344 17.878906 C 17.148438 17.886719 17.148438 17.894531 17.148438 17.902344 C 17.144531 17.910156 17.144531 17.917969 17.144531 17.925781 L 17.144531 17.9375 L 17.113281 17.949219 L 17.132812 17.949219 L 17.140625 17.941406 C 17.144531 17.941406 17.144531 17.945312 17.144531 17.949219 L 17.148438 17.949219 C 17.148438 17.949219 17.148438 17.957031 17.148438 17.957031 Z M 17.238281 18.203125 C 17.226562 18.203125 17.21875 18.195312 17.210938 18.191406 C 17.144531 18.113281 17.101562 18.039062 17.085938 17.972656 C 17.085938 17.96875 17.082031 17.96875 17.082031 17.964844 C 17.082031 17.960938 17.082031 17.957031 17.082031 17.957031 C 17.082031 17.957031 17.082031 17.945312 17.082031 17.945312 C 17.082031 17.9375 17.082031 17.933594 17.078125 17.929688 C 17.078125 17.917969 17.082031 17.902344 17.082031 17.890625 C 17.082031 17.882812 17.085938 17.871094 17.089844 17.859375 C 17.125 17.75 17.25 17.714844 17.257812 17.710938 C 17.265625 17.710938 17.277344 17.710938 17.285156 17.714844 C 17.285156 17.714844 17.300781 17.722656 17.316406 17.738281 C 17.324219 17.742188 17.328125 17.746094 17.328125 17.75 C 17.332031 17.753906 17.335938 17.753906 17.339844 17.757812 C 17.414062 17.828125 17.441406 17.910156 17.414062 17.996094 C 17.414062 18 17.414062 18.003906 17.414062 18.007812 C 17.390625 18.070312 17.339844 18.132812 17.257812 18.195312 C 17.25 18.199219 17.246094 18.203125 17.238281 18.203125 " fill-opacity="1" fill-rule="nonzero"/><path fill="#ffffff" d="M 21.371094 18.644531 C 21.4375 18.734375 21.378906 18.847656 21.285156 18.90625 C 20.773438 19.226562 18.632812 19.175781 18.632812 19.175781 C 18.632812 19.175781 16.492188 19.226562 15.980469 18.90625 C 15.886719 18.847656 15.828125 18.734375 15.890625 18.644531 C 15.890625 18.644531 15.667969 18.527344 15.679688 18.285156 C 15.679688 18.285156 15.792969 18.0625 15.976562 18.046875 L 16 17.960938 C 16.03125 17.886719 16.097656 17.792969 16.246094 17.785156 C 16.246094 17.785156 16.554688 17.890625 17.117188 17.964844 C 17.128906 18.019531 17.164062 18.085938 17.238281 18.167969 C 17.320312 18.105469 17.363281 18.046875 17.382812 17.996094 C 17.632812 18.019531 17.925781 18.035156 18.25 18.035156 C 18.378906 18.105469 18.484375 18.253906 18.484375 18.253906 C 18.542969 18.144531 18.566406 18.058594 18.566406 17.992188 L 18.699219 17.992188 C 18.695312 18.058594 18.71875 18.144531 18.78125 18.253906 C 18.78125 18.253906 18.886719 18.105469 19.015625 18.035156 C 19.339844 18.035156 19.632812 18.019531 19.882812 17.996094 C 19.902344 18.046875 19.945312 18.105469 20.027344 18.167969 C 20.097656 18.085938 20.132812 18.019531 20.144531 17.964844 C 20.710938 17.890625 21.015625 17.785156 21.015625 17.785156 C 21.167969 17.792969 21.234375 17.886719 21.261719 17.960938 C 21.261719 17.957031 21.265625 17.949219 21.265625 17.945312 C 21.277344 17.996094 21.285156 18.046875 21.285156 18.046875 C 21.46875 18.0625 21.582031 18.285156 21.582031 18.285156 C 21.597656 18.527344 21.371094 18.644531 21.371094 18.644531 " fill-opacity="1" fill-rule="nonzero"/><path fill="#b9901c" d="M 15.714844 18.292969 C 15.707031 18.507812 15.898438 18.613281 15.90625 18.613281 C 15.914062 18.621094 15.921875 18.625 15.921875 18.636719 C 15.925781 18.648438 15.921875 18.65625 15.917969 18.664062 C 15.898438 18.691406 15.894531 18.71875 15.898438 18.75 C 15.90625 18.796875 15.945312 18.847656 15.996094 18.878906 C 16.496094 19.191406 18.609375 19.144531 18.632812 19.144531 C 18.652344 19.144531 20.769531 19.191406 21.265625 18.878906 C 21.316406 18.847656 21.355469 18.796875 21.363281 18.75 C 21.371094 18.71875 21.363281 18.691406 21.34375 18.664062 C 21.339844 18.65625 21.339844 18.648438 21.339844 18.636719 C 21.339844 18.625 21.347656 18.621094 21.355469 18.613281 C 21.363281 18.613281 21.558594 18.507812 21.550781 18.292969 C 21.53125 18.257812 21.429688 18.09375 21.285156 18.082031 C 21.269531 18.082031 21.257812 18.070312 21.253906 18.054688 C 21.253906 18.054688 21.246094 18.019531 21.238281 17.984375 C 21.234375 17.980469 21.234375 17.976562 21.234375 17.972656 C 21.207031 17.90625 21.148438 17.828125 21.023438 17.816406 C 20.972656 17.832031 20.679688 17.925781 20.171875 17.996094 C 20.152344 18.054688 20.113281 18.121094 20.050781 18.191406 C 20.039062 18.203125 20.019531 18.207031 20.007812 18.195312 C 19.9375 18.140625 19.886719 18.085938 19.863281 18.03125 C 19.589844 18.058594 19.308594 18.070312 19.023438 18.070312 C 18.90625 18.132812 18.808594 18.273438 18.808594 18.273438 C 18.800781 18.285156 18.792969 18.289062 18.777344 18.289062 C 18.765625 18.289062 18.753906 18.28125 18.75 18.273438 C 18.699219 18.179688 18.671875 18.097656 18.664062 18.027344 L 18.597656 18.027344 C 18.59375 18.097656 18.5625 18.179688 18.511719 18.273438 C 18.507812 18.28125 18.496094 18.289062 18.484375 18.289062 C 18.476562 18.289062 18.464844 18.285156 18.457031 18.273438 C 18.453125 18.273438 18.359375 18.132812 18.242188 18.070312 C 17.953125 18.070312 17.671875 18.058594 17.402344 18.03125 C 17.375 18.085938 17.328125 18.140625 17.257812 18.195312 C 17.246094 18.207031 17.226562 18.203125 17.210938 18.191406 C 17.148438 18.121094 17.109375 18.054688 17.09375 17.996094 C 16.582031 17.925781 16.289062 17.832031 16.242188 17.816406 C 16.117188 17.828125 16.058594 17.90625 16.03125 17.972656 L 16.011719 18.058594 C 16.003906 18.070312 15.996094 18.082031 15.980469 18.082031 C 15.832031 18.09375 15.734375 18.257812 15.714844 18.292969 Z M 18.964844 19.214844 C 18.777344 19.214844 18.652344 19.210938 18.632812 19.210938 C 18.542969 19.210938 16.472656 19.257812 15.960938 18.933594 C 15.894531 18.894531 15.847656 18.828125 15.835938 18.761719 C 15.828125 18.726562 15.832031 18.691406 15.847656 18.65625 C 15.78125 18.613281 15.636719 18.492188 15.648438 18.285156 C 15.648438 18.277344 15.648438 18.273438 15.652344 18.269531 C 15.65625 18.261719 15.765625 18.050781 15.949219 18.019531 L 15.96875 17.953125 C 16.015625 17.832031 16.113281 17.761719 16.242188 17.75 C 16.25 17.75 16.253906 17.75 16.257812 17.753906 C 16.261719 17.753906 16.566406 17.859375 17.121094 17.929688 C 17.136719 17.933594 17.144531 17.945312 17.148438 17.957031 C 17.160156 18.007812 17.191406 18.0625 17.242188 18.121094 C 17.296875 18.074219 17.332031 18.027344 17.347656 17.984375 C 17.355469 17.96875 17.371094 17.960938 17.382812 17.964844 C 17.664062 17.992188 17.953125 18.003906 18.25 18.003906 C 18.253906 18.003906 18.261719 18.003906 18.265625 18.007812 C 18.359375 18.054688 18.4375 18.140625 18.476562 18.195312 C 18.515625 18.117188 18.53125 18.050781 18.53125 17.996094 C 18.53125 17.984375 18.535156 17.976562 18.542969 17.96875 C 18.546875 17.964844 18.558594 17.960938 18.566406 17.960938 L 18.699219 17.960938 C 18.707031 17.960938 18.714844 17.964844 18.722656 17.96875 C 18.726562 17.976562 18.730469 17.984375 18.730469 17.996094 C 18.730469 18.050781 18.75 18.117188 18.785156 18.195312 C 18.828125 18.140625 18.90625 18.054688 18.996094 18.007812 C 19.003906 18.003906 19.007812 18.003906 19.015625 18.003906 C 19.308594 18.003906 19.601562 17.992188 19.878906 17.964844 C 19.894531 17.960938 19.910156 17.96875 19.914062 17.984375 C 19.929688 18.03125 19.96875 18.074219 20.019531 18.121094 C 20.070312 18.0625 20.101562 18.007812 20.113281 17.957031 C 20.117188 17.945312 20.125 17.933594 20.140625 17.929688 C 20.695312 17.859375 21.003906 17.753906 21.007812 17.753906 C 21.007812 17.75 21.015625 17.75 21.019531 17.75 C 21.136719 17.757812 21.226562 17.816406 21.277344 17.914062 C 21.289062 17.917969 21.296875 17.925781 21.296875 17.9375 C 21.304688 17.96875 21.3125 17.996094 21.3125 18.019531 C 21.5 18.050781 21.609375 18.261719 21.613281 18.269531 C 21.617188 18.273438 21.617188 18.277344 21.617188 18.285156 C 21.628906 18.492188 21.480469 18.613281 21.417969 18.65625 C 21.429688 18.691406 21.4375 18.726562 21.429688 18.761719 C 21.417969 18.828125 21.367188 18.894531 21.300781 18.933594 C 20.90625 19.183594 19.589844 19.214844 18.964844 19.214844 " fill-opacity="1" fill-rule="nonzero"/><path fill="#ffffff" d="M 20.144531 17.964844 C 20.132812 18.019531 20.097656 18.085938 20.027344 18.167969 C 19.945312 18.105469 19.902344 18.046875 19.882812 17.996094 C 19.882812 17.992188 19.878906 17.988281 19.878906 17.984375 C 19.878906 17.980469 19.878906 17.980469 19.878906 17.980469 C 19.875 17.976562 19.875 17.972656 19.875 17.96875 C 19.875 17.960938 19.875 17.953125 19.871094 17.945312 C 19.871094 17.941406 19.871094 17.9375 19.871094 17.929688 C 19.871094 17.929688 19.871094 17.925781 19.871094 17.925781 C 19.871094 17.925781 19.871094 17.921875 19.871094 17.921875 C 19.871094 17.917969 19.871094 17.917969 19.871094 17.917969 C 19.875 17.914062 19.875 17.910156 19.875 17.90625 C 19.875 17.902344 19.875 17.902344 19.875 17.902344 C 19.875 17.898438 19.875 17.898438 19.875 17.898438 C 19.875 17.890625 19.878906 17.890625 19.878906 17.882812 C 19.882812 17.875 19.886719 17.863281 19.890625 17.855469 C 19.914062 17.8125 19.949219 17.78125 19.992188 17.746094 C 19.992188 17.746094 19.992188 17.746094 19.996094 17.742188 C 20 17.746094 20.003906 17.746094 20.007812 17.746094 C 20.007812 17.746094 20.007812 17.75 20.011719 17.75 C 20.015625 17.75 20.019531 17.753906 20.019531 17.753906 C 20.027344 17.753906 20.035156 17.757812 20.039062 17.761719 C 20.039062 17.761719 20.039062 17.761719 20.042969 17.761719 C 20.0625 17.773438 20.085938 17.789062 20.109375 17.8125 C 20.113281 17.816406 20.113281 17.816406 20.113281 17.820312 C 20.113281 17.820312 20.113281 17.820312 20.117188 17.820312 L 20.121094 17.828125 C 20.144531 17.863281 20.15625 17.90625 20.144531 17.964844 " fill-opacity="1" fill-rule="nonzero"/><path fill="#b9901c" d="M 19.914062 17.992188 C 19.933594 18.03125 19.96875 18.078125 20.019531 18.121094 C 20.070312 18.0625 20.101562 18.007812 20.113281 17.957031 C 20.121094 17.914062 20.113281 17.878906 20.09375 17.847656 C 20.09375 17.84375 20.089844 17.84375 20.089844 17.84375 C 20.089844 17.839844 20.085938 17.839844 20.085938 17.839844 C 20.085938 17.839844 20.082031 17.832031 20.082031 17.832031 C 20.070312 17.816406 20.050781 17.804688 20.027344 17.789062 C 20.019531 17.789062 20.011719 17.785156 20.007812 17.785156 L 20.003906 17.78125 C 19.964844 17.8125 19.9375 17.839844 19.921875 17.867188 C 19.917969 17.878906 19.914062 17.886719 19.910156 17.894531 C 19.910156 17.898438 19.910156 17.902344 19.90625 17.90625 C 19.90625 17.90625 19.90625 17.910156 19.90625 17.914062 C 19.90625 17.917969 19.90625 17.917969 19.90625 17.917969 C 19.90625 17.921875 19.90625 17.921875 19.90625 17.925781 C 19.90625 17.9375 19.90625 17.941406 19.90625 17.941406 C 19.90625 17.949219 19.90625 17.957031 19.910156 17.960938 L 19.914062 17.984375 C 19.914062 17.984375 19.914062 17.988281 19.914062 17.992188 Z M 20.027344 18.203125 C 20.019531 18.203125 20.011719 18.199219 20.007812 18.195312 C 19.925781 18.132812 19.875 18.070312 19.851562 18.007812 C 19.851562 18.003906 19.847656 18.003906 19.847656 18 C 19.847656 17.996094 19.847656 17.996094 19.847656 17.992188 L 19.84375 17.976562 C 19.839844 17.96875 19.839844 17.957031 19.839844 17.949219 C 19.839844 17.941406 19.839844 17.9375 19.839844 17.929688 C 19.839844 17.929688 19.839844 17.929688 19.839844 17.925781 C 19.835938 17.921875 19.839844 17.917969 19.839844 17.917969 C 19.839844 17.910156 19.839844 17.90625 19.839844 17.898438 C 19.839844 17.898438 19.84375 17.890625 19.84375 17.890625 C 19.84375 17.886719 19.847656 17.878906 19.847656 17.875 C 19.851562 17.863281 19.855469 17.851562 19.863281 17.839844 C 19.886719 17.796875 19.917969 17.761719 19.96875 17.722656 C 19.972656 17.722656 19.972656 17.71875 19.972656 17.71875 C 19.980469 17.714844 19.988281 17.710938 19.996094 17.710938 C 20 17.710938 20.007812 17.710938 20.007812 17.714844 C 20.007812 17.714844 20.019531 17.714844 20.019531 17.714844 C 20.019531 17.714844 20.019531 17.714844 20.019531 17.71875 L 20.035156 17.722656 C 20.039062 17.726562 20.046875 17.726562 20.054688 17.730469 C 20.085938 17.75 20.113281 17.765625 20.132812 17.789062 L 20.140625 17.800781 C 20.140625 17.800781 20.144531 17.804688 20.144531 17.804688 C 20.179688 17.855469 20.191406 17.910156 20.179688 17.972656 C 20.164062 18.039062 20.121094 18.113281 20.050781 18.191406 C 20.042969 18.195312 20.035156 18.203125 20.027344 18.203125 " fill-opacity="1" fill-rule="nonzero"/><path fill="#ffffff" d="M 21.019531 17.769531 C 21.019531 17.769531 21.019531 17.769531 21.019531 17.773438 C 21.019531 17.777344 21.019531 17.777344 21.015625 17.785156 C 21.015625 17.785156 20.710938 17.890625 20.144531 17.964844 C 20.15625 17.90625 20.144531 17.863281 20.121094 17.828125 L 20.117188 17.820312 C 20.113281 17.820312 20.113281 17.820312 20.113281 17.820312 C 20.113281 17.816406 20.113281 17.816406 20.109375 17.8125 C 20.085938 17.789062 20.0625 17.773438 20.042969 17.761719 C 20.039062 17.761719 20.039062 17.761719 20.039062 17.761719 C 20.035156 17.757812 20.027344 17.753906 20.019531 17.753906 C 20.019531 17.753906 20.015625 17.75 20.011719 17.75 C 20.007812 17.75 20.007812 17.746094 20.007812 17.746094 C 20.003906 17.746094 20 17.746094 19.996094 17.742188 C 19.992188 17.746094 19.992188 17.746094 19.992188 17.746094 C 19.949219 17.78125 19.914062 17.8125 19.890625 17.855469 C 19.886719 17.863281 19.882812 17.875 19.878906 17.882812 C 19.878906 17.890625 19.875 17.890625 19.875 17.898438 C 19.875 17.898438 19.875 17.898438 19.875 17.902344 C 19.875 17.902344 19.875 17.902344 19.875 17.90625 C 19.875 17.910156 19.875 17.914062 19.871094 17.917969 C 19.871094 17.917969 19.871094 17.917969 19.871094 17.921875 C 19.871094 17.921875 19.871094 17.925781 19.871094 17.925781 C 19.871094 17.925781 19.871094 17.929688 19.871094 17.929688 C 19.871094 17.9375 19.871094 17.941406 19.871094 17.945312 C 19.875 17.953125 19.875 17.960938 19.875 17.96875 C 19.875 17.972656 19.875 17.976562 19.878906 17.980469 C 19.878906 17.980469 19.878906 17.980469 19.878906 17.984375 C 19.878906 17.988281 19.882812 17.992188 19.882812 17.996094 C 19.632812 18.019531 19.339844 18.035156 19.015625 18.035156 C 19.015625 18.035156 19.011719 18.035156 19.011719 18.035156 C 19.011719 18.035156 19.011719 18.035156 19.007812 18.03125 C 19.007812 18.03125 19.007812 18.03125 19.003906 18.027344 C 18.996094 18.023438 18.988281 18.015625 18.976562 18.003906 C 18.929688 17.957031 18.859375 17.871094 18.886719 17.796875 C 18.886719 17.792969 18.886719 17.789062 18.890625 17.785156 C 18.914062 17.734375 18.980469 17.710938 18.980469 17.707031 C 18.980469 17.707031 19.53125 17.71875 19.953125 17.675781 C 20.5625 17.613281 20.851562 17.421875 20.96875 17.5 C 20.996094 17.515625 21.015625 17.554688 21.023438 17.617188 C 21.027344 17.632812 21.027344 17.648438 21.03125 17.664062 C 21.03125 17.691406 21.027344 17.726562 21.019531 17.769531 " fill-opacity="1" fill-rule="nonzero"/><path fill="#b9901c" d="M 18.917969 17.808594 C 18.902344 17.851562 18.933594 17.914062 19 17.980469 C 19.011719 17.992188 19.019531 18 19.027344 18.003906 C 19.304688 18.003906 19.578125 17.992188 19.839844 17.96875 C 19.839844 17.960938 19.839844 17.957031 19.839844 17.949219 C 19.839844 17.941406 19.839844 17.9375 19.839844 17.929688 C 19.839844 17.929688 19.839844 17.929688 19.839844 17.925781 C 19.835938 17.921875 19.839844 17.917969 19.839844 17.917969 C 19.839844 17.910156 19.839844 17.90625 19.839844 17.898438 C 19.839844 17.898438 19.84375 17.890625 19.84375 17.890625 C 19.84375 17.886719 19.847656 17.878906 19.847656 17.875 C 19.851562 17.863281 19.855469 17.851562 19.863281 17.839844 C 19.886719 17.796875 19.917969 17.761719 19.96875 17.722656 C 19.972656 17.722656 19.972656 17.71875 19.972656 17.71875 C 19.980469 17.714844 19.988281 17.710938 19.996094 17.710938 C 20 17.710938 20.007812 17.710938 20.007812 17.714844 C 20.007812 17.714844 20.019531 17.714844 20.019531 17.714844 C 20.019531 17.714844 20.019531 17.714844 20.019531 17.71875 L 20.035156 17.722656 C 20.039062 17.726562 20.046875 17.726562 20.054688 17.730469 C 20.085938 17.75 20.113281 17.765625 20.132812 17.789062 L 20.140625 17.800781 C 20.140625 17.800781 20.144531 17.804688 20.144531 17.804688 C 20.171875 17.84375 20.183594 17.882812 20.183594 17.925781 C 20.640625 17.863281 20.917969 17.78125 20.988281 17.757812 C 20.996094 17.714844 20.996094 17.6875 20.996094 17.667969 C 20.996094 17.652344 20.992188 17.636719 20.992188 17.625 C 20.984375 17.570312 20.96875 17.539062 20.949219 17.523438 C 20.902344 17.496094 20.808594 17.523438 20.660156 17.566406 C 20.496094 17.613281 20.269531 17.675781 19.957031 17.710938 C 19.566406 17.75 19.058594 17.742188 18.988281 17.742188 C 18.953125 17.757812 18.929688 17.777344 18.917969 17.800781 C 18.917969 17.804688 18.917969 17.804688 18.917969 17.808594 Z M 19.015625 18.070312 C 19.003906 18.070312 18.996094 18.066406 18.992188 18.058594 C 18.988281 18.058594 18.988281 18.058594 18.988281 18.058594 C 18.976562 18.046875 18.964844 18.039062 18.953125 18.027344 C 18.890625 17.964844 18.824219 17.875 18.851562 17.789062 C 18.855469 17.785156 18.855469 17.785156 18.855469 17.78125 C 18.855469 17.78125 18.859375 17.777344 18.859375 17.773438 C 18.878906 17.734375 18.914062 17.703125 18.964844 17.679688 C 18.96875 17.675781 18.976562 17.675781 18.980469 17.675781 C 18.988281 17.675781 19.539062 17.683594 19.953125 17.644531 C 20.257812 17.613281 20.476562 17.550781 20.640625 17.503906 C 20.8125 17.453125 20.917969 17.421875 20.984375 17.472656 C 21.023438 17.496094 21.046875 17.539062 21.058594 17.613281 C 21.058594 17.628906 21.0625 17.644531 21.0625 17.664062 C 21.0625 17.695312 21.0625 17.734375 21.050781 17.777344 L 21.046875 17.789062 C 21.046875 17.804688 21.039062 17.8125 21.027344 17.816406 C 21.015625 17.820312 20.710938 17.921875 20.152344 18 C 20.140625 18 20.128906 17.996094 20.121094 17.988281 C 20.113281 17.980469 20.113281 17.96875 20.113281 17.957031 C 20.121094 17.917969 20.113281 17.878906 20.09375 17.847656 C 20.09375 17.84375 20.089844 17.84375 20.089844 17.84375 C 20.089844 17.839844 20.085938 17.839844 20.085938 17.839844 C 20.085938 17.839844 20.082031 17.832031 20.082031 17.832031 C 20.070312 17.816406 20.050781 17.804688 20.027344 17.789062 C 20.019531 17.789062 20.011719 17.785156 20.007812 17.785156 L 20.003906 17.78125 C 19.964844 17.8125 19.9375 17.839844 19.921875 17.867188 C 19.917969 17.878906 19.914062 17.886719 19.910156 17.894531 C 19.910156 17.898438 19.910156 17.902344 19.90625 17.90625 C 19.90625 17.90625 19.90625 17.910156 19.90625 17.914062 C 19.90625 17.917969 19.90625 17.917969 19.90625 17.917969 C 19.90625 17.921875 19.90625 17.921875 19.90625 17.925781 C 19.90625 17.9375 19.90625 17.941406 19.90625 17.941406 C 19.90625 17.949219 19.90625 17.957031 19.910156 17.960938 L 19.914062 17.984375 C 19.917969 17.992188 19.917969 18.007812 19.910156 18.015625 C 19.902344 18.023438 19.894531 18.027344 19.882812 18.027344 C 19.597656 18.058594 19.308594 18.070312 19.015625 18.070312 " fill-opacity="1" fill-rule="nonzero"/><path fill="#b9901c" d="M 18.847656 17.835938 C 18.773438 17.867188 18.734375 17.917969 18.730469 17.996094 C 18.730469 18.050781 18.75 18.117188 18.785156 18.195312 C 18.820312 18.148438 18.882812 18.082031 18.957031 18.03125 C 18.957031 18.03125 18.953125 18.027344 18.953125 18.027344 C 18.902344 17.976562 18.847656 17.90625 18.847656 17.835938 Z M 18.78125 18.289062 C 18.78125 18.289062 18.78125 18.289062 18.777344 18.289062 C 18.765625 18.289062 18.753906 18.28125 18.75 18.273438 C 18.691406 18.164062 18.664062 18.070312 18.664062 17.992188 C 18.667969 17.871094 18.746094 17.789062 18.882812 17.753906 C 18.894531 17.753906 18.90625 17.753906 18.914062 17.765625 C 18.921875 17.777344 18.925781 17.789062 18.917969 17.800781 C 18.917969 17.800781 18.917969 17.804688 18.917969 17.808594 C 18.902344 17.847656 18.933594 17.914062 19 17.980469 C 19.011719 17.992188 19.019531 18 19.027344 18.003906 C 19.027344 18.003906 19.03125 18.007812 19.035156 18.011719 C 19.039062 18.011719 19.042969 18.019531 19.042969 18.023438 C 19.050781 18.039062 19.042969 18.058594 19.03125 18.066406 C 18.910156 18.128906 18.808594 18.273438 18.808594 18.273438 C 18.800781 18.285156 18.792969 18.289062 18.78125 18.289062 " fill-opacity="1" fill-rule="nonzero"/><path fill="#b9901c" d="M 21.058594 17.753906 C 21.132812 17.769531 21.195312 17.804688 21.242188 17.859375 C 21.253906 17.707031 21.230469 17.601562 21.167969 17.550781 C 21.121094 17.511719 21.0625 17.511719 21.019531 17.519531 C 21.035156 17.546875 21.046875 17.574219 21.058594 17.609375 C 21.066406 17.652344 21.066406 17.703125 21.058594 17.753906 Z M 21.261719 17.992188 C 21.25 17.992188 21.238281 17.984375 21.234375 17.972656 C 21.207031 17.90625 21.144531 17.828125 21.015625 17.816406 C 21.003906 17.816406 20.996094 17.8125 20.988281 17.804688 C 20.984375 17.792969 20.984375 17.785156 20.984375 17.777344 L 20.984375 17.765625 C 20.996094 17.710938 21 17.664062 20.992188 17.625 C 20.984375 17.582031 20.964844 17.550781 20.9375 17.523438 C 20.929688 17.515625 20.925781 17.507812 20.925781 17.496094 C 20.929688 17.484375 20.9375 17.472656 20.945312 17.46875 L 20.957031 17.464844 C 20.992188 17.453125 21.117188 17.421875 21.210938 17.5 C 21.300781 17.574219 21.332031 17.726562 21.300781 17.949219 L 21.296875 17.964844 C 21.292969 17.980469 21.28125 17.992188 21.265625 17.992188 C 21.265625 17.992188 21.265625 17.992188 21.261719 17.992188 " fill-opacity="1" fill-rule="nonzero"/><path fill="#b9901c" d="M 21.582031 18.320312 C 21.566406 18.320312 21.550781 18.308594 21.550781 18.292969 C 21.546875 18.273438 21.558594 18.253906 21.574219 18.25 L 21.710938 18.226562 C 21.730469 18.222656 21.746094 18.234375 21.75 18.253906 C 21.753906 18.273438 21.742188 18.289062 21.722656 18.292969 L 21.589844 18.316406 C 21.585938 18.316406 21.585938 18.320312 21.582031 18.320312 " fill-opacity="1" fill-rule="nonzero"/><path fill="#b9901c" d="M 16.347656 18.140625 C 16.339844 18.128906 16.335938 18.125 16.300781 18.121094 C 16.261719 18.121094 16.238281 18.1875 16.296875 18.210938 C 16.320312 18.21875 16.335938 18.207031 16.351562 18.195312 C 16.375 18.167969 16.367188 18.164062 16.347656 18.140625 " fill-opacity="1" fill-rule="nonzero"/><path fill="#b9901c" d="M 16.359375 18.542969 C 16.351562 18.53125 16.347656 18.527344 16.3125 18.527344 C 16.273438 18.527344 16.25 18.59375 16.308594 18.613281 C 16.332031 18.625 16.347656 18.613281 16.363281 18.597656 C 16.382812 18.574219 16.375 18.566406 16.359375 18.542969 " fill-opacity="1" fill-rule="nonzero"/><path fill="#b9901c" d="M 16.492188 18.582031 C 16.484375 18.570312 16.480469 18.5625 16.445312 18.5625 C 16.40625 18.5625 16.382812 18.628906 16.441406 18.652344 C 16.464844 18.660156 16.480469 18.652344 16.496094 18.636719 C 16.519531 18.609375 16.511719 18.601562 16.492188 18.582031 " fill-opacity="1" fill-rule="nonzero"/><path fill="#b9901c" d="M 16.703125 18.644531 C 16.691406 18.628906 16.691406 18.625 16.65625 18.625 C 16.617188 18.625 16.59375 18.691406 16.648438 18.714844 C 16.675781 18.722656 16.6875 18.710938 16.703125 18.695312 C 16.726562 18.671875 16.71875 18.664062 16.703125 18.644531 " fill-opacity="1" fill-rule="nonzero"/><path fill="#b9901c" d="M 19.105469 18.339844 C 19.097656 18.328125 19.09375 18.324219 19.058594 18.324219 C 19.019531 18.320312 18.996094 18.386719 19.054688 18.410156 C 19.078125 18.417969 19.09375 18.410156 19.109375 18.394531 C 19.128906 18.367188 19.121094 18.363281 19.105469 18.339844 " fill-opacity="1" fill-rule="nonzero"/><path fill="#b9901c" d="M 19.125 18.460938 C 19.113281 18.449219 19.109375 18.445312 19.078125 18.445312 C 19.035156 18.441406 19.015625 18.511719 19.070312 18.53125 C 19.097656 18.539062 19.109375 18.53125 19.125 18.515625 C 19.148438 18.488281 19.140625 18.484375 19.125 18.460938 " fill-opacity="1" fill-rule="nonzero"/><path fill="#b9901c" d="M 17.34375 18.515625 C 17.292969 18.511719 17.277344 18.476562 17.28125 18.46875 C 17.285156 18.464844 17.355469 18.421875 17.359375 18.425781 C 17.359375 18.425781 17.371094 18.449219 17.375 18.460938 C 17.382812 18.492188 17.410156 18.488281 17.414062 18.507812 C 17.417969 18.523438 17.355469 18.519531 17.34375 18.515625 Z M 17.710938 18.214844 C 17.703125 18.214844 17.707031 18.214844 17.640625 18.246094 C 17.578125 18.273438 17.609375 18.304688 17.621094 18.328125 C 17.632812 18.355469 17.628906 18.386719 17.625 18.414062 C 17.589844 18.675781 17.574219 18.773438 17.542969 18.75 C 17.507812 18.722656 17.53125 18.652344 17.492188 18.632812 C 17.476562 18.625 17.449219 18.625 17.4375 18.605469 C 17.421875 18.585938 17.476562 18.574219 17.5 18.566406 C 17.59375 18.546875 17.460938 18.460938 17.429688 18.386719 C 17.421875 18.363281 17.429688 18.324219 17.398438 18.304688 C 17.355469 18.273438 17.289062 18.324219 17.277344 18.375 C 17.269531 18.417969 17.179688 18.386719 17.148438 18.464844 C 17.128906 18.511719 17.207031 18.519531 17.222656 18.527344 C 17.277344 18.550781 17.207031 18.625 17.089844 18.574219 C 17.050781 18.558594 17.058594 18.441406 17.015625 18.402344 C 17.003906 18.390625 16.992188 18.398438 16.984375 18.410156 C 16.914062 18.527344 17.046875 18.617188 16.910156 18.691406 C 16.847656 18.730469 16.816406 18.703125 16.804688 18.722656 C 16.800781 18.734375 16.816406 18.742188 16.824219 18.742188 C 16.910156 18.773438 16.996094 18.757812 17.039062 18.6875 C 17.074219 18.636719 17.222656 18.738281 17.308594 18.660156 C 17.316406 18.652344 17.332031 18.652344 17.339844 18.664062 C 17.34375 18.683594 17.347656 18.703125 17.363281 18.714844 C 17.371094 18.722656 17.382812 18.722656 17.398438 18.722656 C 17.417969 18.726562 17.433594 18.742188 17.433594 18.761719 C 17.433594 18.773438 17.433594 18.789062 17.4375 18.800781 C 17.460938 18.867188 17.558594 18.886719 17.609375 18.851562 C 17.679688 18.796875 17.660156 18.585938 17.6875 18.445312 C 17.695312 18.414062 17.753906 18.214844 17.710938 18.214844 " fill-opacity="1" fill-rule="nonzero"/><path fill="#b9901c" d="M 16.378906 18.386719 C 16.359375 18.398438 16.285156 18.398438 16.304688 18.363281 C 16.308594 18.359375 16.316406 18.351562 16.320312 18.351562 C 16.335938 18.34375 16.34375 18.335938 16.355469 18.347656 C 16.382812 18.351562 16.386719 18.386719 16.378906 18.386719 Z M 16.902344 18.324219 C 16.902344 18.316406 16.890625 18.308594 16.882812 18.3125 C 16.804688 18.351562 16.734375 18.324219 16.789062 18.414062 C 16.800781 18.429688 16.800781 18.449219 16.796875 18.464844 C 16.785156 18.503906 16.742188 18.503906 16.710938 18.503906 C 16.679688 18.5 16.644531 18.496094 16.632812 18.46875 C 16.621094 18.4375 16.652344 18.40625 16.667969 18.273438 C 16.671875 18.246094 16.660156 18.234375 16.632812 18.246094 C 16.550781 18.28125 16.527344 18.285156 16.546875 18.328125 C 16.566406 18.375 16.554688 18.433594 16.527344 18.441406 C 16.511719 18.449219 16.386719 18.46875 16.4375 18.355469 C 16.488281 18.246094 16.519531 18.144531 16.542969 18.007812 C 16.542969 18 16.539062 17.992188 16.535156 17.988281 C 16.511719 17.976562 16.472656 18.015625 16.429688 18.023438 C 16.421875 18.027344 16.386719 18.039062 16.367188 18.027344 C 16.347656 18.011719 16.285156 18.003906 16.285156 18.058594 C 16.285156 18.066406 16.285156 18.070312 16.289062 18.078125 C 16.296875 18.089844 16.339844 18.097656 16.351562 18.097656 C 16.371094 18.09375 16.421875 18.042969 16.441406 18.066406 C 16.457031 18.082031 16.453125 18.09375 16.449219 18.109375 C 16.4375 18.148438 16.417969 18.199219 16.390625 18.253906 C 16.363281 18.308594 16.257812 18.253906 16.214844 18.394531 C 16.214844 18.398438 16.210938 18.40625 16.207031 18.410156 C 16.199219 18.421875 16.199219 18.4375 16.210938 18.449219 C 16.222656 18.460938 16.238281 18.46875 16.253906 18.472656 C 16.355469 18.5 16.425781 18.519531 16.5 18.53125 C 16.640625 18.554688 16.511719 18.558594 16.800781 18.597656 C 16.855469 18.605469 16.859375 18.570312 16.867188 18.515625 C 16.871094 18.449219 16.90625 18.386719 16.902344 18.324219 " fill-opacity="1" fill-rule="nonzero"/><path fill="#b9901c" d="M 17.792969 18.238281 C 17.796875 18.234375 17.804688 18.230469 17.808594 18.234375 C 17.839844 18.273438 17.925781 18.316406 17.882812 18.34375 C 17.828125 18.382812 17.859375 18.355469 17.816406 18.679688 C 17.808594 18.714844 17.820312 18.773438 17.761719 18.769531 C 17.703125 18.769531 17.738281 18.683594 17.746094 18.65625 C 17.761719 18.605469 17.75 18.550781 17.765625 18.496094 C 17.765625 18.460938 17.773438 18.433594 17.777344 18.410156 C 17.785156 18.375 17.777344 18.355469 17.789062 18.320312 C 17.796875 18.277344 17.789062 18.257812 17.792969 18.238281 " fill-opacity="1" fill-rule="nonzero"/><path fill="#b9901c" d="M 18.878906 18.730469 C 18.875 18.734375 18.816406 18.730469 18.8125 18.71875 C 18.8125 18.714844 18.816406 18.699219 18.820312 18.695312 C 18.824219 18.691406 18.828125 18.691406 18.832031 18.691406 C 18.863281 18.671875 18.871094 18.664062 18.882812 18.707031 C 18.882812 18.714844 18.886719 18.726562 18.878906 18.730469 Z M 18.59375 18.828125 C 18.578125 18.847656 18.542969 18.839844 18.539062 18.816406 C 18.535156 18.796875 18.535156 18.78125 18.527344 18.765625 C 18.515625 18.742188 18.488281 18.742188 18.398438 18.734375 C 18.382812 18.734375 18.367188 18.730469 18.347656 18.730469 C 18.332031 18.726562 18.316406 18.730469 18.300781 18.730469 C 18.261719 18.726562 18.203125 18.707031 18.234375 18.683594 C 18.273438 18.652344 18.292969 18.660156 18.453125 18.660156 C 18.589844 18.65625 18.605469 18.699219 18.609375 18.757812 C 18.609375 18.792969 18.601562 18.8125 18.59375 18.828125 Z M 18.925781 18.566406 C 18.921875 18.5625 18.914062 18.5625 18.910156 18.5625 C 18.734375 18.613281 18.753906 18.664062 18.726562 18.699219 C 18.703125 18.726562 18.667969 18.714844 18.667969 18.671875 C 18.671875 18.652344 18.683594 18.605469 18.628906 18.597656 C 18.589844 18.589844 18.613281 18.613281 18.308594 18.574219 C 18.289062 18.570312 18.269531 18.566406 18.253906 18.550781 C 18.230469 18.523438 18.246094 18.460938 18.1875 18.46875 C 18.152344 18.476562 18.117188 18.503906 18.121094 18.539062 C 18.121094 18.550781 18.128906 18.5625 18.136719 18.578125 C 18.1875 18.683594 18.082031 18.734375 18.050781 18.679688 C 18.039062 18.652344 18.054688 18.589844 18.007812 18.542969 C 17.96875 18.542969 17.917969 18.589844 17.921875 18.625 C 17.921875 18.660156 17.984375 18.707031 17.972656 18.777344 C 17.964844 18.851562 17.882812 18.878906 17.804688 18.886719 C 17.765625 18.890625 17.769531 18.917969 17.800781 18.929688 C 17.835938 18.9375 17.933594 18.941406 17.96875 18.921875 C 17.996094 18.90625 18.011719 18.878906 18.035156 18.863281 C 18.042969 18.851562 18.046875 18.828125 18.054688 18.816406 C 18.074219 18.796875 18.078125 18.789062 18.113281 18.796875 C 18.230469 18.824219 18.265625 18.804688 18.351562 18.824219 C 18.375 18.828125 18.4375 18.8125 18.449219 18.832031 C 18.476562 18.867188 18.476562 18.90625 18.507812 18.9375 C 18.527344 18.957031 18.5625 18.945312 18.597656 18.929688 C 18.726562 18.867188 18.648438 18.824219 18.726562 18.824219 C 18.957031 18.820312 18.957031 18.832031 18.964844 18.789062 C 18.976562 18.675781 18.9375 18.570312 18.925781 18.566406 " fill-opacity="1" fill-rule="nonzero"/><path fill="#b9901c" d="M 19.167969 18.683594 C 19.171875 18.671875 19.183594 18.664062 19.203125 18.671875 C 19.277344 18.699219 19.136719 18.796875 19.167969 18.683594 Z M 19.53125 18.753906 C 19.523438 18.675781 19.515625 18.601562 19.5 18.527344 C 19.488281 18.460938 19.445312 18.519531 19.398438 18.535156 C 19.390625 18.539062 19.386719 18.539062 19.382812 18.542969 C 19.378906 18.550781 19.371094 18.578125 19.378906 18.589844 C 19.382812 18.59375 19.390625 18.597656 19.394531 18.601562 C 19.417969 18.625 19.417969 18.671875 19.414062 18.679688 C 19.40625 18.699219 19.355469 18.71875 19.328125 18.707031 C 19.296875 18.691406 19.300781 18.640625 19.300781 18.625 C 19.300781 18.605469 19.296875 18.574219 19.277344 18.492188 C 19.28125 18.421875 19.28125 18.351562 19.253906 18.285156 C 19.25 18.269531 19.242188 18.265625 19.222656 18.273438 C 19.203125 18.28125 19.148438 18.3125 19.148438 18.335938 C 19.144531 18.355469 19.175781 18.359375 19.191406 18.375 C 19.214844 18.394531 19.199219 18.433594 19.199219 18.460938 C 19.195312 18.492188 19.207031 18.53125 19.191406 18.5625 C 19.160156 18.625 19.074219 18.589844 19.066406 18.785156 C 19.066406 18.847656 19.195312 18.804688 19.292969 18.796875 C 19.519531 18.78125 19.535156 18.792969 19.53125 18.753906 " fill-opacity="1" fill-rule="nonzero"/><path fill="#b9901c" d="M 19.570312 18.613281 C 19.59375 18.664062 19.632812 18.640625 19.652344 18.699219 C 19.691406 18.824219 19.527344 18.875 19.519531 18.886719 C 19.5 18.921875 19.617188 18.914062 19.644531 18.90625 C 19.679688 18.894531 19.738281 18.816406 19.742188 18.808594 C 19.75 18.792969 19.757812 18.707031 19.75 18.691406 C 19.75 18.683594 19.742188 18.675781 19.742188 18.667969 C 19.726562 18.632812 19.734375 18.621094 19.703125 18.574219 C 19.691406 18.550781 19.675781 18.527344 19.660156 18.511719 C 19.625 18.476562 19.628906 18.488281 19.601562 18.539062 C 19.570312 18.597656 19.5625 18.601562 19.570312 18.613281 " fill-opacity="1" fill-rule="nonzero"/><path fill="#b9901c" d="M 19.386719 18.910156 C 19.351562 18.949219 19.3125 18.921875 19.304688 18.902344 C 19.285156 18.90625 19.273438 18.929688 19.21875 18.929688 C 19.207031 18.929688 19.1875 18.925781 19.179688 18.917969 C 19.171875 18.90625 19.191406 18.859375 19.199219 18.851562 C 19.214844 18.832031 19.265625 18.871094 19.300781 18.875 C 19.304688 18.855469 19.320312 18.839844 19.339844 18.839844 C 19.375 18.839844 19.375 18.84375 19.386719 18.855469 C 19.402344 18.878906 19.410156 18.886719 19.386719 18.910156 " fill-opacity="1" fill-rule="nonzero"/><path fill="#b9901c" d="M 20.691406 18.574219 C 20.691406 18.578125 20.652344 18.589844 20.625 18.578125 C 20.589844 18.554688 20.652344 18.515625 20.6875 18.542969 C 20.699219 18.554688 20.699219 18.570312 20.691406 18.574219 Z M 20.410156 18.699219 C 20.40625 18.699219 20.375 18.699219 20.359375 18.699219 C 20.347656 18.695312 20.347656 18.699219 20.347656 18.6875 C 20.34375 18.652344 20.390625 18.65625 20.402344 18.671875 C 20.410156 18.679688 20.414062 18.695312 20.410156 18.699219 Z M 20.304688 18.5625 C 20.300781 18.554688 20.300781 18.550781 20.296875 18.542969 C 20.296875 18.539062 20.292969 18.519531 20.296875 18.515625 C 20.296875 18.511719 20.316406 18.515625 20.320312 18.515625 C 20.339844 18.519531 20.339844 18.527344 20.351562 18.535156 C 20.367188 18.542969 20.386719 18.542969 20.375 18.582031 C 20.367188 18.601562 20.316406 18.578125 20.304688 18.5625 Z M 20.207031 18.613281 C 20.191406 18.613281 20.175781 18.605469 20.167969 18.589844 C 20.164062 18.578125 20.164062 18.542969 20.179688 18.535156 C 20.1875 18.53125 20.207031 18.527344 20.21875 18.535156 C 20.234375 18.546875 20.246094 18.613281 20.207031 18.613281 Z M 19.902344 18.601562 C 19.910156 18.589844 19.925781 18.597656 19.9375 18.605469 C 20.027344 18.664062 19.824219 18.6875 19.902344 18.601562 Z M 21.023438 18.398438 C 20.984375 18.410156 20.898438 18.476562 20.859375 18.34375 C 20.816406 18.171875 20.863281 18.035156 20.679688 18.039062 C 20.449219 18.042969 20.488281 18.21875 20.605469 18.152344 C 20.632812 18.136719 20.664062 18.117188 20.695312 18.128906 C 20.722656 18.136719 20.734375 18.171875 20.742188 18.199219 C 20.796875 18.441406 20.796875 18.4375 20.796875 18.449219 C 20.789062 18.46875 20.765625 18.480469 20.746094 18.476562 C 20.703125 18.472656 20.675781 18.429688 20.632812 18.429688 C 20.554688 18.429688 20.542969 18.554688 20.476562 18.535156 C 20.449219 18.527344 20.441406 18.492188 20.425781 18.472656 C 20.386719 18.414062 20.269531 18.410156 20.261719 18.332031 C 20.261719 18.308594 20.273438 18.238281 20.210938 18.273438 C 20.195312 18.285156 20.179688 18.292969 20.167969 18.308594 C 20.160156 18.320312 20.15625 18.34375 20.167969 18.355469 C 20.175781 18.367188 20.191406 18.367188 20.207031 18.375 C 20.21875 18.382812 20.230469 18.398438 20.222656 18.410156 C 20.21875 18.414062 20.210938 18.417969 20.203125 18.421875 C 20.089844 18.464844 20.101562 18.570312 20.0625 18.625 C 20.035156 18.625 20.003906 18.597656 20.007812 18.566406 C 20.007812 18.554688 20.007812 18.542969 20.007812 18.535156 C 20.003906 18.515625 19.980469 18.503906 19.960938 18.507812 C 19.929688 18.511719 19.835938 18.570312 19.8125 18.625 C 19.800781 18.65625 19.800781 18.699219 19.824219 18.726562 C 19.847656 18.757812 19.90625 18.722656 19.929688 18.738281 C 19.960938 18.753906 19.894531 18.832031 19.816406 18.84375 C 19.824219 18.867188 19.859375 18.875 19.886719 18.871094 C 20.058594 18.855469 20.035156 18.75 20.074219 18.714844 C 20.101562 18.691406 20.144531 18.699219 20.179688 18.699219 C 20.191406 18.699219 20.207031 18.695312 20.21875 18.699219 C 20.261719 18.710938 20.324219 18.816406 20.40625 18.796875 C 20.480469 18.777344 20.496094 18.691406 20.503906 18.640625 C 20.566406 18.632812 20.628906 18.699219 20.6875 18.675781 C 20.730469 18.652344 20.742188 18.582031 20.914062 18.546875 C 21.015625 18.527344 21.128906 18.523438 21.140625 18.492188 C 21.152344 18.460938 21.09375 18.386719 21.023438 18.398438 " fill-opacity="1" fill-rule="nonzero"/><path fill="#b9901c" d="M 20.972656 18.570312 C 20.96875 18.570312 20.921875 18.585938 20.917969 18.585938 C 20.878906 18.617188 20.882812 18.664062 20.964844 18.664062 C 21.019531 18.664062 20.996094 18.574219 20.972656 18.570312 " fill-opacity="1" fill-rule="nonzero"/></svg>