<svg xmlns="http://www.w3.org/2000/svg" xmlns:xlink="http://www.w3.org/1999/xlink" width="50" zoomAndPan="magnify" viewBox="0 0 37.5 30.000001" height="40" preserveAspectRatio="xMidYMid meet" version="1.0"><defs><clipPath id="e876458e1d"><path d="M 0.363281 0 L 36.652344 0 L 36.652344 29.03125 L 0.363281 29.03125 Z M 0.363281 0 " clip-rule="nonzero"/></clipPath></defs><g clip-path="url(#e876458e1d)"><path fill="#cc0518" d="M -3.613281 0 L 43.550781 0 L 43.550781 29.03125 L -3.613281 29.03125 Z M -3.613281 0 " fill-opacity="1" fill-rule="nonzero"/></g><path fill="#ffffff" d="M 6.425781 14.515625 C 6.425781 10.390625 9.710938 7.046875 13.765625 7.046875 C 15.359375 7.046875 16.824219 7.566406 18.03125 8.441406 C 16.390625 6.574219 14.007812 5.402344 11.359375 5.402344 C 6.417969 5.402344 2.402344 9.480469 2.402344 14.515625 C 2.402344 19.554688 6.40625 23.628906 11.359375 23.628906 C 14.015625 23.628906 16.390625 22.457031 18.03125 20.589844 C 16.824219 21.464844 15.359375 21.984375 13.765625 21.984375 C 9.710938 21.984375 6.425781 18.640625 6.425781 14.515625 Z M 6.425781 14.515625 " fill-opacity="1" fill-rule="nonzero"/><path fill="#ffffff" d="M 20.457031 9.652344 L 22.445312 11.621094 L 25.207031 11.113281 L 23.941406 13.613281 L 25.285156 16.0625 L 22.503906 15.632812 L 20.570312 17.667969 L 20.128906 14.902344 L 17.589844 13.699219 L 20.089844 12.429688 Z M 20.457031 9.652344 " fill-opacity="1" fill-rule="nonzero"/></svg>