<svg xmlns="http://www.w3.org/2000/svg" xmlns:xlink="http://www.w3.org/1999/xlink" width="50" zoomAndPan="magnify" viewBox="0 0 37.5 30.000001" height="40" preserveAspectRatio="xMidYMid meet" version="1.0"><defs><clipPath id="db3c6cb0f0"><path d="M 0.363281 0 L 36.652344 0 L 36.652344 29.03125 L 0.363281 29.03125 Z M 0.363281 0 " clip-rule="nonzero"/></clipPath><clipPath id="49457398e2"><path d="M 30 0 L 36.652344 0 L 36.652344 29.03125 L 30 29.03125 Z M 30 0 " clip-rule="nonzero"/></clipPath><clipPath id="9ce1d04fff"><path d="M 0.363281 0 L 7 0 L 7 29.03125 L 0.363281 29.03125 Z M 0.363281 0 " clip-rule="nonzero"/></clipPath></defs><g clip-path="url(#db3c6cb0f0)"><path fill="#eceff1" d="M -2.773438 0 L 40.023438 0 L 40.023438 29.03125 L -2.773438 29.03125 Z M -2.773438 0 " fill-opacity="1" fill-rule="nonzero"/></g><g clip-path="url(#49457398e2)"><path fill="#ff3d00" d="M 30.296875 0 L 40.023438 0 L 40.023438 29.03125 L 30.296875 29.03125 Z M 30.296875 0 " fill-opacity="1" fill-rule="nonzero"/></g><g clip-path="url(#9ce1d04fff)"><path fill="#ff3d00" d="M -2.773438 0 L 6.953125 0 L 6.953125 29.03125 L -2.773438 29.03125 Z M -2.773438 0 " fill-opacity="1" fill-rule="nonzero"/></g><path fill="#ff3d00" d="M 17.652344 20.324219 L 19.597656 20.324219 L 19.597656 23.226562 L 17.652344 23.226562 Z M 17.652344 20.324219 " fill-opacity="1" fill-rule="nonzero"/><path fill="#ff3d00" d="M 27.378906 17.417969 L 25.433594 16.453125 L 27.378906 13.546875 L 24.460938 13.546875 L 24.421875 11.625 L 22.175781 12.75 L 22.515625 7.742188 L 20.570312 8.710938 L 18.632812 5.804688 L 16.679688 8.710938 L 14.734375 7.742188 L 15.078125 12.71875 L 12.828125 11.628906 C 12.828125 11.628906 12.785156 13.539062 12.789062 13.546875 L 9.871094 13.546875 L 11.816406 16.453125 L 9.871094 17.417969 L 13.761719 19.355469 L 13.761719 21.289062 C 13.761719 21.289062 18.355469 21.039062 18.625 21.039062 C 18.894531 21.039062 23.488281 21.289062 23.488281 21.289062 L 23.488281 19.355469 Z M 27.378906 17.417969 " fill-opacity="1" fill-rule="nonzero"/></svg>