<svg xmlns="http://www.w3.org/2000/svg" xmlns:xlink="http://www.w3.org/1999/xlink" width="50" zoomAndPan="magnify" viewBox="0 0 37.5 30.000001" height="40" preserveAspectRatio="xMidYMid meet" version="1.0"><defs><clipPath id="54f7ea8fb0"><path d="M 0.363281 0 L 21 0 L 21 29.03125 L 0.363281 29.03125 Z M 0.363281 0 " clip-rule="nonzero"/></clipPath><clipPath id="fb1142ba9d"><path d="M 0.363281 0 L 36.652344 0 L 36.652344 15 L 0.363281 15 Z M 0.363281 0 " clip-rule="nonzero"/></clipPath><clipPath id="5dc5473873"><path d="M 0.363281 14 L 36.652344 14 L 36.652344 29.03125 L 0.363281 29.03125 Z M 0.363281 14 " clip-rule="nonzero"/></clipPath></defs><g clip-path="url(#54f7ea8fb0)"><path fill="#f3f2f0" d="M 20.324219 14.515625 L 0.371094 29.03125 L 0.371094 0 Z M 20.324219 14.515625 " fill-opacity="1" fill-rule="nonzero"/></g><g clip-path="url(#fb1142ba9d)"><path fill="#233b8e" d="M 0.371094 0 L 20.324219 14.515625 L 40.273438 14.515625 L 40.273438 0 L 0.371094 0 " fill-opacity="1" fill-rule="nonzero"/></g><g clip-path="url(#5dc5473873)"><path fill="#da1c4b" d="M 0.371094 29.03125 L 20.324219 14.515625 L 40.273438 14.515625 L 40.273438 29.03125 L 0.371094 29.03125 " fill-opacity="1" fill-rule="nonzero"/></g><path fill="#f9bb4b" d="M 8.628906 12.746094 L 7.253906 12.746094 L 7.253906 9.675781 L 8.628906 9.675781 L 8.628906 12.746094 " fill-opacity="1" fill-rule="nonzero"/><path fill="#f9bb4b" d="M 5.8125 13.355469 L 4.015625 11.546875 L 4.988281 10.570312 L 6.984375 12.578125 L 5.8125 13.355469 " fill-opacity="1" fill-rule="nonzero"/><path fill="#f9bb4b" d="M 8.628906 19.355469 L 7.253906 19.355469 L 7.253906 16.5 L 8.628906 16.5 L 8.628906 19.355469 " fill-opacity="1" fill-rule="nonzero"/><path fill="#f9bb4b" d="M 4.988281 18.460938 L 4.015625 17.484375 L 5.730469 15.757812 L 6.933594 16.5 L 4.988281 18.460938 " fill-opacity="1" fill-rule="nonzero"/><path fill="#f9bb4b" d="M 6.5 15.207031 L 3.125 15.207031 L 3.125 13.824219 L 6.5 13.824219 L 6.5 15.207031 " fill-opacity="1" fill-rule="nonzero"/><path fill="#f9bb4b" d="M 9.894531 13.527344 L 9.15625 12.320312 L 10.894531 10.570312 L 11.867188 11.546875 L 9.894531 13.527344 " fill-opacity="1" fill-rule="nonzero"/><path fill="#f9bb4b" d="M 10.894531 18.460938 L 8.945312 16.5 L 9.515625 15.207031 L 11.867188 17.484375 L 10.894531 18.460938 " fill-opacity="1" fill-rule="nonzero"/><path fill="#f9bb4b" d="M 12.753906 15.207031 L 9.515625 15.207031 L 9.515625 13.824219 L 12.753906 13.824219 L 12.753906 15.207031 " fill-opacity="1" fill-rule="nonzero"/><path fill="#f9bb4b" d="M 16.882812 15.207031 L 15.507812 15.207031 L 15.507812 13.824219 L 16.882812 13.824219 L 16.882812 15.207031 " fill-opacity="1" fill-rule="nonzero"/><path fill="#f9bb4b" d="M 3.8125 5.53125 L 2.4375 5.53125 L 2.4375 4.148438 L 3.8125 4.148438 L 3.8125 5.53125 " fill-opacity="1" fill-rule="nonzero"/><path fill="#f9bb4b" d="M 3.8125 24.886719 L 2.4375 24.886719 L 2.4375 23.503906 L 3.8125 23.503906 L 3.8125 24.886719 " fill-opacity="1" fill-rule="nonzero"/><path fill="#fcf05a" d="M 10.691406 14.515625 C 10.691406 16.042969 9.460938 17.28125 7.941406 17.28125 C 6.417969 17.28125 5.1875 16.042969 5.1875 14.515625 C 5.1875 12.988281 6.417969 11.75 7.941406 11.75 C 9.460938 11.75 10.691406 12.988281 10.691406 14.515625 " fill-opacity="1" fill-rule="nonzero"/></svg>