<svg xmlns="http://www.w3.org/2000/svg" xmlns:xlink="http://www.w3.org/1999/xlink" width="50" zoomAndPan="magnify" viewBox="0 0 37.5 30.000001" height="40" preserveAspectRatio="xMidYMid meet" version="1.0"><defs><clipPath id="dfbded8ff5"><path d="M 0.363281 0 L 36.652344 0 L 36.652344 29.03125 L 0.363281 29.03125 Z M 0.363281 0 " clip-rule="nonzero"/></clipPath><clipPath id="db277eb1f8"><path d="M 0.363281 2 L 36.652344 2 L 36.652344 27 L 0.363281 27 Z M 0.363281 2 " clip-rule="nonzero"/></clipPath></defs><g clip-path="url(#dfbded8ff5)"><path fill="#27934b" d="M 42.3125 29.023438 L -5.507812 29.023438 L -5.507812 -0.00390625 L 42.3125 -0.00390625 L 42.3125 29.023438 " fill-opacity="1" fill-rule="nonzero"/></g><g clip-path="url(#db277eb1f8)"><path fill="#fddd10" d="M 18.402344 2.546875 L -0.550781 14.507812 L 18.402344 26.472656 L 37.355469 14.507812 L 18.402344 2.546875 " fill-opacity="1" fill-rule="nonzero"/></g><path fill="#21428b" d="M 26.835938 14.507812 C 26.835938 19.183594 23.058594 22.976562 18.402344 22.976562 C 13.742188 22.976562 9.96875 19.183594 9.96875 14.507812 C 9.96875 9.835938 13.742188 6.042969 18.402344 6.042969 C 23.058594 6.042969 26.835938 9.835938 26.835938 14.507812 " fill-opacity="1" fill-rule="nonzero"/><path fill="#ffffff" d="M 21.171875 11.882812 L 20.851562 11.691406 L 20.511719 11.847656 L 20.597656 11.480469 L 20.34375 11.203125 L 20.714844 11.171875 L 20.902344 10.84375 L 21.046875 11.1875 L 21.414062 11.265625 L 21.132812 11.511719 L 21.171875 11.882812 " fill-opacity="1" fill-rule="nonzero"/><path fill="#ffffff" d="M 18.898438 19.039062 L 18.574219 18.84375 L 18.234375 19 L 18.320312 18.636719 L 18.066406 18.359375 L 18.4375 18.324219 L 18.625 18 L 18.769531 18.34375 L 19.136719 18.417969 L 18.855469 18.664062 L 18.898438 19.039062 " fill-opacity="1" fill-rule="nonzero"/><path fill="#ffffff" d="M 19.503906 17.234375 L 19.269531 17.089844 L 19.015625 17.207031 L 19.078125 16.933594 L 18.890625 16.730469 L 19.167969 16.707031 L 19.304688 16.464844 L 19.410156 16.722656 L 19.679688 16.777344 L 19.472656 16.957031 L 19.503906 17.234375 " fill-opacity="1" fill-rule="nonzero"/><path fill="#ffffff" d="M 22.917969 20.84375 L 22.683594 20.699219 L 22.433594 20.8125 L 22.492188 20.542969 L 22.308594 20.339844 L 22.582031 20.316406 L 22.71875 20.074219 L 22.824219 20.328125 L 23.097656 20.386719 L 22.886719 20.566406 L 22.917969 20.84375 " fill-opacity="1" fill-rule="nonzero"/><path fill="#ffffff" d="M 18.621094 16.171875 L 18.386719 16.03125 L 18.136719 16.144531 L 18.195312 15.875 L 18.011719 15.671875 L 18.285156 15.644531 L 18.421875 15.40625 L 18.527344 15.660156 L 18.800781 15.714844 L 18.589844 15.898438 L 18.621094 16.171875 " fill-opacity="1" fill-rule="nonzero"/><path fill="#ffffff" d="M 17.152344 16.957031 L 16.964844 16.839844 L 16.761719 16.933594 L 16.8125 16.71875 L 16.660156 16.550781 L 16.882812 16.535156 L 16.992188 16.339844 L 17.078125 16.542969 L 17.296875 16.589844 L 17.128906 16.734375 L 17.152344 16.957031 " fill-opacity="1" fill-rule="nonzero"/><path fill="#ffffff" d="M 18.1875 17.679688 L 17.996094 17.566406 L 17.792969 17.660156 L 17.84375 17.441406 L 17.695312 17.277344 L 17.914062 17.257812 L 18.023438 17.0625 L 18.109375 17.269531 L 18.328125 17.3125 L 18.160156 17.460938 L 18.1875 17.679688 " fill-opacity="1" fill-rule="nonzero"/><path fill="#ffffff" d="M 25.5625 17.792969 L 25.371094 17.675781 L 25.167969 17.769531 L 25.21875 17.550781 L 25.070312 17.386719 L 25.289062 17.367188 L 25.398438 17.171875 L 25.484375 17.378906 L 25.703125 17.421875 L 25.535156 17.570312 L 25.5625 17.792969 " fill-opacity="1" fill-rule="nonzero"/><path fill="#ffffff" d="M 24.8125 18.757812 L 24.625 18.644531 L 24.421875 18.734375 L 24.472656 18.519531 L 24.320312 18.355469 L 24.542969 18.335938 L 24.652344 18.140625 L 24.738281 18.347656 L 24.957031 18.390625 L 24.789062 18.539062 L 24.8125 18.757812 " fill-opacity="1" fill-rule="nonzero"/><path fill="#ffffff" d="M 24.496094 19.589844 L 24.304688 19.472656 L 24.105469 19.566406 L 24.15625 19.347656 L 24.003906 19.183594 L 24.226562 19.164062 L 24.335938 18.96875 L 24.421875 19.175781 L 24.640625 19.222656 L 24.472656 19.367188 L 24.496094 19.589844 " fill-opacity="1" fill-rule="nonzero"/><path fill="#ffffff" d="M 23.660156 19.746094 L 23.449219 19.683594 L 23.273438 19.824219 L 23.269531 19.601562 L 23.082031 19.476562 L 23.292969 19.40625 L 23.351562 19.191406 L 23.488281 19.367188 L 23.707031 19.355469 L 23.582031 19.539062 L 23.660156 19.746094 " fill-opacity="1" fill-rule="nonzero"/><path fill="#ffffff" d="M 22.636719 19.492188 L 22.449219 19.378906 L 22.246094 19.46875 L 22.296875 19.253906 L 22.144531 19.089844 L 22.367188 19.070312 L 22.476562 18.875 L 22.5625 19.082031 L 22.78125 19.125 L 22.613281 19.269531 L 22.636719 19.492188 " fill-opacity="1" fill-rule="nonzero"/><path fill="#ffffff" d="M 22.484375 21.621094 L 22.292969 21.507812 L 22.089844 21.597656 L 22.140625 21.382812 L 21.992188 21.21875 L 22.210938 21.199219 L 22.320312 21.003906 L 22.40625 21.210938 L 22.625 21.253906 L 22.457031 21.398438 L 22.484375 21.621094 " fill-opacity="1" fill-rule="nonzero"/><path fill="#ffffff" d="M 21.589844 19.492188 L 21.398438 19.378906 L 21.195312 19.46875 L 21.246094 19.253906 L 21.097656 19.089844 L 21.316406 19.070312 L 21.425781 18.875 L 21.515625 19.082031 L 21.730469 19.125 L 21.5625 19.269531 L 21.589844 19.492188 " fill-opacity="1" fill-rule="nonzero"/><path fill="#ffffff" d="M 20.25 19.492188 L 20.058594 19.378906 L 19.855469 19.46875 L 19.90625 19.253906 L 19.757812 19.089844 L 19.976562 19.070312 L 20.085938 18.875 L 20.171875 19.082031 L 20.390625 19.125 L 20.222656 19.269531 L 20.25 19.492188 " fill-opacity="1" fill-rule="nonzero"/><path fill="#ffffff" d="M 18.40625 21.8125 L 18.253906 21.71875 L 18.089844 21.792969 L 18.128906 21.617188 L 18.007812 21.484375 L 18.1875 21.46875 L 18.273438 21.3125 L 18.34375 21.480469 L 18.523438 21.515625 L 18.386719 21.632812 L 18.40625 21.8125 " fill-opacity="1" fill-rule="nonzero"/><path fill="#ffffff" d="M 20.886719 14.609375 L 20.734375 14.515625 L 20.570312 14.59375 L 20.609375 14.417969 L 20.488281 14.285156 L 20.667969 14.269531 L 20.757812 14.109375 L 20.828125 14.277344 L 21.003906 14.3125 L 20.867188 14.429688 L 20.886719 14.609375 " fill-opacity="1" fill-rule="nonzero"/><path fill="#ffffff" d="M 20.96875 21.246094 L 20.726562 21.101562 L 20.46875 21.21875 L 20.53125 20.941406 L 20.339844 20.730469 L 20.621094 20.707031 L 20.761719 20.457031 L 20.871094 20.71875 L 21.152344 20.777344 L 20.9375 20.964844 L 20.96875 21.246094 " fill-opacity="1" fill-rule="nonzero"/><path fill="#ffffff" d="M 13.191406 16.21875 L 13.003906 16.101562 L 12.800781 16.195312 L 12.847656 15.976562 L 12.699219 15.8125 L 12.921875 15.792969 L 13.03125 15.601562 L 13.117188 15.804688 L 13.335938 15.851562 L 13.167969 15.996094 L 13.191406 16.21875 " fill-opacity="1" fill-rule="nonzero"/><path fill="#ffffff" d="M 13.585938 18.828125 L 13.394531 18.710938 L 13.191406 18.804688 L 13.242188 18.585938 L 13.09375 18.421875 L 13.3125 18.402344 L 13.421875 18.210938 L 13.507812 18.414062 L 13.726562 18.460938 L 13.558594 18.605469 L 13.585938 18.828125 " fill-opacity="1" fill-rule="nonzero"/><path fill="#ffffff" d="M 15.011719 15.199219 L 14.78125 15.0625 L 14.535156 15.171875 L 14.59375 14.910156 L 14.414062 14.707031 L 14.683594 14.683594 L 14.816406 14.449219 L 14.921875 14.699219 L 15.1875 14.753906 L 14.984375 14.929688 L 15.011719 15.199219 " fill-opacity="1" fill-rule="nonzero"/><path fill="#ffffff" d="M 11.675781 18.042969 L 11.453125 17.90625 L 11.21875 18.015625 L 11.273438 17.761719 L 11.101562 17.570312 L 11.359375 17.546875 L 11.488281 17.320312 L 11.589844 17.558594 L 11.84375 17.613281 L 11.648438 17.78125 L 11.675781 18.042969 " fill-opacity="1" fill-rule="nonzero"/><path fill="#ffffff" d="M 14.347656 17.921875 L 14.078125 17.757812 L 13.789062 17.890625 L 13.859375 17.582031 L 13.644531 17.347656 L 13.960938 17.316406 L 14.117188 17.039062 L 14.242188 17.335938 L 14.554688 17.398438 L 14.3125 17.605469 L 14.347656 17.921875 " fill-opacity="1" fill-rule="nonzero"/><path fill="#ffffff" d="M 15.515625 19.710938 L 15.195312 19.515625 L 14.855469 19.671875 L 14.941406 19.304688 L 14.6875 19.027344 L 15.058594 18.996094 L 15.242188 18.667969 L 15.390625 19.015625 L 15.757812 19.089844 L 15.476562 19.335938 L 15.515625 19.710938 " fill-opacity="1" fill-rule="nonzero"/><path fill="#ffffff" d="M 12.300781 17.167969 L 11.980469 16.972656 L 11.640625 17.128906 L 11.722656 16.765625 L 11.472656 16.488281 L 11.84375 16.453125 L 12.027344 16.128906 L 12.175781 16.472656 L 12.542969 16.546875 L 12.257812 16.796875 L 12.300781 17.167969 " fill-opacity="1" fill-rule="nonzero"/><path fill="#ffffff" d="M 11.910156 14.136719 L 11.589844 13.941406 L 11.25 14.097656 L 11.332031 13.730469 L 11.082031 13.453125 L 11.453125 13.421875 L 11.636719 13.09375 L 11.785156 13.441406 L 12.152344 13.515625 L 11.867188 13.761719 L 11.910156 14.136719 " fill-opacity="1" fill-rule="nonzero"/><path fill="#ffffff" d="M 24.226562 17.753906 L 23.90625 17.558594 L 23.566406 17.714844 L 23.648438 17.351562 L 23.394531 17.074219 L 23.769531 17.039062 L 23.953125 16.710938 L 24.101562 17.058594 L 24.464844 17.132812 L 24.183594 17.378906 L 24.226562 17.753906 " fill-opacity="1" fill-rule="nonzero"/><path fill="#ffffff" d="M 10.191406 12.566406 C 10.191406 12.566406 13.726562 11.75 18.265625 12.855469 C 22.679688 13.929688 26.371094 17.261719 26.40625 17.171875 C 26.617188 16.648438 26.75 15.691406 26.75 15.691406 C 26.75 15.691406 23.082031 12.40625 18.800781 11.363281 C 14.414062 10.296875 10.867188 10.957031 10.761719 10.957031 C 10.371094 11.585938 10.191406 12.566406 10.191406 12.566406 " fill-opacity="1" fill-rule="nonzero"/></svg>