<svg xmlns="http://www.w3.org/2000/svg" xmlns:xlink="http://www.w3.org/1999/xlink" width="50" zoomAndPan="magnify" viewBox="0 0 37.5 30.000001" height="40" preserveAspectRatio="xMidYMid meet" version="1.0"><defs><clipPath id="81ddc06511"><path d="M 0.363281 0 L 36.652344 0 L 36.652344 28.832031 L 0.363281 28.832031 Z M 0.363281 0 " clip-rule="nonzero"/></clipPath><clipPath id="25da8105fc"><path d="M 0.363281 19 L 36.652344 19 L 36.652344 28.832031 L 0.363281 28.832031 Z M 0.363281 19 " clip-rule="nonzero"/></clipPath><clipPath id="4dd0e71f61"><path d="M 0.363281 0 L 36.652344 0 L 36.652344 10 L 0.363281 10 Z M 0.363281 0 " clip-rule="nonzero"/></clipPath><clipPath id="d233a3da8e"><path d="M 0.363281 0 L 36.652344 0 L 36.652344 28.832031 L 0.363281 28.832031 Z M 0.363281 0 " clip-rule="nonzero"/></clipPath></defs><g clip-path="url(#81ddc06511)"><path fill="#ffffff" d="M -2.394531 28.816406 L -2.394531 -0.195312 L 39.542969 -0.195312 L 39.542969 28.816406 L -2.394531 28.816406 " fill-opacity="1" fill-rule="nonzero"/><path stroke-linecap="butt" transform="matrix(0.0208718, 0, 0, -0.0206782, -2.656455, 29.060399)" fill="none" stroke-linejoin="miter" d="M 12.549167 11.799488 L 12.549167 1414.806108 L 2021.840091 1414.806108 L 2021.840091 11.799488 Z M 12.549167 11.799488 " stroke="#ffffff" stroke-width="0.508" stroke-opacity="1" stroke-miterlimit="4"/></g><g clip-path="url(#25da8105fc)"><path fill="#198e4f" d="M -2.394531 28.816406 L -2.394531 19.480469 L 39.542969 19.480469 L 39.542969 28.816406 L -2.394531 28.816406 " fill-opacity="1" fill-rule="nonzero"/><path stroke-linecap="butt" transform="matrix(0.0208718, 0, 0, -0.0206782, -2.656455, 29.060399)" fill="none" stroke-linejoin="miter" d="M 12.549167 11.799488 L 12.549167 463.285394 L 2021.840091 463.285394 L 2021.840091 11.799488 Z M 12.549167 11.799488 " stroke="#198e4f" stroke-width="0.508" stroke-opacity="1" stroke-miterlimit="4"/></g><g clip-path="url(#4dd0e71f61)"><path fill="#f89c3d" d="M -2.394531 9.804688 L -2.394531 -0.195312 L 39.542969 -0.195312 L 39.542969 9.804688 L -2.394531 9.804688 " fill-opacity="1" fill-rule="nonzero"/><path stroke-linecap="butt" transform="matrix(0.0208718, 0, 0, -0.0206782, -2.656455, 29.060399)" fill="none" stroke-linejoin="miter" d="M 12.549167 931.206142 L 12.549167 1414.806108 L 2021.840091 1414.806108 L 2021.840091 931.206142 Z M 12.549167 931.206142 " stroke="#f89c3d" stroke-width="0.508" stroke-opacity="1" stroke-miterlimit="4"/></g><g clip-path="url(#d233a3da8e)"><path stroke-linecap="butt" transform="matrix(0.0208718, 0, 0, -0.0206782, -2.656455, 29.060399)" fill="none" stroke-linejoin="miter" d="M 12.549167 11.799488 L 12.549167 1414.806108 L 2021.840091 1414.806108 L 2021.840091 11.799488 L 12.549167 11.799488 " stroke="#363639" stroke-width="0.508" stroke-opacity="1" stroke-miterlimit="4"/></g><path fill="#6e6c9b" d="M 21.53125 14.550781 L 21.519531 14.796875 L 21.460938 15.15625 L 21.371094 15.519531 L 21.246094 15.867188 L 21.085938 16.207031 L 20.878906 16.515625 L 20.636719 16.808594 L 20.371094 17.070312 L 20.070312 17.304688 L 19.757812 17.5 L 19.414062 17.652344 L 19.058594 17.785156 L 18.699219 17.863281 L 18.316406 17.898438 L 17.941406 17.914062 L 17.566406 17.863281 L 17.199219 17.785156 L 16.847656 17.667969 L 16.507812 17.5 L 16.179688 17.304688 L 15.890625 17.070312 L 15.617188 16.808594 L 15.382812 16.527344 L 15.175781 16.207031 L 15.003906 15.882812 L 14.871094 15.535156 L 14.78125 15.171875 L 14.742188 14.796875 L 14.726562 14.417969 L 14.769531 14.042969 L 14.84375 13.679688 L 14.964844 13.335938 L 15.109375 12.984375 L 15.304688 12.671875 L 15.542969 12.378906 L 15.789062 12.105469 L 16.074219 11.859375 L 16.386719 11.648438 L 16.730469 11.484375 L 17.078125 11.34375 L 17.449219 11.246094 L 17.8125 11.183594 L 18.1875 11.175781 L 18.5625 11.210938 L 18.933594 11.273438 L 19.296875 11.378906 L 19.636719 11.535156 L 19.960938 11.714844 L 20.28125 11.933594 L 20.546875 12.179688 L 20.800781 12.46875 L 21.023438 12.777344 L 21.1875 13.101562 L 21.335938 13.453125 L 21.4375 13.796875 L 21.503906 14.171875 L 21.53125 14.550781 L 22.0625 14.550781 L 22.054688 14.152344 L 21.984375 13.742188 L 21.886719 13.359375 L 21.742188 12.984375 L 21.558594 12.625 L 21.347656 12.285156 L 21.085938 11.960938 L 20.8125 11.675781 L 20.5 11.421875 L 20.160156 11.195312 L 19.804688 11 L 19.429688 10.851562 L 19.039062 10.746094 L 18.632812 10.667969 L 18.226562 10.640625 L 17.824219 10.640625 L 17.417969 10.691406 L 17.03125 10.789062 L 16.644531 10.929688 L 16.285156 11.097656 L 15.933594 11.304688 L 15.605469 11.535156 L 15.304688 11.808594 L 15.042969 12.117188 L 14.808594 12.441406 L 14.597656 12.785156 L 14.441406 13.152344 L 14.3125 13.539062 L 14.230469 13.925781 L 14.195312 14.328125 L 14.183594 14.734375 L 14.230469 15.128906 L 14.3125 15.535156 L 14.433594 15.910156 L 14.597656 16.28125 L 14.792969 16.632812 L 15.027344 16.957031 L 15.292969 17.265625 L 15.589844 17.539062 L 15.917969 17.785156 L 16.261719 17.992188 L 16.636719 18.15625 L 17.015625 18.292969 L 17.40625 18.390625 L 17.8125 18.441406 L 18.21875 18.457031 L 18.613281 18.417969 L 19.023438 18.355469 L 19.402344 18.238281 L 19.78125 18.09375 L 20.140625 17.898438 L 20.484375 17.679688 L 20.800781 17.421875 L 21.070312 17.132812 L 21.335938 16.828125 L 21.558594 16.492188 L 21.742188 16.125 L 21.886719 15.753906 L 21.984375 15.363281 L 22.054688 14.960938 L 22.0625 14.558594 L 22.0625 14.550781 L 21.53125 14.550781 " fill-opacity="1" fill-rule="nonzero"/><path stroke-linecap="butt" transform="matrix(0.0208718, 0, 0, -0.0206782, -2.656455, 29.060399)" fill="none" stroke-linejoin="miter" d="M 1158.8706 701.685065 L 1158.309137 689.783972 L 1155.501819 672.404598 L 1151.197265 654.836318 L 1145.20832 638.023663 L 1137.534985 621.58882 L 1127.615796 606.665227 L 1116.012215 592.49726 L 1103.285708 579.840542 L 1088.87481 568.506168 L 1073.902448 559.060856 L 1057.432851 551.693513 L 1040.401789 545.2707 L 1023.183574 541.492576 L 1004.842431 539.79242 L 986.875597 539.036795 L 968.908763 541.492576 L 951.316238 545.2707 L 934.472331 550.937888 L 918.189888 559.060856 L 902.468908 568.506168 L 888.619474 579.840542 L 875.518658 592.49726 L 864.289386 606.098509 L 854.370197 621.58882 L 846.135398 637.268038 L 839.772144 654.080693 L 835.46759 671.648973 L 833.596045 689.783972 L 832.847427 708.107877 L 834.906127 726.242875 L 838.462063 743.811155 L 844.263853 760.434904 L 851.18857 777.436465 L 860.546296 792.548964 L 871.962722 806.716932 L 883.753456 819.940369 L 897.415736 831.841462 L 912.388098 842.042398 L 928.857696 849.97646 L 945.514448 856.777085 L 963.294127 861.499741 L 980.699498 864.522241 L 998.666332 864.900053 L 1016.633165 863.199897 L 1034.412845 860.177397 L 1051.818215 855.076929 L 1068.100658 847.520679 L 1083.634483 838.830992 L 1098.981154 828.252243 L 1111.707661 816.35115 L 1123.872705 802.372089 L 1134.540513 787.448496 L 1142.401003 771.769278 L 1149.512874 754.767717 L 1154.378892 738.143968 L 1157.560519 720.008969 L 1158.8706 701.685065 L 1184.323615 701.685065 L 1183.949306 720.953501 L 1180.580525 740.788656 L 1175.901662 759.301467 L 1168.976944 777.436465 L 1160.180682 794.815839 L 1150.074338 811.250682 L 1137.534985 826.9299 L 1124.434169 840.720055 L 1109.461807 852.99896 L 1093.179364 863.955522 L 1076.148303 873.400834 L 1058.181469 880.579271 L 1039.466017 885.679739 L 1020.001947 889.457864 L 1000.537877 890.780208 L 981.260961 890.780208 L 961.796891 888.324426 L 943.268594 883.601771 L 924.740296 876.801146 L 907.52208 868.678178 L 890.678174 858.666147 L 874.957194 847.520679 L 860.546296 834.297243 L 848.006943 819.37365 L 836.777672 803.694432 L 826.671328 787.070684 L 819.185147 769.313497 L 813.009048 750.61178 L 809.078803 731.910062 L 807.394412 712.45272 L 806.832949 692.806471 L 809.078803 673.726941 L 813.009048 654.080693 L 818.810838 635.945694 L 826.671328 617.999602 L 836.029054 600.99804 L 847.258325 585.318823 L 859.984832 570.39523 L 874.208576 557.171793 L 889.929556 545.2707 L 906.399153 535.25867 L 924.365987 527.324608 L 942.519976 520.71289 L 961.235428 515.990234 L 980.699498 513.534453 L 1000.163568 512.778828 L 1019.066174 514.66789 L 1038.717399 517.69039 L 1056.871387 523.357577 L 1075.025376 530.347108 L 1092.243591 539.79242 L 1108.713189 550.371169 L 1123.872705 562.83898 L 1136.786367 576.818042 L 1149.512874 591.552728 L 1160.180682 607.798665 L 1168.976944 625.555851 L 1175.901662 643.501944 L 1180.580525 662.392567 L 1183.949306 681.84991 L 1184.323615 701.307252 L 1184.323615 701.685065 Z M 1158.8706 701.685065 " stroke="#6e6c9b" stroke-width="0.508" stroke-opacity="1" stroke-miterlimit="4"/><path fill="#6e6c9b" d="M 18.203125 17.976562 L 18.136719 14.601562 L 17.476562 17.976562 L 17.351562 17.84375 L 18.136719 14.601562 L 16.554688 17.730469 L 16.375 17.667969 L 18.136719 14.601562 L 15.890625 17.304688 L 15.761719 17.191406 L 18.136719 14.601562 L 15.214844 16.527344 L 15.027344 16.34375 L 18.136719 14.601562 L 14.613281 15.753906 L 14.664062 15.445312 L 18.136719 14.601562 L 14.613281 14.78125 L 14.542969 14.550781 L 18.136719 14.601562 L 14.613281 13.941406 L 14.613281 13.707031 L 18.136719 14.601562 L 14.976562 12.855469 L 15.160156 12.625 L 18.136719 14.601562 L 15.578125 11.960938 L 15.710938 11.78125 L 18.136719 14.601562 L 16.375 11.484375 L 16.625 11.351562 L 18.136719 14.601562 L 17.226562 10.992188 L 17.40625 10.9375 L 18.136719 14.601562 L 18.023438 10.9375 L 18.203125 10.992188 L 18.085938 14.601562 L 18.863281 11.121094 L 19.046875 11.175781 L 18.136719 14.601562 L 19.660156 11.351562 L 19.847656 11.484375 L 18.136719 14.601562 L 20.511719 11.960938 L 20.761719 12.011719 L 18.136719 14.601562 L 21.246094 12.6875 L 21.308594 12.917969 L 18.136719 14.601562 L 21.609375 13.574219 L 21.671875 13.757812 L 18.136719 14.601562 L 21.671875 14.488281 L 21.671875 14.664062 L 18.136719 14.601562 L 21.609375 15.390625 L 21.425781 15.570312 L 18.136719 14.601562 L 21.308594 16.230469 L 21.246094 16.464844 L 18.136719 14.601562 L 20.695312 17.007812 L 20.511719 17.191406 L 18.136719 14.601562 L 19.847656 17.730469 L 19.597656 17.800781 L 18.136719 14.601562 L 18.5 18.09375 L 18.203125 17.976562 " fill-opacity="1" fill-rule="nonzero"/><path stroke-linecap="butt" transform="matrix(0.0208718, 0, 0, -0.0206782, -2.656455, 29.060399)" fill="none" stroke-linejoin="miter" d="M 999.41495 536.014295 L 996.233323 699.229283 L 964.604209 536.014295 L 958.615264 542.437107 L 996.233323 699.229283 L 920.435742 547.915388 L 911.826634 550.937888 L 996.233323 699.229283 L 888.619474 568.506168 L 882.443375 573.984448 L 996.233323 699.229283 L 856.241742 606.098509 L 847.258325 614.977102 L 996.233323 699.229283 L 827.419946 643.501944 L 829.852955 658.425536 L 996.233323 699.229283 L 827.419946 690.539597 L 824.051165 701.685065 L 996.233323 699.229283 L 827.419946 731.154437 L 827.419946 742.488812 L 996.233323 699.229283 L 844.825316 783.670371 L 853.621579 794.815839 L 996.233323 699.229283 L 873.647112 826.9299 L 880.010366 835.619586 L 996.233323 699.229283 L 911.826634 849.97646 L 923.804524 856.399272 L 996.233323 699.229283 L 952.62632 873.778646 L 961.235428 876.423334 L 996.233323 699.229283 L 990.805842 876.423334 L 999.41495 873.778646 L 993.800314 699.229283 L 1031.044063 867.54474 L 1039.840326 864.900053 L 996.233323 699.229283 L 1069.223585 856.399272 L 1078.207002 849.97646 L 996.233323 699.229283 L 1110.023271 826.9299 L 1122.00116 824.474118 L 996.233323 699.229283 L 1145.20832 791.793339 L 1148.202793 780.647872 L 996.233323 699.229283 L 1162.613691 748.911624 L 1165.608163 740.033031 L 996.233323 699.229283 L 1165.608163 704.707564 L 1165.608163 696.206784 L 996.233323 699.229283 L 1162.613691 661.070224 L 1153.817428 652.380537 L 996.233323 699.229283 L 1148.202793 620.455383 L 1145.20832 609.121008 L 996.233323 699.229283 L 1118.819533 582.863042 L 1110.023271 573.984448 L 996.233323 699.229283 L 1078.207002 547.915388 L 1066.229113 544.515076 L 996.233323 699.229283 L 1013.638693 530.347108 Z M 999.41495 536.014295 " stroke="#6e6c9b" stroke-width="0.508" stroke-opacity="1" stroke-miterlimit="4"/></svg>