<svg xmlns="http://www.w3.org/2000/svg" xmlns:xlink="http://www.w3.org/1999/xlink" width="50" zoomAndPan="magnify" viewBox="0 0 37.5 30.000001" height="40" preserveAspectRatio="xMidYMid meet" version="1.0"><defs><clipPath id="a508cd9365"><path d="M 0.390625 1.339844 L 36.628906 1.339844 L 36.628906 27.464844 L 0.390625 27.464844 Z M 0.390625 1.339844 " clip-rule="nonzero"/></clipPath><clipPath id="4d0526ec43"><path d="M 10.265625 1.339844 L 16.890625 1.339844 L 16.890625 27.464844 L 10.265625 27.464844 Z M 10.265625 1.339844 " clip-rule="nonzero"/></clipPath><clipPath id="2a872600a2"><path d="M 0.390625 11.128906 L 36.628906 11.128906 L 36.628906 17.699219 L 0.390625 17.699219 Z M 0.390625 11.128906 " clip-rule="nonzero"/></clipPath><clipPath id="51b65bdcb0"><path d="M 11.886719 1.339844 L 15.234375 1.339844 L 15.234375 27.464844 L 11.886719 27.464844 Z M 11.886719 1.339844 " clip-rule="nonzero"/></clipPath><clipPath id="bc89d5a817"><path d="M 0.390625 12.738281 L 36.628906 12.738281 L 36.628906 16.058594 L 0.390625 16.058594 Z M 0.390625 12.738281 " clip-rule="nonzero"/></clipPath></defs><g clip-path="url(#a508cd9365)"><path fill="#ee222d" d="M 0.390625 1.339844 L 36.628906 1.339844 L 36.628906 27.464844 L 0.390625 27.464844 L 0.390625 1.339844 " fill-opacity="1" fill-rule="nonzero"/></g><g clip-path="url(#4d0526ec43)"><path fill="#ffffff" d="M 10.273438 1.339844 L 16.859375 1.339844 L 16.859375 27.464844 L 10.273438 27.464844 L 10.273438 1.339844 " fill-opacity="1" fill-rule="nonzero"/></g><g clip-path="url(#2a872600a2)"><path fill="#ffffff" d="M 0.390625 11.136719 L 36.628906 11.136719 L 36.628906 17.667969 L 0.390625 17.667969 L 0.390625 11.136719 " fill-opacity="1" fill-rule="nonzero"/></g><g clip-path="url(#51b65bdcb0)"><path fill="#222f61" d="M 11.917969 1.339844 L 15.214844 1.339844 L 15.214844 27.464844 L 11.917969 27.464844 L 11.917969 1.339844 " fill-opacity="1" fill-rule="nonzero"/></g><g clip-path="url(#bc89d5a817)"><path fill="#222f61" d="M 0.390625 12.769531 L 36.628906 12.769531 L 36.628906 16.035156 L 0.390625 16.035156 L 0.390625 12.769531 " fill-opacity="1" fill-rule="nonzero"/></g></svg>