<svg xmlns="http://www.w3.org/2000/svg" xmlns:xlink="http://www.w3.org/1999/xlink" width="50" zoomAndPan="magnify" viewBox="0 0 37.5 30.000001" height="40" preserveAspectRatio="xMidYMid meet" version="1.0"><defs><clipPath id="311aef34a0"><path d="M 0.363281 1.558594 L 36.652344 1.558594 L 36.652344 27.6875 L 0.363281 27.6875 Z M 0.363281 1.558594 " clip-rule="nonzero"/></clipPath><clipPath id="d343c768da"><path d="M 0.363281 2 L 36.652344 2 L 36.652344 27 L 0.363281 27 Z M 0.363281 2 " clip-rule="nonzero"/></clipPath></defs><g clip-path="url(#311aef34a0)"><path fill="#ffffff" d="M -0.914062 1.558594 L 38.265625 1.558594 L 38.265625 27.6875 L -0.914062 27.6875 Z M -0.914062 1.558594 " fill-opacity="1" fill-rule="nonzero"/></g><g clip-path="url(#d343c768da)"><path fill="#ffffff" d="M 36.730469 26.640625 L 0.625 26.640625 L 0.625 2.605469 L 36.730469 2.605469 L 36.730469 26.640625 " fill-opacity="1" fill-rule="nonzero"/></g><path fill="#0047a0" d="M 23.59375 14.625 C 23.59375 17.339844 21.390625 19.542969 18.675781 19.542969 C 15.960938 19.542969 13.757812 17.339844 13.757812 14.625 C 13.757812 11.90625 15.960938 9.707031 18.675781 9.707031 C 21.390625 9.707031 23.59375 11.90625 23.59375 14.625 " fill-opacity="1" fill-rule="nonzero"/><path fill="#cd2e3a" d="M 18.917969 13.558594 C 18.917969 14.910156 17.824219 16.003906 16.472656 16.003906 C 15.121094 16.003906 14.023438 14.910156 14.023438 13.558594 C 14.023438 12.207031 15.121094 11.109375 16.472656 11.109375 C 17.824219 11.109375 18.917969 12.207031 18.917969 13.558594 " fill-opacity="1" fill-rule="nonzero"/><path fill="#cd2e3a" d="M 23.578125 15.03125 C 23.578125 15.019531 23.578125 15.007812 23.578125 14.996094 C 23.582031 14.972656 23.582031 14.949219 23.582031 14.925781 C 23.585938 14.917969 23.585938 14.910156 23.585938 14.898438 C 23.585938 14.878906 23.585938 14.855469 23.589844 14.835938 C 23.589844 14.828125 23.589844 14.820312 23.589844 14.8125 C 23.589844 14.785156 23.589844 14.757812 23.59375 14.730469 C 23.59375 14.722656 23.59375 14.71875 23.59375 14.710938 C 23.59375 14.683594 23.59375 14.652344 23.59375 14.625 C 23.59375 14.601562 23.59375 14.578125 23.59375 14.554688 C 23.59375 14.546875 23.59375 14.539062 23.59375 14.53125 C 23.59375 14.515625 23.589844 14.5 23.589844 14.484375 C 23.589844 14.476562 23.589844 14.464844 23.589844 14.457031 C 23.589844 14.441406 23.589844 14.429688 23.589844 14.414062 C 23.589844 14.40625 23.589844 14.394531 23.585938 14.386719 C 23.585938 14.371094 23.585938 14.355469 23.585938 14.34375 C 23.585938 14.332031 23.585938 14.324219 23.582031 14.316406 C 23.582031 14.300781 23.582031 14.28125 23.582031 14.261719 C 23.578125 14.257812 23.578125 14.253906 23.578125 14.25 C 23.578125 14.226562 23.574219 14.203125 23.574219 14.179688 C 23.574219 14.175781 23.574219 14.167969 23.570312 14.164062 C 23.570312 14.148438 23.570312 14.128906 23.566406 14.109375 C 23.566406 14.101562 23.566406 14.097656 23.5625 14.089844 C 23.5625 14.074219 23.5625 14.058594 23.558594 14.042969 C 23.558594 14.035156 23.558594 14.027344 23.554688 14.019531 C 23.554688 14.003906 23.550781 13.988281 23.550781 13.972656 C 23.550781 13.964844 23.546875 13.957031 23.546875 13.949219 C 23.546875 13.933594 23.542969 13.914062 23.539062 13.898438 C 23.539062 13.894531 23.539062 13.886719 23.539062 13.882812 C 23.53125 13.835938 23.523438 13.789062 23.515625 13.746094 C 23.515625 13.738281 23.511719 13.734375 23.511719 13.730469 C 23.507812 13.710938 23.503906 13.695312 23.503906 13.679688 C 23.5 13.671875 23.5 13.664062 23.5 13.65625 C 23.496094 13.640625 23.492188 13.625 23.488281 13.609375 C 23.488281 13.605469 23.484375 13.597656 23.484375 13.589844 C 23.480469 13.574219 23.476562 13.558594 23.472656 13.539062 C 23.472656 13.535156 23.472656 13.53125 23.46875 13.523438 C 23.464844 13.503906 23.460938 13.480469 23.453125 13.460938 C 23.453125 13.460938 23.453125 13.460938 23.453125 13.457031 C 23.449219 13.433594 23.441406 13.414062 23.4375 13.390625 C 23.4375 13.386719 23.4375 13.386719 23.4375 13.382812 C 23.429688 13.363281 23.425781 13.34375 23.417969 13.324219 C 23.417969 13.320312 23.417969 13.3125 23.414062 13.308594 C 23.410156 13.292969 23.40625 13.273438 23.402344 13.257812 C 23.398438 13.253906 23.398438 13.246094 23.394531 13.242188 C 23.390625 13.222656 23.386719 13.207031 23.382812 13.191406 C 23.378906 13.1875 23.378906 13.179688 23.375 13.175781 C 23.371094 13.15625 23.363281 13.136719 23.359375 13.121094 C 23.359375 13.117188 23.355469 13.113281 23.355469 13.113281 C 23.34375 13.066406 23.328125 13.023438 23.3125 12.980469 C 23.3125 12.976562 23.308594 12.976562 23.308594 12.972656 C 23.300781 12.953125 23.296875 12.933594 23.289062 12.917969 C 23.289062 12.914062 23.285156 12.90625 23.285156 12.902344 C 23.277344 12.886719 23.269531 12.871094 23.265625 12.851562 C 23.261719 12.847656 23.261719 12.84375 23.257812 12.839844 C 23.253906 12.820312 23.246094 12.804688 23.238281 12.785156 C 23.238281 12.78125 23.234375 12.777344 23.234375 12.777344 C 23.207031 12.710938 23.179688 12.648438 23.152344 12.585938 C 23.152344 12.582031 23.148438 12.582031 23.148438 12.578125 C 23.140625 12.558594 23.132812 12.542969 23.125 12.527344 C 23.121094 12.523438 23.121094 12.515625 23.117188 12.511719 C 23.109375 12.496094 23.101562 12.480469 23.09375 12.460938 C 23.09375 12.460938 23.089844 12.457031 23.089844 12.453125 C 23.078125 12.433594 23.070312 12.414062 23.058594 12.394531 C 22.246094 10.796875 20.589844 9.707031 18.675781 9.707031 C 16.835938 9.707031 15.230469 10.71875 14.386719 12.214844 L 18.675781 14.625 L 21 14.851562 L 20.539062 15.398438 L 22.703125 17.449219 C 23.179688 16.769531 23.488281 15.96875 23.570312 15.097656 C 23.574219 15.078125 23.574219 15.054688 23.578125 15.03125 " fill-opacity="1" fill-rule="nonzero"/><path fill="#0047a0" d="M 23.164062 16.003906 C 23.164062 17.359375 22.066406 18.453125 20.714844 18.453125 C 19.363281 18.453125 18.269531 17.359375 18.269531 16.003906 C 18.269531 14.652344 19.363281 13.558594 20.714844 13.558594 C 22.066406 13.558594 23.164062 14.652344 23.164062 16.003906 " fill-opacity="1" fill-rule="nonzero"/><path fill="#000000" d="M 12.601562 5.316406 L 8.460938 10.257812 L 7.757812 9.667969 L 11.902344 4.730469 L 12.601562 5.316406 " fill-opacity="1" fill-rule="nonzero"/><path fill="#000000" d="M 13.011719 5.660156 L 8.867188 10.601562 L 9.566406 11.1875 L 13.710938 6.25 L 13.011719 5.660156 " fill-opacity="1" fill-rule="nonzero"/><path fill="#000000" d="M 14.117188 6.589844 L 9.976562 11.527344 L 10.675781 12.117188 L 14.816406 7.175781 L 14.117188 6.589844 " fill-opacity="1" fill-rule="nonzero"/><path fill="#000000" d="M 25.441406 20.925781 L 23.675781 23.03125 L 24.375 23.617188 L 26.144531 21.511719 L 25.441406 20.925781 " fill-opacity="1" fill-rule="nonzero"/><path fill="#000000" d="M 26.515625 21.824219 L 24.75 23.929688 L 25.449219 24.515625 L 27.214844 22.410156 L 26.515625 21.824219 " fill-opacity="1" fill-rule="nonzero"/><path fill="#000000" d="M 24.335938 19.992188 L 22.566406 22.097656 L 23.265625 22.6875 L 25.035156 20.582031 L 24.335938 19.992188 " fill-opacity="1" fill-rule="nonzero"/><path fill="#000000" d="M 24.945312 19.265625 L 25.644531 19.851562 L 27.410156 17.746094 L 26.710938 17.160156 L 24.945312 19.265625 " fill-opacity="1" fill-rule="nonzero"/><path fill="#000000" d="M 27.828125 21.683594 L 29.59375 19.578125 L 28.894531 18.992188 L 27.125 21.097656 L 27.828125 21.683594 " fill-opacity="1" fill-rule="nonzero"/><path fill="#000000" d="M 26.753906 20.785156 L 28.519531 18.679688 L 27.820312 18.089844 L 26.054688 20.195312 L 26.753906 20.785156 " fill-opacity="1" fill-rule="nonzero"/><path fill="#000000" d="M 23.710938 6.1875 L 27.855469 11.128906 L 28.554688 10.539062 L 24.414062 5.601562 L 23.710938 6.1875 " fill-opacity="1" fill-rule="nonzero"/><path fill="#000000" d="M 27.125 8.152344 L 28.894531 10.257812 L 29.59375 9.667969 L 27.828125 7.5625 L 27.125 8.152344 " fill-opacity="1" fill-rule="nonzero"/><path fill="#000000" d="M 24.980469 9.953125 L 26.746094 12.058594 L 27.445312 11.472656 L 25.679688 9.367188 L 24.980469 9.953125 " fill-opacity="1" fill-rule="nonzero"/><path fill="#000000" d="M 24.371094 9.226562 L 25.070312 8.636719 L 23.304688 6.53125 L 22.605469 7.121094 L 24.371094 9.226562 " fill-opacity="1" fill-rule="nonzero"/><path fill="#000000" d="M 27.214844 6.835938 L 25.449219 4.730469 L 24.75 5.316406 L 26.515625 7.421875 L 27.214844 6.835938 " fill-opacity="1" fill-rule="nonzero"/><path fill="#000000" d="M 8.460938 18.992188 L 12.601562 23.929688 L 11.902344 24.515625 L 7.757812 19.578125 L 8.460938 18.992188 " fill-opacity="1" fill-rule="nonzero"/><path fill="#000000" d="M 9.976562 17.71875 L 14.117188 22.65625 L 14.816406 22.070312 L 10.675781 17.132812 L 9.976562 17.71875 " fill-opacity="1" fill-rule="nonzero"/><path fill="#000000" d="M 11.246094 21.480469 L 13.011719 23.585938 L 13.710938 23 L 11.945312 20.894531 L 11.246094 21.480469 " fill-opacity="1" fill-rule="nonzero"/><path fill="#000000" d="M 10.632812 20.753906 L 11.335938 20.167969 L 9.566406 18.0625 L 8.867188 18.648438 L 10.632812 20.753906 " fill-opacity="1" fill-rule="nonzero"/></svg>