<svg xmlns="http://www.w3.org/2000/svg" xmlns:xlink="http://www.w3.org/1999/xlink" width="50" zoomAndPan="magnify" viewBox="0 0 37.5 30.000001" height="40" preserveAspectRatio="xMidYMid meet" version="1.0"><defs><clipPath id="29c09efca9"><path d="M 0.363281 0 L 36.652344 0 L 36.652344 29.03125 L 0.363281 29.03125 Z M 0.363281 0 " clip-rule="nonzero"/></clipPath><clipPath id="19e658a99e"><path d="M 0.363281 4 L 36.652344 4 L 36.652344 25 L 0.363281 25 Z M 0.363281 4 " clip-rule="nonzero"/></clipPath><clipPath id="2c9c53b621"><path d="M 0.363281 9 L 36.652344 9 L 36.652344 20 L 0.363281 20 Z M 0.363281 9 " clip-rule="nonzero"/></clipPath></defs><g clip-path="url(#29c09efca9)"><path fill="#d50000" d="M -2.773438 0 L 40.023438 0 L 40.023438 29.03125 L -2.773438 29.03125 Z M -2.773438 0 " fill-opacity="1" fill-rule="nonzero"/></g><g clip-path="url(#19e658a99e)"><path fill="#eceff1" d="M -2.773438 4.839844 L 40.023438 4.839844 L 40.023438 24.195312 L -2.773438 24.195312 Z M -2.773438 4.839844 " fill-opacity="1" fill-rule="nonzero"/></g><g clip-path="url(#2c9c53b621)"><path fill="#1a237e" d="M -2.773438 9.675781 L 40.023438 9.675781 L 40.023438 19.355469 L -2.773438 19.355469 Z M -2.773438 9.675781 " fill-opacity="1" fill-rule="nonzero"/></g></svg>