<svg xmlns="http://www.w3.org/2000/svg" xmlns:xlink="http://www.w3.org/1999/xlink" width="50" zoomAndPan="magnify" viewBox="0 0 37.5 30.000001" height="40" preserveAspectRatio="xMidYMid meet" version="1.0"><defs><clipPath id="14a01ba73d"><path d="M 0.363281 0 L 12 0 L 12 29.03125 L 0.363281 29.03125 Z M 0.363281 0 " clip-rule="nonzero"/></clipPath><clipPath id="746f7ef322"><path d="M 11 0 L 26 0 L 26 29.03125 L 11 29.03125 Z M 11 0 " clip-rule="nonzero"/></clipPath><clipPath id="54037a8ac5"><path d="M 25 0 L 36.652344 0 L 36.652344 29.03125 L 25 29.03125 Z M 25 0 " clip-rule="nonzero"/></clipPath></defs><g clip-path="url(#14a01ba73d)"><path fill="#009246" d="M -3.277344 0 L 11.214844 0 L 11.214844 29.03125 L -3.277344 29.03125 Z M -3.277344 0 " fill-opacity="1" fill-rule="nonzero"/></g><g clip-path="url(#746f7ef322)"><path fill="#ffffff" d="M 11.214844 0 L 25.710938 0 L 25.710938 29.03125 L 11.214844 29.03125 Z M 11.214844 0 " fill-opacity="1" fill-rule="nonzero"/></g><g clip-path="url(#54037a8ac5)"><path fill="#ce2b37" d="M 25.710938 0 L 40.203125 0 L 40.203125 29.03125 L 25.710938 29.03125 Z M 25.710938 0 " fill-opacity="1" fill-rule="nonzero"/></g></svg>