<svg xmlns="http://www.w3.org/2000/svg" xmlns:xlink="http://www.w3.org/1999/xlink" width="50" zoomAndPan="magnify" viewBox="0 0 37.5 30.000001" height="40" preserveAspectRatio="xMidYMid meet" version="1.0"><defs><clipPath id="8acaeb7c6d"><path d="M 0.386719 0 L 36.652344 0 L 36.652344 29.03125 L 0.386719 29.03125 Z M 0.386719 0 " clip-rule="nonzero"/></clipPath><clipPath id="11eb565834"><path d="M 11.253906 0 L 18.546875 0 L 18.546875 29.03125 L 11.253906 29.03125 Z M 11.253906 0 " clip-rule="nonzero"/></clipPath><clipPath id="e5fba9fbee"><path d="M 0.386719 10.878906 L 36.652344 10.878906 L 36.652344 18.179688 L 0.386719 18.179688 Z M 0.386719 10.878906 " clip-rule="nonzero"/></clipPath><clipPath id="e71ee5c591"><path d="M 13.039062 0 L 16.722656 0 L 16.722656 29.03125 L 13.039062 29.03125 Z M 13.039062 0 " clip-rule="nonzero"/></clipPath><clipPath id="707eea33ee"><path d="M 0.386719 12.667969 L 36.652344 12.667969 L 36.652344 16.355469 L 0.386719 16.355469 Z M 0.386719 12.667969 " clip-rule="nonzero"/></clipPath></defs><g clip-path="url(#8acaeb7c6d)"><path fill="#ee222d" d="M 0.386719 0 L 40.257812 0 L 40.257812 29.03125 L 0.386719 29.03125 L 0.386719 0 " fill-opacity="1" fill-rule="nonzero"/></g><g clip-path="url(#11eb565834)"><path fill="#ffffff" d="M 11.261719 0 L 18.511719 0 L 18.511719 29.03125 L 11.261719 29.03125 L 11.261719 0 " fill-opacity="1" fill-rule="nonzero"/></g><g clip-path="url(#e5fba9fbee)"><path fill="#ffffff" d="M 0.386719 10.886719 L 40.257812 10.886719 L 40.257812 18.144531 L 0.386719 18.144531 L 0.386719 10.886719 " fill-opacity="1" fill-rule="nonzero"/></g><g clip-path="url(#e71ee5c591)"><path fill="#222f61" d="M 13.074219 0 L 16.699219 0 L 16.699219 29.03125 L 13.074219 29.03125 L 13.074219 0 " fill-opacity="1" fill-rule="nonzero"/></g><g clip-path="url(#707eea33ee)"><path fill="#222f61" d="M 0.386719 12.699219 L 40.257812 12.699219 L 40.257812 16.328125 L 0.386719 16.328125 L 0.386719 12.699219 " fill-opacity="1" fill-rule="nonzero"/></g></svg>