<svg xmlns="http://www.w3.org/2000/svg" xmlns:xlink="http://www.w3.org/1999/xlink" width="50" zoomAndPan="magnify" viewBox="0 0 37.5 30.000001" height="40" preserveAspectRatio="xMidYMid meet" version="1.0"><defs><clipPath id="f1d39c86d3"><path d="M 0.363281 1 L 36.652344 1 L 36.652344 28 L 0.363281 28 Z M 0.363281 1 " clip-rule="nonzero"/></clipPath><clipPath id="5a77f40442"><path d="M 0.363281 19 L 36.652344 19 L 36.652344 28.933594 L 0.363281 28.933594 Z M 0.363281 19 " clip-rule="nonzero"/></clipPath><clipPath id="08d0790b95"><path d="M 0.363281 0 L 36.652344 0 L 36.652344 10 L 0.363281 10 Z M 0.363281 0 " clip-rule="nonzero"/></clipPath></defs><g clip-path="url(#f1d39c86d3)"><path fill="#fcdd09" d="M 38.746094 27.484375 L -1.898438 27.484375 L -1.898438 20.226562 L -3.351562 19.253906 L -3.351562 9.585938 L -1.898438 8.613281 L -1.898438 1.355469 L 38.746094 1.355469 L 38.746094 8.613281 L 40.199219 9.585938 L 40.199219 19.253906 L 38.746094 20.226562 Z M 38.746094 27.484375 " fill-opacity="1" fill-rule="nonzero"/></g><g clip-path="url(#5a77f40442)"><path fill="#da121a" d="M -3.351562 19.253906 L 40.199219 19.253906 L 40.199219 28.933594 L -3.351562 28.933594 Z M -3.351562 19.253906 " fill-opacity="1" fill-rule="nonzero"/></g><g clip-path="url(#08d0790b95)"><path fill="#078930" d="M -3.351562 -0.0976562 L 40.199219 -0.0976562 L 40.199219 9.585938 L -3.351562 9.585938 Z M -3.351562 -0.0976562 " fill-opacity="1" fill-rule="nonzero"/></g><path fill="#0f47af" d="M 28.105469 14.417969 C 28.105469 15.054688 28.042969 15.683594 27.921875 16.308594 C 27.796875 16.933594 27.613281 17.539062 27.371094 18.125 C 27.125 18.710938 26.828125 19.269531 26.476562 19.796875 C 26.121094 20.328125 25.71875 20.816406 25.269531 21.265625 C 24.820312 21.714844 24.332031 22.117188 23.804688 22.46875 C 23.273438 22.824219 22.714844 23.121094 22.128906 23.363281 C 21.542969 23.609375 20.9375 23.792969 20.3125 23.914062 C 19.691406 24.039062 19.058594 24.101562 18.425781 24.101562 C 17.789062 24.101562 17.160156 24.039062 16.535156 23.914062 C 15.910156 23.792969 15.304688 23.609375 14.71875 23.363281 C 14.132812 23.121094 13.574219 22.824219 13.046875 22.46875 C 12.515625 22.117188 12.027344 21.714844 11.578125 21.265625 C 11.128906 20.816406 10.726562 20.328125 10.375 19.796875 C 10.019531 19.269531 9.722656 18.710938 9.480469 18.125 C 9.234375 17.539062 9.050781 16.933594 8.929688 16.308594 C 8.804688 15.683594 8.742188 15.054688 8.742188 14.417969 C 8.742188 13.785156 8.804688 13.152344 8.929688 12.53125 C 9.050781 11.90625 9.234375 11.300781 9.480469 10.714844 C 9.722656 10.125 10.019531 9.570312 10.375 9.039062 C 10.726562 8.511719 11.128906 8.023438 11.578125 7.574219 C 12.027344 7.125 12.515625 6.722656 13.046875 6.367188 C 13.574219 6.015625 14.132812 5.71875 14.71875 5.472656 C 15.304688 5.230469 15.910156 5.046875 16.535156 4.921875 C 17.160156 4.800781 17.789062 4.738281 18.425781 4.738281 C 19.058594 4.738281 19.691406 4.800781 20.3125 4.921875 C 20.9375 5.046875 21.542969 5.230469 22.128906 5.472656 C 22.714844 5.71875 23.273438 6.015625 23.804688 6.367188 C 24.332031 6.722656 24.820312 7.125 25.269531 7.574219 C 25.71875 8.023438 26.121094 8.511719 26.476562 9.039062 C 26.828125 9.570312 27.125 10.125 27.371094 10.714844 C 27.613281 11.300781 27.796875 11.90625 27.921875 12.53125 C 28.042969 13.152344 28.105469 13.785156 28.105469 14.417969 Z M 28.105469 14.417969 " fill-opacity="1" fill-rule="nonzero"/><path fill="#fcdd09" d="M 25.785156 12.023438 L 21.242188 15.332031 L 22.503906 19.253906 L 21.617188 18.601562 L 19.773438 12.910156 L 20.457031 12.910156 L 21.023438 14.695312 L 24.695312 12.023438 Z M 25.785156 12.023438 " fill-opacity="1" fill-rule="nonzero"/><path fill="#fcdd09" d="M 20.375 11.453125 L 22.839844 8.058594 L 23.097656 8.246094 L 20.632812 11.640625 Z M 20.375 11.453125 " fill-opacity="1" fill-rule="nonzero"/><path fill="#fcdd09" d="M 18.425781 6.683594 L 20.167969 12.023438 L 24.273438 12.023438 L 23.386719 12.675781 L 17.40625 12.675781 L 17.625 12.023438 L 19.484375 12.023438 L 18.089844 7.726562 Z M 18.425781 6.683594 " fill-opacity="1" fill-rule="nonzero"/><path fill="#fcdd09" d="M 13.742188 8.25 L 14 8.0625 L 16.464844 11.457031 L 16.207031 11.644531 Z M 13.742188 8.25 " fill-opacity="1" fill-rule="nonzero"/><path fill="#fcdd09" d="M 16.683594 12.023438 L 17.960938 8.121094 L 18.292969 9.148438 L 16.449219 14.839844 L 15.898438 14.449219 L 16.480469 12.675781 L 11.949219 12.675781 L 11.066406 12.023438 Z M 16.683594 12.023438 " fill-opacity="1" fill-rule="nonzero"/><path fill="#fcdd09" d="M 11.011719 16.65625 L 15.003906 15.359375 L 15.101562 15.664062 L 11.113281 16.960938 Z M 11.011719 16.65625 " fill-opacity="1" fill-rule="nonzero"/><path fill="#fcdd09" d="M 13.878906 20.675781 L 15.609375 15.332031 L 12.285156 12.910156 L 13.371094 12.910156 L 18.222656 16.421875 L 17.667969 16.828125 L 16.160156 15.726562 L 14.765625 20.035156 Z M 13.878906 20.675781 " fill-opacity="1" fill-rule="nonzero"/><path fill="#fcdd09" d="M 18.265625 17.960938 L 18.582031 17.960938 L 18.582031 22.15625 L 18.265625 22.15625 Z M 18.265625 17.960938 " fill-opacity="1" fill-rule="nonzero"/><path fill="#fcdd09" d="M 18.425781 17.378906 L 15.101562 19.789062 L 15.433594 18.746094 L 20.269531 15.230469 L 20.484375 15.886719 L 18.976562 16.972656 L 22.632812 19.644531 L 22.96875 20.675781 Z M 18.425781 17.378906 " fill-opacity="1" fill-rule="nonzero"/><path fill="#fcdd09" d="M 21.757812 15.660156 L 21.855469 15.359375 L 25.847656 16.65625 L 25.75 16.957031 Z M 21.757812 15.660156 " fill-opacity="1" fill-rule="nonzero"/></svg>