<svg xmlns="http://www.w3.org/2000/svg" xmlns:xlink="http://www.w3.org/1999/xlink" width="50" zoomAndPan="magnify" viewBox="0 0 37.5 30.000001" height="40" preserveAspectRatio="xMidYMid meet" version="1.0"><defs><clipPath id="3c2b1b7669"><path d="M 0.363281 0 L 36.652344 0 L 36.652344 29.03125 L 0.363281 29.03125 Z M 0.363281 0 " clip-rule="nonzero"/></clipPath></defs><g clip-path="url(#3c2b1b7669)"><path fill="#000000" d="M -0.851562 0 L 18.382812 14.515625 L -0.851562 29.03125 Z M 37.617188 0 L 18.382812 14.515625 L 37.617188 29.03125 Z M 37.617188 0 " fill-opacity="1" fill-rule="evenodd"/><path fill="#009900" d="M -0.851562 0 L 18.382812 14.515625 L 37.617188 0 Z M -0.851562 29.03125 L 18.382812 14.515625 L 37.617188 29.03125 Z M -0.851562 29.03125 " fill-opacity="1" fill-rule="evenodd"/><path fill="#ffcc00" d="M 37.617188 0 L 34.03125 0 L -0.851562 26.328125 L -0.851562 29.03125 L 2.734375 29.03125 L 37.617188 2.707031 Z M 37.617188 0 " fill-opacity="1" fill-rule="evenodd"/><path fill="#ffcc00" d="M -0.851562 0 L -0.851562 2.707031 L 34.03125 29.03125 L 37.617188 29.03125 L 37.617188 26.328125 L 2.734375 0 Z M -0.851562 0 " fill-opacity="1" fill-rule="evenodd"/></g></svg>