<svg xmlns="http://www.w3.org/2000/svg" xmlns:xlink="http://www.w3.org/1999/xlink" width="50" zoomAndPan="magnify" viewBox="0 0 37.5 30.000001" height="40" preserveAspectRatio="xMidYMid meet" version="1.0"><defs><clipPath id="acd388b2c7"><path d="M 1.261719 1.582031 L 36.101562 1.582031 L 36.101562 27.710938 L 1.261719 27.710938 Z M 1.261719 1.582031 " clip-rule="nonzero"/></clipPath></defs><g clip-path="url(#acd388b2c7)"><path fill="#000000" d="M 1.269531 1.582031 L 18.683594 14.648438 L 1.269531 27.710938 Z M 36.097656 1.582031 L 18.683594 14.648438 L 36.097656 27.710938 Z M 36.097656 1.582031 " fill-opacity="1" fill-rule="evenodd"/><path fill="#009900" d="M 1.269531 1.582031 L 18.683594 14.648438 L 36.097656 1.582031 Z M 1.269531 27.710938 L 18.683594 14.648438 L 36.097656 27.710938 Z M 1.269531 27.710938 " fill-opacity="1" fill-rule="evenodd"/><path fill="#ffcc00" d="M 36.097656 1.582031 L 32.851562 1.582031 L 1.269531 25.277344 L 1.269531 27.710938 L 4.511719 27.710938 L 36.097656 4.015625 Z M 36.097656 1.582031 " fill-opacity="1" fill-rule="evenodd"/><path fill="#ffcc00" d="M 1.269531 1.582031 L 1.269531 4.015625 L 32.851562 27.710938 L 36.097656 27.710938 L 36.097656 25.277344 L 4.511719 1.582031 Z M 1.269531 1.582031 " fill-opacity="1" fill-rule="evenodd"/></g></svg>