<svg xmlns="http://www.w3.org/2000/svg" xmlns:xlink="http://www.w3.org/1999/xlink" width="50" zoomAndPan="magnify" viewBox="0 0 37.5 30.000001" height="40" preserveAspectRatio="xMidYMid meet" version="1.0"><defs><clipPath id="0395f9493d"><path d="M 0.363281 0 L 36.652344 0 L 36.652344 15 L 0.363281 15 Z M 0.363281 0 " clip-rule="nonzero"/></clipPath><clipPath id="517b0e7a74"><path d="M 0.363281 14 L 36.652344 14 L 36.652344 29.03125 L 0.363281 29.03125 Z M 0.363281 14 " clip-rule="nonzero"/></clipPath></defs><g clip-path="url(#0395f9493d)"><path fill="#e40001" d="M 40.851562 14.515625 L -0.515625 14.515625 L -0.515625 0 L 40.851562 0 L 40.851562 14.515625 " fill-opacity="1" fill-rule="nonzero"/></g><g clip-path="url(#517b0e7a74)"><path fill="#f2f2f2" d="M 40.851562 29.03125 L -0.515625 29.03125 L -0.515625 14.515625 L 40.851562 14.515625 L 40.851562 29.03125 " fill-opacity="1" fill-rule="nonzero"/></g><path fill="#f2f2f2" d="M 11.804688 2.984375 L 12.074219 3.820312 L 12.953125 3.820312 L 12.242188 4.339844 L 12.515625 5.175781 L 11.804688 4.65625 L 11.09375 5.175781 L 11.367188 4.339844 L 10.65625 3.820312 L 11.535156 3.820312 L 11.804688 2.984375 " fill-opacity="1" fill-rule="nonzero"/><path fill="#f2f2f2" d="M 14.636719 5.195312 L 14.910156 6.03125 L 15.785156 6.03125 L 15.074219 6.550781 L 15.347656 7.386719 L 14.636719 6.871094 L 13.929688 7.386719 L 14.199219 6.550781 L 13.488281 6.03125 L 14.367188 6.03125 L 14.636719 5.195312 " fill-opacity="1" fill-rule="nonzero"/><path fill="#f2f2f2" d="M 13.554688 8.589844 L 13.828125 9.429688 L 14.703125 9.429688 L 13.996094 9.945312 L 14.265625 10.785156 L 13.554688 10.265625 L 12.847656 10.785156 L 13.117188 9.945312 L 12.410156 9.429688 L 13.285156 9.429688 L 13.554688 8.589844 " fill-opacity="1" fill-rule="nonzero"/><path fill="#f2f2f2" d="M 9.96875 8.558594 L 10.238281 9.394531 L 11.117188 9.394531 L 10.40625 9.914062 L 10.675781 10.75 L 9.96875 10.234375 L 9.257812 10.75 L 9.53125 9.914062 L 8.820312 9.394531 L 9.699219 9.394531 L 9.96875 8.558594 " fill-opacity="1" fill-rule="nonzero"/><path fill="#f2f2f2" d="M 8.886719 5.175781 L 9.15625 6.011719 L 10.035156 6.011719 L 9.324219 6.53125 L 9.597656 7.367188 L 8.886719 6.851562 L 8.179688 7.367188 L 8.449219 6.53125 L 7.738281 6.011719 L 8.617188 6.011719 L 8.886719 5.175781 " fill-opacity="1" fill-rule="nonzero"/><path fill="#f2f2f2" d="M 5.976562 7.367188 C 5.976562 4.925781 7.683594 2.882812 9.96875 2.386719 C 9.5 2.246094 9.003906 2.167969 8.488281 2.167969 C 5.632812 2.167969 3.3125 4.496094 3.3125 7.367188 C 3.3125 10.238281 5.632812 12.566406 8.488281 12.566406 C 9.003906 12.566406 9.5 12.492188 9.96875 12.351562 C 7.683594 11.851562 5.976562 9.8125 5.976562 7.367188 " fill-opacity="1" fill-rule="nonzero"/></svg>