<svg xmlns="http://www.w3.org/2000/svg" xmlns:xlink="http://www.w3.org/1999/xlink" width="50" zoomAndPan="magnify" viewBox="0 0 37.5 30.000001" height="40" preserveAspectRatio="xMidYMid meet" version="1.0"><defs><clipPath id="2db9930c3d"><path d="M 0.363281 1.453125 L 36.652344 1.453125 L 36.652344 27.582031 L 0.363281 27.582031 Z M 0.363281 1.453125 " clip-rule="nonzero"/></clipPath><clipPath id="96addfa78b"><path d="M 0.363281 11 L 36.652344 11 L 36.652344 18 L 0.363281 18 Z M 0.363281 11 " clip-rule="nonzero"/></clipPath><clipPath id="bc127adc33"><path d="M 10 1.453125 L 17 1.453125 L 17 27.582031 L 10 27.582031 Z M 10 1.453125 " clip-rule="nonzero"/></clipPath><clipPath id="507f69cab0"><path d="M 0.363281 11 L 36.652344 11 L 36.652344 18 L 0.363281 18 Z M 0.363281 11 " clip-rule="nonzero"/></clipPath></defs><g clip-path="url(#2db9930c3d)"><path fill="#005aad" d="M -2.378906 1.453125 L 39.71875 1.453125 L 39.71875 27.578125 L -2.378906 27.578125 Z M -2.378906 1.453125 " fill-opacity="1" fill-rule="evenodd"/></g><g clip-path="url(#96addfa78b)"><path fill="#ffc200" d="M -2.378906 11.902344 L 39.71875 11.902344 L 39.71875 17.128906 L -2.378906 17.128906 Z M -2.378906 11.902344 " fill-opacity="0.5" fill-rule="evenodd"/></g><g clip-path="url(#bc127adc33)"><path fill="#ffc200" d="M 10.773438 1.453125 L 16.039062 1.453125 L 16.039062 27.578125 L 10.773438 27.578125 Z M 10.773438 1.453125 " fill-opacity="0.5" fill-rule="evenodd"/><path fill="#ffc200" d="M 10.773438 1.453125 L 16.039062 1.453125 L 16.039062 27.578125 L 10.773438 27.578125 Z M 10.773438 1.453125 " fill-opacity="1" fill-rule="evenodd"/></g><g clip-path="url(#507f69cab0)"><path fill="#ffc200" d="M -2.378906 11.902344 L 39.71875 11.902344 L 39.71875 17.128906 L -2.378906 17.128906 Z M -2.378906 11.902344 " fill-opacity="1" fill-rule="evenodd"/></g></svg>