<svg xmlns="http://www.w3.org/2000/svg" xmlns:xlink="http://www.w3.org/1999/xlink" width="50" zoomAndPan="magnify" viewBox="0 0 37.5 30.000001" height="40" preserveAspectRatio="xMidYMid meet" version="1.0"><defs><clipPath id="2ec1e42374"><path d="M 0.363281 0 L 36.652344 0 L 36.652344 29.03125 L 0.363281 29.03125 Z M 0.363281 0 " clip-rule="nonzero"/></clipPath><clipPath id="7f839286f6"><path d="M 0.363281 1 L 36.652344 1 L 36.652344 28 L 0.363281 28 Z M 0.363281 1 " clip-rule="nonzero"/></clipPath></defs><g clip-path="url(#2ec1e42374)"><path fill="#ffffff" d="M -3.265625 0 L 40.28125 0 L 40.28125 29.03125 L -3.265625 29.03125 Z M -3.265625 0 " fill-opacity="1" fill-rule="nonzero"/></g><g clip-path="url(#7f839286f6)"><path fill="#ffffff" d="M 38.574219 27.867188 L -1.554688 27.867188 L -1.554688 1.164062 L 38.574219 1.164062 L 38.574219 27.867188 " fill-opacity="1" fill-rule="nonzero"/></g><path fill="#0047a0" d="M 23.972656 14.515625 C 23.972656 17.535156 21.527344 19.980469 18.507812 19.980469 C 15.488281 19.980469 13.042969 17.535156 13.042969 14.515625 C 13.042969 11.496094 15.488281 9.050781 18.507812 9.050781 C 21.527344 9.050781 23.972656 11.496094 23.972656 14.515625 " fill-opacity="1" fill-rule="nonzero"/><path fill="#cd2e3a" d="M 18.777344 13.332031 C 18.777344 14.832031 17.558594 16.050781 16.058594 16.050781 C 14.554688 16.050781 13.339844 14.832031 13.339844 13.332031 C 13.339844 11.828125 14.554688 10.613281 16.058594 10.613281 C 17.558594 10.613281 18.777344 11.828125 18.777344 13.332031 " fill-opacity="1" fill-rule="nonzero"/><path fill="#cd2e3a" d="M 23.953125 14.96875 C 23.957031 14.957031 23.957031 14.941406 23.957031 14.929688 C 23.960938 14.90625 23.960938 14.878906 23.960938 14.851562 C 23.964844 14.84375 23.964844 14.832031 23.964844 14.824219 C 23.964844 14.800781 23.96875 14.773438 23.96875 14.75 C 23.96875 14.742188 23.96875 14.734375 23.96875 14.726562 C 23.96875 14.695312 23.972656 14.664062 23.972656 14.632812 C 23.972656 14.628906 23.972656 14.621094 23.972656 14.613281 C 23.972656 14.582031 23.972656 14.546875 23.972656 14.515625 C 23.972656 14.488281 23.972656 14.464844 23.972656 14.4375 C 23.972656 14.429688 23.972656 14.421875 23.972656 14.414062 C 23.972656 14.394531 23.972656 14.378906 23.972656 14.359375 C 23.96875 14.351562 23.96875 14.339844 23.96875 14.332031 C 23.96875 14.316406 23.96875 14.296875 23.96875 14.28125 C 23.96875 14.273438 23.96875 14.261719 23.96875 14.253906 C 23.964844 14.234375 23.964844 14.21875 23.964844 14.203125 C 23.964844 14.195312 23.964844 14.183594 23.960938 14.175781 C 23.960938 14.15625 23.960938 14.136719 23.957031 14.117188 C 23.957031 14.109375 23.957031 14.105469 23.957031 14.097656 C 23.957031 14.074219 23.953125 14.046875 23.949219 14.023438 C 23.949219 14.015625 23.949219 14.011719 23.949219 14.003906 C 23.949219 13.984375 23.945312 13.964844 23.945312 13.945312 C 23.941406 13.9375 23.941406 13.929688 23.941406 13.921875 C 23.9375 13.902344 23.9375 13.886719 23.933594 13.871094 C 23.933594 13.859375 23.933594 13.851562 23.933594 13.84375 C 23.929688 13.824219 23.929688 13.808594 23.925781 13.792969 C 23.925781 13.785156 23.921875 13.773438 23.921875 13.765625 C 23.917969 13.746094 23.917969 13.730469 23.914062 13.710938 C 23.914062 13.703125 23.914062 13.699219 23.910156 13.691406 C 23.902344 13.640625 23.894531 13.589844 23.886719 13.539062 C 23.886719 13.535156 23.882812 13.527344 23.882812 13.523438 C 23.878906 13.503906 23.875 13.484375 23.871094 13.464844 C 23.871094 13.457031 23.871094 13.449219 23.867188 13.441406 C 23.863281 13.425781 23.859375 13.40625 23.855469 13.390625 C 23.855469 13.382812 23.855469 13.375 23.851562 13.367188 C 23.847656 13.347656 23.84375 13.332031 23.839844 13.3125 C 23.839844 13.304688 23.835938 13.300781 23.835938 13.292969 C 23.832031 13.269531 23.824219 13.246094 23.820312 13.222656 C 23.820312 13.222656 23.820312 13.222656 23.820312 13.21875 C 23.8125 13.195312 23.804688 13.167969 23.800781 13.144531 C 23.800781 13.140625 23.796875 13.140625 23.796875 13.136719 C 23.792969 13.117188 23.785156 13.09375 23.78125 13.070312 C 23.777344 13.066406 23.777344 13.058594 23.777344 13.054688 C 23.769531 13.035156 23.765625 13.015625 23.757812 13 C 23.757812 12.992188 23.757812 12.984375 23.753906 12.980469 C 23.75 12.960938 23.742188 12.941406 23.738281 12.925781 C 23.734375 12.917969 23.734375 12.914062 23.730469 12.90625 C 23.726562 12.886719 23.71875 12.863281 23.710938 12.84375 C 23.710938 12.839844 23.710938 12.839844 23.710938 12.835938 C 23.695312 12.785156 23.675781 12.738281 23.660156 12.691406 C 23.660156 12.6875 23.660156 12.683594 23.65625 12.679688 C 23.648438 12.660156 23.640625 12.640625 23.636719 12.617188 C 23.632812 12.613281 23.632812 12.609375 23.628906 12.605469 C 23.621094 12.585938 23.613281 12.566406 23.609375 12.546875 C 23.605469 12.542969 23.605469 12.539062 23.601562 12.53125 C 23.59375 12.511719 23.585938 12.492188 23.578125 12.472656 C 23.578125 12.46875 23.574219 12.464844 23.574219 12.460938 C 23.546875 12.390625 23.515625 12.320312 23.484375 12.253906 C 23.480469 12.25 23.480469 12.246094 23.480469 12.242188 C 23.46875 12.222656 23.460938 12.203125 23.453125 12.183594 C 23.449219 12.179688 23.449219 12.175781 23.445312 12.171875 C 23.4375 12.152344 23.429688 12.132812 23.417969 12.113281 C 23.417969 12.109375 23.414062 12.105469 23.414062 12.101562 C 23.402344 12.082031 23.390625 12.058594 23.382812 12.039062 C 23.378906 12.039062 23.378906 12.039062 23.378906 12.039062 C 22.476562 10.265625 20.632812 9.050781 18.507812 9.050781 C 16.460938 9.050781 14.675781 10.175781 13.742188 11.839844 L 18.507812 14.515625 L 21.089844 14.765625 L 20.578125 15.375 L 22.984375 17.65625 C 23.511719 16.902344 23.855469 16.007812 23.949219 15.042969 C 23.949219 15.019531 23.953125 14.992188 23.953125 14.96875 " fill-opacity="1" fill-rule="nonzero"/><path fill="#0047a0" d="M 23.496094 16.050781 C 23.496094 17.554688 22.277344 18.769531 20.773438 18.769531 C 19.273438 18.769531 18.054688 17.554688 18.054688 16.050781 C 18.054688 14.550781 19.273438 13.332031 20.773438 13.332031 C 22.277344 13.332031 23.496094 14.550781 23.496094 16.050781 " fill-opacity="1" fill-rule="nonzero"/><path fill="#000000" d="M 11.757812 4.175781 L 7.152344 9.664062 L 6.375 9.011719 L 10.980469 3.523438 L 11.757812 4.175781 " fill-opacity="1" fill-rule="nonzero"/><path fill="#000000" d="M 12.210938 4.558594 L 7.609375 10.042969 L 8.386719 10.695312 L 12.988281 5.210938 L 12.210938 4.558594 " fill-opacity="1" fill-rule="nonzero"/><path fill="#000000" d="M 13.441406 5.589844 L 8.835938 11.078125 L 9.613281 11.730469 L 14.21875 6.242188 L 13.441406 5.589844 " fill-opacity="1" fill-rule="nonzero"/><path fill="#000000" d="M 26.03125 21.515625 L 24.066406 23.855469 L 24.84375 24.507812 L 26.808594 22.167969 L 26.03125 21.515625 " fill-opacity="1" fill-rule="nonzero"/><path fill="#000000" d="M 27.222656 22.515625 L 25.257812 24.855469 L 26.035156 25.507812 L 28 23.167969 L 27.222656 22.515625 " fill-opacity="1" fill-rule="nonzero"/><path fill="#000000" d="M 24.796875 20.480469 L 22.832031 22.820312 L 23.609375 23.472656 L 25.574219 21.132812 L 24.796875 20.480469 " fill-opacity="1" fill-rule="nonzero"/><path fill="#000000" d="M 25.476562 19.671875 L 26.253906 20.324219 L 28.214844 17.988281 L 27.4375 17.335938 L 25.476562 19.671875 " fill-opacity="1" fill-rule="nonzero"/><path fill="#000000" d="M 28.679688 22.359375 L 30.640625 20.023438 L 29.863281 19.371094 L 27.902344 21.707031 L 28.679688 22.359375 " fill-opacity="1" fill-rule="nonzero"/><path fill="#000000" d="M 27.484375 21.359375 L 29.449219 19.019531 L 28.671875 18.367188 L 26.707031 20.707031 L 27.484375 21.359375 " fill-opacity="1" fill-rule="nonzero"/><path fill="#000000" d="M 24.105469 5.144531 L 28.710938 10.628906 L 29.488281 9.976562 L 24.882812 4.492188 L 24.105469 5.144531 " fill-opacity="1" fill-rule="nonzero"/><path fill="#000000" d="M 27.902344 7.324219 L 29.863281 9.664062 L 30.640625 9.011719 L 28.679688 6.671875 L 27.902344 7.324219 " fill-opacity="1" fill-rule="nonzero"/><path fill="#000000" d="M 25.515625 9.324219 L 27.476562 11.664062 L 28.253906 11.011719 L 26.292969 8.671875 L 25.515625 9.324219 " fill-opacity="1" fill-rule="nonzero"/><path fill="#000000" d="M 24.835938 8.515625 L 25.613281 7.863281 L 23.652344 5.527344 L 22.875 6.179688 L 24.835938 8.515625 " fill-opacity="1" fill-rule="nonzero"/><path fill="#000000" d="M 28 5.863281 L 26.035156 3.523438 L 25.257812 4.175781 L 27.222656 6.515625 L 28 5.863281 " fill-opacity="1" fill-rule="nonzero"/><path fill="#000000" d="M 7.152344 19.371094 L 11.757812 24.855469 L 10.980469 25.507812 L 6.375 20.023438 L 7.152344 19.371094 " fill-opacity="1" fill-rule="nonzero"/><path fill="#000000" d="M 8.835938 17.957031 L 13.441406 23.441406 L 14.21875 22.789062 L 9.613281 17.304688 L 8.835938 17.957031 " fill-opacity="1" fill-rule="nonzero"/><path fill="#000000" d="M 10.25 22.136719 L 12.210938 24.472656 L 12.988281 23.820312 L 11.027344 21.484375 L 10.25 22.136719 " fill-opacity="1" fill-rule="nonzero"/><path fill="#000000" d="M 9.570312 21.328125 L 10.347656 20.675781 L 8.386719 18.335938 L 7.609375 18.988281 L 9.570312 21.328125 " fill-opacity="1" fill-rule="nonzero"/></svg>