<svg xmlns="http://www.w3.org/2000/svg" xmlns:xlink="http://www.w3.org/1999/xlink" width="50" zoomAndPan="magnify" viewBox="0 0 37.5 30.000001" height="40" preserveAspectRatio="xMidYMid meet" version="1.0"><defs><clipPath id="779666ddd9"><path d="M 0.363281 1.492188 L 36.652344 1.492188 L 36.652344 27.621094 L 0.363281 27.621094 Z M 0.363281 1.492188 " clip-rule="nonzero"/></clipPath><clipPath id="5907570d3e"><path d="M 0.363281 9 L 36.652344 9 L 36.652344 20 L 0.363281 20 Z M 0.363281 9 " clip-rule="nonzero"/></clipPath></defs><g clip-path="url(#779666ddd9)"><path fill="#74acdf" d="M 38.164062 27.621094 L -1.019531 27.621094 L -1.019531 19.128906 L 0.285156 18.476562 L 0.285156 10.636719 L -1.019531 9.984375 L -1.019531 1.492188 L 38.164062 1.492188 L 38.164062 9.984375 L 36.855469 10.636719 L 36.855469 18.476562 L 38.164062 19.128906 Z M 38.164062 27.621094 " fill-opacity="1" fill-rule="nonzero"/></g><g clip-path="url(#5907570d3e)"><path fill="#ffffff" d="M -1.019531 9.984375 L 38.164062 9.984375 L 38.164062 19.128906 L -1.019531 19.128906 Z M -1.019531 9.984375 " fill-opacity="1" fill-rule="nonzero"/></g><path fill="#85340a" d="M 18.335938 12.679688 C 18.25 12.492188 18.210938 12.296875 18.21875 12.09375 C 18.238281 11.824219 18.171875 11.578125 18.027344 11.355469 C 17.945312 11.242188 17.921875 11.117188 17.960938 10.980469 C 17.976562 10.941406 17.992188 10.894531 17.945312 10.871094 C 17.917969 10.859375 17.894531 10.863281 17.871094 10.882812 C 17.6875 11.015625 17.777344 11.335938 17.851562 11.496094 C 17.957031 11.699219 17.992188 11.914062 17.957031 12.140625 C 17.941406 12.351562 17.96875 12.558594 18.046875 12.757812 C 18.117188 12.941406 18.144531 13.128906 18.117188 13.324219 L 18.46875 13.332031 C 18.472656 13.105469 18.425781 12.886719 18.335938 12.679688 Z M 18.335938 12.679688 " fill-opacity="1" fill-rule="nonzero"/><path fill="#f6b40e" d="M 18.410156 13.332031 C 18.410156 13.113281 18.367188 12.902344 18.277344 12.703125 C 18.1875 12.507812 18.148438 12.304688 18.15625 12.089844 C 18.175781 11.835938 18.113281 11.597656 17.976562 11.382812 C 17.941406 11.332031 17.914062 11.273438 17.894531 11.214844 C 17.867188 11.132812 17.871094 11.046875 17.90625 10.964844 L 17.914062 10.929688 C 17.90625 10.933594 17.902344 10.9375 17.898438 10.941406 C 17.828125 11.039062 17.804688 11.144531 17.832031 11.261719 C 17.847656 11.335938 17.871094 11.40625 17.90625 11.472656 C 18.015625 11.683594 18.050781 11.910156 18.015625 12.144531 C 18 12.351562 18.027344 12.550781 18.101562 12.742188 C 18.175781 12.933594 18.203125 13.128906 18.175781 13.332031 Z M 18.410156 13.332031 " fill-opacity="1" fill-rule="nonzero"/><path fill="#85340a" d="M 18.339844 13.242188 C 18.316406 12.757812 18.039062 12.542969 18.09375 12.097656 C 17.976562 12.449219 18.261719 12.722656 18.246094 13.238281 Z M 18.339844 13.242188 " fill-opacity="1" fill-rule="nonzero"/><path fill="#85340a" d="M 18.808594 16.433594 C 18.894531 16.621094 18.933594 16.816406 18.925781 17.019531 C 18.90625 17.289062 18.96875 17.535156 19.117188 17.761719 C 19.199219 17.875 19.222656 17.996094 19.183594 18.132812 C 19.167969 18.171875 19.152344 18.21875 19.199219 18.242188 C 19.226562 18.253906 19.25 18.25 19.273438 18.230469 C 19.453125 18.097656 19.367188 17.78125 19.289062 17.617188 C 19.1875 17.414062 19.152344 17.199219 19.1875 16.976562 C 19.203125 16.761719 19.175781 16.554688 19.097656 16.355469 C 19.023438 16.171875 19 15.984375 19.023438 15.789062 L 18.671875 15.785156 C 18.671875 16.011719 18.71875 16.226562 18.808594 16.433594 Z M 18.808594 16.433594 " fill-opacity="1" fill-rule="nonzero"/><path fill="#f6b40e" d="M 18.734375 15.785156 C 18.734375 16.003906 18.777344 16.210938 18.867188 16.410156 C 18.957031 16.605469 18.996094 16.808594 18.984375 17.023438 C 18.96875 17.28125 19.03125 17.515625 19.167969 17.730469 C 19.203125 17.785156 19.226562 17.839844 19.25 17.898438 C 19.277344 17.984375 19.273438 18.066406 19.238281 18.148438 L 19.230469 18.183594 C 19.234375 18.183594 19.242188 18.175781 19.246094 18.171875 C 19.316406 18.074219 19.335938 17.96875 19.308594 17.851562 C 19.296875 17.777344 19.273438 17.707031 19.238281 17.640625 C 19.128906 17.429688 19.09375 17.203125 19.125 16.96875 C 19.144531 16.761719 19.117188 16.5625 19.039062 16.371094 C 18.964844 16.183594 18.941406 15.984375 18.964844 15.785156 Z M 18.734375 15.785156 " fill-opacity="1" fill-rule="nonzero"/><path fill="#85340a" d="M 18.804688 15.871094 C 18.828125 16.355469 19.101562 16.574219 19.050781 17.015625 C 19.167969 16.664062 18.882812 16.394531 18.898438 15.875 Z M 18.804688 15.871094 " fill-opacity="1" fill-rule="nonzero"/><path fill="#85340a" d="M 17.636719 12.914062 C 17.484375 12.773438 17.375 12.609375 17.300781 12.414062 C 17.21875 12.160156 17.0625 11.957031 16.84375 11.804688 C 16.722656 11.734375 16.65625 11.625 16.640625 11.488281 C 16.640625 11.445312 16.640625 11.394531 16.582031 11.390625 C 16.554688 11.390625 16.53125 11.40625 16.519531 11.433594 C 16.402344 11.625 16.605469 11.882812 16.738281 12.003906 C 16.910156 12.152344 17.023438 12.335938 17.078125 12.558594 C 17.144531 12.761719 17.25 12.941406 17.398438 13.097656 C 17.535156 13.238281 17.628906 13.402344 17.679688 13.589844 L 18.007812 13.460938 C 17.921875 13.253906 17.796875 13.070312 17.636719 12.914062 Z M 17.636719 12.914062 " fill-opacity="1" fill-rule="nonzero"/><path fill="#f6b40e" d="M 17.953125 13.484375 C 17.867188 13.285156 17.746094 13.113281 17.589844 12.964844 C 17.433594 12.816406 17.316406 12.640625 17.246094 12.441406 C 17.164062 12.199219 17.015625 12.003906 16.804688 11.859375 C 16.753906 11.820312 16.707031 11.777344 16.667969 11.730469 C 16.609375 11.660156 16.578125 11.582031 16.578125 11.492188 L 16.578125 11.453125 C 16.574219 11.460938 16.570312 11.464844 16.566406 11.472656 C 16.539062 11.589844 16.5625 11.695312 16.632812 11.792969 C 16.671875 11.855469 16.722656 11.910156 16.78125 11.960938 C 16.960938 12.117188 17.082031 12.308594 17.140625 12.539062 C 17.203125 12.738281 17.304688 12.910156 17.445312 13.0625 C 17.589844 13.207031 17.6875 13.378906 17.738281 13.574219 Z M 17.953125 13.484375 " fill-opacity="1" fill-rule="nonzero"/><path fill="#85340a" d="M 17.855469 13.433594 C 17.648438 12.992188 17.308594 12.898438 17.191406 12.46875 C 17.214844 12.835938 17.582031 12.980469 17.765625 13.464844 Z M 17.855469 13.433594 " fill-opacity="1" fill-rule="nonzero"/><path fill="#85340a" d="M 19.507812 16.199219 C 19.660156 16.339844 19.769531 16.503906 19.839844 16.699219 C 19.925781 16.953125 20.078125 17.15625 20.300781 17.308594 C 20.421875 17.382812 20.488281 17.488281 20.503906 17.628906 C 20.503906 17.667969 20.503906 17.71875 20.558594 17.722656 C 20.589844 17.722656 20.609375 17.707031 20.625 17.683594 C 20.742188 17.488281 20.539062 17.230469 20.40625 17.109375 C 20.234375 16.960938 20.121094 16.777344 20.066406 16.554688 C 20 16.351562 19.890625 16.171875 19.746094 16.019531 C 19.609375 15.875 19.515625 15.710938 19.460938 15.523438 L 19.132812 15.652344 C 19.222656 15.863281 19.34375 16.042969 19.507812 16.199219 Z M 19.507812 16.199219 " fill-opacity="1" fill-rule="nonzero"/><path fill="#f6b40e" d="M 19.191406 15.628906 C 19.277344 15.828125 19.398438 16.003906 19.554688 16.152344 C 19.710938 16.296875 19.824219 16.472656 19.898438 16.671875 C 19.980469 16.917969 20.128906 17.109375 20.339844 17.253906 C 20.390625 17.292969 20.433594 17.335938 20.476562 17.386719 C 20.535156 17.453125 20.5625 17.535156 20.5625 17.625 L 20.5625 17.660156 C 20.570312 17.652344 20.574219 17.648438 20.574219 17.640625 C 20.605469 17.523438 20.582031 17.417969 20.511719 17.320312 C 20.46875 17.257812 20.421875 17.203125 20.363281 17.15625 C 20.183594 17 20.0625 16.804688 20.003906 16.574219 C 19.941406 16.375 19.839844 16.203125 19.699219 16.050781 C 19.554688 15.90625 19.457031 15.734375 19.402344 15.539062 Z M 19.191406 15.628906 " fill-opacity="1" fill-rule="nonzero"/><path fill="#85340a" d="M 19.289062 15.679688 C 19.496094 16.121094 19.835938 16.214844 19.953125 16.644531 C 19.929688 16.277344 19.5625 16.136719 19.378906 15.648438 Z M 19.289062 15.679688 " fill-opacity="1" fill-rule="nonzero"/><path fill="#85340a" d="M 17.078125 13.398438 C 16.886719 13.328125 16.71875 13.214844 16.578125 13.066406 C 16.40625 12.863281 16.1875 12.730469 15.925781 12.671875 C 15.789062 12.652344 15.6875 12.578125 15.617188 12.457031 C 15.601562 12.417969 15.578125 12.375 15.53125 12.390625 C 15.5 12.402344 15.488281 12.421875 15.484375 12.453125 C 15.453125 12.675781 15.738281 12.835938 15.90625 12.898438 C 16.117188 12.96875 16.292969 13.097656 16.425781 13.277344 C 16.566406 13.441406 16.730469 13.566406 16.925781 13.652344 C 17.109375 13.730469 17.257812 13.847656 17.378906 14 L 17.632812 13.757812 C 17.472656 13.597656 17.289062 13.480469 17.078125 13.398438 Z M 17.078125 13.398438 " fill-opacity="1" fill-rule="nonzero"/><path fill="#f6b40e" d="M 17.589844 13.804688 C 17.433594 13.652344 17.257812 13.535156 17.054688 13.453125 C 16.851562 13.378906 16.675781 13.265625 16.53125 13.105469 C 16.363281 12.914062 16.152344 12.789062 15.902344 12.738281 C 15.839844 12.722656 15.78125 12.703125 15.726562 12.675781 C 15.648438 12.632812 15.589844 12.570312 15.554688 12.488281 L 15.539062 12.457031 C 15.535156 12.464844 15.535156 12.472656 15.539062 12.480469 C 15.554688 12.597656 15.617188 12.6875 15.71875 12.75 C 15.78125 12.792969 15.847656 12.824219 15.921875 12.847656 C 16.144531 12.921875 16.328125 13.050781 16.472656 13.238281 C 16.605469 13.398438 16.769531 13.515625 16.957031 13.601562 C 17.144531 13.679688 17.300781 13.800781 17.421875 13.960938 Z M 17.589844 13.804688 " fill-opacity="1" fill-rule="nonzero"/><path fill="#85340a" d="M 17.480469 13.792969 C 17.117188 13.464844 16.769531 13.507812 16.496094 13.15625 C 16.660156 13.488281 17.054688 13.476562 17.410156 13.855469 Z M 17.480469 13.792969 " fill-opacity="1" fill-rule="nonzero"/><path fill="#85340a" d="M 20.066406 15.714844 C 20.257812 15.789062 20.425781 15.898438 20.5625 16.050781 C 20.738281 16.253906 20.957031 16.382812 21.214844 16.441406 C 21.355469 16.460938 21.457031 16.535156 21.523438 16.65625 C 21.542969 16.695312 21.566406 16.738281 21.613281 16.722656 C 21.640625 16.714844 21.65625 16.691406 21.65625 16.660156 C 21.691406 16.441406 21.40625 16.277344 21.238281 16.21875 C 21.023438 16.144531 20.847656 16.019531 20.710938 15.835938 C 20.570312 15.671875 20.40625 15.546875 20.210938 15.460938 C 20.03125 15.382812 19.878906 15.265625 19.757812 15.113281 L 19.503906 15.355469 C 19.667969 15.515625 19.851562 15.636719 20.066406 15.714844 Z M 20.066406 15.714844 " fill-opacity="1" fill-rule="nonzero"/><path fill="#f6b40e" d="M 19.554688 15.308594 C 19.707031 15.464844 19.886719 15.582031 20.089844 15.660156 C 20.292969 15.734375 20.46875 15.847656 20.613281 16.007812 C 20.78125 16.199219 20.992188 16.324219 21.242188 16.378906 C 21.300781 16.390625 21.359375 16.414062 21.417969 16.4375 C 21.496094 16.480469 21.554688 16.542969 21.585938 16.625 L 21.605469 16.65625 C 21.605469 16.648438 21.605469 16.640625 21.605469 16.632812 C 21.585938 16.515625 21.527344 16.425781 21.425781 16.363281 C 21.363281 16.320312 21.296875 16.289062 21.222656 16.265625 C 21 16.195312 20.8125 16.0625 20.667969 15.875 C 20.535156 15.71875 20.375 15.597656 20.1875 15.511719 C 20 15.433594 19.84375 15.3125 19.71875 15.152344 Z M 19.554688 15.308594 " fill-opacity="1" fill-rule="nonzero"/><path fill="#85340a" d="M 19.664062 15.320312 C 20.027344 15.648438 20.371094 15.605469 20.648438 15.957031 C 20.484375 15.625 20.089844 15.636719 19.734375 15.257812 Z M 19.664062 15.320312 " fill-opacity="1" fill-rule="nonzero"/><path fill="#85340a" d="M 16.742188 14.058594 C 16.539062 14.066406 16.34375 14.027344 16.15625 13.941406 C 15.917969 13.820312 15.664062 13.785156 15.402344 13.832031 C 15.265625 13.867188 15.140625 13.839844 15.03125 13.753906 C 15 13.726562 14.964844 13.691406 14.925781 13.726562 C 14.902344 13.746094 14.898438 13.769531 14.910156 13.800781 C 14.960938 14.019531 15.285156 14.0625 15.464844 14.050781 C 15.691406 14.03125 15.902344 14.082031 16.097656 14.199219 C 16.289062 14.296875 16.492188 14.347656 16.707031 14.355469 C 16.90625 14.355469 17.09375 14.40625 17.265625 14.503906 L 17.40625 14.179688 C 17.195312 14.09375 16.972656 14.050781 16.742188 14.058594 Z M 16.742188 14.058594 " fill-opacity="1" fill-rule="nonzero"/><path fill="#f6b40e" d="M 17.375 14.238281 C 17.175781 14.152344 16.964844 14.113281 16.746094 14.121094 C 16.53125 14.125 16.328125 14.082031 16.132812 13.988281 C 15.90625 13.875 15.664062 13.84375 15.414062 13.890625 C 15.351562 13.898438 15.289062 13.902344 15.226562 13.898438 C 15.136719 13.890625 15.0625 13.855469 14.996094 13.792969 L 14.96875 13.773438 C 14.96875 13.78125 14.96875 13.789062 14.96875 13.796875 C 15.03125 13.898438 15.121094 13.957031 15.238281 13.972656 C 15.3125 13.992188 15.386719 13.996094 15.464844 13.988281 C 15.699219 13.972656 15.921875 14.023438 16.125 14.144531 C 16.308594 14.238281 16.503906 14.289062 16.710938 14.292969 C 16.914062 14.296875 17.105469 14.347656 17.28125 14.449219 Z M 17.375 14.238281 " fill-opacity="1" fill-rule="nonzero"/><path fill="#85340a" d="M 17.265625 14.269531 C 16.804688 14.105469 16.5 14.277344 16.113281 14.058594 C 16.390625 14.300781 16.753906 14.140625 17.222656 14.355469 Z M 17.265625 14.269531 " fill-opacity="1" fill-rule="nonzero"/><path fill="#85340a" d="M 20.398438 15.054688 C 20.605469 15.046875 20.800781 15.085938 20.988281 15.171875 C 21.226562 15.292969 21.480469 15.328125 21.742188 15.28125 C 21.878906 15.246094 22.003906 15.273438 22.109375 15.363281 C 22.144531 15.390625 22.179688 15.421875 22.21875 15.390625 C 22.242188 15.367188 22.246094 15.34375 22.234375 15.316406 C 22.183594 15.09375 21.855469 15.054688 21.675781 15.066406 C 21.449219 15.082031 21.238281 15.03125 21.042969 14.914062 C 20.855469 14.816406 20.652344 14.765625 20.4375 14.757812 C 20.242188 14.757812 20.058594 14.707031 19.886719 14.609375 L 19.746094 14.933594 C 19.957031 15.019531 20.175781 15.0625 20.398438 15.054688 Z M 20.398438 15.054688 " fill-opacity="1" fill-rule="nonzero"/><path fill="#f6b40e" d="M 19.765625 14.875 C 19.96875 14.960938 20.179688 15 20.394531 14.992188 C 20.609375 14.988281 20.816406 15.03125 21.007812 15.125 C 21.238281 15.238281 21.480469 15.273438 21.730469 15.226562 C 21.792969 15.214844 21.855469 15.210938 21.917969 15.214844 C 22.007812 15.222656 22.082031 15.257812 22.148438 15.320312 L 22.175781 15.34375 C 22.175781 15.335938 22.175781 15.328125 22.175781 15.320312 C 22.113281 15.21875 22.023438 15.160156 21.902344 15.140625 C 21.828125 15.125 21.753906 15.121094 21.679688 15.128906 C 21.441406 15.144531 21.222656 15.09375 21.015625 14.972656 C 20.832031 14.878906 20.640625 14.828125 20.433594 14.824219 C 20.230469 14.820312 20.039062 14.769531 19.863281 14.667969 Z M 19.765625 14.875 " fill-opacity="1" fill-rule="nonzero"/><path fill="#85340a" d="M 19.878906 14.847656 C 20.335938 15.007812 20.640625 14.835938 21.03125 15.054688 C 20.753906 14.8125 20.390625 14.972656 19.917969 14.757812 Z M 19.878906 14.847656 " fill-opacity="1" fill-rule="nonzero"/><path fill="#85340a" d="M 16.695312 14.792969 C 16.507812 14.878906 16.3125 14.917969 16.109375 14.910156 C 15.839844 14.890625 15.59375 14.957031 15.371094 15.101562 C 15.257812 15.183594 15.132812 15.207031 14.996094 15.167969 C 14.957031 15.152344 14.910156 15.136719 14.886719 15.183594 C 14.875 15.210938 14.878906 15.234375 14.902344 15.257812 C 15.03125 15.441406 15.351562 15.351562 15.511719 15.277344 C 15.714844 15.171875 15.929688 15.136719 16.152344 15.171875 C 16.367188 15.1875 16.574219 15.160156 16.773438 15.082031 C 16.957031 15.011719 17.144531 14.984375 17.339844 15.011719 L 17.34375 14.660156 C 17.117188 14.65625 16.902344 14.703125 16.695312 14.792969 Z M 16.695312 14.792969 " fill-opacity="1" fill-rule="nonzero"/><path fill="#f6b40e" d="M 17.34375 14.71875 C 17.128906 14.71875 16.917969 14.761719 16.71875 14.851562 C 16.523438 14.941406 16.320312 14.980469 16.105469 14.972656 C 15.851562 14.953125 15.613281 15.015625 15.398438 15.152344 C 15.347656 15.1875 15.289062 15.214844 15.230469 15.234375 C 15.148438 15.261719 15.0625 15.257812 14.980469 15.226562 L 14.945312 15.214844 C 14.949219 15.222656 14.953125 15.226562 14.957031 15.234375 C 15.054688 15.300781 15.160156 15.324219 15.277344 15.296875 C 15.351562 15.28125 15.421875 15.257812 15.488281 15.222656 C 15.699219 15.117188 15.925781 15.078125 16.160156 15.113281 C 16.367188 15.128906 16.566406 15.101562 16.757812 15.027344 C 16.945312 14.953125 17.144531 14.925781 17.34375 14.953125 Z M 17.34375 14.71875 " fill-opacity="1" fill-rule="nonzero"/><path fill="#85340a" d="M 17.265625 14.789062 C 16.777344 14.8125 16.5625 15.089844 16.121094 15.035156 C 16.46875 15.152344 16.742188 14.867188 17.261719 14.882812 Z M 17.265625 14.789062 " fill-opacity="1" fill-rule="nonzero"/><path fill="#85340a" d="M 20.449219 14.320312 C 20.636719 14.234375 20.832031 14.195312 21.035156 14.203125 C 21.304688 14.222656 21.550781 14.160156 21.773438 14.011719 C 21.886719 13.929688 22.011719 13.90625 22.148438 13.945312 C 22.1875 13.960938 22.234375 13.976562 22.253906 13.929688 C 22.269531 13.902344 22.265625 13.878906 22.242188 13.855469 C 22.113281 13.675781 21.792969 13.761719 21.632812 13.839844 C 21.429688 13.941406 21.214844 13.976562 20.988281 13.941406 C 20.777344 13.925781 20.570312 13.953125 20.367188 14.03125 C 20.1875 14.105469 20 14.128906 19.804688 14.105469 L 19.796875 14.457031 C 20.023438 14.457031 20.242188 14.410156 20.449219 14.320312 Z M 20.449219 14.320312 " fill-opacity="1" fill-rule="nonzero"/><path fill="#f6b40e" d="M 19.796875 14.394531 C 20.015625 14.394531 20.226562 14.351562 20.425781 14.261719 C 20.621094 14.171875 20.824219 14.132812 21.039062 14.144531 C 21.292969 14.160156 21.527344 14.097656 21.746094 13.960938 C 21.796875 13.925781 21.851562 13.898438 21.910156 13.878906 C 21.996094 13.851562 22.082031 13.855469 22.164062 13.890625 L 22.199219 13.898438 C 22.195312 13.894531 22.191406 13.886719 22.1875 13.882812 C 22.089844 13.8125 21.984375 13.792969 21.867188 13.820312 C 21.792969 13.832031 21.722656 13.855469 21.65625 13.890625 C 21.441406 14 21.21875 14.035156 20.984375 14 C 20.777344 13.984375 20.578125 14.011719 20.386719 14.089844 C 20.195312 14.164062 20 14.1875 19.796875 14.164062 Z M 19.796875 14.394531 " fill-opacity="1" fill-rule="nonzero"/><path fill="#85340a" d="M 19.882812 14.324219 C 20.371094 14.300781 20.585938 14.023438 21.03125 14.078125 C 20.679688 13.960938 20.40625 14.246094 19.890625 14.230469 Z M 19.882812 14.324219 " fill-opacity="1" fill-rule="nonzero"/><path fill="#85340a" d="M 16.929688 15.492188 C 16.789062 15.644531 16.625 15.753906 16.429688 15.828125 C 16.175781 15.914062 15.972656 16.066406 15.820312 16.285156 C 15.75 16.40625 15.640625 16.472656 15.503906 16.488281 C 15.460938 16.488281 15.410156 16.488281 15.40625 16.546875 C 15.40625 16.574219 15.421875 16.597656 15.449219 16.609375 C 15.640625 16.726562 15.898438 16.523438 16.019531 16.394531 C 16.167969 16.21875 16.351562 16.105469 16.574219 16.050781 C 16.777344 15.984375 16.957031 15.878906 17.113281 15.730469 C 17.253906 15.59375 17.417969 15.5 17.605469 15.449219 L 17.476562 15.121094 C 17.265625 15.207031 17.085938 15.332031 16.929688 15.492188 Z M 16.929688 15.492188 " fill-opacity="1" fill-rule="nonzero"/><path fill="#f6b40e" d="M 17.5 15.175781 C 17.300781 15.261719 17.128906 15.382812 16.976562 15.539062 C 16.832031 15.695312 16.65625 15.8125 16.457031 15.882812 C 16.214844 15.964844 16.019531 16.113281 15.875 16.324219 C 15.835938 16.375 15.792969 16.421875 15.746094 16.464844 C 15.675781 16.519531 15.597656 16.550781 15.507812 16.550781 L 15.46875 16.550781 C 15.476562 16.554688 15.480469 16.558594 15.488281 16.5625 C 15.605469 16.589844 15.710938 16.570312 15.808594 16.496094 C 15.871094 16.457031 15.925781 16.40625 15.976562 16.347656 C 16.128906 16.167969 16.324219 16.050781 16.554688 15.992188 C 16.753906 15.925781 16.925781 15.824219 17.078125 15.683594 C 17.222656 15.539062 17.394531 15.441406 17.589844 15.390625 Z M 17.5 15.175781 " fill-opacity="1" fill-rule="nonzero"/><path fill="#85340a" d="M 17.449219 15.273438 C 17.007812 15.480469 16.914062 15.820312 16.484375 15.9375 C 16.851562 15.914062 16.992188 15.546875 17.480469 15.363281 Z M 17.449219 15.273438 " fill-opacity="1" fill-rule="nonzero"/><path fill="#85340a" d="M 20.214844 13.621094 C 20.355469 13.46875 20.519531 13.359375 20.710938 13.289062 C 20.964844 13.203125 21.167969 13.050781 21.324219 12.828125 C 21.394531 12.707031 21.5 12.640625 21.640625 12.625 C 21.679688 12.625 21.734375 12.625 21.738281 12.570312 C 21.734375 12.539062 21.722656 12.515625 21.695312 12.503906 C 21.503906 12.386719 21.246094 12.589844 21.125 12.722656 C 20.976562 12.894531 20.789062 13.007812 20.570312 13.0625 C 20.367188 13.128906 20.1875 13.234375 20.03125 13.382812 C 19.890625 13.519531 19.726562 13.613281 19.535156 13.667969 L 19.667969 13.992188 C 19.875 13.90625 20.058594 13.785156 20.214844 13.621094 Z M 20.214844 13.621094 " fill-opacity="1" fill-rule="nonzero"/><path fill="#f6b40e" d="M 19.644531 13.9375 C 19.84375 13.851562 20.015625 13.730469 20.164062 13.574219 C 20.3125 13.417969 20.484375 13.300781 20.6875 13.230469 C 20.929688 13.148438 21.125 13 21.269531 12.789062 C 21.304688 12.738281 21.347656 12.695312 21.394531 12.652344 C 21.460938 12.59375 21.539062 12.5625 21.628906 12.566406 L 21.667969 12.566406 C 21.660156 12.558594 21.65625 12.554688 21.648438 12.554688 C 21.53125 12.523438 21.425781 12.546875 21.328125 12.617188 C 21.265625 12.65625 21.210938 12.707031 21.160156 12.765625 C 21.007812 12.945312 20.8125 13.066406 20.582031 13.125 C 20.382812 13.1875 20.210938 13.289062 20.058594 13.429688 C 19.914062 13.574219 19.742188 13.671875 19.546875 13.726562 Z M 19.644531 13.9375 " fill-opacity="1" fill-rule="nonzero"/><path fill="#85340a" d="M 19.695312 13.839844 C 20.136719 13.632812 20.230469 13.292969 20.660156 13.175781 C 20.289062 13.199219 20.148438 13.566406 19.664062 13.75 Z M 19.695312 13.839844 " fill-opacity="1" fill-rule="nonzero"/><path fill="#85340a" d="M 17.414062 16.050781 C 17.34375 16.242188 17.230469 16.410156 17.082031 16.550781 C 16.875 16.722656 16.746094 16.941406 16.6875 17.203125 C 16.667969 17.339844 16.59375 17.445312 16.472656 17.511719 C 16.433594 17.527344 16.390625 17.554688 16.40625 17.601562 C 16.417969 17.628906 16.4375 17.644531 16.46875 17.644531 C 16.691406 17.679688 16.851562 17.390625 16.910156 17.226562 C 16.984375 17.011719 17.113281 16.835938 17.292969 16.703125 C 17.457031 16.5625 17.582031 16.398438 17.667969 16.203125 C 17.746094 16.023438 17.863281 15.871094 18.015625 15.75 L 17.773438 15.496094 C 17.613281 15.65625 17.492188 15.839844 17.414062 16.050781 Z M 17.414062 16.050781 " fill-opacity="1" fill-rule="nonzero"/><path fill="#f6b40e" d="M 17.820312 15.539062 C 17.664062 15.695312 17.546875 15.875 17.46875 16.078125 C 17.394531 16.277344 17.28125 16.453125 17.121094 16.597656 C 16.929688 16.765625 16.804688 16.976562 16.753906 17.226562 C 16.738281 17.289062 16.714844 17.347656 16.691406 17.402344 C 16.648438 17.484375 16.585938 17.539062 16.503906 17.574219 L 16.472656 17.59375 L 16.496094 17.59375 C 16.613281 17.574219 16.703125 17.511719 16.765625 17.410156 C 16.808594 17.347656 16.839844 17.28125 16.863281 17.210938 C 16.9375 16.984375 17.066406 16.800781 17.253906 16.65625 C 17.410156 16.523438 17.53125 16.363281 17.617188 16.171875 C 17.695312 15.984375 17.816406 15.832031 17.976562 15.707031 Z M 17.820312 15.539062 " fill-opacity="1" fill-rule="nonzero"/><path fill="#85340a" d="M 17.808594 15.648438 C 17.480469 16.011719 17.523438 16.359375 17.171875 16.632812 C 17.503906 16.46875 17.492188 16.074219 17.871094 15.71875 Z M 17.808594 15.648438 " fill-opacity="1" fill-rule="nonzero"/><path fill="#85340a" d="M 19.730469 13.0625 C 19.800781 12.871094 19.914062 12.703125 20.0625 12.566406 C 20.265625 12.390625 20.398438 12.171875 20.457031 11.910156 C 20.476562 11.773438 20.550781 11.671875 20.671875 11.601562 C 20.707031 11.585938 20.753906 11.5625 20.738281 11.515625 C 20.726562 11.484375 20.707031 11.472656 20.675781 11.46875 C 20.453125 11.4375 20.292969 11.722656 20.230469 11.890625 C 20.160156 12.105469 20.03125 12.28125 19.851562 12.417969 C 19.6875 12.554688 19.5625 12.722656 19.476562 12.917969 C 19.398438 13.097656 19.28125 13.25 19.125 13.371094 L 19.371094 13.621094 C 19.53125 13.460938 19.652344 13.273438 19.730469 13.0625 Z M 19.730469 13.0625 " fill-opacity="1" fill-rule="nonzero"/><path fill="#f6b40e" d="M 19.324219 13.574219 C 19.476562 13.421875 19.59375 13.242188 19.675781 13.039062 C 19.746094 12.835938 19.863281 12.660156 20.023438 12.515625 C 20.214844 12.347656 20.335938 12.136719 20.390625 11.886719 C 20.40625 11.824219 20.425781 11.765625 20.453125 11.710938 C 20.496094 11.632812 20.554688 11.574219 20.640625 11.539062 L 20.671875 11.523438 L 20.648438 11.523438 C 20.53125 11.539062 20.441406 11.601562 20.378906 11.703125 C 20.335938 11.765625 20.304688 11.832031 20.28125 11.90625 C 20.207031 12.128906 20.078125 12.316406 19.890625 12.457031 C 19.730469 12.59375 19.613281 12.753906 19.527344 12.941406 C 19.449219 13.128906 19.328125 13.285156 19.167969 13.410156 Z M 19.324219 13.574219 " fill-opacity="1" fill-rule="nonzero"/><path fill="#85340a" d="M 19.335938 13.464844 C 19.664062 13.101562 19.621094 12.753906 19.972656 12.480469 C 19.640625 12.644531 19.652344 13.039062 19.273438 13.394531 Z M 19.335938 13.464844 " fill-opacity="1" fill-rule="nonzero"/><path fill="#85340a" d="M 18.074219 16.386719 C 18.082031 16.589844 18.042969 16.785156 17.957031 16.972656 C 17.835938 17.210938 17.800781 17.464844 17.847656 17.730469 C 17.882812 17.867188 17.855469 17.988281 17.765625 18.097656 C 17.738281 18.128906 17.707031 18.167969 17.738281 18.203125 C 17.761719 18.226562 17.785156 18.230469 17.8125 18.222656 C 18.035156 18.167969 18.074219 17.84375 18.0625 17.664062 C 18.046875 17.4375 18.097656 17.226562 18.214844 17.03125 C 18.3125 16.839844 18.363281 16.636719 18.371094 16.425781 C 18.371094 16.226562 18.421875 16.042969 18.519531 15.875 L 18.195312 15.734375 C 18.109375 15.941406 18.066406 16.160156 18.074219 16.386719 Z M 18.074219 16.386719 " fill-opacity="1" fill-rule="nonzero"/><path fill="#f6b40e" d="M 18.253906 15.753906 C 18.167969 15.953125 18.128906 16.164062 18.136719 16.382812 C 18.140625 16.597656 18.097656 16.800781 18.003906 16.996094 C 17.890625 17.222656 17.859375 17.464844 17.90625 17.71875 C 17.914062 17.777344 17.917969 17.839844 17.914062 17.902344 C 17.90625 17.992188 17.871094 18.070312 17.808594 18.132812 L 17.785156 18.160156 C 17.792969 18.160156 17.800781 18.160156 17.808594 18.160156 C 17.910156 18.097656 17.96875 18.007812 17.988281 17.890625 C 18.003906 17.816406 18.007812 17.742188 18 17.667969 C 17.984375 17.429688 18.035156 17.207031 18.15625 17.003906 C 18.25 16.820312 18.300781 16.625 18.308594 16.417969 C 18.308594 16.214844 18.359375 16.023438 18.460938 15.847656 Z M 18.253906 15.753906 " fill-opacity="1" fill-rule="nonzero"/><path fill="#85340a" d="M 18.28125 15.863281 C 18.121094 16.324219 18.292969 16.628906 18.074219 17.015625 C 18.316406 16.738281 18.15625 16.378906 18.371094 15.90625 Z M 18.28125 15.863281 " fill-opacity="1" fill-rule="nonzero"/><path fill="#85340a" d="M 19.070312 12.726562 C 19.0625 12.523438 19.101562 12.328125 19.1875 12.140625 C 19.308594 11.902344 19.34375 11.648438 19.296875 11.386719 C 19.261719 11.25 19.289062 11.125 19.375 11.015625 C 19.402344 10.984375 19.4375 10.949219 19.402344 10.910156 C 19.382812 10.890625 19.355469 10.886719 19.328125 10.898438 C 19.109375 10.953125 19.066406 11.277344 19.078125 11.457031 C 19.09375 11.683594 19.046875 11.894531 18.929688 12.089844 C 18.832031 12.28125 18.78125 12.484375 18.773438 12.695312 C 18.769531 12.894531 18.722656 13.078125 18.625 13.246094 L 18.949219 13.386719 C 19.035156 13.175781 19.078125 12.957031 19.070312 12.726562 Z M 19.070312 12.726562 " fill-opacity="1" fill-rule="nonzero"/><path fill="#f6b40e" d="M 18.890625 13.363281 C 18.976562 13.160156 19.015625 12.949219 19.007812 12.730469 C 19.003906 12.515625 19.046875 12.3125 19.136719 12.121094 C 19.253906 11.890625 19.285156 11.648438 19.238281 11.398438 C 19.230469 11.335938 19.226562 11.273438 19.230469 11.210938 C 19.238281 11.121094 19.273438 11.046875 19.335938 10.980469 L 19.359375 10.953125 C 19.351562 10.953125 19.34375 10.953125 19.335938 10.953125 C 19.234375 11.015625 19.175781 11.105469 19.15625 11.222656 C 19.140625 11.296875 19.136719 11.371094 19.140625 11.449219 C 19.160156 11.683594 19.109375 11.90625 18.988281 12.113281 C 18.894531 12.292969 18.84375 12.488281 18.835938 12.695312 C 18.835938 12.898438 18.78125 13.089844 18.679688 13.265625 Z M 18.890625 13.363281 " fill-opacity="1" fill-rule="nonzero"/><path fill="#85340a" d="M 18.859375 13.25 C 19.023438 12.789062 18.851562 12.488281 19.070312 12.097656 C 18.828125 12.375 18.988281 12.738281 18.773438 13.207031 Z M 18.859375 13.25 " fill-opacity="1" fill-rule="nonzero"/><path fill="#85340a" d="M 18.648438 10.878906 C 18.652344 10.824219 18.625 10.792969 18.570312 10.792969 C 18.519531 10.792969 18.496094 10.820312 18.496094 10.871094 L 18.355469 14.558594 L 18.496094 18.234375 C 18.492188 18.289062 18.515625 18.320312 18.570312 18.324219 C 18.625 18.320312 18.648438 18.292969 18.648438 18.242188 L 18.789062 14.558594 Z M 18.648438 10.878906 " fill-opacity="1" fill-rule="nonzero"/><path fill="#f6b40e" d="M 18.585938 10.878906 C 18.585938 10.867188 18.585938 10.851562 18.570312 10.851562 C 18.554688 10.851562 18.554688 10.863281 18.554688 10.878906 L 18.417969 14.558594 L 18.554688 18.234375 C 18.554688 18.25 18.554688 18.261719 18.570312 18.261719 C 18.585938 18.261719 18.585938 18.246094 18.585938 18.234375 L 18.726562 14.558594 Z M 18.585938 10.878906 " fill-opacity="1" fill-rule="nonzero"/><path fill="#85340a" d="M 18.570312 12.039062 L 18.480469 14.558594 L 18.570312 17.074219 L 18.664062 14.558594 Z M 18.570312 12.039062 " fill-opacity="1" fill-rule="nonzero"/><path fill="#85340a" d="M 17.234375 11.132812 C 17.214844 11.082031 17.179688 11.066406 17.132812 11.082031 C 17.085938 11.105469 17.074219 11.144531 17.09375 11.191406 L 18.375 14.648438 L 19.910156 17.992188 C 19.929688 18.042969 19.960938 18.058594 20.011719 18.042969 C 20.0625 18.019531 20.074219 17.984375 20.050781 17.933594 L 18.769531 14.476562 Z M 17.234375 11.132812 " fill-opacity="1" fill-rule="nonzero"/><path fill="#f6b40e" d="M 17.179688 11.152344 C 17.179688 11.152344 17.164062 11.132812 17.15625 11.136719 C 17.152344 11.140625 17.148438 11.152344 17.15625 11.164062 L 18.4375 14.617188 L 19.972656 17.960938 C 19.972656 17.976562 19.992188 17.984375 19.996094 17.976562 C 20 17.972656 19.996094 17.957031 19.996094 17.949219 L 18.714844 14.5 Z M 17.179688 11.152344 " fill-opacity="1" fill-rule="nonzero"/><path fill="#85340a" d="M 17.609375 12.234375 L 18.484375 14.59375 L 19.535156 16.886719 L 18.65625 14.523438 Z M 17.609375 12.234375 " fill-opacity="1" fill-rule="nonzero"/><path fill="#85340a" d="M 16.023438 11.90625 C 15.984375 11.871094 15.949219 11.871094 15.910156 11.90625 C 15.875 11.945312 15.875 11.980469 15.910156 12.019531 L 18.417969 14.722656 L 21.113281 17.226562 C 21.152344 17.261719 21.191406 17.261719 21.226562 17.226562 C 21.261719 17.1875 21.261719 17.148438 21.226562 17.113281 L 18.722656 14.40625 Z M 16.023438 11.90625 " fill-opacity="1" fill-rule="nonzero"/><path fill="#f6b40e" d="M 15.980469 11.945312 C 15.980469 11.945312 15.960938 11.933594 15.960938 11.945312 C 15.960938 11.957031 15.960938 11.960938 15.960938 11.972656 L 18.464844 14.671875 L 21.164062 17.171875 C 21.171875 17.179688 21.183594 17.179688 21.191406 17.171875 C 21.195312 17.160156 21.191406 17.148438 21.191406 17.140625 L 18.679688 14.449219 Z M 15.980469 11.945312 " fill-opacity="1" fill-rule="nonzero"/><path fill="#85340a" d="M 16.792969 12.78125 L 18.507812 14.628906 L 20.351562 16.335938 L 18.636719 14.492188 Z M 16.792969 12.78125 " fill-opacity="1" fill-rule="nonzero"/><path fill="#85340a" d="M 15.199219 13.082031 C 15.152344 13.0625 15.117188 13.074219 15.09375 13.121094 C 15.074219 13.171875 15.09375 13.207031 15.140625 13.222656 L 18.492188 14.761719 L 21.941406 16.042969 C 21.988281 16.0625 22.027344 16.050781 22.050781 16.003906 C 22.066406 15.953125 22.050781 15.917969 22 15.902344 L 18.652344 14.363281 Z M 15.199219 13.082031 " fill-opacity="1" fill-rule="nonzero"/><path fill="#f6b40e" d="M 15.175781 13.136719 C 15.167969 13.136719 15.148438 13.136719 15.148438 13.136719 C 15.148438 13.148438 15.15625 13.15625 15.164062 13.160156 L 18.515625 14.695312 L 21.964844 15.976562 C 21.980469 15.976562 21.992188 15.976562 21.992188 15.976562 C 21.992188 15.976562 21.980469 15.953125 21.976562 15.953125 L 18.628906 14.417969 Z M 15.175781 13.136719 " fill-opacity="1" fill-rule="nonzero"/><path fill="#85340a" d="M 16.25 13.59375 L 18.539062 14.644531 L 20.894531 15.523438 L 18.609375 14.476562 Z M 16.25 13.59375 " fill-opacity="1" fill-rule="nonzero"/><path fill="#85340a" d="M 14.894531 14.488281 C 14.839844 14.480469 14.8125 14.507812 14.808594 14.5625 C 14.808594 14.613281 14.835938 14.640625 14.886719 14.636719 L 18.570312 14.777344 L 22.25 14.636719 C 22.308594 14.640625 22.335938 14.613281 22.335938 14.558594 C 22.332031 14.503906 22.308594 14.480469 22.253906 14.480469 L 18.570312 14.347656 Z M 14.894531 14.488281 " fill-opacity="1" fill-rule="nonzero"/><path fill="#f6b40e" d="M 14.894531 14.546875 C 14.882812 14.546875 14.867188 14.546875 14.867188 14.5625 C 14.867188 14.578125 14.878906 14.578125 14.894531 14.578125 L 18.578125 14.71875 L 22.253906 14.578125 C 22.269531 14.578125 22.28125 14.578125 22.28125 14.5625 C 22.28125 14.546875 22.265625 14.546875 22.253906 14.546875 L 18.570312 14.40625 Z M 14.894531 14.546875 " fill-opacity="1" fill-rule="nonzero"/><path fill="#85340a" d="M 16.054688 14.558594 L 18.570312 14.652344 L 21.085938 14.558594 L 18.570312 14.464844 Z M 16.054688 14.558594 " fill-opacity="1" fill-rule="nonzero"/><path fill="#85340a" d="M 15.148438 15.902344 C 15.097656 15.917969 15.082031 15.953125 15.097656 16.003906 C 15.121094 16.050781 15.160156 16.0625 15.207031 16.042969 L 18.65625 14.753906 L 22 13.21875 C 22.054688 13.199219 22.070312 13.167969 22.050781 13.117188 C 22.027344 13.066406 21.992188 13.054688 21.941406 13.078125 L 18.484375 14.359375 Z M 15.148438 15.902344 " fill-opacity="1" fill-rule="nonzero"/><path fill="#f6b40e" d="M 15.167969 15.953125 C 15.167969 15.953125 15.148438 15.972656 15.152344 15.976562 C 15.15625 15.980469 15.167969 15.988281 15.179688 15.976562 L 18.628906 14.695312 L 21.976562 13.160156 C 21.992188 13.160156 21.996094 13.140625 21.992188 13.136719 C 21.984375 13.132812 21.96875 13.136719 21.964844 13.136719 L 18.511719 14.417969 Z M 15.167969 15.953125 " fill-opacity="1" fill-rule="nonzero"/><path fill="#85340a" d="M 16.25 15.523438 L 18.609375 14.644531 L 20.894531 13.59375 L 18.539062 14.476562 Z M 16.25 15.523438 " fill-opacity="1" fill-rule="nonzero"/><path fill="#85340a" d="M 15.914062 17.109375 C 15.871094 17.148438 15.867188 17.183594 15.910156 17.226562 C 15.949219 17.265625 15.988281 17.265625 16.023438 17.21875 L 18.726562 14.710938 L 21.226562 12.011719 C 21.265625 11.976562 21.265625 11.9375 21.226562 11.898438 C 21.191406 11.867188 21.152344 11.867188 21.113281 11.898438 L 18.410156 14.40625 Z M 15.914062 17.109375 " fill-opacity="1" fill-rule="nonzero"/><path fill="#f6b40e" d="M 15.960938 17.148438 C 15.960938 17.148438 15.945312 17.171875 15.960938 17.175781 C 15.976562 17.183594 15.976562 17.175781 15.988281 17.175781 L 18.683594 14.667969 L 21.183594 11.964844 C 21.191406 11.953125 21.191406 11.945312 21.183594 11.945312 C 21.175781 11.945312 21.160156 11.945312 21.15625 11.945312 L 18.460938 14.449219 Z M 15.960938 17.148438 " fill-opacity="1" fill-rule="nonzero"/><path fill="#85340a" d="M 16.792969 16.335938 L 18.636719 14.628906 L 20.351562 12.78125 L 18.507812 14.492188 Z M 16.792969 16.335938 " fill-opacity="1" fill-rule="nonzero"/><path fill="#85340a" d="M 17.09375 17.929688 C 17.070312 17.976562 17.085938 18.011719 17.132812 18.035156 C 17.179688 18.054688 17.214844 18.039062 17.234375 17.988281 L 18.769531 14.636719 L 20.050781 11.183594 C 20.070312 11.136719 20.058594 11.101562 20.011719 11.078125 C 19.960938 11.0625 19.929688 11.078125 19.910156 11.125 L 18.375 14.476562 Z M 17.09375 17.929688 " fill-opacity="1" fill-rule="nonzero"/><path fill="#f6b40e" d="M 17.152344 17.953125 C 17.152344 17.953125 17.152344 17.980469 17.152344 17.980469 C 17.164062 17.976562 17.167969 17.972656 17.175781 17.964844 L 18.710938 14.613281 L 19.992188 11.160156 C 19.992188 11.144531 19.992188 11.132812 19.992188 11.132812 C 19.992188 11.132812 19.96875 11.144531 19.96875 11.148438 L 18.433594 14.503906 Z M 17.152344 17.953125 " fill-opacity="1" fill-rule="nonzero"/><path fill="#85340a" d="M 17.609375 16.886719 L 18.65625 14.59375 L 19.535156 12.234375 L 18.484375 14.523438 Z M 17.609375 16.886719 " fill-opacity="1" fill-rule="nonzero"/><path fill="#85340a" d="M 18.570312 13.023438 C 18.367188 13.023438 18.171875 13.0625 17.984375 13.140625 C 17.796875 13.21875 17.632812 13.328125 17.488281 13.472656 C 17.34375 13.617188 17.234375 13.78125 17.15625 13.96875 C 17.078125 14.160156 17.039062 14.355469 17.039062 14.558594 C 17.039062 14.761719 17.078125 14.957031 17.15625 15.144531 C 17.234375 15.332031 17.34375 15.496094 17.488281 15.640625 C 17.632812 15.785156 17.796875 15.894531 17.984375 15.972656 C 18.171875 16.050781 18.367188 16.089844 18.570312 16.089844 C 18.773438 16.089844 18.96875 16.050781 19.15625 15.972656 C 19.347656 15.894531 19.511719 15.785156 19.65625 15.640625 C 19.796875 15.496094 19.910156 15.332031 19.988281 15.144531 C 20.066406 14.957031 20.105469 14.761719 20.105469 14.558594 C 20.101562 14.355469 20.0625 14.160156 19.988281 13.972656 C 19.910156 13.785156 19.796875 13.617188 19.65625 13.472656 C 19.511719 13.332031 19.34375 13.21875 19.15625 13.140625 C 18.96875 13.0625 18.773438 13.023438 18.570312 13.023438 Z M 18.570312 13.023438 " fill-opacity="1" fill-rule="nonzero"/><path fill="#f6b40e" d="M 18.570312 13.105469 C 18.378906 13.105469 18.195312 13.140625 18.015625 13.214844 C 17.839844 13.289062 17.683594 13.394531 17.546875 13.53125 C 17.410156 13.667969 17.304688 13.824219 17.230469 14 C 17.15625 14.179688 17.121094 14.363281 17.121094 14.558594 C 17.121094 14.75 17.15625 14.933594 17.230469 15.113281 C 17.304688 15.289062 17.410156 15.449219 17.546875 15.582031 C 17.683594 15.71875 17.839844 15.824219 18.015625 15.898438 C 18.195312 15.972656 18.378906 16.007812 18.570312 16.007812 C 18.765625 16.007812 18.949219 15.972656 19.128906 15.898438 C 19.304688 15.824219 19.460938 15.71875 19.597656 15.582031 C 19.734375 15.449219 19.839844 15.289062 19.914062 15.113281 C 19.984375 14.933594 20.023438 14.75 20.023438 14.558594 C 20.023438 14.363281 19.984375 14.179688 19.910156 14 C 19.839844 13.824219 19.734375 13.667969 19.597656 13.53125 C 19.460938 13.394531 19.304688 13.289062 19.125 13.214844 C 18.949219 13.144531 18.765625 13.105469 18.570312 13.105469 Z M 18.570312 13.105469 " fill-opacity="1" fill-rule="nonzero"/><path fill="#85340a" d="M 18.054688 14.09375 C 18.15625 14.082031 18.238281 14.113281 18.308594 14.1875 C 18.339844 14.214844 18.378906 14.234375 18.421875 14.246094 C 18.433594 14.253906 18.421875 14.289062 18.398438 14.277344 C 18.347656 14.253906 18.300781 14.222656 18.257812 14.1875 C 18.199219 14.136719 18.132812 14.117188 18.054688 14.128906 C 17.851562 14.128906 17.734375 14.296875 17.710938 14.289062 C 17.691406 14.277344 17.824219 14.09375 18.054688 14.09375 Z M 18.054688 14.09375 " fill-opacity="1" fill-rule="nonzero"/><path fill="#85340a" d="M 17.777344 14.347656 C 17.878906 14.390625 17.984375 14.414062 18.09375 14.421875 C 18.265625 14.421875 18.355469 14.292969 18.382812 14.324219 C 18.414062 14.359375 18.265625 14.464844 18.09375 14.464844 C 17.976562 14.460938 17.871094 14.421875 17.777344 14.347656 Z M 17.777344 14.347656 " fill-opacity="1" fill-rule="nonzero"/><path fill="#85340a" d="M 17.636719 14.164062 C 17.738281 14.050781 17.863281 13.988281 18.011719 13.96875 C 18.160156 13.953125 18.296875 13.988281 18.421875 14.074219 C 18.5625 14.285156 18.554688 14.488281 18.386719 14.683594 C 18.40625 14.683594 18.421875 14.691406 18.4375 14.703125 C 18.554688 14.496094 18.574219 14.277344 18.496094 14.050781 C 18.363281 13.929688 18.214844 13.882812 18.039062 13.90625 C 17.863281 13.929688 17.730469 14.015625 17.636719 14.164062 Z M 17.636719 14.164062 " fill-opacity="1" fill-rule="nonzero"/><path fill="#85340a" d="M 18.179688 14.277344 C 18.179688 14.34375 18.144531 14.378906 18.078125 14.378906 C 18.007812 14.378906 17.976562 14.34375 17.976562 14.277344 C 17.976562 14.210938 18.007812 14.175781 18.078125 14.175781 C 18.144531 14.175781 18.179688 14.210938 18.179688 14.277344 Z M 18.179688 14.277344 " fill-opacity="1" fill-rule="nonzero"/><path fill="#85340a" d="M 17.789062 14.289062 C 17.875 14.347656 17.96875 14.378906 18.074219 14.378906 C 18.167969 14.386719 18.253906 14.359375 18.328125 14.296875 C 18.261719 14.203125 18.171875 14.160156 18.058594 14.167969 C 17.953125 14.171875 17.863281 14.214844 17.789062 14.289062 Z M 17.863281 14.277344 C 17.863281 14.277344 17.902344 14.191406 18.066406 14.191406 C 18.160156 14.1875 18.230469 14.226562 18.277344 14.304688 C 18.21875 14.355469 18.148438 14.378906 18.074219 14.375 C 17.992188 14.371094 17.921875 14.339844 17.867188 14.277344 Z M 17.863281 14.277344 " fill-opacity="1" fill-rule="nonzero"/><path fill="#85340a" d="M 19.429688 14.289062 C 19.410156 14.296875 19.292969 14.128906 19.085938 14.128906 C 19.011719 14.117188 18.945312 14.136719 18.882812 14.1875 C 18.84375 14.222656 18.796875 14.253906 18.746094 14.277344 C 18.722656 14.289062 18.710938 14.253906 18.722656 14.246094 C 18.765625 14.234375 18.800781 14.214844 18.835938 14.1875 C 18.902344 14.113281 18.988281 14.082031 19.085938 14.09375 C 19.320312 14.09375 19.457031 14.277344 19.429688 14.289062 Z M 19.429688 14.289062 " fill-opacity="1" fill-rule="nonzero"/><path fill="#85340a" d="M 19.050781 14.464844 C 18.878906 14.464844 18.746094 14.347656 18.761719 14.324219 C 18.777344 14.304688 18.878906 14.421875 19.050781 14.421875 C 19.160156 14.414062 19.265625 14.390625 19.367188 14.347656 C 19.273438 14.421875 19.167969 14.460938 19.050781 14.464844 Z M 19.050781 14.464844 " fill-opacity="1" fill-rule="nonzero"/><path fill="#85340a" d="M 18.652344 14.050781 C 18.574219 14.277344 18.59375 14.496094 18.710938 14.703125 C 18.726562 14.691406 18.742188 14.683594 18.761719 14.683594 C 18.59375 14.488281 18.582031 14.285156 18.726562 14.078125 C 18.851562 13.988281 18.988281 13.953125 19.136719 13.972656 C 19.285156 13.988281 19.410156 14.054688 19.511719 14.167969 C 19.417969 14.015625 19.285156 13.929688 19.109375 13.90625 C 18.933594 13.882812 18.78125 13.933594 18.652344 14.050781 Z M 18.652344 14.050781 " fill-opacity="1" fill-rule="nonzero"/><path fill="#85340a" d="M 19.167969 14.277344 C 19.167969 14.34375 19.132812 14.378906 19.066406 14.378906 C 19 14.378906 18.964844 14.34375 18.964844 14.277344 C 18.964844 14.210938 19 14.175781 19.066406 14.175781 C 19.132812 14.175781 19.167969 14.210938 19.167969 14.277344 Z M 19.167969 14.277344 " fill-opacity="1" fill-rule="nonzero"/><path fill="#85340a" d="M 19.082031 14.164062 C 18.96875 14.15625 18.878906 14.199219 18.8125 14.296875 C 18.886719 14.355469 18.972656 14.382812 19.066406 14.375 C 19.171875 14.375 19.265625 14.347656 19.351562 14.285156 C 19.277344 14.210938 19.1875 14.171875 19.082031 14.164062 Z M 19.066406 14.375 C 18.988281 14.378906 18.921875 14.355469 18.863281 14.304688 C 18.910156 14.226562 18.980469 14.1875 19.070312 14.191406 C 19.238281 14.191406 19.277344 14.277344 19.277344 14.277344 C 19.21875 14.339844 19.148438 14.371094 19.066406 14.375 Z M 19.066406 14.375 " fill-opacity="1" fill-rule="nonzero"/><path fill="#85340a" d="M 18.570312 15.339844 C 18.433594 15.339844 18.367188 15.410156 18.367188 15.546875 C 18.394531 15.4375 18.460938 15.382812 18.570312 15.382812 C 18.683594 15.382812 18.75 15.4375 18.777344 15.546875 C 18.777344 15.410156 18.707031 15.339844 18.570312 15.339844 Z M 18.570312 15.339844 " fill-opacity="1" fill-rule="nonzero"/><path fill="#85340a" d="M 18.703125 15 C 18.675781 15 18.664062 15 18.570312 15.039062 C 18.484375 15 18.46875 15 18.441406 15 C 18.34375 15 18.222656 15.164062 18.1875 15.171875 C 18.246094 15.152344 18.371094 15.042969 18.425781 15.042969 C 18.472656 15.046875 18.519531 15.058594 18.566406 15.070312 C 18.609375 15.058594 18.65625 15.050781 18.703125 15.042969 C 18.757812 15.042969 18.882812 15.15625 18.941406 15.171875 C 18.914062 15.167969 18.792969 15 18.703125 15 Z M 18.703125 15 " fill-opacity="1" fill-rule="nonzero"/><path fill="#85340a" d="M 18.714844 15.136719 C 18.667969 15.136719 18.621094 15.152344 18.570312 15.152344 C 18.523438 15.152344 18.476562 15.136719 18.425781 15.136719 C 18.359375 15.140625 18.292969 15.152344 18.226562 15.171875 C 18.289062 15.160156 18.351562 15.15625 18.410156 15.164062 C 18.464844 15.164062 18.519531 15.199219 18.570312 15.199219 C 18.625 15.191406 18.679688 15.179688 18.734375 15.164062 C 18.792969 15.15625 18.855469 15.160156 18.914062 15.171875 C 18.851562 15.152344 18.785156 15.140625 18.714844 15.136719 Z M 18.714844 15.136719 " fill-opacity="1" fill-rule="nonzero"/><path fill="#85340a" d="M 18.570312 15.304688 C 18.375 15.304688 18.421875 15.152344 18.191406 15.179688 C 18.425781 15.195312 18.320312 15.339844 18.570312 15.339844 C 18.824219 15.339844 18.714844 15.195312 18.953125 15.179688 C 18.722656 15.144531 18.765625 15.304688 18.570312 15.304688 Z M 18.570312 15.304688 " fill-opacity="1" fill-rule="nonzero"/><path fill="#85340a" d="M 18.804688 14.695312 C 18.839844 14.699219 18.859375 14.722656 18.855469 14.757812 C 18.851562 14.800781 18.828125 14.820312 18.785156 14.820312 C 18.746094 14.820312 18.722656 14.800781 18.714844 14.757812 C 18.6875 14.820312 18.640625 14.855469 18.570312 14.855469 C 18.503906 14.855469 18.453125 14.824219 18.425781 14.757812 C 18.425781 14.804688 18.402344 14.828125 18.355469 14.828125 C 18.308594 14.828125 18.285156 14.804688 18.285156 14.757812 C 18.285156 14.722656 18.304688 14.699219 18.339844 14.695312 C 18.277344 14.699219 18.246094 14.734375 18.25 14.796875 C 18.25 14.867188 18.28125 14.898438 18.351562 14.898438 C 18.386719 14.898438 18.414062 14.886719 18.4375 14.855469 C 18.476562 14.878906 18.519531 14.890625 18.566406 14.890625 C 18.613281 14.886719 18.65625 14.875 18.699219 14.855469 C 18.71875 14.886719 18.746094 14.902344 18.785156 14.898438 C 18.851562 14.898438 18.886719 14.867188 18.886719 14.796875 C 18.890625 14.738281 18.863281 14.703125 18.804688 14.695312 Z M 18.804688 14.695312 " fill-opacity="1" fill-rule="nonzero"/></svg>