<svg xmlns="http://www.w3.org/2000/svg" xmlns:xlink="http://www.w3.org/1999/xlink" width="50" zoomAndPan="magnify" viewBox="0 0 37.5 30.000001" height="40" preserveAspectRatio="xMidYMid meet" version="1.0"><defs><clipPath id="5176b2d35c"><path d="M 0.363281 1.453125 L 36.652344 1.453125 L 36.652344 11 L 0.363281 11 Z M 0.363281 1.453125 " clip-rule="nonzero"/></clipPath><clipPath id="9ae8545ea3"><path d="M 0.363281 10 L 36.652344 10 L 36.652344 19 L 0.363281 19 Z M 0.363281 10 " clip-rule="nonzero"/></clipPath><clipPath id="1e95e37b5b"><path d="M 0.363281 18 L 36.652344 18 L 36.652344 27.582031 L 0.363281 27.582031 Z M 0.363281 18 " clip-rule="nonzero"/></clipPath></defs><g clip-path="url(#5176b2d35c)"><path fill="#000000" d="M 36.835938 10.160156 L -0.175781 10.160156 L -0.175781 1.453125 L 36.835938 1.453125 L 36.835938 10.160156 " fill-opacity="1" fill-rule="nonzero"/></g><g clip-path="url(#9ae8545ea3)"><path fill="#e40001" d="M 36.835938 18.871094 L -0.175781 18.871094 L -0.175781 10.160156 L 36.835938 10.160156 L 36.835938 18.871094 " fill-opacity="1" fill-rule="nonzero"/></g><g clip-path="url(#1e95e37b5b)"><path fill="#fae045" d="M 36.835938 27.582031 L -0.175781 27.582031 L -0.175781 18.871094 L 36.835938 18.871094 L 36.835938 27.582031 " fill-opacity="1" fill-rule="nonzero"/></g></svg>