<svg xmlns="http://www.w3.org/2000/svg" xmlns:xlink="http://www.w3.org/1999/xlink" width="50" zoomAndPan="magnify" viewBox="0 0 37.5 30.000001" height="40" preserveAspectRatio="xMidYMid meet" version="1.0"><defs><clipPath id="db709c6d34"><path d="M 0.363281 0 L 36.652344 0 L 36.652344 29.03125 L 0.363281 29.03125 Z M 0.363281 0 " clip-rule="nonzero"/></clipPath><clipPath id="367fcb86e5"><path d="M 0.363281 9 L 36.652344 9 L 36.652344 20 L 0.363281 20 Z M 0.363281 9 " clip-rule="nonzero"/></clipPath></defs><g clip-path="url(#db709c6d34)"><path fill="#74acdf" d="M 40.28125 29.03125 L -3.265625 29.03125 L -3.265625 19.597656 L -1.816406 18.871094 L -1.816406 10.160156 L -3.265625 9.433594 L -3.265625 0 L 40.28125 0 L 40.28125 9.433594 L 38.832031 10.160156 L 38.832031 18.871094 L 40.28125 19.597656 Z M 40.28125 29.03125 " fill-opacity="1" fill-rule="nonzero"/></g><g clip-path="url(#367fcb86e5)"><path fill="#ffffff" d="M -3.265625 9.433594 L 40.28125 9.433594 L 40.28125 19.597656 L -3.265625 19.597656 Z M -3.265625 9.433594 " fill-opacity="1" fill-rule="nonzero"/></g><path fill="#85340a" d="M 18.242188 12.429688 C 18.148438 12.222656 18.105469 12.007812 18.113281 11.777344 C 18.136719 11.480469 18.066406 11.207031 17.902344 10.957031 C 17.8125 10.832031 17.785156 10.691406 17.832031 10.542969 C 17.84375 10.5 17.863281 10.445312 17.8125 10.421875 C 17.78125 10.410156 17.753906 10.414062 17.730469 10.4375 C 17.527344 10.582031 17.625 10.933594 17.710938 11.113281 C 17.824219 11.339844 17.863281 11.578125 17.824219 11.828125 C 17.804688 12.066406 17.839844 12.296875 17.925781 12.519531 C 18.003906 12.722656 18.03125 12.929688 18.003906 13.144531 L 18.394531 13.152344 C 18.394531 12.902344 18.347656 12.660156 18.242188 12.429688 Z M 18.242188 12.429688 " fill-opacity="1" fill-rule="nonzero"/><path fill="#f6b40e" d="M 18.328125 13.152344 C 18.328125 12.910156 18.277344 12.679688 18.179688 12.457031 C 18.082031 12.238281 18.039062 12.011719 18.046875 11.777344 C 18.066406 11.492188 18 11.230469 17.84375 10.988281 C 17.808594 10.929688 17.777344 10.871094 17.753906 10.804688 C 17.726562 10.710938 17.730469 10.617188 17.765625 10.523438 L 17.777344 10.484375 C 17.769531 10.488281 17.761719 10.492188 17.757812 10.5 C 17.679688 10.605469 17.65625 10.726562 17.6875 10.855469 C 17.703125 10.9375 17.730469 11.015625 17.769531 11.089844 C 17.886719 11.324219 17.929688 11.574219 17.890625 11.835938 C 17.871094 12.066406 17.902344 12.285156 17.988281 12.5 C 18.070312 12.710938 18.097656 12.929688 18.070312 13.152344 Z M 18.328125 13.152344 " fill-opacity="1" fill-rule="nonzero"/><path fill="#85340a" d="M 18.25 13.058594 C 18.222656 12.515625 17.917969 12.277344 17.976562 11.785156 C 17.84375 12.171875 18.164062 12.476562 18.144531 13.050781 Z M 18.25 13.058594 " fill-opacity="1" fill-rule="nonzero"/><path fill="#85340a" d="M 18.773438 16.601562 C 18.867188 16.808594 18.910156 17.027344 18.902344 17.253906 C 18.878906 17.550781 18.949219 17.824219 19.113281 18.074219 C 19.207031 18.203125 19.230469 18.339844 19.1875 18.488281 C 19.171875 18.53125 19.152344 18.585938 19.203125 18.609375 C 19.234375 18.625 19.261719 18.621094 19.289062 18.597656 C 19.488281 18.453125 19.390625 18.097656 19.304688 17.917969 C 19.191406 17.691406 19.152344 17.453125 19.191406 17.203125 C 19.210938 16.964844 19.175781 16.734375 19.089844 16.511719 C 19.011719 16.3125 18.984375 16.101562 19.011719 15.886719 L 18.621094 15.878906 C 18.621094 16.132812 18.671875 16.371094 18.773438 16.601562 Z M 18.773438 16.601562 " fill-opacity="1" fill-rule="nonzero"/><path fill="#f6b40e" d="M 18.691406 15.878906 C 18.6875 16.121094 18.738281 16.355469 18.835938 16.574219 C 18.933594 16.792969 18.980469 17.019531 18.96875 17.257812 C 18.949219 17.539062 19.015625 17.800781 19.171875 18.042969 C 19.207031 18.101562 19.238281 18.164062 19.261719 18.226562 C 19.292969 18.324219 19.289062 18.417969 19.25 18.507812 L 19.238281 18.546875 C 19.246094 18.542969 19.253906 18.539062 19.257812 18.53125 C 19.335938 18.425781 19.359375 18.308594 19.328125 18.179688 C 19.3125 18.097656 19.285156 18.015625 19.246094 17.945312 C 19.128906 17.707031 19.085938 17.457031 19.125 17.195312 C 19.144531 16.96875 19.113281 16.746094 19.027344 16.53125 C 18.945312 16.320312 18.917969 16.105469 18.945312 15.878906 Z M 18.691406 15.878906 " fill-opacity="1" fill-rule="nonzero"/><path fill="#85340a" d="M 18.765625 15.976562 C 18.792969 16.515625 19.097656 16.757812 19.039062 17.25 C 19.171875 16.859375 18.851562 16.554688 18.871094 15.980469 Z M 18.765625 15.976562 " fill-opacity="1" fill-rule="nonzero"/><path fill="#85340a" d="M 17.46875 12.691406 C 17.300781 12.535156 17.175781 12.351562 17.097656 12.136719 C 17.003906 11.855469 16.832031 11.628906 16.585938 11.460938 C 16.453125 11.378906 16.378906 11.261719 16.359375 11.105469 C 16.359375 11.058594 16.359375 11.003906 16.296875 11 C 16.265625 11 16.242188 11.015625 16.226562 11.042969 C 16.097656 11.257812 16.320312 11.542969 16.46875 11.679688 C 16.660156 11.84375 16.785156 12.050781 16.847656 12.296875 C 16.921875 12.523438 17.039062 12.722656 17.203125 12.894531 C 17.355469 13.050781 17.460938 13.234375 17.519531 13.445312 L 17.882812 13.296875 C 17.785156 13.066406 17.648438 12.863281 17.46875 12.691406 Z M 17.46875 12.691406 " fill-opacity="1" fill-rule="nonzero"/><path fill="#f6b40e" d="M 17.820312 13.324219 C 17.726562 13.105469 17.589844 12.910156 17.417969 12.746094 C 17.242188 12.582031 17.113281 12.390625 17.035156 12.164062 C 16.941406 11.894531 16.777344 11.679688 16.542969 11.519531 C 16.488281 11.476562 16.4375 11.425781 16.390625 11.375 C 16.324219 11.296875 16.292969 11.207031 16.292969 11.109375 L 16.292969 11.070312 C 16.289062 11.074219 16.285156 11.082031 16.28125 11.089844 C 16.25 11.21875 16.273438 11.335938 16.351562 11.445312 C 16.398438 11.515625 16.453125 11.578125 16.515625 11.628906 C 16.71875 11.804688 16.851562 12.019531 16.914062 12.273438 C 16.984375 12.496094 17.097656 12.6875 17.257812 12.855469 C 17.414062 13.015625 17.523438 13.207031 17.582031 13.425781 Z M 17.820312 13.324219 " fill-opacity="1" fill-rule="nonzero"/><path fill="#85340a" d="M 17.710938 13.269531 C 17.480469 12.777344 17.105469 12.675781 16.972656 12.195312 C 17 12.605469 17.40625 12.761719 17.613281 13.300781 Z M 17.710938 13.269531 " fill-opacity="1" fill-rule="nonzero"/><path fill="#85340a" d="M 19.550781 16.34375 C 19.714844 16.496094 19.839844 16.679688 19.917969 16.894531 C 20.015625 17.179688 20.183594 17.402344 20.429688 17.574219 C 20.5625 17.652344 20.636719 17.773438 20.65625 17.925781 C 20.65625 17.972656 20.65625 18.027344 20.71875 18.035156 C 20.75 18.03125 20.773438 18.019531 20.789062 17.988281 C 20.917969 17.773438 20.695312 17.488281 20.546875 17.351562 C 20.355469 17.1875 20.230469 16.980469 20.167969 16.738281 C 20.09375 16.511719 19.976562 16.3125 19.8125 16.140625 C 19.660156 15.980469 19.554688 15.796875 19.5 15.589844 L 19.132812 15.734375 C 19.230469 15.964844 19.367188 16.167969 19.550781 16.34375 Z M 19.550781 16.34375 " fill-opacity="1" fill-rule="nonzero"/><path fill="#f6b40e" d="M 19.199219 15.707031 C 19.289062 15.929688 19.425781 16.121094 19.601562 16.285156 C 19.773438 16.449219 19.902344 16.644531 19.984375 16.867188 C 20.074219 17.136719 20.238281 17.351562 20.472656 17.515625 C 20.527344 17.558594 20.578125 17.605469 20.625 17.660156 C 20.691406 17.734375 20.722656 17.824219 20.722656 17.921875 L 20.722656 17.964844 C 20.726562 17.957031 20.730469 17.949219 20.734375 17.941406 C 20.765625 17.8125 20.742188 17.695312 20.664062 17.585938 C 20.617188 17.519531 20.5625 17.457031 20.5 17.402344 C 20.296875 17.230469 20.164062 17.015625 20.101562 16.757812 C 20.03125 16.539062 19.917969 16.34375 19.757812 16.175781 C 19.601562 16.015625 19.492188 15.824219 19.433594 15.605469 Z M 19.199219 15.707031 " fill-opacity="1" fill-rule="nonzero"/><path fill="#85340a" d="M 19.304688 15.765625 C 19.535156 16.253906 19.910156 16.359375 20.042969 16.835938 C 20.019531 16.425781 19.609375 16.269531 19.402344 15.730469 Z M 19.304688 15.765625 " fill-opacity="1" fill-rule="nonzero"/><path fill="#85340a" d="M 16.847656 13.230469 C 16.632812 13.148438 16.449219 13.027344 16.292969 12.859375 C 16.101562 12.632812 15.859375 12.488281 15.570312 12.421875 C 15.414062 12.398438 15.300781 12.320312 15.226562 12.183594 C 15.207031 12.140625 15.179688 12.089844 15.128906 12.109375 C 15.097656 12.121094 15.078125 12.144531 15.078125 12.175781 C 15.039062 12.425781 15.359375 12.601562 15.542969 12.671875 C 15.78125 12.753906 15.976562 12.894531 16.125 13.09375 C 16.277344 13.277344 16.464844 13.414062 16.679688 13.511719 C 16.878906 13.597656 17.046875 13.726562 17.179688 13.898438 L 17.464844 13.628906 C 17.285156 13.449219 17.082031 13.316406 16.847656 13.230469 Z M 16.847656 13.230469 " fill-opacity="1" fill-rule="nonzero"/><path fill="#f6b40e" d="M 17.417969 13.679688 C 17.246094 13.507812 17.046875 13.378906 16.820312 13.289062 C 16.59375 13.210938 16.402344 13.082031 16.238281 12.90625 C 16.050781 12.691406 15.820312 12.554688 15.539062 12.492188 C 15.472656 12.476562 15.410156 12.453125 15.34375 12.425781 C 15.257812 12.378906 15.195312 12.308594 15.15625 12.21875 L 15.136719 12.183594 C 15.136719 12.191406 15.136719 12.199219 15.136719 12.207031 C 15.15625 12.339844 15.222656 12.4375 15.335938 12.507812 C 15.40625 12.554688 15.480469 12.59375 15.5625 12.617188 C 15.8125 12.699219 16.015625 12.84375 16.175781 13.050781 C 16.324219 13.226562 16.503906 13.359375 16.710938 13.453125 C 16.921875 13.542969 17.09375 13.675781 17.230469 13.855469 Z M 17.417969 13.679688 " fill-opacity="1" fill-rule="nonzero"/><path fill="#85340a" d="M 17.292969 13.667969 C 16.890625 13.304688 16.507812 13.351562 16.199219 12.960938 C 16.382812 13.328125 16.820312 13.316406 17.214844 13.738281 Z M 17.292969 13.667969 " fill-opacity="1" fill-rule="nonzero"/><path fill="#85340a" d="M 20.167969 15.804688 C 20.382812 15.882812 20.566406 16.007812 20.722656 16.175781 C 20.914062 16.398438 21.15625 16.546875 21.449219 16.609375 C 21.601562 16.632812 21.714844 16.714844 21.789062 16.851562 C 21.808594 16.890625 21.835938 16.941406 21.890625 16.925781 C 21.921875 16.910156 21.9375 16.886719 21.9375 16.855469 C 21.976562 16.609375 21.65625 16.429688 21.472656 16.359375 C 21.230469 16.28125 21.035156 16.140625 20.882812 15.9375 C 20.730469 15.753906 20.546875 15.617188 20.328125 15.519531 C 20.128906 15.433594 19.960938 15.304688 19.828125 15.132812 L 19.546875 15.40625 C 19.726562 15.582031 19.933594 15.714844 20.167969 15.804688 Z M 20.167969 15.804688 " fill-opacity="1" fill-rule="nonzero"/><path fill="#f6b40e" d="M 19.601562 15.351562 C 19.769531 15.523438 19.96875 15.652344 20.195312 15.742188 C 20.421875 15.824219 20.613281 15.953125 20.777344 16.128906 C 20.964844 16.339844 21.195312 16.480469 21.476562 16.539062 C 21.542969 16.554688 21.609375 16.578125 21.671875 16.605469 C 21.757812 16.652344 21.820312 16.722656 21.859375 16.8125 L 21.878906 16.847656 C 21.882812 16.839844 21.882812 16.832031 21.878906 16.824219 C 21.859375 16.691406 21.792969 16.59375 21.679688 16.523438 C 21.609375 16.476562 21.535156 16.441406 21.453125 16.417969 C 21.203125 16.335938 21 16.1875 20.839844 15.980469 C 20.691406 15.804688 20.511719 15.671875 20.304688 15.578125 C 20.097656 15.488281 19.921875 15.355469 19.785156 15.175781 Z M 19.601562 15.351562 " fill-opacity="1" fill-rule="nonzero"/><path fill="#85340a" d="M 19.722656 15.367188 C 20.125 15.726562 20.511719 15.683594 20.816406 16.070312 C 20.632812 15.703125 20.195312 15.714844 19.800781 15.296875 Z M 19.722656 15.367188 " fill-opacity="1" fill-rule="nonzero"/><path fill="#85340a" d="M 16.476562 13.960938 C 16.25 13.96875 16.03125 13.925781 15.824219 13.832031 C 15.558594 13.699219 15.277344 13.660156 14.984375 13.710938 C 14.832031 13.75 14.695312 13.71875 14.574219 13.621094 C 14.539062 13.589844 14.496094 13.554688 14.457031 13.589844 C 14.429688 13.613281 14.425781 13.640625 14.4375 13.675781 C 14.496094 13.917969 14.855469 13.964844 15.054688 13.953125 C 15.308594 13.933594 15.542969 13.988281 15.761719 14.117188 C 15.972656 14.226562 16.195312 14.285156 16.433594 14.292969 C 16.65625 14.292969 16.863281 14.347656 17.054688 14.457031 L 17.214844 14.097656 C 16.976562 14 16.730469 13.953125 16.476562 13.960938 Z M 16.476562 13.960938 " fill-opacity="1" fill-rule="nonzero"/><path fill="#f6b40e" d="M 17.179688 14.160156 C 16.957031 14.070312 16.722656 14.023438 16.480469 14.03125 C 16.242188 14.039062 16.015625 13.988281 15.800781 13.886719 C 15.542969 13.757812 15.277344 13.722656 14.996094 13.773438 C 14.929688 13.785156 14.859375 13.789062 14.789062 13.785156 C 14.691406 13.777344 14.605469 13.738281 14.535156 13.667969 L 14.503906 13.644531 C 14.503906 13.652344 14.503906 13.660156 14.503906 13.667969 C 14.574219 13.785156 14.671875 13.851562 14.804688 13.867188 C 14.886719 13.886719 14.96875 13.890625 15.054688 13.882812 C 15.316406 13.867188 15.5625 13.921875 15.789062 14.058594 C 15.996094 14.160156 16.210938 14.21875 16.441406 14.222656 C 16.664062 14.226562 16.878906 14.285156 17.074219 14.398438 Z M 17.179688 14.160156 " fill-opacity="1" fill-rule="nonzero"/><path fill="#85340a" d="M 17.054688 14.195312 C 16.546875 14.015625 16.207031 14.207031 15.773438 13.960938 C 16.082031 14.234375 16.484375 14.054688 17.011719 14.292969 Z M 17.054688 14.195312 " fill-opacity="1" fill-rule="nonzero"/><path fill="#85340a" d="M 20.539062 15.070312 C 20.769531 15.0625 20.984375 15.105469 21.191406 15.199219 C 21.457031 15.332031 21.738281 15.375 22.03125 15.320312 C 22.183594 15.28125 22.320312 15.3125 22.441406 15.410156 C 22.476562 15.441406 22.519531 15.480469 22.5625 15.441406 C 22.585938 15.417969 22.589844 15.390625 22.578125 15.359375 C 22.519531 15.113281 22.160156 15.066406 21.960938 15.082031 C 21.707031 15.097656 21.472656 15.042969 21.257812 14.914062 C 21.042969 14.804688 20.820312 14.746094 20.582031 14.742188 C 20.363281 14.738281 20.160156 14.683594 19.972656 14.574219 L 19.816406 14.933594 C 20.046875 15.03125 20.289062 15.074219 20.539062 15.070312 Z M 20.539062 15.070312 " fill-opacity="1" fill-rule="nonzero"/><path fill="#f6b40e" d="M 19.835938 14.871094 C 20.058594 14.964844 20.292969 15.007812 20.535156 15 C 20.773438 14.996094 21 15.042969 21.214844 15.144531 C 21.472656 15.273438 21.738281 15.308594 22.019531 15.257812 C 22.085938 15.25 22.15625 15.246094 22.226562 15.246094 C 22.324219 15.253906 22.410156 15.292969 22.480469 15.367188 L 22.511719 15.390625 C 22.511719 15.382812 22.511719 15.375 22.511719 15.367188 C 22.441406 15.25 22.34375 15.183594 22.210938 15.167969 C 22.128906 15.148438 22.046875 15.144531 21.964844 15.152344 C 21.699219 15.167969 21.453125 15.113281 21.226562 14.976562 C 21.023438 14.875 20.804688 14.816406 20.578125 14.8125 C 20.351562 14.808594 20.140625 14.75 19.941406 14.636719 Z M 19.835938 14.871094 " fill-opacity="1" fill-rule="nonzero"/><path fill="#85340a" d="M 19.960938 14.835938 C 20.46875 15.019531 20.808594 14.828125 21.242188 15.070312 C 20.933594 14.800781 20.53125 14.980469 20.007812 14.742188 Z M 19.960938 14.835938 " fill-opacity="1" fill-rule="nonzero"/><path fill="#85340a" d="M 16.421875 14.78125 C 16.214844 14.875 15.996094 14.917969 15.769531 14.910156 C 15.472656 14.886719 15.199219 14.957031 14.949219 15.121094 C 14.824219 15.214844 14.683594 15.238281 14.535156 15.195312 C 14.492188 15.179688 14.4375 15.160156 14.414062 15.210938 C 14.398438 15.242188 14.40625 15.269531 14.425781 15.296875 C 14.574219 15.496094 14.925781 15.398438 15.105469 15.316406 C 15.332031 15.199219 15.570312 15.160156 15.820312 15.199219 C 16.058594 15.21875 16.289062 15.1875 16.511719 15.101562 C 16.710938 15.019531 16.921875 14.992188 17.136719 15.019531 L 17.144531 14.628906 C 16.894531 14.628906 16.652344 14.679688 16.421875 14.78125 Z M 16.421875 14.78125 " fill-opacity="1" fill-rule="nonzero"/><path fill="#f6b40e" d="M 17.144531 14.699219 C 16.902344 14.695312 16.671875 14.746094 16.449219 14.84375 C 16.230469 14.941406 16.003906 14.988281 15.765625 14.976562 C 15.484375 14.957031 15.222656 15.027344 14.980469 15.179688 C 14.921875 15.214844 14.859375 15.246094 14.796875 15.269531 C 14.703125 15.300781 14.609375 15.296875 14.515625 15.257812 L 14.476562 15.246094 C 14.480469 15.253906 14.484375 15.261719 14.492188 15.265625 C 14.597656 15.34375 14.71875 15.367188 14.84375 15.335938 C 14.929688 15.320312 15.007812 15.292969 15.082031 15.253906 C 15.316406 15.136719 15.566406 15.097656 15.828125 15.132812 C 16.058594 15.152344 16.277344 15.121094 16.492188 15.039062 C 16.703125 14.953125 16.921875 14.925781 17.144531 14.953125 Z M 17.144531 14.699219 " fill-opacity="1" fill-rule="nonzero"/><path fill="#85340a" d="M 17.054688 14.773438 C 16.515625 14.800781 16.277344 15.105469 15.785156 15.046875 C 16.171875 15.179688 16.476562 14.859375 17.050781 14.878906 Z M 17.054688 14.773438 " fill-opacity="1" fill-rule="nonzero"/><path fill="#85340a" d="M 20.59375 14.25 C 20.800781 14.15625 21.019531 14.113281 21.246094 14.121094 C 21.542969 14.144531 21.816406 14.074219 22.066406 13.910156 C 22.195312 13.820312 22.332031 13.792969 22.480469 13.839844 C 22.523438 13.851562 22.578125 13.871094 22.601562 13.820312 C 22.617188 13.789062 22.613281 13.761719 22.589844 13.738281 C 22.445312 13.535156 22.089844 13.632812 21.910156 13.71875 C 21.683594 13.832031 21.445312 13.871094 21.195312 13.832031 C 20.957031 13.8125 20.726562 13.847656 20.503906 13.933594 C 20.304688 14.011719 20.09375 14.039062 19.878906 14.011719 L 19.871094 14.402344 C 20.121094 14.40625 20.363281 14.355469 20.59375 14.25 Z M 20.59375 14.25 " fill-opacity="1" fill-rule="nonzero"/><path fill="#f6b40e" d="M 19.871094 14.335938 C 20.113281 14.335938 20.347656 14.285156 20.566406 14.191406 C 20.785156 14.089844 21.011719 14.046875 21.25 14.054688 C 21.53125 14.074219 21.792969 14.007812 22.035156 13.851562 C 22.09375 13.816406 22.15625 13.785156 22.21875 13.761719 C 22.316406 13.734375 22.40625 13.738281 22.5 13.773438 L 22.539062 13.785156 C 22.535156 13.777344 22.53125 13.769531 22.523438 13.765625 C 22.417969 13.6875 22.300781 13.664062 22.171875 13.695312 C 22.085938 13.710938 22.007812 13.738281 21.933594 13.777344 C 21.699219 13.894531 21.449219 13.9375 21.1875 13.898438 C 20.960938 13.878906 20.738281 13.910156 20.523438 13.996094 C 20.3125 14.078125 20.097656 14.105469 19.871094 14.078125 Z M 19.871094 14.335938 " fill-opacity="1" fill-rule="nonzero"/><path fill="#85340a" d="M 19.96875 14.257812 C 20.507812 14.230469 20.746094 13.925781 21.238281 13.984375 C 20.851562 13.851562 20.546875 14.171875 19.972656 14.152344 Z M 19.96875 14.257812 " fill-opacity="1" fill-rule="nonzero"/><path fill="#85340a" d="M 16.683594 15.558594 C 16.527344 15.722656 16.34375 15.847656 16.128906 15.925781 C 15.847656 16.023438 15.621094 16.191406 15.449219 16.4375 C 15.371094 16.570312 15.253906 16.644531 15.097656 16.664062 C 15.050781 16.664062 14.996094 16.664062 14.992188 16.726562 C 14.992188 16.757812 15.007812 16.78125 15.035156 16.796875 C 15.25 16.925781 15.535156 16.703125 15.671875 16.554688 C 15.835938 16.363281 16.042969 16.238281 16.285156 16.175781 C 16.511719 16.101562 16.714844 15.984375 16.886719 15.820312 C 17.042969 15.667969 17.226562 15.5625 17.433594 15.507812 L 17.289062 15.140625 C 17.058594 15.238281 16.855469 15.375 16.683594 15.558594 Z M 16.683594 15.558594 " fill-opacity="1" fill-rule="nonzero"/><path fill="#f6b40e" d="M 17.316406 15.207031 C 17.097656 15.296875 16.902344 15.433594 16.738281 15.609375 C 16.574219 15.78125 16.378906 15.910156 16.15625 15.992188 C 15.886719 16.082031 15.671875 16.246094 15.511719 16.480469 C 15.464844 16.535156 15.417969 16.585938 15.367188 16.632812 C 15.289062 16.699219 15.199219 16.730469 15.101562 16.730469 L 15.058594 16.730469 C 15.066406 16.734375 15.074219 16.738281 15.082031 16.742188 C 15.210938 16.773438 15.328125 16.75 15.4375 16.671875 C 15.507812 16.625 15.570312 16.570312 15.621094 16.507812 C 15.796875 16.308594 16.011719 16.171875 16.265625 16.109375 C 16.484375 16.039062 16.679688 15.925781 16.847656 15.765625 C 17.007812 15.609375 17.199219 15.5 17.417969 15.441406 Z M 17.316406 15.207031 " fill-opacity="1" fill-rule="nonzero"/><path fill="#85340a" d="M 17.257812 15.3125 C 16.769531 15.542969 16.664062 15.917969 16.1875 16.050781 C 16.597656 16.027344 16.753906 15.617188 17.292969 15.410156 Z M 17.257812 15.3125 " fill-opacity="1" fill-rule="nonzero"/><path fill="#85340a" d="M 20.335938 13.476562 C 20.488281 13.308594 20.671875 13.183594 20.886719 13.105469 C 21.167969 13.011719 21.394531 12.839844 21.566406 12.59375 C 21.644531 12.460938 21.765625 12.386719 21.917969 12.371094 C 21.964844 12.371094 22.019531 12.371094 22.023438 12.308594 C 22.023438 12.273438 22.007812 12.25 21.980469 12.234375 C 21.765625 12.105469 21.480469 12.328125 21.34375 12.476562 C 21.179688 12.667969 20.972656 12.792969 20.730469 12.855469 C 20.503906 12.929688 20.304688 13.046875 20.132812 13.210938 C 19.972656 13.363281 19.789062 13.46875 19.582031 13.527344 L 19.726562 13.890625 C 19.957031 13.792969 20.160156 13.65625 20.335938 13.476562 Z M 20.335938 13.476562 " fill-opacity="1" fill-rule="nonzero"/><path fill="#f6b40e" d="M 19.699219 13.828125 C 19.921875 13.734375 20.113281 13.597656 20.277344 13.425781 C 20.441406 13.25 20.636719 13.121094 20.859375 13.042969 C 21.128906 12.949219 21.34375 12.785156 21.503906 12.550781 C 21.546875 12.496094 21.59375 12.445312 21.644531 12.398438 C 21.71875 12.332031 21.808594 12.300781 21.90625 12.300781 L 21.949219 12.300781 C 21.941406 12.296875 21.933594 12.292969 21.925781 12.289062 C 21.796875 12.257812 21.679688 12.28125 21.574219 12.359375 C 21.503906 12.40625 21.441406 12.460938 21.386719 12.523438 C 21.214844 12.726562 21 12.859375 20.742188 12.921875 C 20.523438 12.992188 20.328125 13.105469 20.160156 13.265625 C 20 13.421875 19.808594 13.53125 19.589844 13.589844 Z M 19.699219 13.828125 " fill-opacity="1" fill-rule="nonzero"/><path fill="#85340a" d="M 19.757812 13.71875 C 20.246094 13.488281 20.351562 13.113281 20.828125 12.980469 C 20.417969 13.007812 20.261719 13.414062 19.722656 13.621094 Z M 19.757812 13.71875 " fill-opacity="1" fill-rule="nonzero"/><path fill="#85340a" d="M 17.21875 16.175781 C 17.140625 16.390625 17.019531 16.574219 16.851562 16.730469 C 16.625 16.921875 16.480469 17.164062 16.414062 17.457031 C 16.390625 17.609375 16.308594 17.722656 16.175781 17.796875 C 16.132812 17.820312 16.082031 17.84375 16.101562 17.898438 C 16.113281 17.929688 16.136719 17.945312 16.167969 17.945312 C 16.417969 17.984375 16.59375 17.667969 16.664062 17.480469 C 16.742188 17.242188 16.886719 17.050781 17.085938 16.898438 C 17.269531 16.746094 17.40625 16.5625 17.503906 16.34375 C 17.589844 16.144531 17.71875 15.976562 17.890625 15.84375 L 17.621094 15.5625 C 17.441406 15.738281 17.308594 15.941406 17.21875 16.175781 Z M 17.21875 16.175781 " fill-opacity="1" fill-rule="nonzero"/><path fill="#f6b40e" d="M 17.671875 15.609375 C 17.5 15.78125 17.371094 15.976562 17.28125 16.203125 C 17.199219 16.429688 17.074219 16.621094 16.898438 16.785156 C 16.683594 16.972656 16.546875 17.203125 16.484375 17.484375 C 16.46875 17.550781 16.445312 17.617188 16.417969 17.679688 C 16.371094 17.765625 16.300781 17.832031 16.210938 17.867188 L 16.175781 17.886719 L 16.199219 17.886719 C 16.332031 17.867188 16.429688 17.800781 16.5 17.6875 C 16.546875 17.617188 16.582031 17.542969 16.609375 17.464844 C 16.691406 17.214844 16.835938 17.007812 17.042969 16.847656 C 17.21875 16.699219 17.351562 16.519531 17.445312 16.3125 C 17.535156 16.105469 17.667969 15.929688 17.847656 15.792969 Z M 17.671875 15.609375 " fill-opacity="1" fill-rule="nonzero"/><path fill="#85340a" d="M 17.660156 15.730469 C 17.296875 16.132812 17.34375 16.519531 16.953125 16.824219 C 17.320312 16.640625 17.308594 16.203125 17.730469 15.808594 Z M 17.660156 15.730469 " fill-opacity="1" fill-rule="nonzero"/><path fill="#85340a" d="M 19.796875 12.855469 C 19.875 12.640625 20 12.457031 20.164062 12.300781 C 20.390625 12.109375 20.539062 11.867188 20.601562 11.578125 C 20.625 11.421875 20.707031 11.308594 20.84375 11.234375 C 20.882812 11.214844 20.933594 11.1875 20.917969 11.136719 C 20.902344 11.105469 20.878906 11.085938 20.847656 11.085938 C 20.601562 11.046875 20.421875 11.367188 20.351562 11.550781 C 20.273438 11.792969 20.132812 11.988281 19.929688 12.140625 C 19.746094 12.292969 19.609375 12.476562 19.511719 12.695312 C 19.425781 12.894531 19.296875 13.0625 19.125 13.195312 L 19.394531 13.476562 C 19.574219 13.300781 19.707031 13.089844 19.796875 12.855469 Z M 19.796875 12.855469 " fill-opacity="1" fill-rule="nonzero"/><path fill="#f6b40e" d="M 19.34375 13.425781 C 19.515625 13.253906 19.644531 13.054688 19.734375 12.828125 C 19.816406 12.601562 19.945312 12.410156 20.121094 12.246094 C 20.332031 12.058594 20.46875 11.828125 20.53125 11.550781 C 20.546875 11.480469 20.570312 11.417969 20.597656 11.351562 C 20.644531 11.265625 20.714844 11.203125 20.804688 11.164062 L 20.839844 11.144531 L 20.816406 11.144531 C 20.683594 11.164062 20.585938 11.230469 20.515625 11.347656 C 20.46875 11.414062 20.433594 11.488281 20.410156 11.570312 C 20.328125 11.820312 20.179688 12.023438 19.972656 12.183594 C 19.796875 12.332031 19.664062 12.511719 19.570312 12.71875 C 19.480469 12.929688 19.347656 13.101562 19.167969 13.238281 Z M 19.34375 13.425781 " fill-opacity="1" fill-rule="nonzero"/><path fill="#85340a" d="M 19.355469 13.300781 C 19.71875 12.902344 19.671875 12.515625 20.0625 12.207031 C 19.695312 12.390625 19.707031 12.828125 19.289062 13.222656 Z M 19.355469 13.300781 " fill-opacity="1" fill-rule="nonzero"/><path fill="#85340a" d="M 17.953125 16.546875 C 17.960938 16.777344 17.917969 16.992188 17.824219 17.199219 C 17.691406 17.46875 17.652344 17.746094 17.703125 18.039062 C 17.742188 18.191406 17.710938 18.328125 17.613281 18.449219 C 17.582031 18.484375 17.546875 18.527344 17.582031 18.570312 C 17.605469 18.59375 17.632812 18.601562 17.667969 18.589844 C 17.910156 18.527344 17.957031 18.167969 17.945312 17.96875 C 17.925781 17.714844 17.980469 17.480469 18.109375 17.265625 C 18.21875 17.050781 18.277344 16.828125 18.28125 16.589844 C 18.285156 16.371094 18.339844 16.167969 18.449219 15.980469 L 18.089844 15.824219 C 17.992188 16.054688 17.949219 16.296875 17.953125 16.546875 Z M 17.953125 16.546875 " fill-opacity="1" fill-rule="nonzero"/><path fill="#f6b40e" d="M 18.152344 15.84375 C 18.058594 16.066406 18.015625 16.300781 18.023438 16.542969 C 18.03125 16.78125 17.980469 17.007812 17.878906 17.226562 C 17.75 17.480469 17.714844 17.746094 17.765625 18.027344 C 17.777344 18.097656 17.78125 18.164062 17.777344 18.234375 C 17.769531 18.332031 17.730469 18.417969 17.660156 18.488281 L 17.632812 18.519531 C 17.640625 18.523438 17.652344 18.523438 17.660156 18.519531 C 17.773438 18.449219 17.839844 18.351562 17.859375 18.21875 C 17.875 18.136719 17.882812 18.054688 17.875 17.972656 C 17.855469 17.707031 17.914062 17.460938 18.046875 17.234375 C 18.152344 17.03125 18.207031 16.8125 18.214844 16.585938 C 18.214844 16.359375 18.273438 16.148438 18.386719 15.949219 Z M 18.152344 15.84375 " fill-opacity="1" fill-rule="nonzero"/><path fill="#85340a" d="M 18.1875 15.96875 C 18.003906 16.480469 18.199219 16.816406 17.953125 17.25 C 18.226562 16.941406 18.046875 16.539062 18.28125 16.015625 Z M 18.1875 15.96875 " fill-opacity="1" fill-rule="nonzero"/><path fill="#85340a" d="M 19.0625 12.484375 C 19.054688 12.257812 19.097656 12.039062 19.191406 11.832031 C 19.324219 11.566406 19.367188 11.285156 19.3125 10.992188 C 19.273438 10.839844 19.304688 10.703125 19.402344 10.582031 C 19.433594 10.546875 19.46875 10.503906 19.433594 10.464844 C 19.40625 10.441406 19.378906 10.4375 19.351562 10.453125 C 19.105469 10.511719 19.058594 10.871094 19.074219 11.070312 C 19.089844 11.324219 19.035156 11.558594 18.90625 11.777344 C 18.796875 11.988281 18.738281 12.210938 18.734375 12.449219 C 18.730469 12.667969 18.675781 12.871094 18.566406 13.058594 L 18.925781 13.21875 C 19.023438 12.980469 19.070312 12.738281 19.0625 12.484375 Z M 19.0625 12.484375 " fill-opacity="1" fill-rule="nonzero"/><path fill="#f6b40e" d="M 18.863281 13.1875 C 18.957031 12.964844 19 12.730469 18.992188 12.488281 C 18.988281 12.25 19.035156 12.023438 19.136719 11.808594 C 19.265625 11.550781 19.300781 11.285156 19.25 11.003906 C 19.238281 10.9375 19.234375 10.867188 19.238281 10.796875 C 19.246094 10.699219 19.285156 10.613281 19.355469 10.542969 L 19.382812 10.511719 C 19.375 10.511719 19.367188 10.511719 19.355469 10.511719 C 19.242188 10.582031 19.175781 10.683594 19.160156 10.8125 C 19.140625 10.894531 19.132812 10.976562 19.140625 11.0625 C 19.160156 11.324219 19.105469 11.570312 18.96875 11.796875 C 18.863281 12.003906 18.808594 12.21875 18.804688 12.449219 C 18.800781 12.675781 18.742188 12.886719 18.628906 13.082031 Z M 18.863281 13.1875 " fill-opacity="1" fill-rule="nonzero"/><path fill="#85340a" d="M 18.828125 13.066406 C 19.011719 12.554688 18.820312 12.214844 19.0625 11.78125 C 18.792969 12.09375 18.972656 12.492188 18.734375 13.019531 Z M 18.828125 13.066406 " fill-opacity="1" fill-rule="nonzero"/><path fill="#85340a" d="M 18.59375 10.429688 C 18.597656 10.367188 18.570312 10.335938 18.507812 10.332031 C 18.449219 10.335938 18.421875 10.363281 18.425781 10.421875 L 18.269531 14.515625 L 18.425781 18.605469 C 18.417969 18.664062 18.445312 18.695312 18.507812 18.699219 C 18.566406 18.699219 18.59375 18.667969 18.59375 18.609375 L 18.746094 14.515625 Z M 18.59375 10.429688 " fill-opacity="1" fill-rule="nonzero"/><path fill="#f6b40e" d="M 18.527344 10.429688 C 18.527344 10.417969 18.527344 10.398438 18.507812 10.398438 C 18.492188 10.398438 18.492188 10.410156 18.492188 10.429688 L 18.335938 14.515625 L 18.492188 18.605469 C 18.492188 18.621094 18.492188 18.632812 18.507812 18.632812 C 18.527344 18.632812 18.527344 18.617188 18.527344 18.605469 L 18.679688 14.515625 Z M 18.527344 10.429688 " fill-opacity="1" fill-rule="nonzero"/><path fill="#85340a" d="M 18.507812 11.71875 L 18.40625 14.515625 L 18.507812 17.3125 L 18.609375 14.515625 Z M 18.507812 11.71875 " fill-opacity="1" fill-rule="nonzero"/><path fill="#85340a" d="M 17.019531 10.710938 C 17 10.65625 16.960938 10.636719 16.90625 10.65625 C 16.855469 10.683594 16.84375 10.722656 16.863281 10.773438 L 18.289062 14.617188 L 19.996094 18.332031 C 20.015625 18.390625 20.054688 18.410156 20.109375 18.386719 C 20.164062 18.363281 20.175781 18.324219 20.152344 18.269531 L 18.730469 14.425781 Z M 17.019531 10.710938 " fill-opacity="1" fill-rule="nonzero"/><path fill="#f6b40e" d="M 16.960938 10.734375 C 16.960938 10.734375 16.941406 10.710938 16.9375 10.714844 C 16.929688 10.722656 16.925781 10.734375 16.9375 10.746094 L 18.359375 14.582031 L 20.066406 18.300781 C 20.066406 18.316406 20.085938 18.320312 20.089844 18.316406 C 20.097656 18.3125 20.089844 18.292969 20.089844 18.285156 L 18.667969 14.449219 Z M 16.960938 10.734375 " fill-opacity="1" fill-rule="nonzero"/><path fill="#85340a" d="M 17.4375 11.933594 L 18.414062 14.558594 L 19.578125 17.101562 L 18.605469 14.480469 Z M 17.4375 11.933594 " fill-opacity="1" fill-rule="nonzero"/><path fill="#85340a" d="M 15.675781 11.570312 C 15.632812 11.53125 15.589844 11.53125 15.550781 11.570312 C 15.511719 11.613281 15.511719 11.65625 15.550781 11.695312 L 18.335938 14.703125 L 21.335938 17.480469 C 21.375 17.523438 21.417969 17.523438 21.460938 17.480469 C 21.496094 17.441406 21.496094 17.398438 21.460938 17.355469 L 18.675781 14.351562 Z M 15.675781 11.570312 " fill-opacity="1" fill-rule="nonzero"/><path fill="#f6b40e" d="M 15.628906 11.613281 C 15.628906 11.613281 15.605469 11.601562 15.605469 11.613281 C 15.605469 11.625 15.605469 11.632812 15.605469 11.644531 L 18.390625 14.640625 L 21.386719 17.417969 C 21.398438 17.429688 21.414062 17.429688 21.417969 17.417969 C 21.425781 17.40625 21.417969 17.394531 21.417969 17.390625 L 18.628906 14.398438 Z M 15.628906 11.613281 " fill-opacity="1" fill-rule="nonzero"/><path fill="#85340a" d="M 16.53125 12.542969 L 18.4375 14.59375 L 20.488281 16.496094 L 18.578125 14.445312 Z M 16.53125 12.542969 " fill-opacity="1" fill-rule="nonzero"/><path fill="#85340a" d="M 14.761719 12.878906 C 14.707031 12.855469 14.667969 12.867188 14.640625 12.921875 C 14.621094 12.976562 14.640625 13.015625 14.695312 13.035156 L 18.417969 14.742188 L 22.253906 16.164062 C 22.308594 16.1875 22.347656 16.175781 22.375 16.125 C 22.390625 16.066406 22.375 16.03125 22.320312 16.011719 L 18.597656 14.300781 Z M 14.761719 12.878906 " fill-opacity="1" fill-rule="nonzero"/><path fill="#f6b40e" d="M 14.734375 12.9375 C 14.726562 12.9375 14.703125 12.9375 14.703125 12.9375 C 14.703125 12.949219 14.710938 12.957031 14.722656 12.964844 L 18.445312 14.671875 L 22.28125 16.09375 C 22.296875 16.09375 22.308594 16.09375 22.308594 16.09375 C 22.308594 16.09375 22.296875 16.070312 22.292969 16.070312 L 18.574219 14.359375 Z M 14.734375 12.9375 " fill-opacity="1" fill-rule="nonzero"/><path fill="#85340a" d="M 15.925781 13.445312 L 18.472656 14.613281 L 21.089844 15.589844 L 18.550781 14.425781 Z M 15.925781 13.445312 " fill-opacity="1" fill-rule="nonzero"/><path fill="#85340a" d="M 14.421875 14.4375 C 14.359375 14.433594 14.328125 14.460938 14.324219 14.523438 C 14.328125 14.578125 14.355469 14.609375 14.414062 14.605469 L 18.507812 14.761719 L 22.597656 14.605469 C 22.660156 14.609375 22.691406 14.582031 22.691406 14.515625 C 22.6875 14.457031 22.660156 14.429688 22.601562 14.433594 L 18.507812 14.28125 Z M 14.421875 14.4375 " fill-opacity="1" fill-rule="nonzero"/><path fill="#f6b40e" d="M 14.421875 14.503906 C 14.410156 14.503906 14.390625 14.503906 14.390625 14.523438 C 14.390625 14.539062 14.402344 14.539062 14.421875 14.539062 L 18.515625 14.695312 L 22.601562 14.539062 C 22.617188 14.539062 22.628906 14.539062 22.628906 14.523438 C 22.628906 14.503906 22.613281 14.503906 22.601562 14.503906 L 18.507812 14.347656 Z M 14.421875 14.503906 " fill-opacity="1" fill-rule="nonzero"/><path fill="#85340a" d="M 15.710938 14.515625 L 18.507812 14.625 L 21.304688 14.515625 L 18.507812 14.414062 Z M 15.710938 14.515625 " fill-opacity="1" fill-rule="nonzero"/><path fill="#85340a" d="M 14.703125 16.011719 C 14.648438 16.03125 14.628906 16.066406 14.648438 16.125 C 14.675781 16.175781 14.714844 16.1875 14.765625 16.164062 L 18.605469 14.738281 L 22.320312 13.027344 C 22.378906 13.007812 22.394531 12.972656 22.375 12.914062 C 22.347656 12.859375 22.308594 12.847656 22.253906 12.871094 L 18.414062 14.296875 Z M 14.703125 16.011719 " fill-opacity="1" fill-rule="nonzero"/><path fill="#f6b40e" d="M 14.726562 16.070312 C 14.726562 16.070312 14.703125 16.089844 14.707031 16.09375 C 14.714844 16.101562 14.726562 16.105469 14.738281 16.09375 L 18.574219 14.671875 L 22.289062 12.964844 C 22.308594 12.964844 22.3125 12.945312 22.308594 12.9375 C 22.300781 12.933594 22.285156 12.9375 22.277344 12.9375 L 18.441406 14.359375 Z M 14.726562 16.070312 " fill-opacity="1" fill-rule="nonzero"/><path fill="#85340a" d="M 15.925781 15.589844 L 18.550781 14.613281 L 21.089844 13.445312 L 18.472656 14.425781 Z M 15.925781 15.589844 " fill-opacity="1" fill-rule="nonzero"/><path fill="#85340a" d="M 15.554688 17.355469 C 15.507812 17.394531 15.503906 17.4375 15.550781 17.480469 C 15.59375 17.527344 15.636719 17.523438 15.675781 17.472656 L 18.679688 14.6875 L 21.460938 11.691406 C 21.503906 11.648438 21.503906 11.605469 21.460938 11.5625 C 21.417969 11.527344 21.375 11.527344 21.335938 11.5625 L 18.328125 14.347656 Z M 15.554688 17.355469 " fill-opacity="1" fill-rule="nonzero"/><path fill="#f6b40e" d="M 15.605469 17.394531 C 15.605469 17.394531 15.585938 17.421875 15.605469 17.425781 C 15.621094 17.433594 15.625 17.425781 15.636719 17.425781 L 18.632812 14.640625 L 21.410156 11.636719 C 21.417969 11.625 21.417969 11.613281 21.410156 11.613281 C 21.402344 11.613281 21.386719 11.613281 21.378906 11.613281 L 18.382812 14.398438 Z M 15.605469 17.394531 " fill-opacity="1" fill-rule="nonzero"/><path fill="#85340a" d="M 16.53125 16.496094 L 18.578125 14.59375 L 20.488281 12.542969 L 18.4375 14.445312 Z M 16.53125 16.496094 " fill-opacity="1" fill-rule="nonzero"/><path fill="#85340a" d="M 16.863281 18.261719 C 16.839844 18.316406 16.855469 18.355469 16.90625 18.382812 C 16.960938 18.402344 17 18.382812 17.019531 18.328125 L 18.730469 14.605469 L 20.152344 10.769531 C 20.175781 10.71875 20.160156 10.675781 20.109375 10.652344 C 20.054688 10.632812 20.015625 10.648438 19.996094 10.703125 L 18.289062 14.425781 Z M 16.863281 18.261719 " fill-opacity="1" fill-rule="nonzero"/><path fill="#f6b40e" d="M 16.929688 18.289062 C 16.929688 18.289062 16.929688 18.320312 16.929688 18.320312 C 16.941406 18.316406 16.949219 18.3125 16.953125 18.300781 L 18.664062 14.578125 L 20.085938 10.742188 C 20.085938 10.722656 20.085938 10.714844 20.085938 10.714844 C 20.085938 10.714844 20.0625 10.722656 20.0625 10.730469 L 18.351562 14.457031 Z M 16.929688 18.289062 " fill-opacity="1" fill-rule="nonzero"/><path fill="#85340a" d="M 17.4375 17.101562 L 18.605469 14.558594 L 19.578125 11.933594 L 18.414062 14.480469 Z M 17.4375 17.101562 " fill-opacity="1" fill-rule="nonzero"/><path fill="#85340a" d="M 18.507812 12.8125 C 18.28125 12.8125 18.066406 12.855469 17.855469 12.941406 C 17.648438 13.03125 17.464844 13.152344 17.304688 13.3125 C 17.144531 13.472656 17.019531 13.65625 16.933594 13.863281 C 16.847656 14.074219 16.804688 14.289062 16.804688 14.515625 C 16.804688 14.742188 16.847656 14.960938 16.933594 15.167969 C 17.019531 15.375 17.144531 15.558594 17.304688 15.71875 C 17.464844 15.878906 17.648438 16.003906 17.855469 16.089844 C 18.066406 16.175781 18.28125 16.21875 18.507812 16.21875 C 18.734375 16.21875 18.949219 16.175781 19.160156 16.089844 C 19.367188 16.003906 19.550781 15.878906 19.710938 15.71875 C 19.871094 15.558594 19.996094 15.375 20.082031 15.167969 C 20.167969 14.960938 20.210938 14.742188 20.210938 14.515625 C 20.210938 14.289062 20.167969 14.074219 20.082031 13.863281 C 19.992188 13.65625 19.871094 13.472656 19.710938 13.3125 C 19.550781 13.152344 19.367188 13.03125 19.160156 12.945312 C 18.949219 12.855469 18.734375 12.8125 18.507812 12.8125 Z M 18.507812 12.8125 " fill-opacity="1" fill-rule="nonzero"/><path fill="#f6b40e" d="M 18.507812 12.902344 C 18.292969 12.902344 18.089844 12.945312 17.890625 13.027344 C 17.691406 13.109375 17.519531 13.222656 17.367188 13.375 C 17.214844 13.527344 17.101562 13.703125 17.019531 13.898438 C 16.9375 14.097656 16.894531 14.300781 16.894531 14.515625 C 16.894531 14.730469 16.9375 14.9375 17.019531 15.132812 C 17.101562 15.332031 17.214844 15.503906 17.367188 15.65625 C 17.519531 15.808594 17.691406 15.925781 17.890625 16.007812 C 18.089844 16.089844 18.292969 16.128906 18.507812 16.128906 C 18.722656 16.128906 18.925781 16.089844 19.125 16.007812 C 19.324219 15.925781 19.496094 15.808594 19.648438 15.65625 C 19.800781 15.503906 19.917969 15.332031 19.996094 15.132812 C 20.078125 14.9375 20.121094 14.730469 20.121094 14.515625 C 20.121094 14.300781 20.078125 14.097656 19.996094 13.898438 C 19.914062 13.703125 19.800781 13.527344 19.648438 13.375 C 19.496094 13.226562 19.324219 13.109375 19.125 13.027344 C 18.925781 12.945312 18.722656 12.902344 18.507812 12.902344 Z M 18.507812 12.902344 " fill-opacity="1" fill-rule="nonzero"/><path fill="#85340a" d="M 17.933594 14.003906 C 18.046875 13.988281 18.140625 14.023438 18.214844 14.105469 C 18.253906 14.136719 18.292969 14.160156 18.339844 14.167969 C 18.351562 14.179688 18.339844 14.21875 18.316406 14.207031 C 18.257812 14.179688 18.207031 14.144531 18.160156 14.105469 C 18.09375 14.050781 18.019531 14.027344 17.933594 14.039062 C 17.707031 14.039062 17.574219 14.230469 17.554688 14.21875 C 17.53125 14.207031 17.679688 14.003906 17.933594 14.003906 Z M 17.933594 14.003906 " fill-opacity="1" fill-rule="nonzero"/><path fill="#85340a" d="M 17.625 14.28125 C 17.738281 14.328125 17.855469 14.359375 17.976562 14.367188 C 18.167969 14.367188 18.265625 14.222656 18.300781 14.257812 C 18.332031 14.296875 18.167969 14.414062 17.976562 14.414062 C 17.84375 14.410156 17.726562 14.363281 17.625 14.28125 Z M 17.625 14.28125 " fill-opacity="1" fill-rule="nonzero"/><path fill="#85340a" d="M 17.46875 14.082031 C 17.578125 13.957031 17.71875 13.882812 17.886719 13.863281 C 18.050781 13.84375 18.203125 13.882812 18.339844 13.980469 C 18.410156 14.085938 18.441406 14.199219 18.433594 14.324219 C 18.429688 14.449219 18.382812 14.558594 18.304688 14.65625 C 18.324219 14.65625 18.34375 14.664062 18.355469 14.679688 C 18.488281 14.445312 18.511719 14.203125 18.421875 13.953125 C 18.355469 13.890625 18.277344 13.84375 18.1875 13.816406 C 18.097656 13.789062 18.007812 13.78125 17.914062 13.792969 C 17.824219 13.804688 17.738281 13.835938 17.660156 13.886719 C 17.582031 13.9375 17.519531 14 17.46875 14.082031 Z M 17.46875 14.082031 " fill-opacity="1" fill-rule="nonzero"/><path fill="#85340a" d="M 18.070312 14.207031 C 18.070312 14.28125 18.035156 14.320312 17.957031 14.320312 C 17.882812 14.320312 17.84375 14.28125 17.84375 14.207031 C 17.84375 14.128906 17.882812 14.09375 17.957031 14.09375 C 18.035156 14.09375 18.070312 14.128906 18.070312 14.207031 Z M 18.070312 14.207031 " fill-opacity="1" fill-rule="nonzero"/><path fill="#85340a" d="M 17.636719 14.21875 C 17.730469 14.285156 17.835938 14.320312 17.953125 14.320312 C 18.058594 14.324219 18.152344 14.296875 18.234375 14.230469 C 18.164062 14.121094 18.0625 14.074219 17.9375 14.082031 C 17.820312 14.089844 17.71875 14.132812 17.636719 14.21875 Z M 17.722656 14.207031 C 17.722656 14.207031 17.761719 14.109375 17.949219 14.109375 C 18.050781 14.105469 18.128906 14.148438 18.179688 14.234375 C 18.117188 14.289062 18.039062 14.316406 17.953125 14.3125 C 17.863281 14.308594 17.785156 14.273438 17.726562 14.207031 Z M 17.722656 14.207031 " fill-opacity="1" fill-rule="nonzero"/><path fill="#85340a" d="M 19.464844 14.21875 C 19.441406 14.230469 19.308594 14.039062 19.082031 14.039062 C 18.996094 14.027344 18.921875 14.050781 18.855469 14.105469 C 18.808594 14.144531 18.757812 14.179688 18.699219 14.207031 C 18.675781 14.21875 18.664062 14.179688 18.675781 14.167969 C 18.722656 14.160156 18.765625 14.136719 18.800781 14.105469 C 18.875 14.023438 18.972656 13.988281 19.082031 14.003906 C 19.339844 14.003906 19.492188 14.207031 19.464844 14.21875 Z M 19.464844 14.21875 " fill-opacity="1" fill-rule="nonzero"/><path fill="#85340a" d="M 19.039062 14.414062 C 18.847656 14.414062 18.699219 14.28125 18.71875 14.257812 C 18.734375 14.234375 18.847656 14.367188 19.039062 14.367188 C 19.160156 14.359375 19.277344 14.328125 19.390625 14.28125 C 19.289062 14.363281 19.171875 14.410156 19.039062 14.414062 Z M 19.039062 14.414062 " fill-opacity="1" fill-rule="nonzero"/><path fill="#85340a" d="M 18.597656 13.953125 C 18.511719 14.207031 18.53125 14.449219 18.664062 14.679688 C 18.679688 14.667969 18.695312 14.660156 18.71875 14.65625 C 18.636719 14.5625 18.589844 14.449219 18.585938 14.324219 C 18.578125 14.199219 18.609375 14.085938 18.679688 13.980469 C 18.816406 13.886719 18.96875 13.847656 19.136719 13.867188 C 19.300781 13.886719 19.441406 13.957031 19.550781 14.082031 C 19.503906 14.003906 19.4375 13.9375 19.359375 13.886719 C 19.28125 13.839844 19.195312 13.808594 19.105469 13.792969 C 19.011719 13.78125 18.921875 13.789062 18.832031 13.816406 C 18.746094 13.847656 18.667969 13.890625 18.597656 13.953125 Z M 18.597656 13.953125 " fill-opacity="1" fill-rule="nonzero"/><path fill="#85340a" d="M 19.171875 14.207031 C 19.171875 14.28125 19.132812 14.320312 19.058594 14.320312 C 18.984375 14.320312 18.945312 14.28125 18.945312 14.207031 C 18.945312 14.128906 18.984375 14.09375 19.058594 14.09375 C 19.132812 14.09375 19.171875 14.128906 19.171875 14.207031 Z M 19.171875 14.207031 " fill-opacity="1" fill-rule="nonzero"/><path fill="#85340a" d="M 19.074219 14.082031 C 18.949219 14.070312 18.847656 14.121094 18.777344 14.226562 C 18.859375 14.292969 18.953125 14.320312 19.058594 14.316406 C 19.175781 14.316406 19.28125 14.28125 19.375 14.214844 C 19.292969 14.132812 19.191406 14.085938 19.074219 14.082031 Z M 19.058594 14.3125 C 18.972656 14.316406 18.894531 14.292969 18.832031 14.234375 C 18.882812 14.148438 18.960938 14.109375 19.0625 14.109375 C 19.25 14.109375 19.289062 14.207031 19.289062 14.207031 C 19.226562 14.273438 19.152344 14.308594 19.058594 14.3125 Z M 19.058594 14.3125 " fill-opacity="1" fill-rule="nonzero"/><path fill="#85340a" d="M 18.507812 15.386719 C 18.355469 15.386719 18.28125 15.464844 18.28125 15.613281 C 18.308594 15.496094 18.382812 15.433594 18.507812 15.433594 C 18.632812 15.433594 18.707031 15.496094 18.734375 15.613281 C 18.734375 15.464844 18.660156 15.386719 18.507812 15.386719 Z M 18.507812 15.386719 " fill-opacity="1" fill-rule="nonzero"/><path fill="#85340a" d="M 18.652344 15.007812 C 18.621094 15.007812 18.609375 15.007812 18.507812 15.050781 C 18.414062 15.007812 18.394531 15.007812 18.363281 15.007812 C 18.253906 15.007812 18.117188 15.191406 18.082031 15.203125 C 18.148438 15.175781 18.285156 15.054688 18.34375 15.054688 C 18.398438 15.0625 18.449219 15.070312 18.5 15.085938 C 18.550781 15.070312 18.605469 15.0625 18.65625 15.054688 C 18.714844 15.054688 18.855469 15.179688 18.917969 15.203125 C 18.890625 15.195312 18.753906 15.007812 18.652344 15.007812 Z M 18.652344 15.007812 " fill-opacity="1" fill-rule="nonzero"/><path fill="#85340a" d="M 18.667969 15.160156 C 18.617188 15.160156 18.5625 15.175781 18.507812 15.175781 C 18.453125 15.175781 18.402344 15.160156 18.347656 15.160156 C 18.273438 15.164062 18.199219 15.179688 18.125 15.203125 C 18.195312 15.1875 18.261719 15.183594 18.328125 15.191406 C 18.390625 15.191406 18.449219 15.230469 18.507812 15.230469 C 18.570312 15.222656 18.628906 15.207031 18.6875 15.191406 C 18.753906 15.183594 18.824219 15.1875 18.890625 15.203125 C 18.816406 15.175781 18.746094 15.164062 18.667969 15.160156 Z M 18.667969 15.160156 " fill-opacity="1" fill-rule="nonzero"/><path fill="#85340a" d="M 18.507812 15.34375 C 18.289062 15.34375 18.339844 15.175781 18.085938 15.207031 C 18.347656 15.222656 18.230469 15.386719 18.507812 15.386719 C 18.785156 15.386719 18.667969 15.222656 18.933594 15.207031 C 18.675781 15.171875 18.722656 15.34375 18.507812 15.34375 Z M 18.507812 15.34375 " fill-opacity="1" fill-rule="nonzero"/><path fill="#85340a" d="M 18.765625 14.667969 C 18.804688 14.675781 18.824219 14.699219 18.824219 14.742188 C 18.816406 14.785156 18.792969 14.808594 18.746094 14.808594 C 18.703125 14.808594 18.675781 14.785156 18.667969 14.742188 C 18.636719 14.808594 18.585938 14.847656 18.507812 14.847656 C 18.429688 14.847656 18.378906 14.8125 18.347656 14.742188 C 18.347656 14.792969 18.320312 14.816406 18.269531 14.816406 C 18.21875 14.816406 18.191406 14.792969 18.191406 14.742188 C 18.191406 14.699219 18.210938 14.675781 18.25 14.667969 C 18.179688 14.675781 18.148438 14.714844 18.148438 14.785156 C 18.148438 14.859375 18.1875 14.894531 18.261719 14.894531 C 18.300781 14.898438 18.335938 14.878906 18.359375 14.847656 C 18.402344 14.875 18.453125 14.886719 18.503906 14.886719 C 18.554688 14.882812 18.601562 14.871094 18.648438 14.847656 C 18.671875 14.882812 18.703125 14.898438 18.746094 14.894531 C 18.820312 14.894531 18.859375 14.859375 18.859375 14.785156 C 18.863281 14.714844 18.832031 14.675781 18.765625 14.667969 Z M 18.765625 14.667969 " fill-opacity="1" fill-rule="nonzero"/></svg>