<svg xmlns="http://www.w3.org/2000/svg" xmlns:xlink="http://www.w3.org/1999/xlink" width="50" zoomAndPan="magnify" viewBox="0 0 37.5 30.000001" height="40" preserveAspectRatio="xMidYMid meet" version="1.0"><defs><clipPath id="c9b90fb202"><path d="M 0.363281 1.523438 L 36.496094 1.523438 L 36.496094 15 L 0.363281 15 Z M 0.363281 1.523438 " clip-rule="nonzero"/></clipPath><clipPath id="e1b99d9f56"><path d="M 0.363281 14 L 36.496094 14 L 36.496094 27.652344 L 0.363281 27.652344 Z M 0.363281 14 " clip-rule="nonzero"/></clipPath></defs><g clip-path="url(#c9b90fb202)"><path fill="#e40001" d="M 36.492188 14.585938 L -0.511719 14.585938 L -0.511719 1.523438 L 36.492188 1.523438 L 36.492188 14.585938 " fill-opacity="1" fill-rule="nonzero"/></g><g clip-path="url(#e1b99d9f56)"><path fill="#f2f2f2" d="M 36.492188 27.652344 L -0.511719 27.652344 L -0.511719 14.585938 L 36.492188 14.585938 L 36.492188 27.652344 " fill-opacity="1" fill-rule="nonzero"/></g><path fill="#f2f2f2" d="M 10.507812 4.207031 L 10.75 4.960938 L 11.535156 4.960938 L 10.902344 5.425781 L 11.144531 6.179688 L 10.507812 5.714844 L 9.875 6.179688 L 10.117188 5.425781 L 9.480469 4.960938 L 10.265625 4.960938 L 10.507812 4.207031 " fill-opacity="1" fill-rule="nonzero"/><path fill="#f2f2f2" d="M 13.042969 6.199219 L 13.285156 6.953125 L 14.070312 6.953125 L 13.433594 7.417969 L 13.675781 8.171875 L 13.042969 7.707031 L 12.410156 8.171875 L 12.652344 7.417969 L 12.015625 6.953125 L 12.800781 6.953125 L 13.042969 6.199219 " fill-opacity="1" fill-rule="nonzero"/><path fill="#f2f2f2" d="M 12.074219 9.253906 L 12.316406 10.007812 L 13.101562 10.007812 L 12.46875 10.472656 L 12.710938 11.226562 L 12.074219 10.761719 L 11.441406 11.226562 L 11.683594 10.472656 L 11.050781 10.007812 L 11.832031 10.007812 L 12.074219 9.253906 " fill-opacity="1" fill-rule="nonzero"/><path fill="#f2f2f2" d="M 8.867188 9.222656 L 9.109375 9.976562 L 9.894531 9.976562 L 9.257812 10.445312 L 9.5 11.199219 L 8.867188 10.730469 L 8.230469 11.199219 L 8.472656 10.445312 L 7.839844 9.976562 L 8.625 9.976562 L 8.867188 9.222656 " fill-opacity="1" fill-rule="nonzero"/><path fill="#f2f2f2" d="M 7.898438 6.179688 L 8.140625 6.933594 L 8.925781 6.933594 L 8.292969 7.398438 L 8.535156 8.152344 L 7.898438 7.6875 L 7.265625 8.152344 L 7.507812 7.398438 L 6.871094 6.933594 L 7.65625 6.933594 L 7.898438 6.179688 " fill-opacity="1" fill-rule="nonzero"/><path fill="#f2f2f2" d="M 5.292969 8.152344 C 5.292969 5.957031 6.824219 4.117188 8.867188 3.667969 C 8.445312 3.542969 8.003906 3.476562 7.542969 3.476562 C 4.984375 3.476562 2.914062 5.570312 2.914062 8.152344 C 2.914062 10.738281 4.984375 12.832031 7.542969 12.832031 C 8.003906 12.832031 8.445312 12.765625 8.867188 12.640625 C 6.824219 12.191406 5.292969 10.351562 5.292969 8.152344 " fill-opacity="1" fill-rule="nonzero"/></svg>