<svg xmlns="http://www.w3.org/2000/svg" xmlns:xlink="http://www.w3.org/1999/xlink" width="50" zoomAndPan="magnify" viewBox="0 0 37.5 30.000001" height="40" preserveAspectRatio="xMidYMid meet" version="1.0"><defs><clipPath id="032dce8759"><path d="M 0.363281 1.453125 L 36.652344 1.453125 L 36.652344 27.582031 L 0.363281 27.582031 Z M 0.363281 1.453125 " clip-rule="nonzero"/></clipPath><clipPath id="554eb36449"><path d="M 29 1.453125 L 36.652344 1.453125 L 36.652344 27.582031 L 29 27.582031 Z M 29 1.453125 " clip-rule="nonzero"/></clipPath><clipPath id="f74b24701a"><path d="M 0.363281 1.453125 L 9 1.453125 L 9 27.582031 L 0.363281 27.582031 Z M 0.363281 1.453125 " clip-rule="nonzero"/></clipPath></defs><g clip-path="url(#032dce8759)"><path fill="#eceff1" d="M -0.652344 1.453125 L 37.785156 1.453125 L 37.785156 27.582031 L -0.652344 27.582031 Z M -0.652344 1.453125 " fill-opacity="1" fill-rule="nonzero"/></g><g clip-path="url(#554eb36449)"><path fill="#ff3d00" d="M 29.050781 1.453125 L 37.785156 1.453125 L 37.785156 27.582031 L 29.050781 27.582031 Z M 29.050781 1.453125 " fill-opacity="1" fill-rule="nonzero"/></g><g clip-path="url(#f74b24701a)"><path fill="#ff3d00" d="M -0.652344 1.453125 L 8.085938 1.453125 L 8.085938 27.582031 L -0.652344 27.582031 Z M -0.652344 1.453125 " fill-opacity="1" fill-rule="nonzero"/></g><path fill="#ff3d00" d="M 17.691406 19.742188 L 19.441406 19.742188 L 19.441406 22.355469 L 17.691406 22.355469 Z M 17.691406 19.742188 " fill-opacity="1" fill-rule="nonzero"/><path fill="#ff3d00" d="M 26.429688 17.128906 L 24.679688 16.257812 L 26.429688 13.644531 L 23.808594 13.644531 L 23.773438 11.914062 L 21.753906 12.925781 L 22.0625 8.417969 L 20.3125 9.289062 L 18.574219 6.675781 L 16.820312 9.289062 L 15.074219 8.417969 L 15.378906 12.898438 L 13.359375 11.917969 C 13.359375 11.917969 13.320312 13.636719 13.324219 13.644531 L 10.703125 13.644531 L 12.453125 16.257812 L 10.703125 17.128906 L 14.199219 18.871094 L 14.199219 20.613281 C 14.199219 20.613281 18.324219 20.386719 18.566406 20.386719 C 18.808594 20.386719 22.933594 20.613281 22.933594 20.613281 L 22.933594 18.871094 Z M 26.429688 17.128906 " fill-opacity="1" fill-rule="nonzero"/></svg>