<svg xmlns="http://www.w3.org/2000/svg" xmlns:xlink="http://www.w3.org/1999/xlink" width="50" zoomAndPan="magnify" viewBox="0 0 37.5 30.000001" height="40" preserveAspectRatio="xMidYMid meet" version="1.0"><defs><clipPath id="ec90b5acd2"><path d="M 0.363281 0 L 36.652344 0 L 36.652344 29.03125 L 0.363281 29.03125 Z M 0.363281 0 " clip-rule="nonzero"/></clipPath><clipPath id="ddde3cc1bc"><path d="M 0.363281 11 L 36.652344 11 L 36.652344 18 L 0.363281 18 Z M 0.363281 11 " clip-rule="nonzero"/></clipPath><clipPath id="7e386d4eea"><path d="M 10 0 L 17 0 L 17 29.03125 L 10 29.03125 Z M 10 0 " clip-rule="nonzero"/></clipPath><clipPath id="c5f98334a9"><path d="M 0.363281 11 L 36.652344 11 L 36.652344 18 L 0.363281 18 Z M 0.363281 11 " clip-rule="nonzero"/></clipPath></defs><g clip-path="url(#ec90b5acd2)"><path fill="#005aad" d="M -3.554688 0 L 42.894531 0 L 42.894531 29.03125 L -3.554688 29.03125 Z M -3.554688 0 " fill-opacity="1" fill-rule="evenodd"/></g><g clip-path="url(#ddde3cc1bc)"><path fill="#ffc200" d="M -3.554688 11.613281 L 42.894531 11.613281 L 42.894531 17.417969 L -3.554688 17.417969 Z M -3.554688 11.613281 " fill-opacity="0.5" fill-rule="evenodd"/></g><g clip-path="url(#7e386d4eea)"><path fill="#ffc200" d="M 10.960938 0 L 16.765625 0 L 16.765625 29.03125 L 10.960938 29.03125 Z M 10.960938 0 " fill-opacity="0.5" fill-rule="evenodd"/><path fill="#ffc200" d="M 10.960938 0 L 16.765625 0 L 16.765625 29.03125 L 10.960938 29.03125 Z M 10.960938 0 " fill-opacity="1" fill-rule="evenodd"/></g><g clip-path="url(#c5f98334a9)"><path fill="#ffc200" d="M -3.554688 11.613281 L 42.894531 11.613281 L 42.894531 17.417969 L -3.554688 17.417969 Z M -3.554688 11.613281 " fill-opacity="1" fill-rule="evenodd"/></g></svg>