<svg xmlns="http://www.w3.org/2000/svg" xmlns:xlink="http://www.w3.org/1999/xlink" width="50" zoomAndPan="magnify" viewBox="0 0 37.5 30.000001" height="40" preserveAspectRatio="xMidYMid meet" version="1.0"><defs><clipPath id="af17b45e93"><path d="M 0.363281 1.453125 L 36.652344 1.453125 L 36.652344 27.582031 L 0.363281 27.582031 Z M 0.363281 1.453125 " clip-rule="nonzero"/></clipPath><clipPath id="744ba75aab"><path d="M 0.363281 5 L 36.652344 5 L 36.652344 24 L 0.363281 24 Z M 0.363281 5 " clip-rule="nonzero"/></clipPath><clipPath id="064c627a41"><path d="M 0.363281 10 L 36.652344 10 L 36.652344 19 L 0.363281 19 Z M 0.363281 10 " clip-rule="nonzero"/></clipPath></defs><g clip-path="url(#af17b45e93)"><path fill="#d50000" d="M -1.679688 1.453125 L 36.753906 1.453125 L 36.753906 27.582031 L -1.679688 27.582031 Z M -1.679688 1.453125 " fill-opacity="1" fill-rule="nonzero"/></g><g clip-path="url(#744ba75aab)"><path fill="#eceff1" d="M -1.679688 5.804688 L 36.753906 5.804688 L 36.753906 23.226562 L -1.679688 23.226562 Z M -1.679688 5.804688 " fill-opacity="1" fill-rule="nonzero"/></g><g clip-path="url(#064c627a41)"><path fill="#1a237e" d="M -1.679688 10.160156 L 36.753906 10.160156 L 36.753906 18.871094 L -1.679688 18.871094 Z M -1.679688 10.160156 " fill-opacity="1" fill-rule="nonzero"/></g></svg>