<svg xmlns="http://www.w3.org/2000/svg" xmlns:xlink="http://www.w3.org/1999/xlink" width="50" zoomAndPan="magnify" viewBox="0 0 37.5 30.000001" height="40" preserveAspectRatio="xMidYMid meet" version="1.0"><defs><clipPath id="73b9e600dd"><path d="M 0.363281 1.453125 L 19 1.453125 L 19 27.582031 L 0.363281 27.582031 Z M 0.363281 1.453125 " clip-rule="nonzero"/></clipPath><clipPath id="437e39ded1"><path d="M 0.363281 1.453125 L 36.652344 1.453125 L 36.652344 15 L 0.363281 15 Z M 0.363281 1.453125 " clip-rule="nonzero"/></clipPath><clipPath id="76378349a6"><path d="M 0.363281 14 L 36.652344 14 L 36.652344 27.582031 L 0.363281 27.582031 Z M 0.363281 14 " clip-rule="nonzero"/></clipPath></defs><g clip-path="url(#73b9e600dd)"><path fill="#f3f2f0" d="M 18.507812 14.515625 L 0.371094 27.582031 L 0.371094 1.453125 Z M 18.507812 14.515625 " fill-opacity="1" fill-rule="nonzero"/></g><g clip-path="url(#437e39ded1)"><path fill="#233b8e" d="M 0.371094 1.453125 L 18.507812 14.515625 L 36.644531 14.515625 L 36.644531 1.453125 L 0.371094 1.453125 " fill-opacity="1" fill-rule="nonzero"/></g><g clip-path="url(#76378349a6)"><path fill="#da1c4b" d="M 0.371094 27.582031 L 18.507812 14.515625 L 36.644531 14.515625 L 36.644531 27.582031 L 0.371094 27.582031 " fill-opacity="1" fill-rule="nonzero"/></g><path fill="#f9bb4b" d="M 7.875 12.925781 L 6.625 12.925781 L 6.625 10.160156 L 7.875 10.160156 L 7.875 12.925781 " fill-opacity="1" fill-rule="nonzero"/><path fill="#f9bb4b" d="M 5.316406 13.472656 L 3.679688 11.84375 L 4.566406 10.964844 L 6.378906 12.769531 L 5.316406 13.472656 " fill-opacity="1" fill-rule="nonzero"/><path fill="#f9bb4b" d="M 7.875 18.871094 L 6.625 18.871094 L 6.625 16.300781 L 7.875 16.300781 L 7.875 18.871094 " fill-opacity="1" fill-rule="nonzero"/><path fill="#f9bb4b" d="M 4.566406 18.066406 L 3.679688 17.1875 L 5.242188 15.632812 L 6.335938 16.300781 L 4.566406 18.066406 " fill-opacity="1" fill-rule="nonzero"/><path fill="#f9bb4b" d="M 5.941406 15.136719 L 2.871094 15.136719 L 2.871094 13.894531 L 5.941406 13.894531 L 5.941406 15.136719 " fill-opacity="1" fill-rule="nonzero"/><path fill="#f9bb4b" d="M 9.027344 13.625 L 8.355469 12.539062 L 9.933594 10.964844 L 10.820312 11.84375 L 9.027344 13.625 " fill-opacity="1" fill-rule="nonzero"/><path fill="#f9bb4b" d="M 9.933594 18.066406 L 8.164062 16.300781 L 8.683594 15.136719 L 10.820312 17.1875 L 9.933594 18.066406 " fill-opacity="1" fill-rule="nonzero"/><path fill="#f9bb4b" d="M 11.628906 15.136719 L 8.683594 15.136719 L 8.683594 13.894531 L 11.628906 13.894531 L 11.628906 15.136719 " fill-opacity="1" fill-rule="nonzero"/><path fill="#f9bb4b" d="M 15.378906 15.136719 L 14.128906 15.136719 L 14.128906 13.894531 L 15.378906 13.894531 L 15.378906 15.136719 " fill-opacity="1" fill-rule="nonzero"/><path fill="#f9bb4b" d="M 3.496094 6.429688 L 2.246094 6.429688 L 2.246094 5.183594 L 3.496094 5.183594 L 3.496094 6.429688 " fill-opacity="1" fill-rule="nonzero"/><path fill="#f9bb4b" d="M 3.496094 23.847656 L 2.246094 23.847656 L 2.246094 22.605469 L 3.496094 22.605469 L 3.496094 23.847656 " fill-opacity="1" fill-rule="nonzero"/><path fill="#fcf05a" d="M 9.75 14.515625 C 9.75 15.890625 8.632812 17.003906 7.25 17.003906 C 5.867188 17.003906 4.75 15.890625 4.75 14.515625 C 4.75 13.140625 5.867188 12.027344 7.25 12.027344 C 8.632812 12.027344 9.75 13.140625 9.75 14.515625 " fill-opacity="1" fill-rule="nonzero"/></svg>