<svg xmlns="http://www.w3.org/2000/svg" xmlns:xlink="http://www.w3.org/1999/xlink" width="50" zoomAndPan="magnify" viewBox="0 0 37.5 30.000001" height="40" preserveAspectRatio="xMidYMid meet" version="1.0"><defs><clipPath id="1372408090"><path d="M 0.363281 9 L 36.652344 9 L 36.652344 20 L 0.363281 20 Z M 0.363281 9 " clip-rule="nonzero"/></clipPath><clipPath id="8900cc754d"><path d="M 0.363281 0 L 36.652344 0 L 36.652344 10 L 0.363281 10 Z M 0.363281 0 " clip-rule="nonzero"/></clipPath><clipPath id="ba7259e926"><path d="M 0.363281 19 L 36.652344 19 L 36.652344 29.03125 L 0.363281 29.03125 Z M 0.363281 19 " clip-rule="nonzero"/></clipPath></defs><g clip-path="url(#1372408090)"><path fill="#f3f2f0" d="M 38.355469 19.355469 L -1.546875 19.355469 L -1.546875 9.675781 L 38.355469 9.675781 L 38.355469 19.355469 " fill-opacity="1" fill-rule="nonzero"/></g><g clip-path="url(#8900cc754d)"><path fill="#da1c4b" d="M 38.355469 9.675781 L -1.546875 9.675781 L -1.546875 0 L 38.355469 0 L 38.355469 9.675781 " fill-opacity="1" fill-rule="nonzero"/></g><g clip-path="url(#ba7259e926)"><path fill="#233b8e" d="M 38.355469 29.03125 L -1.546875 29.03125 L -1.546875 19.355469 L 38.355469 19.355469 L 38.355469 29.03125 " fill-opacity="1" fill-rule="nonzero"/></g></svg>