<svg xmlns="http://www.w3.org/2000/svg" xmlns:xlink="http://www.w3.org/1999/xlink" width="50" zoomAndPan="magnify" viewBox="0 0 37.5 30.000001" height="40" preserveAspectRatio="xMidYMid meet" version="1.0"><defs><clipPath id="ed29c0d905"><path d="M 0.363281 1.371094 L 36.652344 1.371094 L 36.652344 27.5 L 0.363281 27.5 Z M 0.363281 1.371094 " clip-rule="nonzero"/></clipPath></defs><g clip-path="url(#ed29c0d905)"><path fill="#cc0518" d="M -2.738281 1.371094 L 40.066406 1.371094 L 40.066406 27.5 L -2.738281 27.5 Z M -2.738281 1.371094 " fill-opacity="1" fill-rule="nonzero"/></g><path fill="#ffffff" d="M 6.375 14.433594 C 6.375 10.722656 9.355469 7.714844 13.035156 7.714844 C 14.480469 7.714844 15.8125 8.179688 16.910156 8.96875 C 15.417969 7.289062 13.253906 6.234375 10.851562 6.234375 C 6.367188 6.234375 2.722656 9.902344 2.722656 14.433594 C 2.722656 18.96875 6.359375 22.636719 10.851562 22.636719 C 13.261719 22.636719 15.417969 21.582031 16.910156 19.902344 C 15.8125 20.691406 14.480469 21.15625 13.035156 21.15625 C 9.355469 21.15625 6.375 18.148438 6.375 14.433594 Z M 6.375 14.433594 " fill-opacity="1" fill-rule="nonzero"/><path fill="#ffffff" d="M 19.109375 10.058594 L 20.914062 11.832031 L 23.417969 11.371094 L 22.269531 13.621094 L 23.488281 15.828125 L 20.964844 15.4375 L 19.214844 17.273438 L 18.808594 14.78125 L 16.503906 13.699219 L 18.773438 12.558594 Z M 19.109375 10.058594 " fill-opacity="1" fill-rule="nonzero"/></svg>