<svg xmlns="http://www.w3.org/2000/svg" xmlns:xlink="http://www.w3.org/1999/xlink" width="50" zoomAndPan="magnify" viewBox="0 0 37.5 30.000001" height="40" preserveAspectRatio="xMidYMid meet" version="1.0"><defs><clipPath id="226771a12e"><path d="M 0.363281 10 L 36.652344 10 L 36.652344 19 L 0.363281 19 Z M 0.363281 10 " clip-rule="nonzero"/></clipPath><clipPath id="cc0c2da2e0"><path d="M 0.363281 1.382812 L 36.652344 1.382812 L 36.652344 11 L 0.363281 11 Z M 0.363281 1.382812 " clip-rule="nonzero"/></clipPath><clipPath id="7da28b2d97"><path d="M 0.363281 18 L 36.652344 18 L 36.652344 27.511719 L 0.363281 27.511719 Z M 0.363281 18 " clip-rule="nonzero"/></clipPath></defs><g clip-path="url(#226771a12e)"><path fill="#f3f2f0" d="M 36.644531 18.804688 L 0.371094 18.804688 L 0.371094 10.09375 L 36.644531 10.09375 L 36.644531 18.804688 " fill-opacity="1" fill-rule="nonzero"/></g><g clip-path="url(#cc0c2da2e0)"><path fill="#da1c4b" d="M 36.644531 10.09375 L 0.371094 10.09375 L 0.371094 1.382812 L 36.644531 1.382812 L 36.644531 10.09375 " fill-opacity="1" fill-rule="nonzero"/></g><g clip-path="url(#7da28b2d97)"><path fill="#233b8e" d="M 36.644531 27.511719 L 0.371094 27.511719 L 0.371094 18.804688 L 36.644531 18.804688 L 36.644531 27.511719 " fill-opacity="1" fill-rule="nonzero"/></g></svg>