<svg xmlns="http://www.w3.org/2000/svg" xmlns:xlink="http://www.w3.org/1999/xlink" width="50" zoomAndPan="magnify" viewBox="0 0 37.5 30.000001" height="40" preserveAspectRatio="xMidYMid meet" version="1.0"><defs><clipPath id="331f6dd0d8"><path d="M 0.363281 1.519531 L 36.652344 1.519531 L 36.652344 27.648438 L 0.363281 27.648438 Z M 0.363281 1.519531 " clip-rule="nonzero"/></clipPath></defs><g clip-path="url(#331f6dd0d8)"><path fill="#003399" d="M -0.992188 1.523438 L 38.199219 1.523438 L 38.199219 27.648438 L -0.992188 27.648438 Z M -0.992188 1.523438 " fill-opacity="1" fill-rule="nonzero"/></g><path fill="#ffcc00" d="M 18.605469 4.433594 L 18.945312 5.480469 L 20.042969 5.480469 L 19.152344 6.128906 L 19.496094 7.175781 L 18.605469 6.527344 L 17.714844 7.175781 L 18.054688 6.128906 L 17.164062 5.480469 L 18.261719 5.480469 L 18.605469 4.433594 " fill-opacity="1" fill-rule="nonzero"/><path fill="#ffcc00" d="M 23.019531 5.332031 L 23.359375 6.378906 L 24.460938 6.378906 L 23.570312 7.027344 L 23.910156 8.074219 L 23.019531 7.425781 L 22.128906 8.074219 L 22.46875 7.027344 L 21.578125 6.378906 L 22.679688 6.378906 L 23.019531 5.332031 " fill-opacity="1" fill-rule="nonzero"/><path fill="#ffcc00" d="M 14.246094 5.890625 L 14.585938 6.9375 L 15.6875 6.9375 L 14.796875 7.582031 L 15.136719 8.632812 L 14.246094 7.984375 L 13.355469 8.632812 L 13.695312 7.582031 L 12.804688 6.9375 L 13.90625 6.9375 L 14.246094 5.890625 " fill-opacity="1" fill-rule="nonzero"/><path fill="#ffcc00" d="M 11.28125 8.851562 L 11.625 9.902344 L 12.722656 9.902344 L 11.832031 10.546875 L 12.171875 11.597656 L 11.28125 10.949219 L 10.394531 11.597656 L 10.734375 10.546875 L 9.84375 9.902344 L 10.941406 9.902344 L 11.28125 8.851562 " fill-opacity="1" fill-rule="nonzero"/><path fill="#ffcc00" d="M 11.28125 17.574219 L 11.625 18.625 L 12.722656 18.625 L 11.832031 19.269531 L 12.171875 20.316406 L 11.28125 19.671875 L 10.394531 20.316406 L 10.734375 19.269531 L 9.84375 18.625 L 10.941406 18.625 L 11.28125 17.574219 " fill-opacity="1" fill-rule="nonzero"/><path fill="#ffcc00" d="M 9.828125 13.214844 L 10.167969 14.261719 L 11.269531 14.261719 L 10.378906 14.910156 L 10.71875 15.957031 L 9.828125 15.308594 L 8.9375 15.957031 L 9.277344 14.910156 L 8.390625 14.261719 L 9.488281 14.261719 L 9.828125 13.214844 " fill-opacity="1" fill-rule="nonzero"/><path fill="#ffcc00" d="M 27.378906 13.214844 L 27.71875 14.261719 L 28.820312 14.261719 L 27.929688 14.910156 L 28.269531 15.957031 L 27.378906 15.308594 L 26.488281 15.957031 L 26.828125 14.910156 L 25.9375 14.261719 L 27.039062 14.261719 L 27.378906 13.214844 " fill-opacity="1" fill-rule="nonzero"/><path fill="#ffcc00" d="M 26.480469 8.796875 L 26.820312 9.84375 L 27.921875 9.84375 L 27.03125 10.488281 L 27.371094 11.539062 L 26.480469 10.890625 L 25.589844 11.539062 L 25.929688 10.488281 L 25.039062 9.84375 L 26.140625 9.84375 L 26.480469 8.796875 " fill-opacity="1" fill-rule="nonzero"/><path fill="#ffcc00" d="M 18.605469 21.996094 L 18.945312 23.042969 L 20.042969 23.042969 L 19.152344 23.691406 L 19.496094 24.738281 L 18.605469 24.089844 L 17.714844 24.738281 L 18.054688 23.691406 L 17.164062 23.042969 L 18.261719 23.042969 L 18.605469 21.996094 " fill-opacity="1" fill-rule="nonzero"/><path fill="#ffcc00" d="M 26.480469 17.632812 L 26.820312 18.683594 L 27.921875 18.683594 L 27.03125 19.328125 L 27.371094 20.375 L 26.480469 19.730469 L 25.589844 20.375 L 25.929688 19.328125 L 25.039062 18.683594 L 26.140625 18.683594 L 26.480469 17.632812 " fill-opacity="1" fill-rule="nonzero"/><path fill="#ffcc00" d="M 23.019531 21.097656 L 23.359375 22.144531 L 24.460938 22.144531 L 23.570312 22.792969 L 23.910156 23.839844 L 23.019531 23.191406 L 22.128906 23.839844 L 22.46875 22.792969 L 21.578125 22.144531 L 22.679688 22.144531 L 23.019531 21.097656 " fill-opacity="1" fill-rule="nonzero"/><path fill="#ffcc00" d="M 14.246094 20.539062 L 14.585938 21.585938 L 15.6875 21.585938 L 14.796875 22.234375 L 15.136719 23.28125 L 14.246094 22.636719 L 13.355469 23.28125 L 13.695312 22.234375 L 12.804688 21.585938 L 13.90625 21.585938 L 14.246094 20.539062 " fill-opacity="1" fill-rule="nonzero"/></svg>