<svg xmlns="http://www.w3.org/2000/svg" xmlns:xlink="http://www.w3.org/1999/xlink" width="50" zoomAndPan="magnify" viewBox="0 0 37.5 30.000001" height="40" preserveAspectRatio="xMidYMid meet" version="1.0"><defs><clipPath id="917849e96a"><path d="M 0.363281 1.523438 L 36.652344 1.523438 L 36.652344 27.652344 L 0.363281 27.652344 Z M 0.363281 1.523438 " clip-rule="nonzero"/></clipPath></defs><g clip-path="url(#917849e96a)"><path fill="#27934b" d="M 39.761719 27.644531 L -2.980469 27.644531 L -2.980469 1.519531 L 39.761719 1.519531 L 39.761719 27.644531 " fill-opacity="1" fill-rule="nonzero"/></g><path fill="#fddd10" d="M 18.390625 3.8125 L 1.449219 14.582031 L 18.390625 25.347656 L 35.328125 14.582031 L 18.390625 3.8125 " fill-opacity="1" fill-rule="nonzero"/><path fill="#21428b" d="M 25.925781 14.582031 C 25.925781 18.789062 22.550781 22.199219 18.390625 22.199219 C 14.226562 22.199219 10.851562 18.789062 10.851562 14.582031 C 10.851562 10.375 14.226562 6.964844 18.390625 6.964844 C 22.550781 6.964844 25.925781 10.375 25.925781 14.582031 " fill-opacity="1" fill-rule="nonzero"/><path fill="#ffffff" d="M 20.867188 12.21875 L 20.582031 12.042969 L 20.277344 12.183594 L 20.351562 11.855469 L 20.125 11.605469 L 20.460938 11.574219 L 20.625 11.28125 L 20.753906 11.59375 L 21.082031 11.660156 L 20.832031 11.882812 L 20.867188 12.21875 " fill-opacity="1" fill-rule="nonzero"/><path fill="#ffffff" d="M 18.832031 18.65625 L 18.546875 18.484375 L 18.242188 18.625 L 18.316406 18.292969 L 18.089844 18.042969 L 18.421875 18.015625 L 18.589844 17.722656 L 18.71875 18.03125 L 19.046875 18.101562 L 18.792969 18.320312 L 18.832031 18.65625 " fill-opacity="1" fill-rule="nonzero"/><path fill="#ffffff" d="M 19.375 17.03125 L 19.164062 16.902344 L 18.9375 17.007812 L 18.996094 16.765625 L 18.828125 16.582031 L 19.074219 16.558594 L 19.195312 16.34375 L 19.292969 16.570312 L 19.535156 16.621094 L 19.347656 16.785156 L 19.375 17.03125 " fill-opacity="1" fill-rule="nonzero"/><path fill="#ffffff" d="M 22.429688 20.28125 L 22.214844 20.152344 L 21.992188 20.253906 L 22.046875 20.011719 L 21.882812 19.828125 L 22.125 19.808594 L 22.246094 19.589844 L 22.34375 19.820312 L 22.585938 19.871094 L 22.398438 20.03125 L 22.429688 20.28125 " fill-opacity="1" fill-rule="nonzero"/><path fill="#ffffff" d="M 18.585938 16.078125 L 18.375 15.949219 L 18.152344 16.050781 L 18.207031 15.808594 L 18.039062 15.625 L 18.285156 15.605469 L 18.40625 15.386719 L 18.503906 15.617188 L 18.746094 15.667969 L 18.558594 15.828125 L 18.585938 16.078125 " fill-opacity="1" fill-rule="nonzero"/><path fill="#ffffff" d="M 17.273438 16.785156 L 17.105469 16.679688 L 16.921875 16.761719 L 16.96875 16.566406 L 16.835938 16.417969 L 17.03125 16.402344 L 17.128906 16.226562 L 17.207031 16.414062 L 17.402344 16.453125 L 17.253906 16.585938 L 17.273438 16.785156 " fill-opacity="1" fill-rule="nonzero"/><path fill="#ffffff" d="M 18.195312 17.4375 L 18.027344 17.332031 L 17.847656 17.414062 L 17.890625 17.21875 L 17.757812 17.070312 L 17.953125 17.054688 L 18.050781 16.878906 L 18.128906 17.066406 L 18.324219 17.105469 L 18.175781 17.234375 L 18.195312 17.4375 " fill-opacity="1" fill-rule="nonzero"/><path fill="#ffffff" d="M 24.789062 17.535156 L 24.617188 17.429688 L 24.4375 17.515625 L 24.484375 17.320312 L 24.347656 17.171875 L 24.546875 17.152344 L 24.644531 16.980469 L 24.722656 17.164062 L 24.917969 17.203125 L 24.765625 17.335938 L 24.789062 17.535156 " fill-opacity="1" fill-rule="nonzero"/><path fill="#ffffff" d="M 24.121094 18.40625 L 23.953125 18.304688 L 23.769531 18.386719 L 23.816406 18.191406 L 23.679688 18.042969 L 23.878906 18.023438 L 23.976562 17.851562 L 24.054688 18.035156 L 24.25 18.074219 L 24.097656 18.207031 L 24.121094 18.40625 " fill-opacity="1" fill-rule="nonzero"/><path fill="#ffffff" d="M 23.835938 19.152344 L 23.667969 19.050781 L 23.488281 19.132812 L 23.53125 18.9375 L 23.398438 18.789062 L 23.59375 18.769531 L 23.691406 18.597656 L 23.769531 18.78125 L 23.964844 18.820312 L 23.816406 18.953125 L 23.835938 19.152344 " fill-opacity="1" fill-rule="nonzero"/><path fill="#ffffff" d="M 23.089844 19.296875 L 22.898438 19.238281 L 22.746094 19.363281 L 22.742188 19.164062 L 22.574219 19.050781 L 22.761719 18.988281 L 22.816406 18.792969 L 22.933594 18.953125 L 23.132812 18.945312 L 23.019531 19.109375 L 23.089844 19.296875 " fill-opacity="1" fill-rule="nonzero"/><path fill="#ffffff" d="M 22.175781 19.066406 L 22.007812 18.964844 L 21.824219 19.046875 L 21.871094 18.851562 L 21.734375 18.703125 L 21.933594 18.683594 L 22.03125 18.511719 L 22.109375 18.695312 L 22.304688 18.734375 L 22.152344 18.867188 L 22.175781 19.066406 " fill-opacity="1" fill-rule="nonzero"/><path fill="#ffffff" d="M 22.039062 20.980469 L 21.867188 20.878906 L 21.6875 20.960938 L 21.730469 20.765625 L 21.597656 20.617188 L 21.796875 20.601562 L 21.894531 20.425781 L 21.96875 20.609375 L 22.164062 20.652344 L 22.015625 20.78125 L 22.039062 20.980469 " fill-opacity="1" fill-rule="nonzero"/><path fill="#ffffff" d="M 21.238281 19.066406 L 21.070312 18.964844 L 20.886719 19.046875 L 20.933594 18.851562 L 20.796875 18.703125 L 20.996094 18.683594 L 21.09375 18.511719 L 21.171875 18.695312 L 21.367188 18.734375 L 21.214844 18.867188 L 21.238281 19.066406 " fill-opacity="1" fill-rule="nonzero"/><path fill="#ffffff" d="M 20.042969 19.066406 L 19.871094 18.964844 L 19.691406 19.046875 L 19.734375 18.851562 L 19.601562 18.703125 L 19.800781 18.683594 L 19.898438 18.511719 L 19.972656 18.695312 L 20.167969 18.734375 L 20.019531 18.867188 L 20.042969 19.066406 " fill-opacity="1" fill-rule="nonzero"/><path fill="#ffffff" d="M 18.394531 21.15625 L 18.257812 21.070312 L 18.109375 21.136719 L 18.144531 20.980469 L 18.039062 20.859375 L 18.199219 20.847656 L 18.277344 20.703125 L 18.339844 20.855469 L 18.496094 20.886719 L 18.375 20.992188 L 18.394531 21.15625 " fill-opacity="1" fill-rule="nonzero"/><path fill="#ffffff" d="M 20.613281 14.671875 L 20.472656 14.589844 L 20.328125 14.65625 L 20.363281 14.496094 L 20.253906 14.378906 L 20.414062 14.363281 L 20.496094 14.222656 L 20.558594 14.371094 L 20.714844 14.402344 L 20.59375 14.511719 L 20.613281 14.671875 " fill-opacity="1" fill-rule="nonzero"/><path fill="#ffffff" d="M 20.683594 20.644531 L 20.46875 20.511719 L 20.238281 20.617188 L 20.292969 20.371094 L 20.121094 20.179688 L 20.375 20.15625 L 20.5 19.9375 L 20.597656 20.171875 L 20.847656 20.222656 L 20.65625 20.390625 L 20.683594 20.644531 " fill-opacity="1" fill-rule="nonzero"/><path fill="#ffffff" d="M 13.734375 16.117188 L 13.5625 16.015625 L 13.382812 16.097656 L 13.425781 15.902344 L 13.292969 15.753906 L 13.492188 15.738281 L 13.589844 15.5625 L 13.667969 15.746094 L 13.859375 15.789062 L 13.710938 15.917969 L 13.734375 16.117188 " fill-opacity="1" fill-rule="nonzero"/><path fill="#ffffff" d="M 14.082031 18.46875 L 13.914062 18.363281 L 13.734375 18.445312 L 13.777344 18.25 L 13.644531 18.105469 L 13.839844 18.085938 L 13.941406 17.910156 L 14.015625 18.097656 L 14.210938 18.136719 L 14.0625 18.269531 L 14.082031 18.46875 " fill-opacity="1" fill-rule="nonzero"/><path fill="#ffffff" d="M 15.359375 15.203125 L 15.152344 15.078125 L 14.933594 15.179688 L 14.988281 14.941406 L 14.824219 14.757812 L 15.066406 14.738281 L 15.183594 14.527344 L 15.277344 14.75 L 15.515625 14.800781 L 15.332031 14.960938 L 15.359375 15.203125 " fill-opacity="1" fill-rule="nonzero"/><path fill="#ffffff" d="M 12.378906 17.761719 L 12.179688 17.640625 L 11.96875 17.738281 L 12.019531 17.507812 L 11.863281 17.335938 L 12.09375 17.316406 L 12.210938 17.109375 L 12.300781 17.328125 L 12.527344 17.375 L 12.351562 17.527344 L 12.378906 17.761719 " fill-opacity="1" fill-rule="nonzero"/><path fill="#ffffff" d="M 14.769531 17.652344 L 14.523438 17.507812 L 14.265625 17.625 L 14.332031 17.34375 L 14.140625 17.132812 L 14.421875 17.109375 L 14.5625 16.859375 L 14.671875 17.125 L 14.949219 17.179688 L 14.734375 17.367188 L 14.769531 17.652344 " fill-opacity="1" fill-rule="nonzero"/><path fill="#ffffff" d="M 15.8125 19.261719 L 15.523438 19.085938 L 15.21875 19.226562 L 15.296875 18.898438 L 15.070312 18.648438 L 15.402344 18.617188 L 15.566406 18.324219 L 15.699219 18.636719 L 16.027344 18.703125 L 15.773438 18.925781 L 15.8125 19.261719 " fill-opacity="1" fill-rule="nonzero"/><path fill="#ffffff" d="M 12.9375 16.972656 L 12.652344 16.800781 L 12.347656 16.941406 L 12.421875 16.609375 L 12.195312 16.359375 L 12.527344 16.332031 L 12.695312 16.039062 L 12.824219 16.347656 L 13.152344 16.414062 L 12.898438 16.636719 L 12.9375 16.972656 " fill-opacity="1" fill-rule="nonzero"/><path fill="#ffffff" d="M 12.589844 14.246094 L 12.300781 14.070312 L 11.996094 14.210938 L 12.074219 13.878906 L 11.847656 13.632812 L 12.179688 13.601562 L 12.34375 13.308594 L 12.476562 13.621094 L 12.804688 13.6875 L 12.550781 13.90625 L 12.589844 14.246094 " fill-opacity="1" fill-rule="nonzero"/><path fill="#ffffff" d="M 23.59375 17.5 L 23.308594 17.328125 L 23.003906 17.464844 L 23.078125 17.136719 L 22.855469 16.886719 L 23.1875 16.859375 L 23.351562 16.5625 L 23.484375 16.875 L 23.808594 16.941406 L 23.558594 17.164062 L 23.59375 17.5 " fill-opacity="1" fill-rule="nonzero"/><path fill="#ffffff" d="M 11.050781 12.832031 C 11.050781 12.832031 14.210938 12.097656 18.265625 13.09375 C 22.214844 14.058594 25.515625 17.058594 25.546875 16.980469 C 25.734375 16.507812 25.851562 15.644531 25.851562 15.644531 C 25.851562 15.644531 22.574219 12.6875 18.746094 11.75 C 14.824219 10.789062 11.652344 11.386719 11.558594 11.386719 C 11.214844 11.949219 11.050781 12.832031 11.050781 12.832031 " fill-opacity="1" fill-rule="nonzero"/></svg>