<svg xmlns="http://www.w3.org/2000/svg" xmlns:xlink="http://www.w3.org/1999/xlink" width="50" zoomAndPan="magnify" viewBox="0 0 37.5 30.000001" height="40" preserveAspectRatio="xMidYMid meet" version="1.0"><defs><clipPath id="f61df09c27"><path d="M 0.363281 0 L 36.652344 0 L 36.652344 10 L 0.363281 10 Z M 0.363281 0 " clip-rule="nonzero"/></clipPath><clipPath id="d8ffcc37fb"><path d="M 0.363281 9 L 36.652344 9 L 36.652344 20 L 0.363281 20 Z M 0.363281 9 " clip-rule="nonzero"/></clipPath><clipPath id="07e4ba9534"><path d="M 0.363281 19 L 36.652344 19 L 36.652344 29.03125 L 0.363281 29.03125 Z M 0.363281 19 " clip-rule="nonzero"/></clipPath></defs><g clip-path="url(#f61df09c27)"><path fill="#f2f2f2" d="M 39.074219 9.675781 L -2.296875 9.675781 L -2.296875 0 L 39.074219 0 L 39.074219 9.675781 " fill-opacity="1" fill-rule="nonzero"/></g><g clip-path="url(#d8ffcc37fb)"><path fill="#21418e" d="M 39.074219 19.355469 L -2.296875 19.355469 L -2.296875 9.675781 L 39.074219 9.675781 L 39.074219 19.355469 " fill-opacity="1" fill-rule="nonzero"/></g><g clip-path="url(#07e4ba9534)"><path fill="#e40001" d="M 39.074219 29.03125 L -2.296875 29.03125 L -2.296875 19.355469 L 39.074219 19.355469 L 39.074219 29.03125 " fill-opacity="1" fill-rule="nonzero"/></g></svg>