<svg xmlns="http://www.w3.org/2000/svg" xmlns:xlink="http://www.w3.org/1999/xlink" width="50" zoomAndPan="magnify" viewBox="0 0 37.5 30.000001" height="40" preserveAspectRatio="xMidYMid meet" version="1.0"><defs><clipPath id="bef721e677"><path d="M 0.363281 1.351562 L 36.652344 1.351562 L 36.652344 27.480469 L 0.363281 27.480469 Z M 0.363281 1.351562 " clip-rule="nonzero"/></clipPath><clipPath id="b57abe2d20"><path d="M 0.363281 19 L 36.652344 19 L 36.652344 27.480469 L 0.363281 27.480469 Z M 0.363281 19 " clip-rule="nonzero"/></clipPath><clipPath id="694c8f6f84"><path d="M 0.363281 1.351562 L 36.652344 1.351562 L 36.652344 11 L 0.363281 11 Z M 0.363281 1.351562 " clip-rule="nonzero"/></clipPath><clipPath id="5aa0c1cdd8"><path d="M 0.363281 1.351562 L 36.652344 1.351562 L 36.652344 27.480469 L 0.363281 27.480469 Z M 0.363281 1.351562 " clip-rule="nonzero"/></clipPath></defs><g clip-path="url(#bef721e677)"><path fill="#ffffff" d="M -0.328125 27.464844 L -0.328125 1.355469 L 37.273438 1.355469 L 37.273438 27.464844 L -0.328125 27.464844 " fill-opacity="1" fill-rule="nonzero"/><path stroke-linecap="butt" transform="matrix(0.018714, 0, 0, -0.0186104, -0.561673, 27.685699)" fill="none" stroke-linejoin="miter" d="M 12.479846 11.867303 L 12.479846 1414.811015 L 2021.754452 1414.811015 L 2021.754452 11.867303 Z M 12.479846 11.867303 " stroke="#ffffff" stroke-width="0.508" stroke-opacity="1" stroke-miterlimit="4"/></g><g clip-path="url(#b57abe2d20)"><path fill="#198e4f" d="M -0.328125 27.464844 L -0.328125 19.0625 L 37.273438 19.0625 L 37.273438 27.464844 L -0.328125 27.464844 " fill-opacity="1" fill-rule="nonzero"/><path stroke-linecap="butt" transform="matrix(0.018714, 0, 0, -0.0186104, -0.561673, 27.685699)" fill="none" stroke-linejoin="miter" d="M 12.479846 11.867303 L 12.479846 463.353229 L 2021.754452 463.353229 L 2021.754452 11.867303 Z M 12.479846 11.867303 " stroke="#198e4f" stroke-width="0.508" stroke-opacity="1" stroke-miterlimit="4"/></g><g clip-path="url(#694c8f6f84)"><path fill="#f89c3d" d="M -0.328125 10.355469 L -0.328125 1.355469 L 37.273438 1.355469 L 37.273438 10.355469 L -0.328125 10.355469 " fill-opacity="1" fill-rule="nonzero"/><path stroke-linecap="butt" transform="matrix(0.018714, 0, 0, -0.0186104, -0.561673, 27.685699)" fill="none" stroke-linejoin="miter" d="M 12.479846 931.211028 L 12.479846 1414.811015 L 2021.754452 1414.811015 L 2021.754452 931.211028 Z M 12.479846 931.211028 " stroke="#f89c3d" stroke-width="0.508" stroke-opacity="1" stroke-miterlimit="4"/></g><g clip-path="url(#5aa0c1cdd8)"><path stroke-linecap="butt" transform="matrix(0.018714, 0, 0, -0.0186104, -0.561673, 27.685699)" fill="none" stroke-linejoin="miter" d="M 12.479846 11.867303 L 12.479846 1414.811015 L 2021.754452 1414.811015 L 2021.754452 11.867303 L 12.479846 11.867303 " stroke="#363639" stroke-width="0.508" stroke-opacity="1" stroke-miterlimit="4"/></g><path fill="#6e6c9b" d="M 21.125 14.625 L 21.117188 14.847656 L 21.0625 15.171875 L 20.984375 15.496094 L 20.871094 15.8125 L 20.726562 16.117188 L 20.539062 16.398438 L 20.324219 16.660156 L 20.082031 16.894531 L 19.8125 17.105469 L 19.535156 17.28125 L 19.226562 17.417969 L 18.910156 17.535156 L 18.585938 17.605469 L 18.242188 17.640625 L 17.90625 17.652344 L 17.570312 17.605469 L 17.242188 17.535156 L 16.925781 17.433594 L 16.621094 17.28125 L 16.328125 17.105469 L 16.066406 16.894531 L 15.820312 16.660156 L 15.613281 16.40625 L 15.429688 16.117188 L 15.273438 15.828125 L 15.152344 15.511719 L 15.074219 15.1875 L 15.039062 14.847656 L 15.023438 14.507812 L 15.0625 14.167969 L 15.128906 13.84375 L 15.238281 13.535156 L 15.367188 13.21875 L 15.542969 12.933594 L 15.753906 12.671875 L 15.976562 12.425781 L 16.234375 12.207031 L 16.511719 12.015625 L 16.820312 11.867188 L 17.132812 11.738281 L 17.464844 11.652344 L 17.792969 11.597656 L 18.128906 11.589844 L 18.464844 11.621094 L 18.796875 11.679688 L 19.121094 11.773438 L 19.425781 11.914062 L 19.71875 12.074219 L 20.003906 12.269531 L 20.246094 12.492188 L 20.472656 12.75 L 20.671875 13.027344 L 20.816406 13.320312 L 20.949219 13.636719 L 21.039062 13.949219 L 21.101562 14.285156 L 21.125 14.625 L 21.601562 14.625 L 21.59375 14.269531 L 21.53125 13.898438 L 21.441406 13.554688 L 21.316406 13.21875 L 21.148438 12.894531 L 20.960938 12.585938 L 20.726562 12.296875 L 20.480469 12.039062 L 20.203125 11.808594 L 19.894531 11.605469 L 19.578125 11.433594 L 19.242188 11.296875 L 18.890625 11.203125 L 18.523438 11.132812 L 18.160156 11.109375 L 17.800781 11.109375 L 17.4375 11.15625 L 17.089844 11.238281 L 16.746094 11.367188 L 16.421875 11.519531 L 16.105469 11.707031 L 15.8125 11.914062 L 15.542969 12.15625 L 15.308594 12.4375 L 15.097656 12.726562 L 14.90625 13.039062 L 14.769531 13.367188 L 14.652344 13.71875 L 14.582031 14.066406 L 14.546875 14.429688 L 14.539062 14.792969 L 14.582031 15.148438 L 14.652344 15.511719 L 14.761719 15.851562 L 14.90625 16.183594 L 15.082031 16.5 L 15.296875 16.792969 L 15.53125 17.070312 L 15.796875 17.316406 L 16.089844 17.535156 L 16.398438 17.726562 L 16.734375 17.871094 L 17.078125 17.992188 L 17.425781 18.082031 L 17.792969 18.128906 L 18.15625 18.144531 L 18.511719 18.105469 L 18.875 18.050781 L 19.214844 17.945312 L 19.558594 17.8125 L 19.878906 17.640625 L 20.1875 17.441406 L 20.472656 17.210938 L 20.714844 16.953125 L 20.949219 16.675781 L 21.148438 16.375 L 21.316406 16.042969 L 21.441406 15.707031 L 21.53125 15.359375 L 21.59375 14.996094 L 21.601562 14.636719 L 21.601562 14.625 L 21.125 14.625 " fill-opacity="1" fill-rule="nonzero"/><path stroke-linecap="butt" transform="matrix(0.018714, 0, 0, -0.0186104, -0.561673, 27.685699)" fill="none" stroke-linejoin="miter" d="M 1158.847614 701.794889 L 1158.430146 689.830826 L 1155.507868 672.409473 L 1151.333186 654.988119 L 1145.279897 637.986557 L 1137.556734 621.614682 L 1127.537497 606.502183 L 1116.05712 592.439162 L 1103.115605 579.845413 L 1088.712951 568.511038 L 1073.892829 559.065726 L 1057.402833 551.719372 L 1040.49537 545.422497 L 1023.170438 541.644372 L 1004.801836 539.75531 L 986.850702 539.125622 L 968.899568 541.644372 L 951.365902 545.422497 L 934.458439 550.879789 L 918.177178 559.065726 L 902.522119 568.511038 L 888.536933 579.845413 L 875.386684 592.439162 L 864.323776 606.082391 L 854.513272 621.614682 L 846.163907 637.146974 L 839.69315 654.148536 L 835.518467 671.569889 L 833.63986 689.830826 L 832.804924 708.091763 L 834.892265 726.3527 L 838.440745 743.774054 L 844.2853 760.355825 L 851.173526 777.357387 L 860.566561 792.679782 L 871.838204 806.742802 L 883.736048 819.96624 L 897.5125 831.720406 L 912.332622 842.005301 L 928.822618 849.981343 L 945.521347 856.907905 L 963.263747 861.525613 L 980.797413 864.464155 L 998.748547 864.883947 L 1016.699681 863.20478 L 1034.442081 860.056343 L 1051.767012 855.018843 L 1068.048273 847.462593 L 1083.703332 838.856864 L 1098.940923 828.362073 L 1111.882438 816.39801 L 1123.989017 802.544886 L 1134.634457 787.642282 L 1142.357619 771.900095 L 1149.454579 754.898533 L 1154.255464 738.106867 L 1157.595209 720.055826 L 1158.847614 701.794889 L 1184.313176 701.794889 L 1183.895708 720.895409 L 1180.555962 740.835513 L 1175.755078 759.306345 L 1169.075586 777.357387 L 1160.100019 794.77874 L 1150.080781 811.360511 L 1137.556734 826.892802 L 1124.406485 840.745926 L 1109.586363 853.12978 L 1093.096367 864.044363 L 1076.188904 873.27978 L 1058.23777 880.626134 L 1039.451699 885.663634 L 1019.830692 889.441758 L 1000.41842 890.701133 L 981.214881 890.701133 L 961.802608 888.182383 L 943.225272 883.774571 L 924.856669 876.848009 L 907.531738 868.662072 L 890.624274 858.587072 L 874.969216 847.462593 L 860.566561 834.449052 L 848.042514 819.336552 L 836.770872 803.804261 L 826.5429 787.012595 L 819.237206 769.381345 L 812.975183 750.490721 L 809.217969 731.809992 L 807.339362 712.28968 L 806.921893 692.769368 L 809.217969 673.668848 L 812.975183 654.148536 L 818.819738 635.887599 L 826.5429 618.046453 L 835.935936 601.044891 L 847.416312 585.302704 L 859.940359 570.400101 L 874.134279 557.176663 L 889.789338 545.422497 L 906.279333 535.137602 L 924.230467 527.371456 L 942.599069 520.864685 L 961.176406 516.037081 L 980.797413 513.518331 L 1000.209685 512.678748 L 1019.20449 514.777706 L 1038.616763 517.716248 L 1056.776631 523.383435 L 1075.145233 530.519893 L 1092.261431 539.75531 L 1108.751426 550.459997 L 1123.989017 562.843851 L 1136.930532 576.696975 L 1149.454579 591.599579 L 1160.100019 607.761558 L 1169.075586 625.602703 L 1175.755078 643.653744 L 1180.555962 662.334473 L 1183.895708 681.854785 L 1184.313176 701.165201 L 1184.313176 701.794889 Z M 1158.847614 701.794889 " stroke="#6e6c9b" stroke-width="0.508" stroke-opacity="1" stroke-miterlimit="4"/><path fill="#6e6c9b" d="M 18.140625 17.710938 L 18.082031 14.671875 L 17.488281 17.710938 L 17.378906 17.59375 L 18.082031 14.671875 L 16.664062 17.488281 L 16.503906 17.433594 L 18.082031 14.671875 L 16.066406 17.105469 L 15.953125 17.003906 L 18.082031 14.671875 L 15.460938 16.40625 L 15.296875 16.242188 L 18.082031 14.671875 L 14.921875 15.707031 L 14.96875 15.433594 L 18.082031 14.671875 L 14.921875 14.832031 L 14.859375 14.625 L 18.082031 14.671875 L 14.921875 14.078125 L 14.921875 13.867188 L 18.082031 14.671875 L 15.25 13.101562 L 15.414062 12.894531 L 18.082031 14.671875 L 15.789062 12.296875 L 15.90625 12.136719 L 18.082031 14.671875 L 16.503906 11.867188 L 16.726562 11.75 L 18.082031 14.671875 L 17.265625 11.421875 L 17.425781 11.375 L 18.082031 14.671875 L 17.980469 11.375 L 18.140625 11.421875 L 18.039062 14.671875 L 18.734375 11.542969 L 18.898438 11.589844 L 18.082031 14.671875 L 19.449219 11.75 L 19.613281 11.867188 L 18.082031 14.671875 L 20.210938 12.296875 L 20.433594 12.339844 L 18.082031 14.671875 L 20.871094 12.949219 L 20.925781 13.15625 L 18.082031 14.671875 L 21.195312 13.75 L 21.253906 13.914062 L 18.082031 14.671875 L 21.253906 14.570312 L 21.253906 14.730469 L 18.082031 14.671875 L 21.195312 15.382812 L 21.03125 15.542969 L 18.082031 14.671875 L 20.925781 16.136719 L 20.871094 16.351562 L 18.082031 14.671875 L 20.375 16.839844 L 20.210938 17.003906 L 18.082031 14.671875 L 19.613281 17.488281 L 19.390625 17.550781 L 18.082031 14.671875 L 18.40625 17.8125 L 18.140625 17.710938 " fill-opacity="1" fill-rule="nonzero"/><path stroke-linecap="butt" transform="matrix(0.018714, 0, 0, -0.0186104, -0.561673, 27.685699)" fill="none" stroke-linejoin="miter" d="M 999.374749 535.977185 L 996.243737 699.276139 L 964.516152 535.977185 L 958.671596 542.27406 L 996.243737 699.276139 L 920.473253 547.941247 L 911.915154 550.879789 L 996.243737 699.276139 L 888.536933 568.511038 L 882.483644 573.96833 L 996.243737 699.276139 L 856.183145 606.082391 L 847.416312 614.898016 L 996.243737 699.276139 L 827.377837 643.653744 L 829.882646 658.346452 L 996.243737 699.276139 L 827.377837 690.67041 L 824.038091 701.794889 L 996.243737 699.276139 L 827.377837 731.180304 L 827.377837 742.514679 L 996.243737 699.276139 L 844.911503 783.654261 L 853.678336 794.77874 L 996.243737 699.276139 L 873.716811 826.892802 L 879.978834 835.498531 L 996.243737 699.276139 L 911.915154 849.981343 L 923.812999 856.278218 L 996.243737 699.276139 L 952.618307 873.909467 L 961.176406 876.428217 L 996.243737 699.276139 L 990.81665 876.428217 L 999.374749 873.909467 L 993.947662 699.276139 L 1031.102335 867.402697 L 1039.869168 864.883947 L 996.243737 699.276139 L 1069.300678 856.278218 L 1078.067511 849.981343 L 996.243737 699.276139 L 1110.003831 826.892802 L 1121.901675 824.583948 L 996.243737 699.276139 L 1145.279897 791.840199 L 1148.202174 780.71572 L 996.243737 699.276139 L 1162.604828 748.811554 L 1165.73584 739.995929 L 996.243737 699.276139 L 1165.73584 704.73343 L 1165.73584 696.127701 L 996.243737 699.276139 L 1162.604828 661.075098 L 1153.837995 652.469369 L 996.243737 699.276139 L 1148.202174 620.565203 L 1145.279897 609.020933 L 996.243737 699.276139 L 1118.770664 582.783954 L 1110.003831 573.96833 L 996.243737 699.276139 L 1078.067511 547.941247 L 1066.169666 544.582914 L 996.243737 699.276139 L 1013.568669 530.519893 Z M 999.374749 535.977185 " stroke="#6e6c9b" stroke-width="0.508" stroke-opacity="1" stroke-miterlimit="4"/></svg>