<svg xmlns="http://www.w3.org/2000/svg" xmlns:xlink="http://www.w3.org/1999/xlink" width="50" zoomAndPan="magnify" viewBox="0 0 37.5 30.000001" height="40" preserveAspectRatio="xMidYMid meet" version="1.0"><defs><clipPath id="5edb1a6a4b"><path d="M 0.363281 18 L 36.652344 18 L 36.652344 27.582031 L 0.363281 27.582031 Z M 0.363281 18 " clip-rule="nonzero"/></clipPath><clipPath id="6e9725c620"><path d="M 0.363281 10 L 36.652344 10 L 36.652344 19 L 0.363281 19 Z M 0.363281 10 " clip-rule="nonzero"/></clipPath><clipPath id="31eac10a51"><path d="M 0.363281 1.453125 L 36.652344 1.453125 L 36.652344 11 L 0.363281 11 Z M 0.363281 1.453125 " clip-rule="nonzero"/></clipPath></defs><g clip-path="url(#5edb1a6a4b)"><path fill="#100f0d" d="M 38.207031 18.828125 L 38.207031 27.492188 L -0.988281 27.492188 L -0.988281 18.828125 L 38.207031 18.828125 " fill-opacity="1" fill-rule="nonzero"/></g><g clip-path="url(#6e9725c620)"><path fill="#ffffff" d="M 38.207031 10.164062 L 38.207031 18.828125 L -0.988281 18.828125 L -0.988281 10.164062 L 38.207031 10.164062 " fill-opacity="1" fill-rule="nonzero"/></g><g clip-path="url(#31eac10a51)"><path fill="#d01e27" d="M 38.207031 1.5 L 38.207031 10.164062 L -0.988281 10.164062 L -0.988281 1.5 L 38.207031 1.5 " fill-opacity="1" fill-rule="nonzero"/></g><path fill="#b9901c" d="M 19.140625 10.742188 C 19.058594 10.519531 18.847656 10.527344 18.742188 10.550781 C 18.636719 10.570312 18.648438 10.660156 18.578125 10.660156 C 18.527344 10.660156 18.503906 10.625 18.492188 10.601562 C 18.488281 10.589844 18.476562 10.585938 18.46875 10.585938 C 18.414062 10.589844 18.355469 10.542969 18.355469 10.542969 C 18.210938 10.453125 18.152344 10.375 18.007812 10.375 C 17.910156 10.375 17.871094 10.425781 17.855469 10.480469 C 17.847656 10.515625 17.886719 10.542969 17.914062 10.523438 C 17.929688 10.511719 17.941406 10.503906 17.953125 10.496094 C 17.984375 10.476562 18.027344 10.472656 18.0625 10.484375 C 18.335938 10.574219 18.457031 10.851562 18.457031 10.851562 C 18.339844 10.804688 18.273438 10.851562 18.234375 10.90625 C 18.164062 10.5625 17.917969 10.558594 17.820312 10.671875 C 17.820312 10.671875 17.679688 10.34375 18.050781 10.308594 C 18.050781 10.308594 18.246094 10.292969 18.332031 10.375 C 18.332031 10.375 18.308594 10.238281 18.582031 10.292969 C 18.832031 10.34375 19.082031 10.402344 19.140625 10.742188 " fill-opacity="1" fill-rule="nonzero"/><path fill="#b9901c" d="M 18.46875 10.554688 C 18.488281 10.554688 18.511719 10.570312 18.519531 10.589844 C 18.53125 10.617188 18.550781 10.628906 18.578125 10.628906 C 18.59375 10.628906 18.601562 10.621094 18.617188 10.597656 C 18.640625 10.570312 18.667969 10.535156 18.738281 10.523438 C 18.804688 10.507812 18.941406 10.492188 19.050781 10.570312 C 18.957031 10.410156 18.785156 10.363281 18.578125 10.320312 C 18.445312 10.292969 18.394531 10.316406 18.375 10.335938 C 18.359375 10.351562 18.359375 10.371094 18.359375 10.371094 L 18.371094 10.457031 L 18.308594 10.398438 C 18.246094 10.335938 18.105469 10.335938 18.054688 10.339844 C 18.042969 10.339844 18.03125 10.34375 18.019531 10.34375 C 18.128906 10.347656 18.195312 10.394531 18.273438 10.453125 C 18.304688 10.472656 18.332031 10.496094 18.371094 10.519531 C 18.386719 10.53125 18.433594 10.558594 18.46875 10.554688 Z M 17.964844 10.578125 C 17.984375 10.578125 18.007812 10.578125 18.023438 10.582031 C 18.085938 10.597656 18.195312 10.652344 18.25 10.84375 C 18.285156 10.816406 18.332031 10.796875 18.398438 10.804688 C 18.347656 10.722656 18.234375 10.574219 18.050781 10.511719 C 18.023438 10.503906 17.992188 10.507812 17.96875 10.523438 C 17.957031 10.527344 17.945312 10.535156 17.9375 10.542969 C 17.910156 10.5625 17.878906 10.5625 17.855469 10.546875 C 17.839844 10.535156 17.828125 10.523438 17.824219 10.503906 C 17.820312 10.546875 17.828125 10.589844 17.835938 10.617188 C 17.871094 10.589844 17.917969 10.578125 17.964844 10.578125 Z M 18.21875 10.980469 L 18.207031 10.910156 C 18.175781 10.761719 18.105469 10.664062 18.007812 10.640625 C 17.949219 10.625 17.882812 10.644531 17.84375 10.691406 L 17.8125 10.726562 L 17.792969 10.683594 C 17.789062 10.675781 17.726562 10.523438 17.796875 10.40625 C 17.839844 10.332031 17.925781 10.292969 18.046875 10.28125 C 18.054688 10.28125 18.207031 10.265625 18.308594 10.324219 C 18.316406 10.3125 18.324219 10.300781 18.332031 10.292969 C 18.378906 10.246094 18.464844 10.238281 18.589844 10.265625 C 18.820312 10.308594 19.105469 10.367188 19.171875 10.738281 L 19.113281 10.753906 C 19.039062 10.550781 18.851562 10.558594 18.746094 10.578125 C 18.703125 10.589844 18.6875 10.613281 18.667969 10.636719 C 18.648438 10.660156 18.625 10.6875 18.578125 10.6875 C 18.53125 10.6875 18.488281 10.660156 18.464844 10.613281 C 18.40625 10.617188 18.34375 10.574219 18.335938 10.570312 C 18.300781 10.546875 18.269531 10.523438 18.238281 10.5 C 18.160156 10.441406 18.105469 10.402344 18.007812 10.402344 C 17.941406 10.402344 17.902344 10.433594 17.886719 10.488281 C 17.882812 10.492188 17.886719 10.496094 17.886719 10.5 C 17.890625 10.5 17.894531 10.5 17.898438 10.496094 C 17.910156 10.488281 17.925781 10.480469 17.9375 10.472656 C 17.980469 10.445312 18.027344 10.441406 18.070312 10.457031 C 18.355469 10.550781 18.480469 10.824219 18.484375 10.839844 L 18.515625 10.902344 L 18.445312 10.878906 C 18.363281 10.847656 18.300781 10.859375 18.261719 10.921875 L 18.21875 10.980469 " fill-opacity="1" fill-rule="nonzero"/><path fill="#ffffff" d="M 18.605469 10.507812 C 18.605469 10.535156 18.582031 10.5625 18.550781 10.5625 C 18.523438 10.5625 18.5 10.535156 18.5 10.507812 C 18.5 10.480469 18.523438 10.457031 18.550781 10.457031 C 18.582031 10.457031 18.605469 10.480469 18.605469 10.507812 " fill-opacity="1" fill-rule="nonzero"/><path fill="#ffffff" d="M 21.757812 17.4375 C 21.757812 17.488281 21.695312 17.519531 21.65625 17.484375 L 18.609375 14.703125 L 15.5625 17.484375 C 15.523438 17.519531 15.460938 17.488281 15.464844 17.4375 L 15.695312 12.285156 C 15.714844 11.824219 16.050781 11.554688 16.621094 11.828125 C 17.332031 12.164062 17.953125 12.371094 18.609375 12.039062 C 19.269531 12.371094 19.886719 12.164062 20.597656 11.828125 C 21.167969 11.554688 21.503906 11.824219 21.523438 12.285156 L 21.757812 17.4375 " fill-opacity="1" fill-rule="nonzero"/><path fill="#b9901c" d="M 18.609375 14.671875 C 18.617188 14.671875 18.625 14.675781 18.628906 14.679688 L 21.675781 17.460938 C 21.691406 17.472656 21.703125 17.46875 21.710938 17.464844 C 21.714844 17.464844 21.726562 17.457031 21.726562 17.4375 L 21.492188 12.285156 C 21.484375 12.0625 21.398438 11.894531 21.257812 11.808594 C 21.09375 11.714844 20.871094 11.730469 20.609375 11.855469 C 19.980469 12.152344 19.308594 12.417969 18.609375 12.074219 C 17.910156 12.417969 17.238281 12.152344 16.609375 11.855469 C 16.347656 11.730469 16.121094 11.714844 15.960938 11.808594 C 15.820312 11.894531 15.734375 12.0625 15.726562 12.285156 L 15.492188 17.4375 C 15.492188 17.457031 15.503906 17.464844 15.507812 17.464844 C 15.511719 17.46875 15.527344 17.472656 15.542969 17.460938 L 18.589844 14.679688 C 18.59375 14.675781 18.601562 14.671875 18.609375 14.671875 Z M 21.699219 17.527344 C 21.675781 17.527344 21.65625 17.519531 21.636719 17.507812 L 18.609375 14.742188 L 15.582031 17.507812 C 15.554688 17.53125 15.515625 17.535156 15.484375 17.519531 C 15.449219 17.503906 15.429688 17.472656 15.433594 17.4375 L 15.664062 12.285156 C 15.675781 12.039062 15.769531 11.851562 15.929688 11.757812 C 16.054688 11.683594 16.277344 11.632812 16.636719 11.800781 C 17.410156 12.171875 17.980469 12.324219 18.59375 12.011719 C 18.605469 12.007812 18.613281 12.007812 18.625 12.011719 C 19.238281 12.324219 19.804688 12.171875 20.582031 11.800781 C 20.941406 11.628906 21.164062 11.683594 21.285156 11.757812 C 21.449219 11.851562 21.542969 12.039062 21.554688 12.285156 L 21.785156 17.4375 C 21.789062 17.472656 21.769531 17.503906 21.734375 17.519531 C 21.722656 17.527344 21.710938 17.527344 21.699219 17.527344 " fill-opacity="1" fill-rule="nonzero"/><path fill="#b9901c" d="M 16.894531 12.777344 L 16.75 16.285156 L 16.464844 16.546875 L 16.628906 12.59375 C 16.710938 12.65625 16.800781 12.714844 16.894531 12.777344 " fill-opacity="1" fill-rule="nonzero"/><path fill="#b9901c" d="M 16.492188 12.488281 L 16.316406 16.679688 L 15.960938 17.003906 L 16.160156 12.203125 C 16.234375 12.273438 16.347656 12.375 16.492188 12.488281 " fill-opacity="1" fill-rule="nonzero"/><path fill="#b9901c" d="M 17.316406 13 L 17.191406 16 L 16.890625 16.269531 L 16.742188 16.40625 L 16.457031 16.664062 L 16.3125 16.800781 L 15.953125 17.125 L 15.859375 17.210938 L 15.558594 17.488281 C 15.519531 17.523438 15.457031 17.492188 15.457031 17.441406 L 15.695312 12.285156 L 16.0625 12.105469 C 16.0625 12.105469 16.066406 12.109375 16.074219 12.117188 L 15.867188 17.09375 L 15.960938 17.003906 L 16.316406 16.679688 L 16.464844 16.546875 L 16.75 16.285156 L 16.894531 16.152344 L 17.03125 12.859375 C 17.125 12.910156 17.21875 12.957031 17.316406 13 " fill-opacity="1" fill-rule="nonzero"/><path fill="#b9901c" d="M 17.453125 13.054688 L 17.335938 15.863281 L 18.609375 14.703125 L 18.609375 12.960938 C 18.253906 13.214844 17.84375 13.191406 17.453125 13.054688 " fill-opacity="1" fill-rule="nonzero"/><path fill="#b9901c" d="M 20.324219 12.777344 L 20.46875 16.285156 L 20.753906 16.546875 L 20.589844 12.59375 C 20.507812 12.65625 20.417969 12.714844 20.324219 12.777344 " fill-opacity="1" fill-rule="nonzero"/><path fill="#b9901c" d="M 20.726562 12.488281 L 20.902344 16.679688 L 21.257812 17.003906 L 21.058594 12.203125 C 20.984375 12.273438 20.867188 12.375 20.726562 12.488281 " fill-opacity="1" fill-rule="nonzero"/><path fill="#b9901c" d="M 19.902344 13 L 20.027344 16 L 20.328125 16.269531 L 20.476562 16.40625 L 20.761719 16.664062 L 20.90625 16.800781 L 21.265625 17.125 L 21.359375 17.210938 L 21.660156 17.488281 C 21.699219 17.523438 21.761719 17.492188 21.761719 17.441406 L 21.523438 12.285156 L 21.15625 12.105469 C 21.15625 12.105469 21.152344 12.109375 21.144531 12.117188 L 21.351562 17.09375 L 21.257812 17.003906 L 20.902344 16.679688 L 20.753906 16.546875 L 20.46875 16.285156 L 20.324219 16.152344 L 20.1875 12.859375 C 20.09375 12.910156 20 12.957031 19.902344 13 " fill-opacity="1" fill-rule="nonzero"/><path fill="#b9901c" d="M 19.765625 13.054688 L 19.882812 15.863281 L 18.609375 14.703125 L 18.609375 12.960938 C 18.964844 13.214844 19.375 13.191406 19.765625 13.054688 " fill-opacity="1" fill-rule="nonzero"/><path fill="#b9901c" d="M 18.777344 17.199219 L 18.609375 17.402344 L 18.441406 17.199219 L 18.546875 15.425781 L 18.609375 15.414062 L 18.671875 15.425781 L 18.777344 17.199219 " fill-opacity="1" fill-rule="nonzero"/><path fill="#b9901c" d="M 18.464844 17.191406 L 18.609375 17.367188 L 18.753906 17.191406 L 18.652344 15.445312 L 18.609375 15.4375 L 18.566406 15.445312 Z M 18.609375 17.4375 L 18.417969 17.207031 L 18.523438 15.40625 L 18.609375 15.390625 L 18.695312 15.40625 L 18.800781 17.207031 L 18.609375 17.4375 " fill-opacity="1" fill-rule="nonzero"/><path fill="#b9901c" d="M 18.035156 17.085938 L 18.171875 17.3125 L 18.371094 17.132812 L 18.539062 15.367188 L 18.476562 15.34375 L 18.410156 15.347656 L 18.035156 17.085938 " fill-opacity="1" fill-rule="nonzero"/><path fill="#b9901c" d="M 18.0625 17.078125 L 18.175781 17.273438 L 18.347656 17.125 L 18.511719 15.382812 L 18.472656 15.367188 L 18.429688 15.371094 Z M 18.167969 17.347656 L 18.011719 17.085938 L 18.015625 17.078125 L 18.390625 15.324219 L 18.480469 15.320312 L 18.5625 15.351562 L 18.390625 17.144531 L 18.167969 17.347656 " fill-opacity="1" fill-rule="nonzero"/><path fill="#b9901c" d="M 19.183594 17.085938 L 19.046875 17.3125 L 18.847656 17.132812 L 18.679688 15.367188 L 18.742188 15.34375 L 18.808594 15.347656 L 19.183594 17.085938 " fill-opacity="1" fill-rule="nonzero"/><path fill="#b9901c" d="M 18.871094 17.125 L 19.042969 17.273438 L 19.15625 17.078125 L 18.789062 15.371094 L 18.746094 15.367188 L 18.707031 15.382812 Z M 19.050781 17.347656 L 18.828125 17.144531 L 18.65625 15.351562 L 18.738281 15.320312 L 18.828125 15.324219 L 19.207031 17.085938 L 19.050781 17.347656 " fill-opacity="1" fill-rule="nonzero"/><path fill="#ffffff" d="M 19.117188 12.28125 C 19.132812 12.324219 19.152344 12.363281 19.171875 12.394531 C 19.179688 12.40625 19.167969 12.421875 19.152344 12.421875 C 19.078125 12.402344 18.914062 12.355469 18.800781 12.25 C 18.792969 12.238281 18.777344 12.242188 18.773438 12.253906 C 18.738281 12.339844 18.652344 12.417969 18.621094 12.445312 C 18.613281 12.449219 18.605469 12.449219 18.597656 12.445312 C 18.566406 12.417969 18.480469 12.339844 18.445312 12.253906 C 18.441406 12.242188 18.425781 12.238281 18.417969 12.25 C 18.304688 12.355469 18.140625 12.402344 18.066406 12.421875 C 18.050781 12.421875 18.039062 12.40625 18.046875 12.394531 C 18.0625 12.363281 18.082031 12.332031 18.097656 12.292969 C 18.105469 12.277344 18.085938 12.261719 18.070312 12.269531 C 17.964844 12.324219 17.824219 12.355469 17.742188 12.371094 C 17.722656 12.375 17.714844 12.355469 17.726562 12.339844 C 17.851562 12.21875 18.210938 11.824219 18.25 11.222656 C 18.261719 11.097656 18.253906 10.996094 18.238281 10.914062 C 18.234375 10.910156 18.238281 10.902344 18.242188 10.898438 C 18.273438 10.855469 18.328125 10.816406 18.417969 10.835938 C 18.433594 10.839844 18.445312 10.824219 18.4375 10.8125 C 18.394531 10.730469 18.273438 10.554688 18.0625 10.484375 C 18.027344 10.472656 17.984375 10.476562 17.953125 10.496094 C 17.9375 10.507812 17.914062 10.523438 17.898438 10.535156 C 17.878906 10.554688 17.847656 10.539062 17.851562 10.511719 C 17.859375 10.449219 17.890625 10.375 18.007812 10.375 C 18.152344 10.375 18.210938 10.453125 18.355469 10.542969 C 18.355469 10.542969 18.414062 10.589844 18.46875 10.585938 C 18.476562 10.585938 18.488281 10.589844 18.492188 10.601562 C 18.503906 10.625 18.527344 10.660156 18.578125 10.660156 C 18.648438 10.660156 18.636719 10.570312 18.742188 10.550781 C 18.847656 10.527344 19.054688 10.519531 19.140625 10.742188 C 19.140625 10.742188 19.144531 10.742188 19.144531 10.746094 C 19.148438 10.78125 19.152344 10.816406 19.15625 10.859375 C 19.175781 11.285156 19.167969 12 19.460938 12.34375 C 19.472656 12.355469 19.460938 12.375 19.445312 12.375 C 19.375 12.359375 19.253906 12.328125 19.144531 12.261719 C 19.128906 12.25 19.109375 12.265625 19.117188 12.28125 " fill-opacity="1" fill-rule="nonzero"/><path fill="#b9901c" d="M 18.800781 12.265625 Z M 19.144531 12.273438 Z M 18.429688 12.214844 C 18.433594 12.214844 18.4375 12.214844 18.4375 12.214844 C 18.453125 12.21875 18.46875 12.230469 18.476562 12.242188 C 18.503906 12.316406 18.574219 12.382812 18.609375 12.414062 C 18.640625 12.386719 18.714844 12.316406 18.746094 12.242188 C 18.75 12.230469 18.765625 12.21875 18.777344 12.214844 C 18.792969 12.210938 18.8125 12.214844 18.824219 12.226562 C 18.917969 12.320312 19.054688 12.367188 19.132812 12.386719 C 19.117188 12.359375 19.105469 12.328125 19.089844 12.292969 C 19.082031 12.273438 19.085938 12.25 19.101562 12.238281 C 19.121094 12.226562 19.140625 12.222656 19.160156 12.234375 C 19.25 12.292969 19.351562 12.320312 19.417969 12.335938 C 19.167969 12.011719 19.148438 11.429688 19.132812 11 C 19.128906 10.949219 19.125 10.902344 19.125 10.859375 C 19.125 10.820312 19.121094 10.785156 19.113281 10.75 C 19.035156 10.550781 18.851562 10.558594 18.746094 10.578125 C 18.703125 10.589844 18.6875 10.613281 18.667969 10.636719 C 18.648438 10.660156 18.625 10.6875 18.578125 10.6875 C 18.53125 10.6875 18.488281 10.660156 18.464844 10.613281 C 18.40625 10.617188 18.34375 10.574219 18.335938 10.570312 C 18.300781 10.546875 18.269531 10.523438 18.238281 10.5 C 18.160156 10.441406 18.105469 10.402344 18.007812 10.402344 C 17.929688 10.402344 17.886719 10.441406 17.878906 10.515625 C 17.894531 10.5 17.914062 10.484375 17.9375 10.472656 C 17.980469 10.445312 18.027344 10.441406 18.070312 10.457031 C 18.292969 10.527344 18.421875 10.71875 18.464844 10.796875 C 18.472656 10.8125 18.472656 10.832031 18.460938 10.847656 C 18.449219 10.863281 18.429688 10.871094 18.410156 10.867188 C 18.347656 10.851562 18.300781 10.867188 18.269531 10.910156 C 18.285156 11 18.289062 11.105469 18.28125 11.226562 C 18.242188 11.792969 17.933594 12.175781 17.773438 12.335938 C 17.847656 12.320312 17.964844 12.289062 18.058594 12.242188 C 18.078125 12.234375 18.097656 12.238281 18.113281 12.25 C 18.128906 12.265625 18.132812 12.285156 18.125 12.304688 C 18.113281 12.332031 18.097656 12.363281 18.085938 12.386719 C 18.164062 12.367188 18.300781 12.320312 18.394531 12.226562 C 18.402344 12.21875 18.417969 12.214844 18.429688 12.214844 Z M 18.609375 12.480469 C 18.597656 12.480469 18.589844 12.472656 18.578125 12.464844 C 18.546875 12.4375 18.464844 12.367188 18.425781 12.28125 C 18.3125 12.386719 18.15625 12.429688 18.074219 12.449219 C 18.054688 12.453125 18.035156 12.445312 18.023438 12.429688 C 18.011719 12.417969 18.011719 12.394531 18.019531 12.378906 C 18.035156 12.359375 18.046875 12.335938 18.058594 12.3125 C 17.941406 12.363281 17.804688 12.390625 17.746094 12.402344 C 17.726562 12.40625 17.707031 12.394531 17.695312 12.375 C 17.6875 12.359375 17.691406 12.335938 17.707031 12.320312 C 17.816406 12.214844 18.179688 11.820312 18.222656 11.21875 C 18.230469 11.105469 18.226562 11.003906 18.207031 10.917969 C 18.207031 10.90625 18.207031 10.894531 18.214844 10.882812 C 18.246094 10.835938 18.304688 10.792969 18.398438 10.804688 C 18.347656 10.722656 18.234375 10.574219 18.050781 10.511719 C 18.023438 10.503906 17.992188 10.507812 17.96875 10.523438 C 17.949219 10.535156 17.933594 10.546875 17.917969 10.558594 C 17.902344 10.578125 17.875 10.578125 17.851562 10.570312 C 17.828125 10.558594 17.816406 10.535156 17.820312 10.507812 C 17.832031 10.402344 17.902344 10.34375 18.007812 10.34375 C 18.125 10.34375 18.191406 10.390625 18.273438 10.453125 C 18.304688 10.472656 18.332031 10.496094 18.371094 10.519531 C 18.386719 10.53125 18.433594 10.558594 18.46875 10.554688 C 18.488281 10.558594 18.511719 10.570312 18.519531 10.589844 C 18.53125 10.617188 18.550781 10.628906 18.578125 10.628906 C 18.59375 10.628906 18.601562 10.621094 18.617188 10.597656 C 18.640625 10.570312 18.667969 10.535156 18.738281 10.523438 C 18.835938 10.5 19.074219 10.480469 19.167969 10.730469 C 19.171875 10.730469 19.171875 10.738281 19.171875 10.738281 C 19.179688 10.777344 19.183594 10.816406 19.183594 10.855469 C 19.1875 10.902344 19.191406 10.949219 19.191406 11 C 19.207031 11.429688 19.226562 12.023438 19.484375 12.324219 C 19.5 12.339844 19.5 12.363281 19.488281 12.378906 C 19.480469 12.398438 19.460938 12.40625 19.4375 12.402344 C 19.378906 12.390625 19.265625 12.363281 19.160156 12.304688 C 19.171875 12.332031 19.183594 12.355469 19.195312 12.378906 C 19.207031 12.394531 19.207031 12.417969 19.195312 12.429688 C 19.183594 12.445312 19.164062 12.453125 19.144531 12.449219 C 19.0625 12.429688 18.90625 12.386719 18.792969 12.28125 C 18.753906 12.367188 18.671875 12.4375 18.640625 12.464844 C 18.628906 12.472656 18.621094 12.480469 18.609375 12.480469 " fill-opacity="1" fill-rule="nonzero"/><path fill="#b9901c" d="M 19.097656 12.257812 C 19.082031 12.257812 19.070312 12.25 19.066406 12.238281 C 18.941406 11.886719 18.894531 11.355469 18.890625 11.332031 C 18.890625 11.316406 18.902344 11.304688 18.917969 11.300781 C 18.9375 11.296875 18.949219 11.3125 18.953125 11.328125 C 18.953125 11.332031 19 11.875 19.125 12.21875 L 19.125 12.226562 C 19.125 12.242188 19.113281 12.257812 19.097656 12.257812 " fill-opacity="1" fill-rule="nonzero"/><path fill="#b9901c" d="M 18.78125 12.257812 C 18.777344 12.257812 18.777344 12.257812 18.773438 12.257812 C 18.757812 12.25 18.75 12.234375 18.753906 12.21875 C 18.757812 12.207031 18.757812 12.195312 18.757812 12.179688 C 18.757812 12.050781 18.703125 11.289062 18.703125 11.28125 C 18.703125 11.265625 18.714844 11.253906 18.730469 11.25 C 18.746094 11.25 18.761719 11.261719 18.761719 11.277344 C 18.765625 11.308594 18.820312 12.046875 18.820312 12.179688 C 18.820312 12.199219 18.816406 12.214844 18.8125 12.234375 C 18.808594 12.246094 18.796875 12.257812 18.78125 12.257812 " fill-opacity="1" fill-rule="nonzero"/><path fill="#b9901c" d="M 18.117188 12.277344 C 18.113281 12.277344 18.109375 12.273438 18.105469 12.273438 C 18.089844 12.269531 18.082031 12.25 18.089844 12.238281 C 18.214844 11.894531 18.265625 11.332031 18.269531 11.328125 C 18.269531 11.3125 18.285156 11.296875 18.300781 11.300781 C 18.316406 11.304688 18.328125 11.316406 18.328125 11.332031 C 18.324219 11.355469 18.277344 11.90625 18.144531 12.257812 C 18.140625 12.269531 18.128906 12.277344 18.117188 12.277344 " fill-opacity="1" fill-rule="nonzero"/><path fill="#b9901c" d="M 18.4375 12.257812 C 18.425781 12.257812 18.410156 12.246094 18.40625 12.234375 C 18.402344 12.214844 18.402344 12.199219 18.402344 12.179688 C 18.402344 12.046875 18.453125 11.308594 18.457031 11.277344 C 18.457031 11.261719 18.472656 11.25 18.488281 11.25 C 18.503906 11.253906 18.515625 11.265625 18.515625 11.28125 C 18.515625 11.289062 18.460938 12.050781 18.460938 12.179688 C 18.460938 12.195312 18.460938 12.207031 18.464844 12.21875 C 18.46875 12.234375 18.460938 12.25 18.445312 12.257812 C 18.441406 12.257812 18.4375 12.257812 18.4375 12.257812 " fill-opacity="1" fill-rule="nonzero"/><path fill="#ffffff" d="M 16.742188 17.453125 L 17.6875 14.164062 L 18.609375 14.496094 L 17.90625 17.847656 L 16.742188 17.453125 " fill-opacity="1" fill-rule="nonzero"/><path fill="#b9901c" d="M 16.777344 17.433594 L 17.882812 17.808594 L 18.574219 14.515625 L 17.707031 14.203125 Z M 17.90625 17.875 C 17.902344 17.875 17.898438 17.875 17.894531 17.875 L 16.730469 17.484375 C 16.71875 17.476562 16.710938 17.460938 16.710938 17.445312 L 17.660156 14.15625 C 17.660156 14.144531 17.667969 14.140625 17.675781 14.136719 C 17.679688 14.132812 17.691406 14.132812 17.699219 14.136719 L 18.621094 14.46875 C 18.632812 14.472656 18.640625 14.488281 18.636719 14.503906 L 17.933594 17.851562 C 17.933594 17.859375 17.925781 17.867188 17.917969 17.871094 C 17.914062 17.875 17.910156 17.875 17.90625 17.875 " fill-opacity="1" fill-rule="nonzero"/><path fill="#b9901c" d="M 17.847656 15.839844 C 17.84375 15.839844 17.84375 15.839844 17.839844 15.839844 C 17.828125 15.832031 17.820312 15.824219 17.816406 15.8125 L 17.660156 14.167969 L 17.71875 14.160156 L 17.871094 15.734375 L 18.480469 14.988281 L 18.523438 15.023438 L 17.871094 15.828125 C 17.867188 15.835938 17.859375 15.839844 17.847656 15.839844 " fill-opacity="1" fill-rule="nonzero"/><path fill="#b9901c" d="M 17.449219 15.613281 C 17.445312 15.613281 17.441406 15.613281 17.441406 15.613281 C 17.429688 15.609375 17.421875 15.605469 17.417969 15.59375 L 17.324219 15.34375 L 17.378906 15.324219 L 17.460938 15.53125 L 18.589844 14.472656 L 18.628906 14.519531 L 17.46875 15.605469 C 17.460938 15.609375 17.453125 15.613281 17.449219 15.613281 " fill-opacity="1" fill-rule="nonzero"/><path fill="#b9901c" d="M 16.890625 17.515625 L 16.84375 17.480469 L 17.257812 16.925781 L 17.492188 16.523438 C 17.496094 16.515625 17.507812 16.507812 17.519531 16.507812 C 17.53125 16.511719 17.542969 16.515625 17.546875 16.527344 L 17.695312 16.882812 L 18.234375 16.117188 L 18.050781 15.535156 L 18.105469 15.515625 L 18.296875 16.113281 C 18.296875 16.121094 18.296875 16.128906 18.292969 16.136719 L 17.710938 16.960938 C 17.707031 16.972656 17.695312 16.976562 17.683594 16.972656 C 17.675781 16.972656 17.664062 16.96875 17.660156 16.957031 L 17.515625 16.605469 L 17.308594 16.960938 L 16.890625 17.515625 " fill-opacity="1" fill-rule="nonzero"/><path fill="#b9901c" d="M 17.484375 17.671875 L 17.855469 17.796875 L 17.640625 17.167969 L 17.425781 17.464844 Z M 17.90625 17.875 C 17.902344 17.875 17.898438 17.875 17.894531 17.875 L 17.449219 17.722656 C 17.441406 17.722656 17.433594 17.714844 17.429688 17.703125 L 17.046875 16.300781 L 17.105469 16.285156 L 17.40625 17.390625 L 17.625 17.085938 C 17.628906 17.078125 17.640625 17.074219 17.652344 17.074219 C 17.664062 17.078125 17.671875 17.085938 17.675781 17.09375 L 17.933594 17.835938 C 17.9375 17.847656 17.933594 17.859375 17.925781 17.867188 C 17.921875 17.875 17.914062 17.875 17.90625 17.875 " fill-opacity="1" fill-rule="nonzero"/><path fill="#b9901c" d="M 18.027344 17.117188 L 17.824219 16.03125 L 17.589844 16.3125 C 17.582031 16.320312 17.574219 16.324219 17.5625 16.324219 C 17.550781 16.320312 17.542969 16.3125 17.539062 16.304688 L 17.433594 15.960938 L 17.105469 16.285156 L 17.0625 16.242188 L 17.425781 15.882812 C 17.433594 15.875 17.445312 15.871094 17.453125 15.875 C 17.464844 15.875 17.472656 15.882812 17.476562 15.894531 L 17.578125 16.230469 L 17.820312 15.945312 C 17.828125 15.933594 17.835938 15.929688 17.851562 15.933594 C 17.859375 15.9375 17.871094 15.945312 17.871094 15.957031 L 18.085938 17.105469 L 18.027344 17.117188 " fill-opacity="1" fill-rule="nonzero"/><path fill="#ffffff" d="M 20.476562 17.453125 L 19.53125 14.164062 L 18.609375 14.496094 L 19.316406 17.847656 L 20.476562 17.453125 " fill-opacity="1" fill-rule="nonzero"/><path fill="#b9901c" d="M 18.644531 14.515625 L 19.335938 17.808594 L 20.441406 17.433594 L 19.511719 14.203125 Z M 19.316406 17.875 C 19.308594 17.875 19.304688 17.875 19.300781 17.871094 C 19.292969 17.867188 19.289062 17.859375 19.285156 17.851562 L 18.582031 14.503906 C 18.578125 14.488281 18.585938 14.472656 18.597656 14.46875 L 19.519531 14.136719 C 19.527344 14.132812 19.539062 14.132812 19.542969 14.136719 C 19.550781 14.140625 19.558594 14.144531 19.558594 14.15625 L 20.507812 17.445312 C 20.507812 17.460938 20.5 17.476562 20.488281 17.484375 L 19.324219 17.875 C 19.320312 17.875 19.316406 17.875 19.316406 17.875 " fill-opacity="1" fill-rule="nonzero"/><path fill="#b9901c" d="M 19.371094 15.839844 C 19.363281 15.839844 19.351562 15.835938 19.347656 15.828125 L 18.695312 15.023438 L 18.738281 14.988281 L 19.347656 15.734375 L 19.5 14.160156 L 19.558594 14.167969 L 19.402344 15.8125 C 19.398438 15.824219 19.390625 15.832031 19.378906 15.839844 C 19.375 15.839844 19.375 15.839844 19.371094 15.839844 " fill-opacity="1" fill-rule="nonzero"/><path fill="#b9901c" d="M 19.769531 15.613281 C 19.765625 15.613281 19.757812 15.609375 19.75 15.605469 L 18.589844 14.519531 L 18.628906 14.472656 L 19.757812 15.53125 L 19.839844 15.324219 L 19.894531 15.34375 L 19.800781 15.59375 C 19.796875 15.605469 19.789062 15.609375 19.777344 15.613281 C 19.777344 15.613281 19.773438 15.613281 19.769531 15.613281 " fill-opacity="1" fill-rule="nonzero"/><path fill="#b9901c" d="M 20.328125 17.515625 L 19.914062 16.964844 L 19.703125 16.605469 L 19.558594 16.957031 C 19.554688 16.96875 19.542969 16.972656 19.535156 16.972656 C 19.523438 16.976562 19.511719 16.972656 19.507812 16.960938 L 18.925781 16.136719 C 18.921875 16.128906 18.921875 16.121094 18.921875 16.113281 L 19.113281 15.515625 L 19.167969 15.535156 L 18.984375 16.117188 L 19.523438 16.882812 L 19.671875 16.527344 C 19.675781 16.515625 19.6875 16.511719 19.699219 16.507812 C 19.710938 16.507812 19.722656 16.515625 19.726562 16.523438 L 19.960938 16.929688 L 20.375 17.480469 L 20.328125 17.515625 " fill-opacity="1" fill-rule="nonzero"/><path fill="#b9901c" d="M 19.578125 17.167969 L 19.363281 17.796875 L 19.734375 17.671875 L 19.792969 17.464844 Z M 19.316406 17.875 C 19.308594 17.875 19.300781 17.875 19.292969 17.867188 C 19.285156 17.859375 19.28125 17.847656 19.285156 17.835938 L 19.542969 17.09375 C 19.546875 17.085938 19.554688 17.078125 19.566406 17.074219 C 19.578125 17.074219 19.589844 17.078125 19.59375 17.085938 L 19.8125 17.390625 L 20.113281 16.285156 L 20.171875 16.300781 L 19.789062 17.703125 C 19.785156 17.714844 19.777344 17.722656 19.769531 17.722656 L 19.324219 17.875 C 19.320312 17.875 19.316406 17.875 19.316406 17.875 " fill-opacity="1" fill-rule="nonzero"/><path fill="#b9901c" d="M 19.191406 17.117188 L 19.132812 17.105469 L 19.347656 15.957031 C 19.351562 15.945312 19.359375 15.9375 19.371094 15.933594 C 19.382812 15.929688 19.394531 15.933594 19.402344 15.945312 L 19.640625 16.230469 L 19.742188 15.894531 C 19.746094 15.882812 19.753906 15.875 19.765625 15.875 C 19.773438 15.871094 19.785156 15.875 19.792969 15.882812 L 20.15625 16.242188 L 20.113281 16.285156 L 19.785156 15.960938 L 19.679688 16.304688 C 19.675781 16.3125 19.667969 16.320312 19.65625 16.324219 C 19.644531 16.324219 19.636719 16.320312 19.628906 16.3125 L 19.394531 16.03125 L 19.191406 17.117188 " fill-opacity="1" fill-rule="nonzero"/><path fill="#ffffff" d="M 18.609375 15.695312 C 17.199219 14.605469 17.25 12.933594 17.25 12.933594 C 17.25 12.933594 17.285156 12.972656 17.441406 12.972656 C 17.652344 12.976562 18.464844 12.789062 18.609375 12.582031 C 18.753906 12.789062 19.566406 12.976562 19.777344 12.972656 C 19.933594 12.972656 19.96875 12.933594 19.96875 12.933594 C 19.96875 12.933594 20.019531 14.605469 18.609375 15.695312 " fill-opacity="1" fill-rule="nonzero"/><path fill="#b9901c" d="M 17.269531 12.96875 C 17.273438 13.207031 17.34375 14.683594 18.609375 15.667969 C 19.875 14.683594 19.949219 13.207031 19.949219 12.96875 C 19.917969 12.980469 19.867188 12.992188 19.777344 12.996094 C 19.777344 12.996094 19.777344 12.996094 19.773438 12.996094 C 19.570312 12.996094 18.792969 12.820312 18.609375 12.613281 C 18.425781 12.820312 17.648438 12.996094 17.445312 12.996094 C 17.441406 12.996094 17.441406 12.996094 17.441406 12.996094 C 17.351562 12.992188 17.296875 12.980469 17.269531 12.96875 Z M 18.609375 15.71875 L 18.597656 15.707031 C 17.195312 14.628906 17.226562 12.953125 17.226562 12.933594 L 17.230469 12.890625 L 17.261719 12.921875 C 17.261719 12.921875 17.300781 12.953125 17.441406 12.953125 C 17.441406 12.953125 17.445312 12.953125 17.445312 12.953125 C 17.675781 12.953125 18.457031 12.761719 18.59375 12.570312 L 18.609375 12.546875 L 18.625 12.570312 C 18.761719 12.761719 19.542969 12.953125 19.773438 12.953125 C 19.777344 12.953125 19.777344 12.953125 19.777344 12.953125 C 19.917969 12.953125 19.957031 12.921875 19.957031 12.921875 L 19.988281 12.894531 L 19.992188 12.933594 C 19.992188 12.953125 20.023438 14.628906 18.621094 15.707031 L 18.609375 15.71875 " fill-opacity="1" fill-rule="nonzero"/><path fill="#b9901c" d="M 18.082031 12.949219 C 18.121094 12.941406 18.160156 12.929688 18.195312 12.914062 L 18.195312 15.167969 C 18.082031 15.039062 17.980469 14.898438 17.886719 14.753906 C 17.722656 14.488281 17.589844 14.195312 17.496094 13.886719 C 17.390625 13.53125 17.363281 13.230469 17.351562 13.070312 C 17.378906 13.070312 17.40625 13.074219 17.441406 13.074219 L 17.445312 13.074219 C 17.574219 13.074219 17.839844 13.023438 18.082031 12.949219 " fill-opacity="1" fill-rule="nonzero"/><path fill="#b9901c" d="M 17.375 13.089844 C 17.382812 13.246094 17.414062 13.539062 17.519531 13.878906 C 17.609375 14.191406 17.738281 14.480469 17.90625 14.746094 C 17.988281 14.875 18.078125 14.996094 18.175781 15.113281 L 18.175781 12.941406 C 18.148438 12.953125 18.117188 12.960938 18.089844 12.96875 C 17.84375 13.042969 17.574219 13.09375 17.445312 13.09375 C 17.417969 13.09375 17.394531 13.09375 17.375 13.089844 Z M 18.214844 15.21875 L 18.179688 15.179688 C 18.066406 15.050781 17.964844 14.914062 17.871094 14.765625 C 17.703125 14.5 17.574219 14.203125 17.480469 13.890625 C 17.371094 13.53125 17.339844 13.21875 17.332031 13.070312 L 17.332031 13.046875 L 17.355469 13.050781 C 17.382812 13.050781 17.410156 13.054688 17.441406 13.054688 C 17.570312 13.054688 17.835938 13.003906 18.078125 12.933594 C 18.117188 12.921875 18.152344 12.910156 18.1875 12.898438 L 18.214844 12.886719 L 18.214844 15.21875 " fill-opacity="1" fill-rule="nonzero"/><path fill="#b9901c" d="M 19.867188 13.070312 C 19.855469 13.230469 19.828125 13.53125 19.722656 13.886719 C 19.628906 14.195312 19.496094 14.488281 19.332031 14.753906 C 19.238281 14.898438 19.136719 15.039062 19.023438 15.167969 L 19.023438 12.914062 C 19.058594 12.929688 19.097656 12.941406 19.136719 12.949219 C 19.378906 13.023438 19.648438 13.074219 19.773438 13.074219 L 19.777344 13.074219 C 19.8125 13.074219 19.839844 13.070312 19.867188 13.070312 " fill-opacity="1" fill-rule="nonzero"/><path fill="#b9901c" d="M 19.042969 12.941406 L 19.042969 15.113281 C 19.140625 14.996094 19.234375 14.875 19.3125 14.746094 C 19.480469 14.480469 19.609375 14.191406 19.699219 13.878906 C 19.804688 13.539062 19.835938 13.246094 19.84375 13.089844 C 19.824219 13.09375 19.800781 13.09375 19.777344 13.09375 C 19.644531 13.09375 19.375 13.042969 19.128906 12.96875 C 19.101562 12.960938 19.070312 12.953125 19.042969 12.941406 Z M 19.003906 15.21875 L 19.003906 12.886719 L 19.03125 12.898438 C 19.066406 12.910156 19.101562 12.921875 19.140625 12.933594 C 19.382812 13.003906 19.648438 13.054688 19.773438 13.054688 C 19.808594 13.054688 19.835938 13.050781 19.863281 13.050781 L 19.886719 13.046875 L 19.886719 13.070312 C 19.878906 13.222656 19.847656 13.53125 19.738281 13.890625 C 19.648438 14.203125 19.515625 14.5 19.347656 14.765625 C 19.253906 14.914062 19.152344 15.050781 19.039062 15.179688 L 19.003906 15.21875 " fill-opacity="1" fill-rule="nonzero"/><path fill="#ffffff" d="M 19.023438 12.914062 L 19.023438 15.167969 C 18.898438 15.3125 18.757812 15.445312 18.609375 15.566406 C 18.460938 15.445312 18.320312 15.3125 18.195312 15.167969 L 18.195312 12.914062 C 18.382812 12.855469 18.519531 12.789062 18.609375 12.722656 C 18.699219 12.789062 18.835938 12.855469 19.023438 12.914062 " fill-opacity="1" fill-rule="nonzero"/><path fill="#b9901c" d="M 18.214844 15.160156 C 18.335938 15.296875 18.46875 15.425781 18.609375 15.542969 C 18.75 15.425781 18.886719 15.296875 19.003906 15.160156 L 19.003906 12.929688 C 18.828125 12.875 18.699219 12.8125 18.609375 12.746094 C 18.519531 12.8125 18.390625 12.875 18.214844 12.929688 Z M 18.609375 15.589844 L 18.597656 15.582031 C 18.445312 15.460938 18.304688 15.324219 18.179688 15.179688 L 18.175781 15.175781 L 18.175781 12.902344 L 18.1875 12.898438 C 18.375 12.835938 18.511719 12.773438 18.597656 12.707031 L 18.609375 12.695312 L 18.621094 12.707031 C 18.707031 12.773438 18.84375 12.835938 19.03125 12.898438 L 19.042969 12.902344 L 19.042969 15.175781 L 19.039062 15.179688 C 18.914062 15.324219 18.773438 15.460938 18.621094 15.582031 L 18.609375 15.589844 " fill-opacity="1" fill-rule="nonzero"/><path fill="#ffffff" d="M 18.386719 17.488281 C 18.386719 17.503906 18.265625 17.683594 18.265625 17.683594 C 17.972656 17.683594 17.710938 17.671875 17.484375 17.648438 C 17.515625 17.558594 17.464844 17.492188 17.425781 17.453125 C 17.425781 17.453125 17.421875 17.453125 17.421875 17.453125 C 17.417969 17.449219 17.417969 17.449219 17.417969 17.445312 C 17.414062 17.445312 17.414062 17.445312 17.410156 17.445312 C 17.410156 17.441406 17.410156 17.441406 17.410156 17.441406 C 17.390625 17.429688 17.382812 17.421875 17.382812 17.421875 C 17.382812 17.421875 17.277344 17.449219 17.25 17.535156 C 17.246094 17.542969 17.246094 17.550781 17.242188 17.558594 C 17.242188 17.570312 17.242188 17.578125 17.242188 17.585938 C 17.242188 17.589844 17.242188 17.59375 17.242188 17.597656 C 17.242188 17.597656 17.242188 17.601562 17.242188 17.601562 C 17.242188 17.605469 17.242188 17.605469 17.246094 17.609375 C 17.246094 17.609375 17.246094 17.609375 17.246094 17.613281 C 17.246094 17.617188 17.246094 17.617188 17.246094 17.621094 C 16.738281 17.554688 16.460938 17.457031 16.460938 17.457031 C 16.460938 17.445312 16.457031 17.433594 16.457031 17.421875 C 16.449219 17.378906 16.449219 17.335938 16.457031 17.296875 C 16.460938 17.292969 16.460938 17.292969 16.460938 17.292969 C 16.46875 17.257812 16.484375 17.230469 16.511719 17.203125 C 16.511719 17.203125 16.511719 17.203125 16.515625 17.203125 C 16.613281 17.121094 16.789062 17.296875 17.417969 17.359375 C 17.796875 17.398438 18.296875 17.390625 18.296875 17.390625 C 18.300781 17.394531 18.371094 17.414062 18.386719 17.484375 C 18.386719 17.488281 18.386719 17.488281 18.386719 17.488281 " fill-opacity="1" fill-rule="nonzero"/><path fill="#b9901c" d="M 17.519531 17.621094 C 17.757812 17.644531 18.003906 17.652344 18.25 17.652344 C 18.277344 17.613281 18.34375 17.511719 18.355469 17.484375 C 18.34375 17.445312 18.308594 17.429688 18.289062 17.421875 C 18.289062 17.421875 18.289062 17.417969 18.289062 17.417969 C 18.222656 17.421875 17.765625 17.425781 17.414062 17.390625 C 17.085938 17.355469 16.878906 17.292969 16.742188 17.25 C 16.617188 17.210938 16.566406 17.195312 16.535156 17.222656 C 16.511719 17.246094 16.496094 17.269531 16.488281 17.300781 C 16.480469 17.335938 16.480469 17.375 16.484375 17.417969 C 16.484375 17.421875 16.488281 17.429688 16.488281 17.433594 C 16.550781 17.453125 16.804688 17.527344 17.210938 17.585938 C 17.210938 17.574219 17.214844 17.5625 17.214844 17.554688 C 17.214844 17.546875 17.21875 17.535156 17.222656 17.523438 C 17.253906 17.425781 17.367188 17.394531 17.371094 17.390625 C 17.382812 17.390625 17.390625 17.390625 17.398438 17.394531 C 17.398438 17.394531 17.410156 17.402344 17.425781 17.417969 C 17.433594 17.421875 17.433594 17.425781 17.4375 17.425781 C 17.441406 17.429688 17.441406 17.429688 17.445312 17.433594 C 17.503906 17.488281 17.53125 17.554688 17.519531 17.621094 Z M 18.265625 17.714844 C 18 17.714844 17.734375 17.699219 17.480469 17.675781 C 17.472656 17.675781 17.460938 17.671875 17.457031 17.664062 C 17.453125 17.65625 17.453125 17.644531 17.453125 17.636719 C 17.480469 17.566406 17.441406 17.511719 17.40625 17.476562 C 17.40625 17.476562 17.40625 17.476562 17.402344 17.476562 L 17.417969 17.445312 L 17.398438 17.46875 L 17.410156 17.441406 L 17.390625 17.464844 C 17.382812 17.457031 17.378906 17.457031 17.375 17.453125 C 17.351562 17.464844 17.296875 17.492188 17.277344 17.542969 C 17.277344 17.550781 17.273438 17.554688 17.273438 17.5625 C 17.273438 17.570312 17.273438 17.578125 17.273438 17.585938 L 17.273438 17.59375 L 17.25 17.605469 L 17.261719 17.605469 L 17.269531 17.597656 C 17.269531 17.601562 17.269531 17.605469 17.273438 17.605469 C 17.273438 17.605469 17.277344 17.609375 17.277344 17.613281 C 17.277344 17.621094 17.277344 17.628906 17.273438 17.632812 C 17.269531 17.644531 17.257812 17.652344 17.242188 17.652344 C 16.738281 17.582031 16.464844 17.488281 16.453125 17.484375 C 16.441406 17.480469 16.433594 17.472656 16.433594 17.464844 C 16.429688 17.453125 16.425781 17.4375 16.425781 17.425781 C 16.417969 17.375 16.421875 17.328125 16.429688 17.289062 C 16.441406 17.242188 16.460938 17.207031 16.492188 17.183594 C 16.492188 17.183594 16.492188 17.183594 16.492188 17.179688 C 16.554688 17.128906 16.628906 17.152344 16.761719 17.191406 C 16.894531 17.234375 17.097656 17.296875 17.421875 17.332031 C 17.792969 17.367188 18.289062 17.359375 18.296875 17.359375 C 18.300781 17.359375 18.308594 17.363281 18.3125 17.363281 C 18.339844 17.378906 18.398438 17.40625 18.414062 17.480469 L 18.417969 17.488281 C 18.417969 17.519531 18.289062 17.699219 18.289062 17.703125 C 18.285156 17.710938 18.277344 17.714844 18.265625 17.714844 " fill-opacity="1" fill-rule="nonzero"/><path fill="#b9901c" d="M 18.316406 17.679688 C 18.382812 17.722656 18.4375 17.785156 18.472656 17.824219 C 18.503906 17.757812 18.519531 17.695312 18.519531 17.648438 C 18.515625 17.578125 18.484375 17.53125 18.417969 17.503906 C 18.414062 17.570312 18.359375 17.636719 18.316406 17.679688 Z M 18.476562 17.910156 C 18.46875 17.910156 18.457031 17.90625 18.453125 17.898438 C 18.449219 17.898438 18.359375 17.769531 18.253906 17.710938 C 18.246094 17.707031 18.238281 17.699219 18.238281 17.691406 C 18.234375 17.683594 18.234375 17.675781 18.242188 17.667969 C 18.242188 17.667969 18.246094 17.664062 18.246094 17.660156 C 18.300781 17.613281 18.363281 17.542969 18.355469 17.492188 C 18.355469 17.484375 18.355469 17.480469 18.351562 17.472656 C 18.347656 17.460938 18.347656 17.449219 18.355469 17.441406 C 18.359375 17.429688 18.375 17.429688 18.382812 17.429688 C 18.507812 17.460938 18.578125 17.535156 18.582031 17.644531 C 18.582031 17.714844 18.554688 17.800781 18.503906 17.894531 C 18.496094 17.90625 18.488281 17.910156 18.476562 17.910156 " fill-opacity="1" fill-rule="nonzero"/><path fill="#b9901c" d="M 16.421875 17.214844 C 16.390625 17.214844 16.355469 17.222656 16.328125 17.246094 C 16.273438 17.289062 16.25 17.386719 16.261719 17.527344 C 16.300781 17.476562 16.359375 17.445312 16.425781 17.429688 C 16.425781 17.429688 16.425781 17.425781 16.425781 17.425781 C 16.417969 17.375 16.421875 17.328125 16.429688 17.289062 C 16.4375 17.261719 16.445312 17.238281 16.460938 17.21875 C 16.449219 17.214844 16.4375 17.214844 16.421875 17.214844 Z M 16.242188 17.644531 C 16.242188 17.644531 16.238281 17.644531 16.238281 17.644531 C 16.222656 17.644531 16.214844 17.632812 16.210938 17.621094 C 16.179688 17.410156 16.207031 17.265625 16.292969 17.199219 C 16.386719 17.121094 16.519531 17.171875 16.527344 17.175781 C 16.535156 17.179688 16.542969 17.1875 16.542969 17.195312 C 16.546875 17.207031 16.542969 17.21875 16.535156 17.222656 C 16.511719 17.246094 16.496094 17.273438 16.488281 17.300781 C 16.480469 17.335938 16.480469 17.375 16.484375 17.417969 C 16.488281 17.429688 16.488281 17.4375 16.492188 17.449219 C 16.492188 17.457031 16.492188 17.46875 16.488281 17.472656 C 16.480469 17.480469 16.472656 17.488281 16.464844 17.488281 C 16.347656 17.496094 16.292969 17.570312 16.269531 17.625 C 16.265625 17.636719 16.253906 17.644531 16.242188 17.644531 " fill-opacity="1" fill-rule="nonzero"/><path fill="#b9901c" d="M 17.355469 17.929688 C 17.339844 17.929688 17.324219 17.917969 17.324219 17.902344 L 17.324219 17.804688 C 17.324219 17.785156 17.339844 17.773438 17.355469 17.773438 C 17.371094 17.773438 17.382812 17.785156 17.382812 17.804688 L 17.382812 17.902344 C 17.382812 17.917969 17.371094 17.929688 17.355469 17.929688 " fill-opacity="1" fill-rule="nonzero"/><path fill="#b9901c" d="M 19.851562 17.921875 C 19.835938 17.921875 19.820312 17.910156 19.820312 17.894531 L 19.820312 17.796875 C 19.820312 17.777344 19.835938 17.765625 19.851562 17.765625 C 19.867188 17.765625 19.882812 17.777344 19.882812 17.796875 L 19.882812 17.894531 C 19.882812 17.910156 19.867188 17.921875 19.851562 17.921875 " fill-opacity="1" fill-rule="nonzero"/><path fill="#b9901c" d="M 15.953125 17.9375 C 15.953125 17.9375 15.949219 17.9375 15.949219 17.9375 L 15.824219 17.914062 C 15.808594 17.910156 15.796875 17.894531 15.800781 17.878906 C 15.804688 17.863281 15.820312 17.851562 15.835938 17.855469 L 15.960938 17.878906 C 15.976562 17.878906 15.988281 17.898438 15.984375 17.914062 C 15.980469 17.929688 15.96875 17.9375 15.953125 17.9375 " fill-opacity="1" fill-rule="nonzero"/><path fill="#ffffff" d="M 17.484375 17.648438 C 17.46875 17.695312 17.429688 17.746094 17.355469 17.804688 C 17.289062 17.730469 17.257812 17.667969 17.246094 17.621094 C 17.246094 17.617188 17.246094 17.617188 17.246094 17.613281 C 17.246094 17.609375 17.246094 17.609375 17.246094 17.609375 C 17.242188 17.605469 17.242188 17.605469 17.242188 17.601562 C 17.242188 17.601562 17.242188 17.597656 17.242188 17.597656 C 17.242188 17.59375 17.242188 17.589844 17.242188 17.585938 C 17.242188 17.578125 17.242188 17.570312 17.242188 17.558594 C 17.246094 17.550781 17.246094 17.542969 17.25 17.535156 C 17.277344 17.449219 17.382812 17.421875 17.382812 17.421875 C 17.382812 17.421875 17.390625 17.429688 17.410156 17.441406 C 17.410156 17.441406 17.410156 17.441406 17.410156 17.445312 C 17.414062 17.445312 17.414062 17.445312 17.417969 17.445312 C 17.417969 17.449219 17.417969 17.449219 17.421875 17.453125 C 17.421875 17.453125 17.425781 17.453125 17.425781 17.453125 C 17.464844 17.492188 17.515625 17.558594 17.484375 17.648438 " fill-opacity="1" fill-rule="nonzero"/><path fill="#b9901c" d="M 17.277344 17.613281 C 17.285156 17.65625 17.3125 17.707031 17.359375 17.761719 C 17.40625 17.722656 17.4375 17.683594 17.453125 17.644531 C 17.453125 17.640625 17.453125 17.640625 17.453125 17.636719 C 17.480469 17.566406 17.441406 17.511719 17.40625 17.476562 C 17.40625 17.476562 17.40625 17.476562 17.402344 17.476562 L 17.417969 17.445312 L 17.398438 17.46875 L 17.410156 17.441406 L 17.390625 17.464844 C 17.382812 17.457031 17.378906 17.457031 17.375 17.453125 C 17.351562 17.464844 17.296875 17.492188 17.277344 17.542969 C 17.277344 17.550781 17.273438 17.554688 17.273438 17.5625 C 17.273438 17.570312 17.273438 17.578125 17.273438 17.585938 L 17.273438 17.59375 L 17.242188 17.605469 L 17.261719 17.605469 L 17.269531 17.597656 C 17.269531 17.601562 17.269531 17.605469 17.273438 17.605469 C 17.273438 17.605469 17.277344 17.609375 17.277344 17.613281 Z M 17.355469 17.832031 C 17.347656 17.832031 17.339844 17.828125 17.332031 17.824219 C 17.269531 17.753906 17.230469 17.6875 17.21875 17.628906 C 17.21875 17.625 17.214844 17.625 17.214844 17.621094 C 17.214844 17.617188 17.214844 17.613281 17.214844 17.609375 C 17.214844 17.609375 17.214844 17.605469 17.214844 17.605469 C 17.214844 17.597656 17.214844 17.589844 17.210938 17.585938 C 17.210938 17.578125 17.214844 17.5625 17.214844 17.554688 C 17.214844 17.546875 17.21875 17.535156 17.222656 17.523438 C 17.253906 17.425781 17.367188 17.394531 17.371094 17.390625 C 17.382812 17.390625 17.390625 17.390625 17.398438 17.394531 C 17.398438 17.394531 17.410156 17.402344 17.425781 17.417969 C 17.433594 17.421875 17.433594 17.425781 17.4375 17.425781 C 17.441406 17.429688 17.441406 17.429688 17.445312 17.433594 C 17.511719 17.496094 17.539062 17.570312 17.515625 17.648438 C 17.515625 17.652344 17.511719 17.652344 17.511719 17.65625 C 17.492188 17.714844 17.445312 17.769531 17.375 17.824219 C 17.367188 17.832031 17.363281 17.832031 17.355469 17.832031 " fill-opacity="1" fill-rule="nonzero"/><path fill="#ffffff" d="M 21.074219 18.234375 C 21.132812 18.3125 21.082031 18.414062 20.996094 18.46875 C 20.535156 18.757812 18.609375 18.710938 18.609375 18.710938 C 18.609375 18.710938 16.683594 18.757812 16.222656 18.46875 C 16.136719 18.414062 16.085938 18.3125 16.144531 18.234375 C 16.144531 18.234375 15.941406 18.128906 15.953125 17.910156 C 15.953125 17.910156 16.054688 17.707031 16.222656 17.695312 L 16.242188 17.617188 C 16.269531 17.550781 16.328125 17.464844 16.460938 17.457031 C 16.460938 17.457031 16.738281 17.554688 17.246094 17.621094 C 17.257812 17.667969 17.289062 17.730469 17.355469 17.804688 C 17.429688 17.746094 17.46875 17.695312 17.484375 17.648438 C 17.710938 17.671875 17.972656 17.683594 18.265625 17.683594 C 18.382812 17.746094 18.476562 17.878906 18.476562 17.878906 C 18.53125 17.78125 18.550781 17.703125 18.550781 17.644531 L 18.667969 17.644531 C 18.667969 17.703125 18.6875 17.78125 18.742188 17.878906 C 18.742188 17.878906 18.835938 17.746094 18.953125 17.683594 C 19.246094 17.683594 19.507812 17.671875 19.734375 17.648438 C 19.75 17.695312 19.792969 17.746094 19.863281 17.804688 C 19.929688 17.730469 19.960938 17.667969 19.972656 17.621094 C 20.480469 17.554688 20.753906 17.457031 20.753906 17.457031 C 20.890625 17.464844 20.949219 17.550781 20.976562 17.617188 C 20.976562 17.609375 20.980469 17.605469 20.980469 17.601562 C 20.988281 17.648438 21 17.695312 21 17.695312 C 21.164062 17.707031 21.265625 17.910156 21.265625 17.910156 C 21.277344 18.128906 21.074219 18.234375 21.074219 18.234375 " fill-opacity="1" fill-rule="nonzero"/><path fill="#b9901c" d="M 15.984375 17.914062 C 15.976562 18.109375 16.148438 18.203125 16.15625 18.207031 C 16.164062 18.210938 16.171875 18.214844 16.171875 18.226562 C 16.175781 18.234375 16.171875 18.242188 16.167969 18.25 C 16.152344 18.273438 16.144531 18.296875 16.152344 18.328125 C 16.160156 18.371094 16.191406 18.414062 16.238281 18.441406 C 16.6875 18.722656 18.589844 18.683594 18.609375 18.679688 C 18.628906 18.683594 20.535156 18.722656 20.980469 18.441406 C 21.027344 18.414062 21.058594 18.371094 21.066406 18.328125 C 21.074219 18.296875 21.066406 18.273438 21.050781 18.25 C 21.046875 18.242188 21.046875 18.234375 21.046875 18.226562 C 21.046875 18.214844 21.054688 18.210938 21.0625 18.207031 C 21.070312 18.203125 21.242188 18.109375 21.238281 17.914062 C 21.21875 17.886719 21.128906 17.734375 20.996094 17.722656 C 20.980469 17.722656 20.972656 17.714844 20.96875 17.699219 C 20.96875 17.699219 20.964844 17.671875 20.957031 17.636719 C 20.953125 17.632812 20.953125 17.632812 20.949219 17.625 C 20.925781 17.570312 20.875 17.5 20.761719 17.488281 C 20.714844 17.5 20.453125 17.585938 19.996094 17.648438 C 19.980469 17.699219 19.941406 17.761719 19.886719 17.824219 C 19.875 17.835938 19.855469 17.835938 19.847656 17.824219 C 19.785156 17.777344 19.738281 17.726562 19.714844 17.679688 C 19.472656 17.703125 19.21875 17.714844 18.960938 17.714844 C 18.855469 17.773438 18.769531 17.898438 18.765625 17.898438 C 18.761719 17.90625 18.753906 17.914062 18.742188 17.910156 C 18.730469 17.910156 18.722656 17.90625 18.714844 17.894531 C 18.671875 17.8125 18.644531 17.738281 18.640625 17.675781 L 18.578125 17.675781 C 18.574219 17.738281 18.546875 17.8125 18.503906 17.894531 C 18.496094 17.90625 18.488281 17.910156 18.476562 17.910156 C 18.46875 17.914062 18.457031 17.90625 18.453125 17.898438 C 18.449219 17.898438 18.363281 17.773438 18.257812 17.714844 C 18 17.714844 17.746094 17.703125 17.503906 17.679688 C 17.480469 17.726562 17.4375 17.777344 17.375 17.824219 C 17.363281 17.835938 17.34375 17.835938 17.332031 17.824219 C 17.277344 17.761719 17.242188 17.699219 17.222656 17.648438 C 16.765625 17.585938 16.503906 17.5 16.460938 17.488281 C 16.34375 17.5 16.292969 17.570312 16.269531 17.625 L 16.25 17.703125 C 16.246094 17.714844 16.234375 17.722656 16.222656 17.722656 C 16.089844 17.734375 16 17.886719 15.984375 17.914062 Z M 18.910156 18.746094 C 18.742188 18.746094 18.628906 18.742188 18.609375 18.742188 C 18.53125 18.742188 16.667969 18.78125 16.207031 18.492188 C 16.144531 18.453125 16.101562 18.398438 16.09375 18.335938 C 16.085938 18.304688 16.089844 18.273438 16.101562 18.242188 C 16.042969 18.203125 15.914062 18.09375 15.925781 17.90625 C 15.925781 17.902344 15.925781 17.898438 15.925781 17.894531 C 15.929688 17.886719 16.03125 17.695312 16.195312 17.667969 L 16.210938 17.609375 C 16.257812 17.5 16.34375 17.4375 16.460938 17.425781 C 16.464844 17.425781 16.46875 17.425781 16.472656 17.429688 C 16.476562 17.429688 16.753906 17.523438 17.25 17.589844 C 17.261719 17.59375 17.273438 17.601562 17.277344 17.613281 C 17.285156 17.65625 17.3125 17.707031 17.359375 17.761719 C 17.410156 17.71875 17.441406 17.675781 17.453125 17.636719 C 17.460938 17.625 17.472656 17.617188 17.488281 17.617188 C 17.738281 17.644531 18 17.652344 18.265625 17.652344 C 18.269531 17.652344 18.277344 17.65625 18.28125 17.660156 C 18.363281 17.699219 18.433594 17.777344 18.472656 17.824219 C 18.503906 17.757812 18.519531 17.695312 18.519531 17.648438 C 18.519531 17.636719 18.523438 17.632812 18.527344 17.625 C 18.535156 17.621094 18.542969 17.617188 18.550781 17.617188 L 18.667969 17.617188 C 18.675781 17.617188 18.6875 17.621094 18.691406 17.625 C 18.695312 17.632812 18.699219 17.636719 18.699219 17.648438 C 18.699219 17.695312 18.714844 17.757812 18.746094 17.824219 C 18.785156 17.777344 18.855469 17.699219 18.9375 17.660156 C 18.941406 17.65625 18.949219 17.652344 18.953125 17.652344 C 19.21875 17.652344 19.480469 17.644531 19.734375 17.617188 C 19.746094 17.617188 19.757812 17.625 19.765625 17.636719 C 19.777344 17.679688 19.8125 17.71875 19.859375 17.761719 C 19.90625 17.707031 19.933594 17.65625 19.941406 17.613281 C 19.945312 17.601562 19.957031 17.59375 19.96875 17.589844 C 20.46875 17.523438 20.742188 17.429688 20.746094 17.429688 C 20.75 17.425781 20.753906 17.425781 20.757812 17.425781 C 20.863281 17.433594 20.945312 17.488281 20.992188 17.574219 C 21 17.578125 21.007812 17.585938 21.007812 17.59375 C 21.015625 17.621094 21.019531 17.648438 21.023438 17.667969 C 21.191406 17.699219 21.289062 17.886719 21.292969 17.894531 C 21.292969 17.898438 21.292969 17.902344 21.292969 17.90625 C 21.304688 18.09375 21.171875 18.203125 21.117188 18.242188 C 21.128906 18.273438 21.132812 18.304688 21.125 18.335938 C 21.117188 18.398438 21.074219 18.453125 21.011719 18.492188 C 20.65625 18.71875 19.472656 18.746094 18.910156 18.746094 " fill-opacity="1" fill-rule="nonzero"/><path fill="#ffffff" d="M 19.972656 17.621094 C 19.960938 17.667969 19.929688 17.730469 19.863281 17.804688 C 19.792969 17.746094 19.75 17.695312 19.734375 17.648438 C 19.734375 17.644531 19.734375 17.640625 19.734375 17.636719 C 19.730469 17.636719 19.730469 17.632812 19.730469 17.632812 C 19.730469 17.628906 19.730469 17.625 19.726562 17.625 C 19.726562 17.617188 19.726562 17.609375 19.726562 17.605469 C 19.726562 17.597656 19.726562 17.59375 19.726562 17.589844 C 19.726562 17.589844 19.726562 17.585938 19.726562 17.582031 C 19.726562 17.578125 19.726562 17.578125 19.726562 17.578125 C 19.726562 17.574219 19.726562 17.570312 19.726562 17.566406 C 19.726562 17.5625 19.726562 17.5625 19.726562 17.5625 C 19.726562 17.5625 19.726562 17.5625 19.726562 17.558594 C 19.730469 17.554688 19.730469 17.550781 19.730469 17.546875 C 19.734375 17.539062 19.738281 17.527344 19.742188 17.519531 C 19.765625 17.484375 19.796875 17.453125 19.832031 17.425781 C 19.832031 17.425781 19.835938 17.425781 19.835938 17.425781 C 19.835938 17.425781 19.835938 17.421875 19.835938 17.421875 L 19.839844 17.421875 C 19.839844 17.421875 19.84375 17.421875 19.847656 17.425781 C 19.847656 17.425781 19.847656 17.425781 19.851562 17.425781 C 19.855469 17.425781 19.855469 17.429688 19.859375 17.429688 C 19.863281 17.429688 19.871094 17.433594 19.875 17.4375 C 19.878906 17.4375 19.878906 17.4375 19.878906 17.4375 C 19.898438 17.445312 19.917969 17.460938 19.9375 17.480469 C 19.9375 17.480469 19.9375 17.484375 19.941406 17.484375 C 19.941406 17.484375 19.941406 17.488281 19.945312 17.488281 C 19.945312 17.488281 19.945312 17.492188 19.945312 17.492188 L 19.949219 17.496094 C 19.96875 17.527344 19.984375 17.566406 19.972656 17.621094 " fill-opacity="1" fill-rule="nonzero"/><path fill="#b9901c" d="M 19.765625 17.644531 C 19.78125 17.679688 19.8125 17.722656 19.859375 17.761719 C 19.90625 17.707031 19.933594 17.660156 19.941406 17.613281 C 19.949219 17.574219 19.945312 17.542969 19.925781 17.515625 C 19.925781 17.511719 19.921875 17.511719 19.921875 17.511719 C 19.921875 17.507812 19.917969 17.507812 19.917969 17.507812 C 19.917969 17.507812 19.914062 17.5 19.914062 17.5 C 19.902344 17.488281 19.886719 17.472656 19.863281 17.464844 C 19.855469 17.460938 19.851562 17.457031 19.847656 17.457031 L 19.84375 17.453125 C 19.808594 17.484375 19.785156 17.507812 19.769531 17.535156 C 19.765625 17.542969 19.765625 17.546875 19.761719 17.554688 C 19.757812 17.558594 19.757812 17.5625 19.757812 17.566406 C 19.757812 17.566406 19.757812 17.570312 19.757812 17.574219 C 19.757812 17.578125 19.757812 17.578125 19.757812 17.578125 C 19.757812 17.582031 19.757812 17.582031 19.757812 17.582031 C 19.757812 17.585938 19.757812 17.585938 19.757812 17.585938 C 19.757812 17.59375 19.757812 17.597656 19.757812 17.601562 C 19.757812 17.605469 19.757812 17.609375 19.757812 17.617188 L 19.765625 17.636719 C 19.765625 17.636719 19.765625 17.640625 19.765625 17.644531 Z M 19.863281 17.832031 C 19.855469 17.832031 19.851562 17.832031 19.847656 17.824219 C 19.773438 17.769531 19.726562 17.714844 19.707031 17.65625 C 19.707031 17.65625 19.707031 17.652344 19.707031 17.652344 C 19.707031 17.648438 19.703125 17.648438 19.703125 17.644531 L 19.699219 17.628906 C 19.699219 17.621094 19.695312 17.613281 19.695312 17.605469 C 19.695312 17.601562 19.695312 17.597656 19.695312 17.589844 C 19.695312 17.589844 19.695312 17.589844 19.695312 17.585938 C 19.695312 17.582031 19.695312 17.578125 19.695312 17.578125 C 19.695312 17.570312 19.699219 17.566406 19.699219 17.5625 C 19.699219 17.558594 19.699219 17.554688 19.699219 17.554688 C 19.699219 17.546875 19.703125 17.542969 19.703125 17.539062 C 19.707031 17.527344 19.710938 17.515625 19.71875 17.507812 C 19.738281 17.46875 19.769531 17.4375 19.8125 17.402344 C 19.816406 17.402344 19.816406 17.398438 19.816406 17.398438 C 19.820312 17.394531 19.828125 17.390625 19.835938 17.390625 C 19.839844 17.390625 19.847656 17.390625 19.847656 17.394531 C 19.847656 17.394531 19.855469 17.394531 19.855469 17.394531 C 19.859375 17.394531 19.859375 17.394531 19.859375 17.398438 L 19.871094 17.402344 C 19.878906 17.402344 19.882812 17.40625 19.890625 17.410156 C 19.917969 17.425781 19.941406 17.441406 19.960938 17.460938 L 19.96875 17.472656 C 19.96875 17.472656 19.96875 17.472656 19.972656 17.476562 C 20.003906 17.519531 20.011719 17.570312 20 17.625 C 19.988281 17.6875 19.949219 17.753906 19.886719 17.824219 C 19.878906 17.828125 19.871094 17.832031 19.863281 17.832031 " fill-opacity="1" fill-rule="nonzero"/><path fill="#ffffff" d="M 20.757812 17.445312 C 20.757812 17.449219 20.757812 17.453125 20.753906 17.457031 C 20.753906 17.457031 20.480469 17.554688 19.972656 17.621094 C 19.984375 17.566406 19.96875 17.527344 19.949219 17.496094 L 19.945312 17.492188 C 19.945312 17.492188 19.945312 17.488281 19.945312 17.488281 C 19.941406 17.488281 19.941406 17.484375 19.941406 17.484375 C 19.9375 17.484375 19.9375 17.480469 19.9375 17.480469 C 19.917969 17.460938 19.898438 17.445312 19.878906 17.4375 C 19.878906 17.4375 19.878906 17.4375 19.875 17.4375 C 19.871094 17.433594 19.863281 17.429688 19.859375 17.429688 C 19.855469 17.429688 19.855469 17.425781 19.851562 17.425781 C 19.847656 17.425781 19.847656 17.425781 19.847656 17.425781 C 19.84375 17.421875 19.839844 17.421875 19.839844 17.421875 L 19.835938 17.421875 C 19.835938 17.421875 19.835938 17.425781 19.835938 17.425781 C 19.835938 17.425781 19.832031 17.425781 19.832031 17.425781 C 19.796875 17.453125 19.765625 17.484375 19.742188 17.519531 C 19.738281 17.527344 19.734375 17.539062 19.730469 17.546875 C 19.730469 17.550781 19.730469 17.554688 19.726562 17.558594 C 19.726562 17.5625 19.726562 17.5625 19.726562 17.5625 C 19.726562 17.5625 19.726562 17.5625 19.726562 17.566406 C 19.726562 17.570312 19.726562 17.574219 19.726562 17.578125 C 19.726562 17.578125 19.726562 17.578125 19.726562 17.582031 C 19.726562 17.585938 19.726562 17.589844 19.726562 17.589844 C 19.726562 17.59375 19.726562 17.597656 19.726562 17.605469 C 19.726562 17.609375 19.726562 17.617188 19.726562 17.625 C 19.730469 17.625 19.730469 17.628906 19.730469 17.632812 C 19.730469 17.632812 19.730469 17.636719 19.734375 17.636719 C 19.734375 17.640625 19.734375 17.644531 19.734375 17.648438 C 19.507812 17.671875 19.246094 17.683594 18.953125 17.683594 C 18.953125 17.683594 18.949219 17.683594 18.949219 17.679688 C 18.949219 17.679688 18.949219 17.679688 18.945312 17.675781 C 18.9375 17.671875 18.929688 17.664062 18.921875 17.652344 C 18.878906 17.613281 18.816406 17.535156 18.835938 17.46875 C 18.839844 17.464844 18.839844 17.460938 18.84375 17.457031 C 18.863281 17.414062 18.921875 17.390625 18.921875 17.390625 C 18.921875 17.390625 19.421875 17.398438 19.800781 17.359375 C 20.347656 17.304688 20.605469 17.128906 20.710938 17.199219 C 20.738281 17.214844 20.753906 17.25 20.761719 17.304688 C 20.761719 17.304688 20.761719 17.308594 20.761719 17.308594 C 20.765625 17.320312 20.765625 17.335938 20.769531 17.351562 C 20.769531 17.375 20.765625 17.40625 20.757812 17.445312 " fill-opacity="1" fill-rule="nonzero"/><path fill="#b9901c" d="M 18.867188 17.480469 C 18.851562 17.515625 18.878906 17.574219 18.941406 17.632812 C 18.949219 17.644531 18.957031 17.652344 18.964844 17.652344 C 19.214844 17.652344 19.460938 17.644531 19.699219 17.621094 C 19.699219 17.617188 19.695312 17.609375 19.695312 17.605469 C 19.695312 17.601562 19.695312 17.597656 19.695312 17.589844 C 19.695312 17.589844 19.695312 17.589844 19.695312 17.585938 C 19.695312 17.582031 19.695312 17.578125 19.695312 17.578125 C 19.695312 17.570312 19.699219 17.566406 19.699219 17.5625 C 19.699219 17.558594 19.699219 17.554688 19.699219 17.554688 C 19.699219 17.546875 19.703125 17.542969 19.703125 17.539062 C 19.707031 17.527344 19.710938 17.515625 19.71875 17.507812 C 19.738281 17.46875 19.769531 17.4375 19.8125 17.402344 C 19.816406 17.402344 19.816406 17.398438 19.816406 17.398438 C 19.820312 17.394531 19.828125 17.390625 19.835938 17.390625 C 19.839844 17.390625 19.847656 17.390625 19.847656 17.394531 C 19.847656 17.394531 19.855469 17.394531 19.855469 17.394531 C 19.859375 17.394531 19.859375 17.394531 19.859375 17.398438 L 19.871094 17.402344 C 19.878906 17.402344 19.882812 17.40625 19.890625 17.410156 C 19.917969 17.425781 19.941406 17.441406 19.960938 17.460938 L 19.96875 17.472656 C 19.96875 17.472656 19.96875 17.472656 19.972656 17.476562 C 19.996094 17.511719 20.003906 17.546875 20.003906 17.585938 C 20.414062 17.527344 20.667969 17.453125 20.730469 17.433594 C 20.738281 17.394531 20.738281 17.367188 20.738281 17.351562 C 20.734375 17.339844 20.734375 17.324219 20.734375 17.3125 C 20.726562 17.265625 20.714844 17.238281 20.695312 17.222656 C 20.65625 17.195312 20.566406 17.222656 20.433594 17.261719 C 20.285156 17.304688 20.082031 17.363281 19.804688 17.390625 C 19.453125 17.425781 18.992188 17.421875 18.929688 17.417969 C 18.898438 17.433594 18.878906 17.453125 18.867188 17.472656 C 18.867188 17.472656 18.867188 17.476562 18.867188 17.480469 Z M 18.953125 17.714844 C 18.945312 17.714844 18.9375 17.710938 18.933594 17.707031 C 18.929688 17.703125 18.929688 17.703125 18.929688 17.703125 C 18.917969 17.695312 18.910156 17.6875 18.898438 17.675781 C 18.84375 17.621094 18.78125 17.539062 18.808594 17.460938 C 18.808594 17.457031 18.808594 17.457031 18.8125 17.457031 C 18.808594 17.457031 18.8125 17.453125 18.816406 17.445312 C 18.832031 17.410156 18.863281 17.382812 18.910156 17.363281 C 18.914062 17.363281 18.921875 17.363281 18.921875 17.359375 C 18.929688 17.359375 19.425781 17.367188 19.796875 17.332031 C 20.070312 17.304688 20.269531 17.246094 20.417969 17.203125 C 20.570312 17.160156 20.664062 17.132812 20.726562 17.175781 C 20.761719 17.195312 20.78125 17.238281 20.792969 17.300781 C 20.792969 17.316406 20.796875 17.332031 20.796875 17.347656 C 20.796875 17.378906 20.796875 17.414062 20.789062 17.449219 C 20.789062 17.449219 20.789062 17.453125 20.789062 17.453125 L 20.785156 17.464844 C 20.785156 17.472656 20.777344 17.480469 20.765625 17.484375 C 20.753906 17.488281 20.480469 17.582031 19.976562 17.652344 C 19.964844 17.652344 19.957031 17.648438 19.949219 17.640625 C 19.945312 17.632812 19.941406 17.625 19.941406 17.613281 C 19.949219 17.578125 19.945312 17.542969 19.925781 17.515625 C 19.925781 17.511719 19.921875 17.511719 19.921875 17.511719 C 19.921875 17.507812 19.917969 17.507812 19.917969 17.507812 C 19.917969 17.507812 19.914062 17.5 19.914062 17.5 C 19.902344 17.488281 19.886719 17.472656 19.863281 17.464844 C 19.855469 17.460938 19.851562 17.457031 19.847656 17.457031 L 19.84375 17.453125 C 19.808594 17.484375 19.785156 17.507812 19.769531 17.535156 C 19.765625 17.542969 19.765625 17.546875 19.761719 17.554688 C 19.757812 17.558594 19.757812 17.5625 19.757812 17.566406 C 19.757812 17.566406 19.757812 17.570312 19.757812 17.574219 C 19.757812 17.578125 19.757812 17.578125 19.757812 17.578125 C 19.757812 17.582031 19.757812 17.582031 19.757812 17.582031 C 19.757812 17.585938 19.757812 17.585938 19.757812 17.585938 C 19.757812 17.59375 19.757812 17.597656 19.757812 17.601562 C 19.757812 17.605469 19.757812 17.609375 19.757812 17.617188 L 19.765625 17.636719 C 19.769531 17.644531 19.765625 17.65625 19.761719 17.664062 C 19.753906 17.671875 19.746094 17.675781 19.734375 17.675781 C 19.480469 17.703125 19.21875 17.714844 18.953125 17.714844 " fill-opacity="1" fill-rule="nonzero"/><path fill="#b9901c" d="M 18.800781 17.503906 C 18.738281 17.53125 18.703125 17.578125 18.699219 17.648438 C 18.699219 17.695312 18.714844 17.757812 18.746094 17.824219 C 18.777344 17.785156 18.835938 17.722656 18.902344 17.679688 C 18.902344 17.679688 18.898438 17.675781 18.898438 17.675781 C 18.855469 17.628906 18.804688 17.566406 18.800781 17.503906 Z M 18.742188 17.910156 C 18.730469 17.910156 18.722656 17.90625 18.714844 17.894531 C 18.664062 17.800781 18.636719 17.714844 18.640625 17.644531 C 18.640625 17.535156 18.710938 17.460938 18.835938 17.429688 C 18.84375 17.429688 18.855469 17.429688 18.863281 17.441406 C 18.871094 17.449219 18.871094 17.460938 18.867188 17.472656 C 18.867188 17.472656 18.867188 17.476562 18.867188 17.480469 C 18.851562 17.515625 18.878906 17.574219 18.941406 17.632812 C 18.949219 17.644531 18.957031 17.652344 18.964844 17.652344 C 18.964844 17.65625 18.96875 17.660156 18.972656 17.660156 C 18.976562 17.664062 18.976562 17.667969 18.980469 17.671875 C 18.988281 17.6875 18.980469 17.703125 18.96875 17.710938 C 18.859375 17.769531 18.769531 17.898438 18.765625 17.898438 C 18.761719 17.90625 18.753906 17.910156 18.742188 17.910156 " fill-opacity="1" fill-rule="nonzero"/><path fill="#b9901c" d="M 20.792969 17.429688 C 20.859375 17.445312 20.917969 17.476562 20.957031 17.527344 C 20.96875 17.386719 20.945312 17.292969 20.894531 17.246094 C 20.851562 17.210938 20.796875 17.214844 20.757812 17.21875 C 20.773438 17.242188 20.785156 17.269531 20.792969 17.300781 C 20.800781 17.339844 20.800781 17.382812 20.792969 17.429688 Z M 20.976562 17.644531 C 20.964844 17.644531 20.953125 17.636719 20.949219 17.625 C 20.925781 17.570312 20.871094 17.496094 20.753906 17.488281 C 20.746094 17.488281 20.738281 17.480469 20.730469 17.472656 C 20.726562 17.464844 20.726562 17.457031 20.726562 17.449219 L 20.726562 17.441406 C 20.738281 17.390625 20.742188 17.347656 20.734375 17.3125 C 20.726562 17.277344 20.710938 17.246094 20.683594 17.222656 C 20.675781 17.214844 20.671875 17.207031 20.675781 17.195312 C 20.675781 17.1875 20.683594 17.179688 20.691406 17.175781 L 20.703125 17.171875 C 20.734375 17.160156 20.847656 17.132812 20.933594 17.203125 C 21.011719 17.269531 21.039062 17.40625 21.011719 17.605469 L 21.007812 17.621094 C 21.003906 17.632812 20.996094 17.644531 20.980469 17.644531 C 20.980469 17.644531 20.980469 17.644531 20.976562 17.644531 " fill-opacity="1" fill-rule="nonzero"/><path fill="#b9901c" d="M 21.265625 17.9375 C 21.25 17.9375 21.238281 17.929688 21.238281 17.914062 C 21.234375 17.898438 21.242188 17.878906 21.257812 17.878906 L 21.382812 17.855469 C 21.398438 17.851562 21.414062 17.863281 21.417969 17.878906 C 21.421875 17.894531 21.410156 17.910156 21.394531 17.914062 L 21.269531 17.9375 C 21.269531 17.9375 21.265625 17.9375 21.265625 17.9375 " fill-opacity="1" fill-rule="nonzero"/><path fill="#b9901c" d="M 16.554688 17.777344 C 16.546875 17.765625 16.542969 17.761719 16.511719 17.761719 C 16.476562 17.761719 16.457031 17.820312 16.507812 17.839844 C 16.53125 17.847656 16.542969 17.839844 16.558594 17.824219 C 16.578125 17.804688 16.570312 17.796875 16.554688 17.777344 " fill-opacity="1" fill-rule="nonzero"/><path fill="#b9901c" d="M 16.5625 18.140625 C 16.554688 18.128906 16.554688 18.125 16.523438 18.125 C 16.484375 18.125 16.464844 18.183594 16.519531 18.207031 C 16.539062 18.210938 16.554688 18.203125 16.566406 18.191406 C 16.585938 18.167969 16.578125 18.164062 16.5625 18.140625 " fill-opacity="1" fill-rule="nonzero"/><path fill="#b9901c" d="M 16.683594 18.175781 C 16.675781 18.164062 16.675781 18.160156 16.640625 18.160156 C 16.605469 18.15625 16.585938 18.21875 16.640625 18.238281 C 16.660156 18.246094 16.675781 18.238281 16.6875 18.222656 C 16.707031 18.199219 16.699219 18.195312 16.683594 18.175781 " fill-opacity="1" fill-rule="nonzero"/><path fill="#b9901c" d="M 16.875 18.230469 C 16.863281 18.21875 16.863281 18.214844 16.832031 18.214844 C 16.796875 18.210938 16.773438 18.273438 16.824219 18.292969 C 16.847656 18.300781 16.859375 18.292969 16.875 18.277344 C 16.894531 18.257812 16.886719 18.25 16.875 18.230469 " fill-opacity="1" fill-rule="nonzero"/><path fill="#b9901c" d="M 19.035156 17.957031 C 19.027344 17.945312 19.023438 17.941406 18.992188 17.941406 C 18.957031 17.941406 18.9375 18 18.988281 18.019531 C 19.011719 18.027344 19.023438 18.019531 19.039062 18.003906 C 19.058594 17.984375 19.050781 17.976562 19.035156 17.957031 " fill-opacity="1" fill-rule="nonzero"/><path fill="#b9901c" d="M 19.050781 18.066406 C 19.042969 18.054688 19.042969 18.054688 19.011719 18.050781 C 18.972656 18.050781 18.953125 18.109375 19.007812 18.128906 C 19.027344 18.136719 19.042969 18.128906 19.054688 18.117188 C 19.074219 18.09375 19.066406 18.089844 19.050781 18.066406 " fill-opacity="1" fill-rule="nonzero"/><path fill="#b9901c" d="M 17.449219 18.117188 C 17.402344 18.109375 17.390625 18.082031 17.394531 18.074219 C 17.398438 18.070312 17.460938 18.03125 17.464844 18.035156 C 17.464844 18.035156 17.476562 18.054688 17.476562 18.066406 C 17.484375 18.09375 17.511719 18.089844 17.515625 18.109375 C 17.515625 18.121094 17.460938 18.117188 17.449219 18.117188 Z M 17.78125 17.84375 C 17.773438 17.84375 17.777344 17.84375 17.71875 17.871094 C 17.660156 17.898438 17.6875 17.925781 17.699219 17.949219 C 17.710938 17.96875 17.707031 18 17.703125 18.023438 C 17.671875 18.261719 17.65625 18.347656 17.628906 18.324219 C 17.597656 18.300781 17.617188 18.238281 17.585938 18.222656 C 17.566406 18.210938 17.542969 18.214844 17.53125 18.199219 C 17.519531 18.179688 17.566406 18.167969 17.589844 18.164062 C 17.675781 18.144531 17.554688 18.066406 17.527344 18 C 17.523438 17.976562 17.527344 17.945312 17.5 17.925781 C 17.460938 17.894531 17.402344 17.941406 17.390625 17.992188 C 17.382812 18.027344 17.304688 18 17.273438 18.070312 C 17.257812 18.113281 17.328125 18.117188 17.339844 18.125 C 17.390625 18.144531 17.328125 18.214844 17.222656 18.167969 C 17.183594 18.152344 17.195312 18.050781 17.15625 18.011719 C 17.144531 18.003906 17.132812 18.007812 17.125 18.019531 C 17.0625 18.125 17.183594 18.207031 17.0625 18.273438 C 17.003906 18.308594 16.976562 18.285156 16.964844 18.300781 C 16.960938 18.3125 16.976562 18.320312 16.984375 18.320312 C 17.058594 18.347656 17.136719 18.332031 17.179688 18.269531 C 17.207031 18.222656 17.339844 18.316406 17.417969 18.246094 C 17.425781 18.238281 17.441406 18.238281 17.445312 18.25 C 17.453125 18.265625 17.453125 18.285156 17.46875 18.292969 C 17.476562 18.300781 17.488281 18.300781 17.496094 18.300781 C 17.519531 18.304688 17.53125 18.316406 17.53125 18.335938 C 17.53125 18.347656 17.53125 18.359375 17.535156 18.371094 C 17.554688 18.433594 17.644531 18.449219 17.6875 18.417969 C 17.753906 18.371094 17.734375 18.179688 17.761719 18.054688 C 17.765625 18.023438 17.816406 17.847656 17.78125 17.84375 " fill-opacity="1" fill-rule="nonzero"/><path fill="#b9901c" d="M 16.582031 18 C 16.566406 18.007812 16.496094 18.011719 16.515625 17.980469 C 16.519531 17.972656 16.523438 17.96875 16.527344 17.96875 C 16.542969 17.960938 16.546875 17.957031 16.5625 17.964844 C 16.585938 17.96875 16.589844 18 16.582031 18 Z M 17.054688 17.945312 C 17.050781 17.9375 17.042969 17.929688 17.035156 17.933594 C 16.964844 17.96875 16.902344 17.945312 16.953125 18.023438 C 16.960938 18.039062 16.960938 18.054688 16.957031 18.070312 C 16.945312 18.105469 16.910156 18.105469 16.878906 18.105469 C 16.851562 18.101562 16.820312 18.097656 16.8125 18.074219 C 16.800781 18.046875 16.828125 18.019531 16.839844 17.898438 C 16.84375 17.875 16.835938 17.863281 16.808594 17.875 C 16.738281 17.90625 16.71875 17.910156 16.730469 17.949219 C 16.75 17.992188 16.738281 18.039062 16.71875 18.050781 C 16.699219 18.058594 16.589844 18.074219 16.636719 17.972656 C 16.683594 17.871094 16.710938 17.785156 16.730469 17.660156 C 16.730469 17.652344 16.726562 17.644531 16.722656 17.640625 C 16.699219 17.632812 16.664062 17.667969 16.628906 17.671875 C 16.617188 17.675781 16.589844 17.6875 16.570312 17.675781 C 16.554688 17.664062 16.5 17.652344 16.496094 17.703125 C 16.496094 17.710938 16.496094 17.714844 16.5 17.722656 C 16.507812 17.730469 16.546875 17.742188 16.554688 17.738281 C 16.578125 17.734375 16.617188 17.6875 16.640625 17.710938 C 16.652344 17.726562 16.648438 17.738281 16.644531 17.75 C 16.636719 17.785156 16.617188 17.832031 16.59375 17.878906 C 16.570312 17.929688 16.472656 17.878906 16.433594 18.003906 C 16.433594 18.011719 16.429688 18.015625 16.425781 18.019531 C 16.421875 18.03125 16.421875 18.046875 16.429688 18.058594 C 16.441406 18.066406 16.457031 18.074219 16.46875 18.074219 C 16.558594 18.101562 16.625 18.121094 16.691406 18.128906 C 16.816406 18.148438 16.703125 18.152344 16.960938 18.1875 C 17.011719 18.195312 17.015625 18.164062 17.019531 18.117188 C 17.027344 18.058594 17.058594 18 17.054688 17.945312 " fill-opacity="1" fill-rule="nonzero"/><path fill="#b9901c" d="M 17.855469 17.867188 C 17.859375 17.859375 17.867188 17.859375 17.867188 17.863281 C 17.898438 17.898438 17.972656 17.9375 17.9375 17.960938 C 17.886719 17.996094 17.914062 17.96875 17.875 18.265625 C 17.871094 18.296875 17.878906 18.347656 17.828125 18.34375 C 17.773438 18.34375 17.804688 18.269531 17.8125 18.242188 C 17.824219 18.195312 17.816406 18.144531 17.828125 18.097656 C 17.832031 18.066406 17.835938 18.039062 17.839844 18.019531 C 17.847656 17.988281 17.84375 17.96875 17.851562 17.941406 C 17.859375 17.902344 17.851562 17.882812 17.855469 17.867188 " fill-opacity="1" fill-rule="nonzero"/><path fill="#b9901c" d="M 18.832031 18.308594 C 18.828125 18.3125 18.777344 18.308594 18.773438 18.296875 C 18.773438 18.296875 18.773438 18.28125 18.78125 18.277344 C 18.785156 18.273438 18.785156 18.273438 18.789062 18.273438 C 18.820312 18.257812 18.824219 18.246094 18.835938 18.289062 C 18.835938 18.296875 18.839844 18.304688 18.832031 18.308594 Z M 18.574219 18.394531 C 18.558594 18.414062 18.53125 18.40625 18.527344 18.386719 C 18.523438 18.371094 18.523438 18.355469 18.515625 18.339844 C 18.507812 18.320312 18.480469 18.320312 18.402344 18.3125 C 18.386719 18.3125 18.371094 18.308594 18.355469 18.308594 C 18.339844 18.308594 18.324219 18.308594 18.3125 18.308594 C 18.277344 18.304688 18.226562 18.289062 18.253906 18.265625 C 18.285156 18.238281 18.304688 18.246094 18.445312 18.246094 C 18.570312 18.242188 18.585938 18.28125 18.589844 18.335938 C 18.589844 18.363281 18.582031 18.382812 18.574219 18.394531 Z M 18.875 18.160156 C 18.871094 18.15625 18.863281 18.15625 18.859375 18.160156 C 18.703125 18.203125 18.71875 18.246094 18.695312 18.28125 C 18.671875 18.304688 18.644531 18.296875 18.644531 18.257812 C 18.644531 18.238281 18.65625 18.199219 18.609375 18.1875 C 18.570312 18.183594 18.59375 18.203125 18.320312 18.167969 C 18.300781 18.164062 18.285156 18.164062 18.269531 18.148438 C 18.25 18.121094 18.261719 18.066406 18.210938 18.074219 C 18.175781 18.078125 18.144531 18.105469 18.148438 18.136719 C 18.148438 18.148438 18.15625 18.160156 18.164062 18.171875 C 18.210938 18.269531 18.113281 18.3125 18.085938 18.261719 C 18.074219 18.238281 18.089844 18.183594 18.046875 18.140625 C 18.015625 18.140625 17.96875 18.179688 17.96875 18.210938 C 17.972656 18.246094 18.027344 18.289062 18.015625 18.351562 C 18.007812 18.417969 17.9375 18.445312 17.867188 18.449219 C 17.828125 18.453125 17.832031 18.480469 17.863281 18.488281 C 17.894531 18.496094 17.980469 18.5 18.011719 18.480469 C 18.035156 18.46875 18.050781 18.441406 18.070312 18.425781 C 18.082031 18.417969 18.085938 18.398438 18.09375 18.386719 C 18.105469 18.367188 18.113281 18.359375 18.144531 18.367188 C 18.246094 18.390625 18.28125 18.375 18.359375 18.390625 C 18.378906 18.398438 18.433594 18.382812 18.445312 18.398438 C 18.46875 18.433594 18.472656 18.464844 18.5 18.496094 C 18.515625 18.511719 18.546875 18.503906 18.582031 18.488281 C 18.695312 18.433594 18.625 18.390625 18.695312 18.390625 C 18.902344 18.390625 18.902344 18.398438 18.90625 18.359375 C 18.921875 18.257812 18.882812 18.164062 18.875 18.160156 " fill-opacity="1" fill-rule="nonzero"/><path fill="#b9901c" d="M 19.09375 18.269531 C 19.097656 18.253906 19.105469 18.25 19.121094 18.257812 C 19.191406 18.28125 19.066406 18.367188 19.09375 18.269531 Z M 19.417969 18.332031 C 19.414062 18.261719 19.402344 18.191406 19.390625 18.125 C 19.378906 18.066406 19.339844 18.121094 19.296875 18.132812 C 19.292969 18.136719 19.289062 18.136719 19.285156 18.140625 C 19.28125 18.144531 19.273438 18.171875 19.28125 18.183594 C 19.285156 18.1875 19.292969 18.191406 19.296875 18.195312 C 19.316406 18.210938 19.316406 18.253906 19.3125 18.265625 C 19.304688 18.28125 19.261719 18.300781 19.238281 18.289062 C 19.207031 18.273438 19.210938 18.230469 19.210938 18.214844 C 19.210938 18.199219 19.207031 18.167969 19.191406 18.09375 C 19.191406 18.03125 19.195312 17.96875 19.171875 17.910156 C 19.167969 17.894531 19.160156 17.890625 19.140625 17.898438 C 19.125 17.90625 19.074219 17.933594 19.074219 17.953125 C 19.070312 17.972656 19.097656 17.976562 19.113281 17.988281 C 19.132812 18.007812 19.121094 18.042969 19.121094 18.066406 C 19.117188 18.09375 19.128906 18.128906 19.113281 18.15625 C 19.082031 18.214844 19.007812 18.183594 19 18.359375 C 19 18.414062 19.117188 18.375 19.203125 18.367188 C 19.410156 18.355469 19.421875 18.363281 19.417969 18.332031 " fill-opacity="1" fill-rule="nonzero"/><path fill="#b9901c" d="M 19.453125 18.203125 C 19.472656 18.25 19.507812 18.230469 19.527344 18.28125 C 19.5625 18.390625 19.414062 18.4375 19.40625 18.449219 C 19.390625 18.480469 19.496094 18.476562 19.519531 18.46875 C 19.554688 18.457031 19.605469 18.386719 19.609375 18.378906 C 19.613281 18.363281 19.621094 18.289062 19.617188 18.273438 C 19.613281 18.269531 19.609375 18.261719 19.609375 18.253906 C 19.59375 18.21875 19.601562 18.210938 19.574219 18.167969 C 19.5625 18.148438 19.550781 18.125 19.535156 18.109375 C 19.5 18.082031 19.507812 18.089844 19.484375 18.136719 C 19.453125 18.191406 19.449219 18.191406 19.453125 18.203125 " fill-opacity="1" fill-rule="nonzero"/><path fill="#b9901c" d="M 19.289062 18.46875 C 19.257812 18.503906 19.222656 18.480469 19.214844 18.460938 C 19.199219 18.46875 19.1875 18.488281 19.136719 18.488281 C 19.128906 18.488281 19.109375 18.484375 19.105469 18.476562 C 19.097656 18.464844 19.113281 18.425781 19.121094 18.417969 C 19.136719 18.402344 19.179688 18.433594 19.210938 18.4375 C 19.214844 18.421875 19.226562 18.40625 19.246094 18.40625 C 19.277344 18.40625 19.28125 18.410156 19.289062 18.421875 C 19.304688 18.441406 19.308594 18.449219 19.289062 18.46875 " fill-opacity="1" fill-rule="nonzero"/><path fill="#b9901c" d="M 20.464844 18.167969 C 20.460938 18.171875 20.425781 18.183594 20.40625 18.171875 C 20.371094 18.148438 20.429688 18.117188 20.457031 18.140625 C 20.46875 18.148438 20.46875 18.164062 20.464844 18.167969 Z M 20.210938 18.28125 C 20.207031 18.28125 20.179688 18.28125 20.164062 18.28125 C 20.152344 18.277344 20.152344 18.28125 20.152344 18.269531 C 20.152344 18.238281 20.191406 18.242188 20.203125 18.257812 C 20.210938 18.261719 20.210938 18.277344 20.210938 18.28125 Z M 20.117188 18.15625 C 20.113281 18.152344 20.109375 18.144531 20.109375 18.140625 C 20.109375 18.136719 20.105469 18.121094 20.105469 18.117188 C 20.109375 18.113281 20.125 18.117188 20.128906 18.117188 C 20.148438 18.117188 20.144531 18.125 20.160156 18.132812 C 20.171875 18.140625 20.1875 18.140625 20.179688 18.175781 C 20.171875 18.195312 20.125 18.171875 20.117188 18.15625 Z M 20.027344 18.207031 C 20.015625 18.207031 19.996094 18.195312 19.992188 18.183594 C 19.988281 18.171875 19.988281 18.140625 20 18.132812 C 20.007812 18.128906 20.027344 18.128906 20.039062 18.132812 C 20.054688 18.144531 20.0625 18.203125 20.027344 18.207031 Z M 19.753906 18.191406 C 19.761719 18.183594 19.773438 18.191406 19.785156 18.195312 C 19.863281 18.246094 19.683594 18.269531 19.753906 18.191406 Z M 20.761719 18.011719 C 20.726562 18.019531 20.648438 18.082031 20.613281 17.960938 C 20.574219 17.808594 20.621094 17.683594 20.453125 17.6875 C 20.246094 17.691406 20.28125 17.847656 20.386719 17.789062 C 20.410156 17.773438 20.4375 17.757812 20.464844 17.765625 C 20.492188 17.777344 20.5 17.804688 20.507812 17.832031 C 20.558594 18.050781 20.558594 18.046875 20.558594 18.054688 C 20.550781 18.074219 20.53125 18.085938 20.511719 18.082031 C 20.472656 18.078125 20.449219 18.039062 20.410156 18.039062 C 20.339844 18.039062 20.328125 18.148438 20.269531 18.132812 C 20.246094 18.125 20.238281 18.09375 20.222656 18.074219 C 20.1875 18.023438 20.082031 18.019531 20.078125 17.949219 C 20.074219 17.929688 20.085938 17.867188 20.03125 17.898438 C 20.015625 17.90625 20.003906 17.914062 19.992188 17.929688 C 19.984375 17.941406 19.980469 17.960938 19.992188 17.96875 C 20 17.980469 20.015625 17.984375 20.027344 17.988281 C 20.039062 17.996094 20.046875 18.011719 20.039062 18.019531 C 20.039062 18.027344 20.03125 18.027344 20.027344 18.03125 C 19.921875 18.070312 19.933594 18.164062 19.898438 18.214844 C 19.871094 18.214844 19.84375 18.191406 19.847656 18.164062 C 19.847656 18.152344 19.847656 18.140625 19.847656 18.132812 C 19.84375 18.117188 19.824219 18.105469 19.804688 18.109375 C 19.777344 18.109375 19.695312 18.164062 19.671875 18.214844 C 19.660156 18.242188 19.664062 18.28125 19.679688 18.304688 C 19.707031 18.335938 19.757812 18.300781 19.777344 18.316406 C 19.804688 18.332031 19.746094 18.402344 19.675781 18.410156 C 19.679688 18.433594 19.714844 18.441406 19.738281 18.4375 C 19.894531 18.421875 19.871094 18.328125 19.910156 18.292969 C 19.933594 18.273438 19.96875 18.28125 20.003906 18.28125 C 20.015625 18.28125 20.027344 18.277344 20.039062 18.28125 C 20.074219 18.292969 20.132812 18.386719 20.207031 18.367188 C 20.273438 18.351562 20.285156 18.273438 20.292969 18.226562 C 20.351562 18.21875 20.40625 18.28125 20.457031 18.257812 C 20.5 18.238281 20.507812 18.175781 20.664062 18.144531 C 20.753906 18.125 20.855469 18.121094 20.867188 18.09375 C 20.875 18.066406 20.828125 18 20.761719 18.011719 " fill-opacity="1" fill-rule="nonzero"/><path fill="#b9901c" d="M 20.714844 18.164062 C 20.710938 18.164062 20.671875 18.179688 20.667969 18.179688 C 20.632812 18.207031 20.636719 18.25 20.710938 18.25 C 20.757812 18.25 20.738281 18.167969 20.714844 18.164062 " fill-opacity="1" fill-rule="nonzero"/></svg>