<svg xmlns="http://www.w3.org/2000/svg" xmlns:xlink="http://www.w3.org/1999/xlink" width="50" zoomAndPan="magnify" viewBox="0 0 37.5 30.000001" height="40" preserveAspectRatio="xMidYMid meet" version="1.0"><defs><clipPath id="0e4ef527bc"><path d="M 0.363281 1.425781 L 36.652344 1.425781 L 36.652344 11 L 0.363281 11 Z M 0.363281 1.425781 " clip-rule="nonzero"/></clipPath><clipPath id="a11d36e02d"><path d="M 0.363281 10 L 36.652344 10 L 36.652344 19 L 0.363281 19 Z M 0.363281 10 " clip-rule="nonzero"/></clipPath><clipPath id="1fd761ae48"><path d="M 0.363281 18 L 36.652344 18 L 36.652344 27.554688 L 0.363281 27.554688 Z M 0.363281 18 " clip-rule="nonzero"/></clipPath></defs><g clip-path="url(#0e4ef527bc)"><path fill="#f2f2f2" d="M 37.527344 10.136719 L -0.210938 10.136719 L -0.210938 1.425781 L 37.527344 1.425781 L 37.527344 10.136719 " fill-opacity="1" fill-rule="nonzero"/></g><g clip-path="url(#a11d36e02d)"><path fill="#21418e" d="M 37.527344 18.847656 L -0.210938 18.847656 L -0.210938 10.136719 L 37.527344 10.136719 L 37.527344 18.847656 " fill-opacity="1" fill-rule="nonzero"/></g><g clip-path="url(#1fd761ae48)"><path fill="#e40001" d="M 37.527344 27.554688 L -0.210938 27.554688 L -0.210938 18.847656 L 37.527344 18.847656 L 37.527344 27.554688 " fill-opacity="1" fill-rule="nonzero"/></g></svg>