<svg xmlns="http://www.w3.org/2000/svg" xmlns:xlink="http://www.w3.org/1999/xlink" width="50" zoomAndPan="magnify" viewBox="0 0 37.5 30.000001" height="40" preserveAspectRatio="xMidYMid meet" version="1.0"><defs><clipPath id="e8bc15046d"><path d="M 0.363281 2 L 36.652344 2 L 36.652344 27 L 0.363281 27 Z M 0.363281 2 " clip-rule="nonzero"/></clipPath><clipPath id="1c2e3e57b3"><path d="M 0.363281 18 L 36.652344 18 L 36.652344 27.53125 L 0.363281 27.53125 Z M 0.363281 18 " clip-rule="nonzero"/></clipPath><clipPath id="741b181ca8"><path d="M 0.363281 1.402344 L 36.652344 1.402344 L 36.652344 11 L 0.363281 11 Z M 0.363281 1.402344 " clip-rule="nonzero"/></clipPath></defs><g clip-path="url(#e8bc15046d)"><path fill="#fcdd09" d="M 36.722656 26.226562 L 0.140625 26.226562 L 0.140625 19.695312 L -1.167969 18.816406 L -1.167969 10.117188 L 0.140625 9.242188 L 0.140625 2.710938 L 36.722656 2.710938 L 36.722656 9.242188 L 38.027344 10.117188 L 38.027344 18.816406 L 36.722656 19.695312 Z M 36.722656 26.226562 " fill-opacity="1" fill-rule="nonzero"/></g><g clip-path="url(#1c2e3e57b3)"><path fill="#da121a" d="M -1.167969 18.816406 L 38.027344 18.816406 L 38.027344 27.53125 L -1.167969 27.53125 Z M -1.167969 18.816406 " fill-opacity="1" fill-rule="nonzero"/></g><g clip-path="url(#741b181ca8)"><path fill="#078930" d="M -1.167969 1.402344 L 38.027344 1.402344 L 38.027344 10.117188 L -1.167969 10.117188 Z M -1.167969 1.402344 " fill-opacity="1" fill-rule="nonzero"/></g><path fill="#0f47af" d="M 27.144531 14.46875 C 27.144531 15.039062 27.089844 15.605469 26.976562 16.167969 C 26.867188 16.730469 26.699219 17.273438 26.480469 17.800781 C 26.261719 18.332031 25.992188 18.832031 25.675781 19.308594 C 25.359375 19.785156 24.996094 20.226562 24.59375 20.628906 C 24.1875 21.035156 23.746094 21.394531 23.273438 21.714844 C 22.796875 22.03125 22.292969 22.300781 21.765625 22.519531 C 21.238281 22.738281 20.691406 22.902344 20.128906 23.015625 C 19.570312 23.125 19.003906 23.183594 18.429688 23.183594 C 17.859375 23.183594 17.292969 23.125 16.730469 23.015625 C 16.167969 22.902344 15.625 22.738281 15.097656 22.519531 C 14.566406 22.300781 14.066406 22.03125 13.589844 21.714844 C 13.113281 21.394531 12.671875 21.035156 12.269531 20.628906 C 11.863281 20.226562 11.503906 19.785156 11.183594 19.308594 C 10.867188 18.832031 10.597656 18.332031 10.378906 17.800781 C 10.160156 17.273438 9.996094 16.730469 9.882812 16.167969 C 9.773438 15.605469 9.714844 15.039062 9.714844 14.46875 C 9.714844 13.894531 9.773438 13.328125 9.882812 12.769531 C 9.996094 12.207031 10.160156 11.660156 10.378906 11.132812 C 10.597656 10.605469 10.867188 10.101562 11.183594 9.625 C 11.503906 9.152344 11.863281 8.710938 12.269531 8.304688 C 12.671875 7.902344 13.113281 7.539062 13.589844 7.222656 C 14.066406 6.90625 14.566406 6.636719 15.097656 6.417969 C 15.625 6.199219 16.167969 6.03125 16.730469 5.921875 C 17.292969 5.808594 17.859375 5.753906 18.429688 5.753906 C 19.003906 5.753906 19.570312 5.808594 20.128906 5.921875 C 20.691406 6.03125 21.238281 6.199219 21.765625 6.417969 C 22.292969 6.636719 22.796875 6.90625 23.273438 7.222656 C 23.746094 7.539062 24.1875 7.902344 24.59375 8.304688 C 24.996094 8.710938 25.359375 9.152344 25.675781 9.625 C 25.992188 10.101562 26.261719 10.605469 26.480469 11.132812 C 26.699219 11.660156 26.867188 12.207031 26.976562 12.769531 C 27.089844 13.328125 27.144531 13.894531 27.144531 14.46875 Z M 27.144531 14.46875 " fill-opacity="1" fill-rule="nonzero"/><path fill="#fcdd09" d="M 25.054688 12.3125 L 20.964844 15.289062 L 22.101562 18.816406 L 21.304688 18.230469 L 19.644531 13.109375 L 20.257812 13.109375 L 20.769531 14.714844 L 24.074219 12.3125 Z M 25.054688 12.3125 " fill-opacity="1" fill-rule="nonzero"/><path fill="#fcdd09" d="M 20.183594 11.796875 L 22.40625 8.742188 L 22.636719 8.914062 L 20.417969 11.96875 Z M 20.183594 11.796875 " fill-opacity="1" fill-rule="nonzero"/><path fill="#fcdd09" d="M 18.429688 7.503906 L 20 12.3125 L 23.695312 12.3125 L 22.898438 12.898438 L 17.515625 12.898438 L 17.710938 12.3125 L 19.382812 12.3125 L 18.128906 8.445312 Z M 18.429688 7.503906 " fill-opacity="1" fill-rule="nonzero"/><path fill="#fcdd09" d="M 14.214844 8.917969 L 14.449219 8.746094 L 16.667969 11.800781 L 16.433594 11.972656 Z M 14.214844 8.917969 " fill-opacity="1" fill-rule="nonzero"/><path fill="#fcdd09" d="M 16.863281 12.3125 L 18.011719 8.796875 L 18.3125 9.726562 L 16.652344 14.847656 L 16.15625 14.492188 L 16.679688 12.898438 L 12.605469 12.898438 L 11.808594 12.3125 Z M 16.863281 12.3125 " fill-opacity="1" fill-rule="nonzero"/><path fill="#fcdd09" d="M 11.761719 16.480469 L 15.351562 15.3125 L 15.441406 15.585938 L 11.847656 16.753906 Z M 11.761719 16.480469 " fill-opacity="1" fill-rule="nonzero"/><path fill="#fcdd09" d="M 14.339844 20.097656 L 15.894531 15.289062 L 12.902344 13.109375 L 13.882812 13.109375 L 18.246094 16.269531 L 17.75 16.636719 L 16.390625 15.644531 L 15.136719 19.523438 Z M 14.339844 20.097656 " fill-opacity="1" fill-rule="nonzero"/><path fill="#fcdd09" d="M 18.285156 17.65625 L 18.574219 17.65625 L 18.574219 21.429688 L 18.285156 21.429688 Z M 18.285156 17.65625 " fill-opacity="1" fill-rule="nonzero"/><path fill="#fcdd09" d="M 18.429688 17.132812 L 15.4375 19.300781 L 15.738281 18.359375 L 20.089844 15.199219 L 20.285156 15.789062 L 18.925781 16.765625 L 22.21875 19.171875 L 22.519531 20.097656 Z M 18.429688 17.132812 " fill-opacity="1" fill-rule="nonzero"/><path fill="#fcdd09" d="M 21.429688 15.585938 L 21.519531 15.3125 L 25.109375 16.480469 L 25.023438 16.753906 Z M 21.429688 15.585938 " fill-opacity="1" fill-rule="nonzero"/></svg>