<svg xmlns="http://www.w3.org/2000/svg" xmlns:xlink="http://www.w3.org/1999/xlink" width="50" zoomAndPan="magnify" viewBox="0 0 37.5 30.000001" height="40" preserveAspectRatio="xMidYMid meet" version="1.0"><defs><clipPath id="6b5895e884"><path d="M 0.363281 0.140625 L 36.652344 0.140625 L 36.652344 29.03125 L 0.363281 29.03125 Z M 0.363281 0.140625 " clip-rule="nonzero"/></clipPath></defs><g clip-path="url(#6b5895e884)"><path fill="#003399" d="M -3.164062 0.144531 L 40.386719 0.144531 L 40.386719 29.167969 L -3.164062 29.167969 Z M -3.164062 0.144531 " fill-opacity="1" fill-rule="nonzero"/></g><path fill="#ffcc00" d="M 18.613281 3.375 L 18.988281 4.539062 L 20.210938 4.539062 L 19.222656 5.257812 L 19.601562 6.421875 L 18.613281 5.703125 L 17.621094 6.421875 L 18 5.257812 L 17.011719 4.539062 L 18.234375 4.539062 L 18.613281 3.375 " fill-opacity="1" fill-rule="nonzero"/><path fill="#ffcc00" d="M 23.519531 4.375 L 23.898438 5.539062 L 25.121094 5.539062 L 24.128906 6.257812 L 24.507812 7.421875 L 23.519531 6.703125 L 22.53125 7.421875 L 22.90625 6.257812 L 21.917969 5.539062 L 23.140625 5.539062 L 23.519531 4.375 " fill-opacity="1" fill-rule="nonzero"/><path fill="#ffcc00" d="M 13.769531 4.992188 L 14.148438 6.15625 L 15.371094 6.15625 L 14.382812 6.875 L 14.757812 8.039062 L 13.769531 7.320312 L 12.78125 8.039062 L 13.160156 6.875 L 12.167969 6.15625 L 13.390625 6.15625 L 13.769531 4.992188 " fill-opacity="1" fill-rule="nonzero"/><path fill="#ffcc00" d="M 10.476562 8.285156 L 10.855469 9.449219 L 12.078125 9.449219 L 11.089844 10.167969 L 11.46875 11.332031 L 10.476562 10.613281 L 9.488281 11.332031 L 9.867188 10.167969 L 8.878906 9.449219 L 10.101562 9.449219 L 10.476562 8.285156 " fill-opacity="1" fill-rule="nonzero"/><path fill="#ffcc00" d="M 10.476562 17.976562 L 10.855469 19.140625 L 12.078125 19.140625 L 11.089844 19.859375 L 11.46875 21.023438 L 10.476562 20.304688 L 9.488281 21.023438 L 9.867188 19.859375 L 8.878906 19.140625 L 10.101562 19.140625 L 10.476562 17.976562 " fill-opacity="1" fill-rule="nonzero"/><path fill="#ffcc00" d="M 8.863281 13.132812 L 9.242188 14.296875 L 10.464844 14.296875 L 9.472656 15.015625 L 9.851562 16.179688 L 8.863281 15.460938 L 7.875 16.179688 L 8.25 15.015625 L 7.261719 14.296875 L 8.484375 14.296875 L 8.863281 13.132812 " fill-opacity="1" fill-rule="nonzero"/><path fill="#ffcc00" d="M 28.359375 13.132812 L 28.738281 14.296875 L 29.960938 14.296875 L 28.972656 15.015625 L 29.351562 16.179688 L 28.359375 15.460938 L 27.371094 16.179688 L 27.75 15.015625 L 26.761719 14.296875 L 27.984375 14.296875 L 28.359375 13.132812 " fill-opacity="1" fill-rule="nonzero"/><path fill="#ffcc00" d="M 27.363281 8.222656 L 27.742188 9.386719 L 28.964844 9.386719 L 27.976562 10.105469 L 28.351562 11.269531 L 27.363281 10.550781 L 26.375 11.269531 L 26.753906 10.105469 L 25.761719 9.386719 L 26.984375 9.386719 L 27.363281 8.222656 " fill-opacity="1" fill-rule="nonzero"/><path fill="#ffcc00" d="M 18.613281 22.886719 L 18.988281 24.050781 L 20.210938 24.050781 L 19.222656 24.769531 L 19.601562 25.933594 L 18.613281 25.214844 L 17.621094 25.933594 L 18 24.769531 L 17.011719 24.050781 L 18.234375 24.050781 L 18.613281 22.886719 " fill-opacity="1" fill-rule="nonzero"/><path fill="#ffcc00" d="M 27.363281 18.042969 L 27.742188 19.207031 L 28.964844 19.207031 L 27.976562 19.925781 L 28.351562 21.089844 L 27.363281 20.371094 L 26.375 21.089844 L 26.753906 19.925781 L 25.761719 19.207031 L 26.984375 19.207031 L 27.363281 18.042969 " fill-opacity="1" fill-rule="nonzero"/><path fill="#ffcc00" d="M 23.519531 21.890625 L 23.898438 23.054688 L 25.121094 23.054688 L 24.128906 23.773438 L 24.507812 24.9375 L 23.519531 24.21875 L 22.53125 24.9375 L 22.90625 23.773438 L 21.917969 23.054688 L 23.140625 23.054688 L 23.519531 21.890625 " fill-opacity="1" fill-rule="nonzero"/><path fill="#ffcc00" d="M 13.769531 21.269531 L 14.148438 22.433594 L 15.371094 22.433594 L 14.382812 23.152344 L 14.757812 24.316406 L 13.769531 23.597656 L 12.78125 24.316406 L 13.160156 23.152344 L 12.167969 22.433594 L 13.390625 22.433594 L 13.769531 21.269531 " fill-opacity="1" fill-rule="nonzero"/></svg>