<svg xmlns="http://www.w3.org/2000/svg" xmlns:xlink="http://www.w3.org/1999/xlink" width="40" zoomAndPan="magnify" viewBox="0 0 30 30.000001" height="40" preserveAspectRatio="xMidYMid meet" version="1.0"><defs><clipPath id="f83d65e31d"><path d="M 2.320312 19 L 28 19 L 28 28.707031 L 2.320312 28.707031 Z M 2.320312 19 " clip-rule="nonzero"/></clipPath><clipPath id="73ffefb6a8"><path d="M 12 0.398438 L 18 0.398438 L 18 5 L 12 5 Z M 12 0.398438 " clip-rule="nonzero"/></clipPath></defs><g clip-path="url(#f83d65e31d)"><path fill="#791660" d="M 24.210938 28.625 L 5.558594 28.625 C 5.417969 28.625 5.292969 28.539062 5.246094 28.40625 L 2.40625 20.414062 C 2.328125 20.199219 2.488281 19.972656 2.71875 19.972656 L 27.050781 19.972656 C 27.277344 19.972656 27.4375 20.199219 27.363281 20.414062 L 24.519531 28.40625 C 24.472656 28.539062 24.347656 28.625 24.210938 28.625 Z M 8.480469 23.238281 C 7.386719 22.933594 7.496094 21.105469 8.808594 21.105469 C 10.121094 21.105469 10.234375 22.933594 9.140625 23.238281 L 9.140625 23.75 L 9.886719 23.75 C 10.320312 23.75 10.320312 24.410156 9.886719 24.410156 L 9.140625 24.410156 L 9.140625 26.816406 C 10.382812 26.546875 10.113281 25.414062 10.703125 25.632812 C 11.40625 25.890625 10.25 27.511719 8.808594 27.511719 C 7.367188 27.511719 6.214844 25.890625 6.917969 25.632812 C 7.507812 25.414062 7.238281 26.542969 8.480469 26.816406 L 8.480469 24.410156 L 7.734375 24.410156 C 7.296875 24.410156 7.296875 23.75 7.734375 23.75 L 8.480469 23.75 Z M 8.808594 21.765625 C 8.246094 21.765625 8.246094 22.621094 8.808594 22.621094 C 9.371094 22.621094 9.371094 21.765625 8.808594 21.765625 Z M 13.878906 25.09375 C 12.121094 25.09375 12.121094 22.421875 13.878906 22.421875 C 15.636719 22.421875 15.636719 25.09375 13.878906 25.09375 Z M 13.878906 23.085938 C 12.992188 23.085938 12.992188 24.433594 13.878906 24.433594 C 14.765625 24.433594 14.765625 23.085938 13.878906 23.085938 Z M 18.320312 25.09375 C 16.5625 25.09375 16.5625 22.421875 18.320312 22.421875 C 20.078125 22.421875 20.078125 25.09375 18.320312 25.09375 Z M 18.320312 23.085938 C 17.433594 23.085938 17.433594 24.433594 18.320312 24.433594 C 19.207031 24.433594 19.207031 23.085938 18.320312 23.085938 Z M 22.757812 25.09375 C 21.003906 25.09375 21.003906 22.421875 22.757812 22.421875 C 24.515625 22.421875 24.515625 25.09375 22.757812 25.09375 Z M 22.757812 23.085938 C 21.875 23.085938 21.875 24.433594 22.757812 24.433594 C 23.644531 24.433594 23.644531 23.085938 22.757812 23.085938 Z M 22.128906 26.636719 L 14.511719 26.636719 C 14.078125 26.636719 14.078125 25.972656 14.511719 25.972656 L 22.128906 25.972656 C 22.5625 25.972656 22.5625 26.636719 22.128906 26.636719 Z M 22.128906 26.636719 " fill-opacity="1" fill-rule="evenodd"/></g><path fill="#791660" d="M 14.882812 20.910156 C 14.550781 20.910156 14.277344 20.636719 14.277344 20.300781 L 14.277344 4.515625 C 14.277344 3.71875 15.492188 3.71875 15.492188 4.515625 L 15.492188 20.300781 C 15.492188 20.636719 15.21875 20.910156 14.882812 20.910156 Z M 14.882812 20.910156 " fill-opacity="1" fill-rule="evenodd"/><g clip-path="url(#73ffefb6a8)"><path fill="#791660" d="M 14.882812 4.847656 C 13.65625 4.847656 12.660156 3.847656 12.660156 2.621094 C 12.660156 1.394531 13.65625 0.398438 14.882812 0.398438 C 16.109375 0.398438 17.109375 1.394531 17.109375 2.621094 C 17.109375 3.847656 16.109375 4.847656 14.882812 4.847656 Z M 14.882812 4.847656 " fill-opacity="1" fill-rule="evenodd"/></g><path fill="#791660" d="M 23.636719 20.632812 L 16.277344 20.632812 C 15.988281 20.632812 15.835938 20.28125 16.042969 20.070312 C 16.085938 20.027344 20.359375 15.398438 16.265625 3.574219 C 16.195312 3.367188 16.347656 3.144531 16.566406 3.136719 C 16.238281 2.894531 16.558594 2.386719 16.917969 2.578125 C 19.722656 4.054688 28.78125 9.421875 27.554688 16.308594 C 27.523438 16.457031 26.792969 19.660156 23.734375 20.617188 C 23.703125 20.628906 23.667969 20.632812 23.636719 20.632812 Z M 23.636719 20.632812 " fill-opacity="1" fill-rule="evenodd"/><path fill="#791660" d="M 12.402344 18.582031 L 6.257812 18.582031 C 6.011719 18.582031 5.851562 18.320312 5.964844 18.101562 L 12.105469 6.175781 C 12.265625 5.867188 12.730469 5.980469 12.730469 6.324219 L 12.730469 18.25 C 12.730469 18.433594 12.582031 18.582031 12.402344 18.582031 Z M 12.402344 18.582031 " fill-opacity="1" fill-rule="evenodd"/></svg>