<?xml version="1.0" encoding="utf-8"?>
<!-- Generator: Adobe Illustrator 29.4.0, SVG Export Plug-In . SVG Version: 9.03 Build 0)  -->
<svg version="1.0" id="Layer_1" xmlns="http://www.w3.org/2000/svg" xmlns:xlink="http://www.w3.org/1999/xlink" x="0px" y="0px"
	 viewBox="0 0 400 400" style="enable-background:new 0 0 400 400;" xml:space="preserve">
<style type="text/css">
	.st0{fill:none;}
	.st1{fill:#013927;}
	.st2{fill:#FFBA7B;}
	.st3{fill:#65754B;}
	.st4{fill:#475629;stroke:#013927;stroke-width:2;stroke-miterlimit:10;}
	.st5{fill:none;stroke:#013927;stroke-width:2;stroke-miterlimit:10;}
	.st6{fill:#013927;stroke:#013927;stroke-width:2;stroke-miterlimit:10;}
</style>
<g>
	<path class="st0" d="M288.55,194.26c3.48-4.91,6.73-9.88,9.99-14.96c0.57-0.85,0.52-0.97-0.46-1.54c-4.85-2.57-9.65-5.14-14.5-7.76
		c-0.34-0.17-0.63-0.34-0.97-0.46c-0.74-0.23-1.2,0.11-1.09,0.97c0.06,0.52,0.23,0.97,0.34,1.48c1.94,7.19,4,14.33,5.77,21.53
		c0.06,0.34,0.11,0.68,0.52,1.03v0.06C288.32,194.43,288.43,194.37,288.55,194.26z"/>
	<path class="st0" d="M59.15,6.73v51.42h0.23c0.29-0.46,0.46-0.91,0.52-1.43c0.97-5.2,3.94-9.02,8.1-12.05
		c0.86-0.62,1.77-1.2,2.69-1.83c0.51-0.34,0.8-0.74,0.68-1.43c-1.31-5.82,1.2-10.51,4.68-14.79c4.11-4.96,9.25-8.33,15.76-9.3
		c2.4-0.34,4.8-0.4,7.2,0c0.97,0.17,1.48,0,2.05-0.86c1.71-2.57,3.94-4.68,6.62-6.28c4.79-2.91,9.65-3.08,14.5-0.06
		c1.2,0.74,2.45,1.48,3.48,2.52c0.62,0.62,1.43,0.85,2.34,0.91c5.36,0.17,10.05,2.06,14.16,5.54c5.14,4.4,7.71,10.11,8.8,16.61
		c0.17,1.03,0.28,2.06,0.34,3.03c0,1.03,0.46,1.83,1.37,2.4c4.34,2.86,7.08,6.85,8.51,11.82c0.91,3.31,0.97,6.68-0.17,9.99
		c-0.46,1.37-1.03,2.68-1.54,3.99c-0.57,1.43-0.57,1.6,0.68,2.57c2.17,1.66,4.4,3.37,6.62,4.97c4.91,3.6,10.16,6.73,15.53,9.59
		c0.97,0.51,2,0.74,3.08,0.68c3.77-0.34,7.54-0.29,11.36,0c2.51,0.17,5.02,0.17,7.54,0.29c5.99,0.34,11.93,0.85,17.86,1.54
		c5.94,0.68,11.82,1.77,17.65,3.2c9.59,2.45,18.55,6.51,27,11.65c7.77,4.74,15.02,10.16,21.87,16.1c2.8,2.45,5.59,4.97,8.33,7.48
		c0.17,0.17,0.4,0.34,0.57,0.46c1.6,0.85,2.45,2.05,2.17,3.94c-0.11,0.97,0.63,1.43,1.31,1.89c2.97,1.94,5.82,4.05,8.68,6.11
		c7.77,5.59,15.42,11.42,22.04,18.38c3.36,3.54,6.16,7.54,7.7,12.28c1.37,4.11,1.2,8.16-0.51,12.16c-1.54,3.71-3.6,7.14-5.71,10.51
		c-5.54,8.68-11.54,17.01-18.1,25.01c-2.62,3.2-5.54,6.22-8.45,9.14c-2.8,2.8-5.59,5.54-8.22,8.45c-0.69,0.74-0.8,1.43-0.52,2.34
		c1.66,5.82,3.6,11.53,5.31,17.36c2.85,9.65,6.17,19.12,8.96,28.71c1.71,5.82,2.74,11.76,3.77,17.7c0.52,2.8,0.97,5.65,1.43,8.51
		c0.23,1.26,0.29,2.45-0.97,3.25c-0.63,0.4-0.4,1.09-0.29,1.71c0.52,2.8,1.03,5.54,1.48,8.34c0.74,4.51,1.08,9.02,1.43,13.58
		c1.37,17.42,0.69,34.83,0.85,52.18c0,2.11-0.28,2.29-2.4,2.85c-6.05,1.54-12.22,1.83-18.44,2.06c-14.1,0.52-28.26,0.46-42.42,0.23
		c-10.1-0.17-20.15-0.4-30.26-0.63c-4.4-0.11-8.79-0.11-13.19-0.46c-1.31-0.11-1.43-0.11-1.65-1.48c-0.74-4.56-1.37-9.13-2.11-13.64
		c-0.17-1.09-0.4-2.11-0.57-3.14c-0.06-0.29-0.22-0.63-0.62-0.57c-0.4,0-0.52,0.4-0.46,0.69c0.11,1.08,0.23,2.11,0.4,3.2
		c0.68,4.45,1.43,8.91,2.17,13.36c0.23,1.37,0.06,1.59-1.26,1.99c-2.51,0.63-5.08,0.69-7.59,0.86c-1.71,0.11-3.48,0.17-5.19,0.57
		h-10.73c-1.14-0.4-2.34-0.4-3.48-0.45c-5.99-0.34-11.93-1.09-17.86-1.66c-0.97-0.11-1.94-0.17-2.92-0.29
		c-1.31-0.17-1.77-0.8-1.54-2.11c0.28-1.37,0.62-2.68,0.97-4.05c2.62-11.42,6.11-22.55,10.16-33.51c3.31-8.96,6.57-17.98,9.88-27.01
		c0.34-0.97,0.74-1.94,1.09-2.85c0.22-0.52,0.28-0.97-0.06-1.43c-0.52-0.63-0.29-1.26,0-1.89c2.17-5.82,4.45-11.59,6.33-17.47
		c2.17-6.85,4.28-13.7,5.48-20.78c0.62-3.54,1.08-2.62-2-4.57c-5.19-3.26-10.51-6.4-15.24-10.33c-2.57-2.11-5.02-4.34-7.14-6.96
		c-2.11-2.52-3.54-5.43-4.34-8.57c-0.46-1.71-0.85-3.36-1.14-5.08c-0.69-3.6-1.83-7.03-3.26-10.39c-3.31-7.71-6.51-15.47-8.96-23.52
		c-0.34-1.03-0.74-1.94-1.77-2.52c-0.97-0.51-1.37-1.6-1.77-2.62c-1.37-3.65-2.68-7.31-3.99-10.96c-2.97-8.22-5.71-16.44-7.94-24.89
		c-1.26-4.91-2.34-9.88-2.4-14.96c-0.06-3.77,0.63-7.42,2-10.96c2.17-5.59,5.25-10.79,8.45-15.88c0.97-1.54,2-2.97,3.03-4.45
		c0.46-0.62,0.52-1.14-0.11-1.71c-3.31-3.26-6.62-6.57-9.93-9.88c-0.69-0.68-0.74-0.62-1.48,0.11c-1.03,1.14-2,2.34-3.2,3.31
		c-5.99,4.97-12.68,6.05-20.04,3.71c-4.05-1.31-7.59-3.59-10.9-6.22c-5.14-4.11-9.65-8.91-13.88-13.93
		c-4.8-5.71-9.08-11.76-12.56-18.33c-0.52-0.97-0.97-1.94-1.43-2.91c-0.57-1.2-0.63-1.26-1.83-0.97c-3.54,0.74-6.34-0.52-8.56-3.2
		c-1.83-2.22-2.91-4.8-3.54-7.59c-0.11-0.62-0.23-1.2-0.57-1.71v329.93h282V6.73H59.15z"/>
	<path class="st1" d="M339.47,168.05c-1.54-4.74-4.34-8.73-7.7-12.27c-6.63-6.97-14.28-12.79-22.05-18.38
		c-2.85-2.06-5.7-4.18-8.67-6.11c-0.69-0.46-1.43-0.92-1.32-1.89c0.29-1.88-0.56-3.08-2.16-3.94c-0.17-0.11-0.4-0.28-0.58-0.45
		c-2.73-2.52-5.53-5.03-8.33-7.48c-6.85-5.94-14.1-11.36-21.87-16.1c-8.45-5.14-17.41-9.2-27-11.65c-5.82-1.43-11.71-2.51-17.64-3.2
		c-5.94-0.68-11.88-1.19-17.87-1.54c-2.51-0.11-5.02-0.11-7.54-0.28c-3.82-0.29-7.59-0.35-11.36,0c-1.08,0.05-2.11-0.18-3.08-0.69
		c-5.37-2.86-10.62-5.99-15.53-9.59c-2.23-1.6-4.45-3.31-6.62-4.97c-1.26-0.97-1.26-1.14-0.69-2.57c0.51-1.31,1.09-2.62,1.55-3.99
		c1.14-3.31,1.08-6.68,0.17-9.99c-1.43-4.97-4.17-8.97-8.51-11.82c-0.91-0.57-1.37-1.37-1.37-2.4c-0.06-0.97-0.18-2-0.34-3.03
		c-1.09-6.5-3.66-12.22-8.8-16.61c-4.11-3.48-8.79-5.37-14.15-5.54c-0.92-0.05-1.72-0.28-2.34-0.91c-1.03-1.03-2.29-1.77-3.49-2.51
		c-4.85-3.03-9.71-2.86-14.5,0.05c-2.69,1.6-4.91,3.72-6.62,6.28c-0.57,0.86-1.09,1.03-2.05,0.86c-2.41-0.4-4.8-0.34-7.2,0
		c-6.51,0.97-11.65,4.34-15.76,9.31c-3.48,4.28-5.99,8.96-4.68,14.78c0.11,0.69-0.17,1.09-0.68,1.43c-0.92,0.63-1.83,1.2-2.69,1.83
		c-4.17,3.02-7.14,6.85-8.1,12.04c-0.06,0.52-0.23,0.97-0.52,1.43h-0.23v5.25c0.34,0.52,0.46,1.09,0.57,1.71
		c0.63,2.8,1.72,5.37,3.55,7.6c2.22,2.68,5.02,3.94,8.56,3.2c1.2-0.29,1.25-0.23,1.83,0.97c0.45,0.97,0.91,1.94,1.42,2.91
		c3.48,6.56,7.76,12.62,12.56,18.32c4.22,5.03,8.74,9.82,13.88,13.94c3.31,2.62,6.84,4.9,10.9,6.22c7.36,2.34,14.04,1.26,20.04-3.71
		c1.2-0.97,2.16-2.17,3.2-3.32c0.74-0.73,0.79-0.79,1.48-0.11c3.31,3.31,6.62,6.63,9.93,9.88c0.63,0.57,0.58,1.08,0.12,1.71
		c-1.03,1.48-2.06,2.91-3.03,4.45c-3.2,5.09-6.28,10.28-8.45,15.88c-1.37,3.53-2.05,7.19-2,10.96c0.06,5.08,1.14,10.05,2.4,14.95
		c2.23,8.46,4.97,16.68,7.94,24.89c1.31,3.66,2.62,7.32,3.99,10.97c0.4,1.02,0.8,2.11,1.77,2.62c1.03,0.58,1.43,1.49,1.77,2.52
		c2.46,8.05,5.65,15.81,8.97,23.52c1.42,3.36,2.56,6.79,3.25,10.39c0.29,1.71,0.68,3.36,1.14,5.08c0.8,3.14,2.23,6.05,4.34,8.57
		c2.12,2.62,4.57,4.84,7.14,6.96c4.74,3.94,10.05,7.08,15.24,10.33c3.08,1.95,2.63,1.03,2,4.57c-1.2,7.08-3.31,13.93-5.48,20.78
		c-1.88,5.88-4.17,11.65-6.34,17.47c-0.28,0.63-0.51,1.26,0,1.89c0.34,0.45,0.28,0.91,0.06,1.42c-0.34,0.91-0.74,1.88-1.09,2.86
		c-3.3,9.02-6.56,18.04-9.87,27c-4.05,10.96-7.54,22.1-10.16,33.51c-0.35,1.37-0.69,2.68-0.97,4.05c-0.23,1.32,0.22,1.95,1.53,2.12
		c0.98,0.11,1.95,0.17,2.92,0.29c5.94,0.56,11.87,1.31,17.86,1.65c1.15,0.06,2.35,0.06,3.49,0.46h10.73c1.72-0.4,3.49-0.46,5.2-0.57
		c2.51-0.17,5.08-0.23,7.59-0.86c1.31-0.4,1.48-0.63,1.26-2c-0.74-4.45-1.49-8.9-2.17-13.36c-0.17-1.08-0.29-2.11-0.4-3.19
		c-0.06-0.29,0.06-0.69,0.46-0.69c0.4-0.06,0.56,0.28,0.62,0.57c0.17,1.03,0.4,2.05,0.57,3.14c0.75,4.51,1.37,9.08,2.12,13.64
		c0.22,1.38,0.34,1.38,1.65,1.49c4.4,0.34,8.8,0.34,13.19,0.46c10.11,0.22,20.15,0.45,30.26,0.63c14.16,0.22,28.32,0.28,42.42-0.23
		c6.22-0.23,12.38-0.52,18.44-2.06c2.11-0.57,2.39-0.74,2.39-2.86c-0.16-17.35,0.52-34.76-0.85-52.18
		c-0.35-4.57-0.68-9.07-1.43-13.58c-0.46-2.8-0.97-5.54-1.48-8.34c-0.12-0.62-0.35-1.31,0.28-1.71c1.26-0.8,1.2-2,0.97-3.25
		c-0.2-1.24-0.39-2.48-0.6-3.71c-0.26-1.62-0.53-3.22-0.82-4.8c-1.03-5.94-2.06-11.88-3.77-17.7c-2.8-9.59-6.11-19.07-8.96-28.71
		c-1.72-5.83-3.66-11.54-5.32-17.36c-0.28-0.92-0.17-1.6,0.52-2.34c0.65-0.73,1.32-1.44,2-2.15c0.05-0.06,0.1-0.12,0.16-0.17
		c0.52-0.56,1.06-1.11,1.6-1.66c0.2-0.21,0.41-0.41,0.61-0.62c0.63-0.64,1.27-1.28,1.92-1.92l1.93-1.93
		c2.91-2.91,5.83-5.94,8.45-9.14c6.56-7.99,12.56-16.32,18.1-25c2.11-3.37,4.17-6.8,5.71-10.51
		C340.67,176.21,340.84,172.16,339.47,168.05z M139.19,110.05c-0.11-0.12-0.28-0.29-0.45-0.4c-0.92-0.8-0.92-0.92-0.34-1.94
		c1.37-2.46,2.56-4.91,3.37-7.6c1.54-5.02,2.05-10.21,1.54-15.47c-0.17-2.11-0.4-4.28-0.75-6.4c-0.11-0.39-0.17-0.85-0.34-1.31
		c-0.17-0.51-0.57-0.79-1.08-0.68c-0.52,0.11-0.8,0.51-0.8,1.03c-0.06,0.28-0.06,0.63,0,0.91c0.62,3.2,0.97,6.51,0.97,9.76
		c0.05,9.14-2.28,17.41-8.91,23.98c-5.54,5.54-12.16,6.79-19.52,4.23c-4.46-1.55-8.17-4.23-11.71-7.25
		c-5.65-4.86-10.45-10.51-15.07-16.33c-0.12-0.12-0.23-0.23-0.29-0.35c-0.51-0.74-0.45-0.85,0.29-1.25
		c0.51-0.23,1.03-0.46,1.54-0.69c1.31-0.68,2.52-1.6,3.48-2.74c0.29-0.28,0.57-0.62,0.69-1.02c0.11-0.41,0.05-0.81-0.34-1.09
		c-0.4-0.28-0.8-0.23-1.15,0.06c-0.34,0.28-0.68,0.62-0.97,0.97c-1.14,1.31-2.51,2.22-4.16,2.8c-1.09,0.34-1.31,0.28-2.06-0.69
		c-1.33-1.75-1.43-3.54-0.29-5.37c0.98-1.48,1.77-3.14,2.4-4.79c0.12-0.4,0.29-0.8,0.29-1.2c-0.06-0.4-0.23-0.68-0.57-0.86
		c-0.35-0.17-0.69-0.05-0.97,0.23c-0.46,0.4-0.57,0.97-0.8,1.49c-0.63,1.65-1.37,3.19-2.34,4.68c-0.63,0.97-0.86,0.97-1.49,0
		c-1.37-2.29-2.74-4.57-3.82-7.03c-0.34-0.74-0.4-1.37,0.28-2.05c2.12-2.11,3.43-4.74,4.28-7.53c0.23-0.81,0.52-1.37,1.43-1.6
		c4.28-1.09,7.31-3.83,9.77-7.31c1.71-2.46,3.02-5.14,4.16-7.88c0.18-0.34,0.23-0.69,0.69-1.08l0.11-0.06
		c0.52,0.68,0.97,1.31,1.43,1.88c3.71,4.74,8.45,8.17,14.22,9.99c2.51,0.86,5.07,1.09,7.7,0.57c3.6-0.68,6.28-2.51,7.99-5.82
		c0.69-1.31,0.98-2.45,0.69-3.94c-0.46-2.34,0.35-4.39,2-6.05c1.77-1.77,4-1.66,6.16-0.8c2.23,0.86,3.95,2.4,5.2,4.4
		c1.88,2.91,3.2,6.04,3.77,9.47c0.63,3.83-0.91,7.08-4.17,8.79c-0.52,0.29-1.08,0.46-1.71,0.58c-0.51,0.11-0.8,0.4-0.8,0.97
		c0.06,0.51,0.45,0.74,0.91,0.85c0.86,0.17,1.6-0.11,2.34-0.51c2.4-1.31,4.29-3.2,5.2-5.82c0.11-0.4,0.11-0.92,0.63-1.32
		c0.68,0.57,1.37,1.14,2.05,1.77c7.99,7.37,16.67,13.87,26.04,19.47c1.82,1.09,3.76,2.11,5.65,3.08c0.79,0.46,1.2,0.98,1.2,1.94
		c0.4,8.8-1.83,16.96-6.4,24.44c-3.31,5.37-7.65,9.76-13.36,12.62c-2.11,1.08-4.34,1.71-6.79,1.54c-0.91-0.06-1.6-0.35-2.23-1.09
		C149.47,119.75,144.33,114.9,139.19,110.05z M150.1,203.85c-2.51-7.25-5.37-14.39-7.71-21.7c-2.17-6.79-4.28-13.64-5.59-20.72
		c-0.74-4-1.14-7.99-0.52-12.05c0.46-2.91,1.37-5.71,2.63-8.33c2.63-5.77,5.82-11.19,9.3-16.45c0.18-0.22,0.29-0.45,0.46-0.62
		c0.63-0.75,0.75-0.75,1.43-0.06c0.74,0.74,1.48,1.54,2.11,2.4c0.91,1.25,2.11,1.71,3.54,1.83c2.52,0.17,4.91-0.29,7.19-1.26
		c4-1.66,7.31-4.34,10.28-7.42c6.45-6.74,9.76-14.96,11.25-23.98c0.29-1.71,0.29-3.48,0.4-5.2v-2.62c0.06-1.14,0.22-1.32,1.25-1.32
		c2.23-0.05,4.4,0,6.62,0c0.92,0.06,1.83,0.18,2.74,0.18c8.63,0.17,17.25,0.85,25.87,1.82c6.22,0.74,12.39,1.83,18.44,3.37
		c9.07,2.34,17.47,6.17,25.46,10.96c8.11,4.86,15.59,10.51,22.72,16.73c2.97,2.57,5.71,5.42,8.85,7.82
		c0.86,0.69,0.97,1.66,1.03,2.63c0.23,2.97-0.23,5.88-1.03,8.68c-2.91,9.93-7.48,19.01-14.15,27c-1.09,1.26-2.29,2.4-3.43,3.54
		c-1.03,1.08-2.12,1.25-3.48,0.69c-3.37-1.37-6.74-2.69-10.11-4.06c-3.94-1.54-7.94-2.8-11.93-4.05c-2.34-0.74-4.63-1.43-6.85-2.34
		c-0.34-0.17-0.75-0.35-1.14-0.4c-0.46-0.06-0.86,0.05-1.03,0.51s-0.06,0.86,0.34,1.09c0.35,0.22,7.54,2.91,10.79,3.93
		c3.24,1.06,6.43,2.21,9.58,3.42c2.63,1,5.24,2.06,7.83,3.15c0.69,0.29,1.32,0.57,2,0.8c1.2,0.46,2.4,0.69,3.6,0.11
		c0.69-0.34,1.03-0.05,1.2,0.63c0.45,1.95,0.97,3.88,1.48,5.83c1.54,5.93,3.08,11.81,4.63,17.69c0.17,0.69,0.23,1.26-0.23,1.89
		c-2.23,2.93-4.22,6-6.17,9.1c-2.19,3.49-4.34,7.01-6.73,10.37c-2.97,4.16-6.34,8.04-9.54,12.04c-2.8,3.48-6.45,4.74-10.67,4.74
		c-3.09,0-6.23-0.34-9.31-0.74c-4.51-0.57-8.73-0.17-12.84,1.94c-5.6,2.86-11.43,5.37-17.19,7.88c-0.28,0.11-0.57,0.23-0.86,0.4
		c-1.25,0.68-2.51,1.25-3.99,1.42c-1.37,0.18-2.52,1.09-3.6,1.95c-1.83,1.48-3.82,2.51-5.99,3.36c-1.26,0.58-2.4,0.4-3.6-0.34
		c-4.74-2.86-8.28-6.79-10.85-11.65c-1.82-3.48-3.82-6.9-5.59-10.39c-3.37-6.62-7.77-12.38-12.62-17.93
		c-6.17-7.02-11.36-14.67-15.81-22.83c-4.17-7.71-7.83-15.64-10.74-23.92c-0.05-0.11-0.11-0.17-0.11-0.29
		c-0.35-0.79-0.8-1.14-1.31-0.91c-0.63,0.29-0.63,0.86-0.46,1.43c0.46,1.31,0.86,2.74,1.37,4.05c4.23,11.36,9.71,22.15,16.5,32.2
		c1.77,2.63,3.65,5.08,5.59,7.54c0.33,0.37,0.74,0.76,0.88,1.37h0.04v0.11c-0.01-0.04-0.03-0.07-0.04-0.11
		c-0.55,0.22-1.06,0.11-1.56,0c-2.74-0.69-5.48-1.43-8.11-2.4C151.35,205.9,150.56,205.1,150.1,203.85z M287.63,193.52
		c-1.77-7.2-3.82-14.34-5.77-21.53c-0.11-0.51-0.28-0.97-0.34-1.48c-0.11-0.86,0.34-1.2,1.09-0.97c0.12,0.05,0.24,0.09,0.35,0.14
		c0.01,0,0.02,0.01,0.03,0.01s0.01,0.01,0.02,0.01c0.18,0.09,0.36,0.19,0.57,0.29c4.85,2.63,9.65,5.2,14.5,7.77
		c0.97,0.57,1.03,0.68,0.46,1.54c-0.41,0.64-0.82,1.28-1.23,1.91c-0.4,0.63-0.81,1.25-1.22,1.88c-1.22,1.88-2.45,3.76-3.71,5.62
		c-0.54,0.8-1.09,1.6-1.64,2.4c-0.71,1.05-1.45,2.1-2.19,3.15c-0.12,0.11-0.23,0.17-0.4,0.34v-0.06
		C287.74,194.2,287.69,193.85,287.63,193.52z M180.98,265.22c-3.47-2.51-6.79-5.25-9.58-8.56c-2.12-2.51-3.6-5.25-4.34-8.39
		c-0.58-2.41-1.09-4.8-1.6-7.2c-0.92-4.17-2.8-7.99-4.4-11.93c-2.46-6.05-4.97-12.1-6.85-18.38c-0.12-0.41-0.23-0.74-0.34-1.26
		l-0.11-0.11c0.79-0.29,1.31,0,1.82,0.17c2.63,0.74,5.2,1.54,7.94,1.65c0.79,0.06,1.37,0.4,1.94,1.03
		c4.74,5.36,8.85,11.14,12.1,17.53c2,3.94,4.11,7.88,6.39,11.7c2.12,3.54,4.8,6.51,8.23,8.79c0.68,0.46,1.6,0.8,0.91,2
		c-0.23,0.46,0.23,0.91,0.74,0.97c0.4,0.06,0.8,0,1.2,0c4.05-0.51,7.71-1.94,10.96-4.45c0.74-0.57,1.54-1.14,2.46-1.55
		c0.57-0.16,0.97-0.22,1.14,0.52c0.57,2.51,2.39,3.77,4.68,4.4c3.14,0.86,6.28,0.8,9.42,0.11c1.32-0.23,2.63-0.57,3.94-0.91
		c0.17,0.51-0.17,0.8-0.4,1.08c-3.26,4.46-7.19,8.11-11.65,11.3c-2.62,1.89-5.25,3.72-7.76,5.77c-1.09,0.92-2.11,1.94-2.91,3.14
		c-0.52,0.75-0.97,1.54-1.2,2.46c-0.52,2.17,0.57,3.65,2.8,3.82c1.71,0.17,3.25-0.28,4.79-0.91c1.83-0.74,3.6-1.54,5.37-2.34
		c0.57-0.23,1.08-0.46,1.82-0.8c-0.11,0.62-0.45,0.68-0.74,0.85c-1.14,0.69-2.34,1.37-3.54,2.12c-0.68,0.4-1.31,0.85-1.6,1.6
		c-0.28,0.68-0.8,0.68-1.48,0.68c-5.14-0.34-9.87-2-14.27-4.68C191.49,272.13,186.07,268.93,180.98,265.22z M308.87,277.67
		c2.22,6.79,3.66,13.76,4.91,20.78c0.57,3.14,1.14,6.22,1.71,9.36c0.29,1.54,0.29,1.54-1.03,2.34c-0.94,0.57-1.87,1.13-2.82,1.68
		c-0.67,0.38-1.34,0.76-2.01,1.13c-0.76,0.43-1.52,0.84-2.29,1.24c-0.87,0.46-1.76,0.9-2.64,1.34c-0.01,0-0.02,0-0.02,0.01
		c-0.66,0.32-1.32,0.63-1.99,0.94c-0.32,0.15-0.65,0.3-0.98,0.44c-0.62,0.28-1.25,0.55-1.87,0.81c-0.36,0.15-0.72,0.3-1.08,0.44
		c-0.4,0.17-0.8,0.32-1.2,0.48c-0.45,0.18-0.89,0.35-1.34,0.51c-0.09,0.03-0.18,0.07-0.26,0.1c-0.56,0.2-1.12,0.4-1.68,0.59
		c-0.35,0.12-0.71,0.24-1.07,0.36c-0.12,0.04-0.25,0.08-0.38,0.12c-0.72,0.23-1.44,0.45-2.17,0.66
		c-10.85,3.14-21.75,6.28-32.72,8.96c-5.88,1.49-11.82,2.63-17.81,3.25c-8.05,0.86-16.04,0.4-23.97-1.31
		c-8.06-1.76-15.88-4.17-23.36-7.59c-2.57-1.2-5.02-2.57-7.31-4.23c-1.71-1.25-1.77-1.37-1.02-3.3c2.28-5.88,4.51-11.77,6.39-17.76
		c2.11-6.68,4-13.36,5.08-20.27c0.23-1.26,0.35-1.31,1.49-0.68c2.45,1.31,4.85,2.68,7.65,3.14c1.88,0.28,3.76,0.57,5.65,0.74
		c1.08,0.11,2.06,0.34,2.85,1.25c0.98,1.09,2.4,1.49,3.83,1.77c1.2,0.23,2.4,0.41,3.65,0.23c0.4-0.05,0.8-0.05,1.2,0.18
		c3.77,2.05,7.82,2.16,11.93,1.42c1.09-0.17,1.95-0.11,2.91,0.46c1.83,1.14,3.89,1.43,6.06,0.97c3.02-0.63,5.76-2,8.39-3.66
		c2-1.25,4-2.68,5.83-4.22c2.68-2.28,5.42-4.51,8.16-6.74c4.16-3.42,7.48-7.7,10.56-12.1c3.25-4.62,6.28-9.36,9.87-13.7
		c1.63-1.95,3.27-3.87,4.93-5.78c1.53-1.78,3.07-3.54,4.61-5.3c0.11-0.11,0.23-0.17,0.34-0.22v0.05c0.46,0.17,0.4,0.57,0.51,0.91
		C300.42,250.89,304.53,264.31,308.87,277.67z M337.47,179.01c-1.59,3.94-3.71,7.54-5.99,11.08c-4.97,7.71-10.28,15.19-15.99,22.38
		c-2.4,2.97-5.02,5.82-7.76,8.5c-1.85,1.85-3.69,3.72-5.51,5.61c-0.01,0.01-0.03,0.03-0.04,0.04c-0.64,0.67-1.29,1.34-1.92,2.01
		c-0.07,0.07-0.14,0.14-0.21,0.22c-0.78,0.82-1.55,1.64-2.32,2.47c-1.09,1.17-2.18,2.34-3.25,3.53c-0.85,0.95-1.69,1.9-2.53,2.85
		c-0.57,0.65-1.14,1.31-1.71,1.97c-0.57,0.65-1.13,1.31-1.68,1.97c-0.19,0.21-0.37,0.43-0.55,0.64c-0.51,0.6-1.01,1.2-1.51,1.81
		c-2.07,2.5-4.07,5.04-5.99,7.64c-0.5,0.66-0.98,1.33-1.47,2c-0.64,0.9-1.27,1.8-1.89,2.71c-0.51,0.75-1.01,1.51-1.51,2.27
		c-2.22,3.37-4.68,6.51-7.31,9.53c-1.31,1.43-2.74,2.69-4.16,3.89c-3.26,2.74-6.57,5.42-9.88,8.1c-2.46,2-5.14,3.6-7.99,4.92
		c-1.2,0.51-2.4,0.91-3.65,1.19c-1.56,0.28-2.69,0.12-4.28-0.62c3.42-1.66,6.1-3.77,8.61-6.23c0.35-0.28,0.69-0.63,0.92-1.03
		c0.22-0.39,0.17-0.79-0.18-1.14c-0.34-0.28-0.68-0.28-1.02-0.11c-0.58,0.28-0.97,0.74-1.43,1.14c-2.29,2.11-4.68,4.11-7.59,5.37
		c-3.77,1.54-7.6,2-11.59,1.14c-0.17,0-0.35-0.12-0.63-0.23c0.34-0.4,0.74-0.4,1.09-0.51c4.34-1.48,8.27-3.71,11.76-6.8
		c0.34-0.28,0.74-0.68,1.02-1.08c0.29-0.34,0.35-0.8,0-1.14c-0.34-0.34-0.8-0.46-1.14-0.23c-0.57,0.34-1.09,0.74-1.6,1.2
		c-2.68,2.39-5.76,4.16-9.13,5.53c-2.74,1.09-5.54,1.78-8.51,1.55c-1.14-0.06-2.23-0.35-3.19-0.92c-1.43-0.85-1.49-1.82-0.12-2.68
		c1.37-0.91,2.8-1.71,4.22-2.51c3.55-2.06,6.91-4.4,9.71-7.43c0.28-0.28,0.57-0.56,0.8-0.91c0.23-0.4,0.23-0.79-0.11-1.14
		c-0.29-0.23-0.64-0.34-0.97-0.23c-0.23,0.12-0.46,0.23-0.69,0.35c-5.54,3.2-11.36,5.71-17.18,8.22c-1.2,0.51-2.46,1.02-3.83,1.08
		c-1.54,0.06-2-0.63-1.37-2c0.57-1.31,1.54-2.4,2.62-3.37c2.12-1.82,4.46-3.48,6.74-5.08c2.57-1.82,5.08-3.71,7.37-5.82
		c3.14-2.86,5.65-6.22,7.99-9.7c0.11-0.18,0.17-0.35,0.28-0.52c0.23-0.45,0.46-0.91,0.12-1.43c-0.4-0.57-0.97-0.51-1.54-0.34
		c-1.32,0.34-2.63,0.69-3.88,1.03c-3.09,0.8-6.23,1.37-9.43,0.8c-1.14-0.23-2.22-0.46-3.19-1.09c-1.54-0.97-2-2.85,0.28-3.88
		c2.86-1.26,5.71-2.63,8.57-3.82c3.48-1.49,6.91-3.09,10.28-4.8c3.3-1.65,6.73-2,10.33-1.54c3.48,0.46,7.02,0.91,10.56,0.8
		c1.6-0.06,3.2-0.29,4.74-0.57c1.94-0.34,3.54-1.32,4.97-2.63c2.74-2.57,5.02-5.54,7.36-8.45c2.39-2.92,4.6-5.94,6.69-9.06
		c0.42-0.62,0.83-1.25,1.23-1.88c0.04-0.06,0.08-0.12,0.12-0.18c0.77-1.2,1.52-2.42,2.26-3.65c0.05-0.08,0.1-0.16,0.15-0.24
		c2.97-4.97,6.45-9.6,9.76-14.33c0.35-0.5,0.7-1.01,1.04-1.51c3.52-5.11,6.92-10.27,10.09-15.62c0.29-0.46,0.51-0.91,0.69-1.37
		c0.11-0.34,0.05-0.69-0.23-0.97c-0.4-0.29-0.86-0.34-1.14,0c-0.74,0.91-1.49,0.45-2.28,0.06c-4.63-2.46-9.25-4.91-13.88-7.31
		c-0.11-0.11-0.29-0.17-0.4-0.23c-0.63-0.29-0.8-0.63-0.28-1.2c0.45-0.51,0.85-1.03,1.25-1.54c6.28-7.94,10.68-16.84,13.48-26.55
		c0.45-1.54,0.74-3.19,0.97-4.79c0.11-0.92,0.28-1.03,1.02-0.52c1.26,0.75,2.46,1.54,3.6,2.4c4.91,3.6,9.93,7.02,14.67,10.9
		c4.57,3.66,9.02,7.43,12.79,11.94c2.46,2.91,4.45,6.11,5.71,9.76C338.9,172.16,338.9,175.59,337.47,179.01z"/>
	<path class="st2" d="M176.36,112.16c-3.31,5.37-7.65,9.76-13.36,12.62c-2.11,1.08-4.34,1.71-6.79,1.54
		c-0.91-0.06-1.6-0.35-2.23-1.09c-4.51-5.48-9.65-10.33-14.79-15.18c-0.11-0.12-0.28-0.29-0.45-0.4c-0.92-0.8-0.92-0.92-0.34-1.94
		c1.37-2.46,2.56-4.91,3.37-7.6c1.54-5.02,2.05-10.21,1.54-15.47c-0.17-2.11-0.4-4.28-0.75-6.4c-0.11-0.39-0.17-0.85-0.34-1.31
		c-0.17-0.51-0.57-0.79-1.08-0.68c-0.52,0.11-0.8,0.51-0.8,1.03c-0.06,0.28-0.06,0.63,0,0.91c0.62,3.2,0.97,6.51,0.97,9.76
		c0.05,9.14-2.28,17.41-8.91,23.98c-5.54,5.54-12.16,6.79-19.52,4.23c-4.46-1.55-8.17-4.23-11.71-7.25
		c-5.65-4.86-10.45-10.51-15.07-16.33c-0.12-0.12-0.23-0.23-0.29-0.35c-0.51-0.74-0.45-0.85,0.29-1.25
		c0.51-0.23,1.03-0.46,1.54-0.69c1.31-0.68,2.52-1.6,3.48-2.74c0.29-0.28,0.57-0.62,0.69-1.02c0.11-0.41,0.05-0.81-0.34-1.09
		c-0.4-0.28-0.8-0.23-1.15,0.06c-0.34,0.28-0.68,0.62-0.97,0.97c-1.14,1.31-2.51,2.22-4.16,2.8c-1.09,0.34-1.31,0.28-2.06-0.69
		c-1.33-1.75-1.43-3.54-0.29-5.37c0.98-1.48,1.77-3.14,2.4-4.79c0.12-0.4,0.29-0.8,0.29-1.2c-0.06-0.4-0.23-0.68-0.57-0.86
		c-0.35-0.17-0.69-0.05-0.97,0.23c-0.46,0.4-0.57,0.97-0.8,1.49c-0.63,1.65-1.37,3.19-2.34,4.68c-0.63,0.97-0.86,0.97-1.49,0
		c-1.37-2.29-2.74-4.57-3.82-7.03c-0.34-0.74-0.4-1.37,0.28-2.05c2.12-2.11,3.43-4.74,4.28-7.53c0.23-0.81,0.52-1.37,1.43-1.6
		c4.28-1.09,7.31-3.83,9.77-7.31c1.71-2.46,3.02-5.14,4.16-7.88c0.18-0.34,0.23-0.69,0.69-1.08l0.11-0.06
		c0.52,0.68,0.97,1.31,1.43,1.88c3.71,4.74,8.45,8.17,14.22,9.99c2.51,0.86,5.07,1.09,7.7,0.57c3.6-0.68,6.28-2.51,7.99-5.82
		c0.69-1.31,0.98-2.45,0.69-3.94c-0.46-2.34,0.35-4.39,2-6.05c1.77-1.77,4-1.66,6.16-0.8c2.23,0.86,3.95,2.4,5.2,4.4
		c1.88,2.91,3.2,6.04,3.77,9.47c0.63,3.83-0.91,7.08-4.17,8.79c-0.52,0.29-1.08,0.46-1.71,0.58c-0.51,0.11-0.8,0.4-0.8,0.97
		c0.06,0.51,0.45,0.74,0.91,0.85c0.86,0.17,1.6-0.11,2.34-0.51c2.4-1.31,4.29-3.2,5.2-5.82c0.11-0.4,0.11-0.92,0.63-1.32
		c0.68,0.57,1.37,1.14,2.05,1.77c7.99,7.37,16.67,13.87,26.04,19.47c1.82,1.09,3.76,2.11,5.65,3.08c0.79,0.46,1.2,0.98,1.2,1.94
		C183.16,96.52,180.93,104.68,176.36,112.16z"/>
	<path class="st3" d="M314.46,310.15c-0.94,0.57-1.87,1.13-2.82,1.68c-0.67,0.38-1.34,0.76-2.01,1.13
		c-0.76,0.43-1.52,0.84-2.29,1.24c-0.87,0.46-1.76,0.9-2.64,1.34c-0.01,0-0.02,0-0.02,0.01c-0.66,0.32-1.32,0.63-1.99,0.94
		c-0.32,0.15-0.65,0.3-0.98,0.44c-0.62,0.28-1.25,0.55-1.87,0.81c-0.36,0.15-0.72,0.3-1.08,0.44c-0.4,0.17-0.8,0.32-1.2,0.48
		c-0.45,0.18-0.89,0.35-1.34,0.51c-0.09,0.03-0.18,0.07-0.26,0.1c-0.56,0.2-1.12,0.4-1.68,0.59c-0.35,0.12-0.71,0.24-1.07,0.36
		c-0.12,0.04-0.25,0.08-0.38,0.12c-0.72,0.23-1.44,0.45-2.17,0.66c-10.85,3.14-21.75,6.28-32.72,8.96
		c-5.88,1.49-11.82,2.63-17.81,3.25c-8.05,0.86-16.04,0.4-23.97-1.31c-8.06-1.76-15.88-4.17-23.36-7.59
		c-2.57-1.2-5.02-2.57-7.31-4.23c-1.71-1.25-1.77-1.37-1.02-3.3c2.28-5.88,4.51-11.77,6.39-17.76c2.11-6.68,4-13.36,5.08-20.27
		c0.23-1.26,0.35-1.31,1.49-0.68c2.45,1.31,4.85,2.68,7.65,3.14c1.88,0.28,3.76,0.57,5.65,0.74c1.08,0.11,2.06,0.34,2.85,1.25
		c0.98,1.09,2.4,1.49,3.83,1.77c1.2,0.23,2.4,0.41,3.65,0.23c0.4-0.05,0.8-0.05,1.2,0.18c3.77,2.05,7.82,2.16,11.93,1.42
		c1.09-0.17,1.95-0.11,2.91,0.46c1.83,1.14,3.89,1.43,6.06,0.97c3.02-0.63,5.76-2,8.39-3.66c2-1.25,4-2.68,5.83-4.22
		c2.68-2.28,5.42-4.51,8.16-6.74c4.16-3.42,7.48-7.7,10.56-12.1c3.25-4.62,6.28-9.36,9.87-13.7c1.63-1.95,3.27-3.87,4.93-5.78
		c1.53-1.78,3.07-3.54,4.61-5.3c0.11-0.11,0.23-0.17,0.34-0.22v0.05c0.46,0.17,0.4,0.57,0.51,0.91c4.06,13.42,8.17,26.84,12.51,40.2
		c2.22,6.79,3.66,13.76,4.91,20.78c0.57,3.14,1.14,6.22,1.71,9.36C315.78,309.35,315.78,309.35,314.46,310.15z"/>
	<path class="st2" d="M227.23,252.43c-3.26,4.46-7.19,8.11-11.65,11.3c-2.62,1.89-5.25,3.72-7.76,5.77
		c-1.09,0.92-2.11,1.94-2.91,3.14c-0.52,0.75-0.97,1.54-1.2,2.46c-0.52,2.17,0.57,3.65,2.8,3.82c1.71,0.17,3.25-0.28,4.79-0.91
		c1.83-0.74,3.6-1.54,5.37-2.34c0.57-0.23,1.08-0.46,1.82-0.8c-0.11,0.62-0.45,0.68-0.74,0.85c-1.14,0.69-2.34,1.37-3.54,2.12
		c-0.68,0.4-1.31,0.85-1.6,1.6c-0.28,0.68-0.8,0.68-1.48,0.68c-5.14-0.34-9.87-2-14.27-4.68c-5.37-3.31-10.79-6.51-15.88-10.22
		c-3.47-2.51-6.79-5.25-9.58-8.56c-2.12-2.51-3.6-5.25-4.34-8.39c-0.58-2.41-1.09-4.8-1.6-7.2c-0.92-4.17-2.8-7.99-4.4-11.93
		c-2.46-6.05-4.97-12.1-6.85-18.38c-0.12-0.41-0.23-0.74-0.34-1.26l-0.11-0.11c0.79-0.29,1.31,0,1.82,0.17
		c2.63,0.74,5.2,1.54,7.94,1.65c0.79,0.06,1.37,0.4,1.94,1.03c4.74,5.36,8.85,11.14,12.1,17.53c2,3.94,4.11,7.88,6.39,11.7
		c2.12,3.54,4.8,6.51,8.23,8.79c0.68,0.46,1.6,0.8,0.91,2c-0.23,0.46,0.23,0.91,0.74,0.97c0.4,0.06,0.8,0,1.2,0
		c4.05-0.51,7.71-1.94,10.96-4.45c0.74-0.57,1.54-1.14,2.46-1.55c0.57-0.16,0.97-0.22,1.14,0.52c0.57,2.51,2.39,3.77,4.68,4.4
		c3.14,0.86,6.28,0.8,9.42,0.11c1.32-0.23,2.63-0.57,3.94-0.91C227.8,251.86,227.46,252.15,227.23,252.43z"/>
	<path class="st3" d="M296.82,138.54c-2.91,9.93-7.48,19.01-14.15,27c-1.09,1.26-2.29,2.4-3.43,3.54c-1.03,1.08-2.12,1.25-3.48,0.69
		c-3.37-1.37-6.74-2.69-10.11-4.06c-3.94-1.54-7.94-2.8-11.93-4.05c-2.34-0.74-4.63-1.43-6.85-2.34c-0.34-0.17-0.75-0.35-1.14-0.4
		c-0.46-0.06-0.86,0.05-1.03,0.51s-0.06,0.86,0.34,1.09c0.35,0.22,7.54,2.91,10.79,3.93c3.24,1.06,6.43,2.21,9.58,3.42
		c1.7,4.42,7.99,20.89,14.34,39.2c-2.19,3.49-4.34,7.01-6.73,10.37c-2.97,4.16-6.34,8.04-9.54,12.04c-2.8,3.48-6.45,4.74-10.67,4.74
		c-3.09,0-6.23-0.34-9.31-0.74c-4.51-0.57-8.73-0.17-12.84,1.94c-5.6,2.86-11.43,5.37-17.19,7.88c-0.28,0.11-0.57,0.23-0.86,0.4
		c-1.25,0.68-2.51,1.25-3.99,1.42c-1.37,0.18-2.52,1.09-3.6,1.95c-1.83,1.48-3.82,2.51-5.99,3.36c-1.26,0.58-2.4,0.4-3.6-0.34
		c-4.74-2.86-8.28-6.79-10.85-11.65c-1.82-3.48-3.82-6.9-5.59-10.39c-3.37-6.62-7.77-12.38-12.62-17.93
		c-6.17-7.02-11.36-14.67-15.81-22.83c-4.17-7.71-7.83-15.64-10.74-23.92c-0.05-0.11-0.11-0.17-0.11-0.29
		c-0.35-0.79-0.8-1.14-1.31-0.91c-0.63,0.29-0.63,0.86-0.46,1.43c0.46,1.31,0.86,2.74,1.37,4.05c4.23,11.36,9.71,22.15,16.5,32.2
		c1.77,2.63,3.65,5.08,5.59,7.54c0.33,0.37,0.74,0.76,0.88,1.37c-0.55,0.22-1.06,0.11-1.56,0c-2.74-0.69-5.48-1.43-8.11-2.4
		c-1.26-0.46-2.05-1.26-2.51-2.51c-2.51-7.25-5.37-14.39-7.71-21.7c-2.17-6.79-4.28-13.64-5.59-20.72c-0.74-4-1.14-7.99-0.52-12.05
		c0.46-2.91,1.37-5.71,2.63-8.33c2.63-5.77,5.82-11.19,9.3-16.45c0.18-0.22,0.29-0.45,0.46-0.62c0.63-0.75,0.75-0.75,1.43-0.06
		c0.74,0.74,1.48,1.54,2.11,2.4c0.91,1.25,2.11,1.71,3.54,1.83c2.52,0.17,4.91-0.29,7.19-1.26c4-1.66,7.31-4.34,10.28-7.42
		c6.45-6.74,9.76-14.96,11.25-23.98c0.29-1.71,0.29-3.48,0.4-5.2v-2.62c0.06-1.14,0.22-1.32,1.25-1.32c2.23-0.05,4.4,0,6.62,0
		c0.92,0.06,1.83,0.18,2.74,0.18c8.63,0.17,17.25,0.85,25.87,1.82c6.22,0.74,12.39,1.83,18.44,3.37
		c9.07,2.34,17.47,6.17,25.46,10.96c8.11,4.86,15.59,10.51,22.72,16.73c2.97,2.57,5.71,5.42,8.85,7.82
		c0.86,0.69,0.97,1.66,1.03,2.63C298.08,132.83,297.62,135.74,296.82,138.54z"/>
	<path class="st4" d="M316.83,304.22c-0.07,1.57-0.07,3.71-0.26,5.12c-0.38,2.9-16,9.49-16,9.5c-2.17,0.66-0.89-30.32-6.11-61.61
		c-0.69-4.17-1.95-9.38-3.56-15.2c-0.21-0.77-0.43-1.56-0.66-2.36c-2.64-9.23-6.07-19.75-9.55-29.87c-0.31-0.91-0.63-1.83-0.94-2.73
		c-6.35-18.31-12.64-34.78-14.34-39.2c-0.26-0.68-0.42-1.08-0.44-1.15c0.22,0.09,7.42,3.32,12.53,3.98
		c1.45,0.19,4.73-3.04,4.73-3.04s0.28,0.71,0.78,2.04c1.31,3.48,4.19,11.19,7.73,21.41c0.3,0.85,0.6,1.72,0.9,2.61
		c3.26,9.48,7,20.85,10.58,32.86c0.21,0.7,0.42,1.42,0.63,2.13C310.77,255.57,317.73,285.25,316.83,304.22z"/>
	<path class="st2" d="M337.47,179.01c-1.59,3.94-3.71,7.54-5.99,11.08c-4.97,7.71-10.28,15.19-15.99,22.38
		c-2.4,2.97-5.02,5.82-7.76,8.5c-1.85,1.85-5.54,5.64-5.55,5.65c-0.64,0.67-1.29,1.34-1.92,2.01c-0.07,0.07-0.14,0.14-0.21,0.22
		c-0.78,0.82-1.56,1.64-2.32,2.47c-1.1,1.17-2.18,2.35-3.25,3.53c-0.85,0.95-1.69,1.9-2.53,2.85c-0.57,0.65-2.84,3.28-3.39,3.94
		c-0.19,0.21-0.37,0.43-0.55,0.64c-0.51,0.6-1.01,1.2-1.51,1.81c-2.07,2.5-4.07,5.04-5.99,7.64c-0.5,0.66-0.98,1.33-1.47,2
		c-0.64,0.9-1.27,1.8-1.89,2.71c-0.51,0.75-1.01,1.51-1.51,2.27c-2.22,3.37-4.68,6.51-7.31,9.53c-1.31,1.43-2.74,2.69-4.16,3.89
		c-3.26,2.74-6.57,5.42-9.88,8.1c-2.46,2-5.14,3.6-7.99,4.92c-1.2,0.51-2.4,0.91-3.65,1.19c-1.56,0.28-2.69,0.12-4.28-0.62
		c3.42-1.66,6.1-3.77,8.61-6.23c0.35-0.28,0.69-0.63,0.92-1.03c0.22-0.39,0.17-0.79-0.18-1.14c-0.34-0.28-0.68-0.28-1.02-0.11
		c-0.58,0.28-0.97,0.74-1.43,1.14c-2.29,2.11-4.68,4.11-7.59,5.37c-3.77,1.54-7.6,2-11.59,1.14c-0.17,0-0.35-0.12-0.63-0.23
		c0.34-0.4,0.74-0.4,1.09-0.51c4.34-1.48,8.27-3.71,11.76-6.8c0.34-0.28,0.74-0.68,1.02-1.08c0.29-0.34,0.35-0.8,0-1.14
		c-0.34-0.34-0.8-0.46-1.14-0.23c-0.57,0.34-1.09,0.74-1.6,1.2c-2.68,2.39-5.76,4.16-9.13,5.53c-2.74,1.09-5.54,1.78-8.51,1.55
		c-1.14-0.06-2.23-0.35-3.19-0.92c-1.43-0.85-1.49-1.82-0.12-2.68c1.37-0.91,2.8-1.71,4.22-2.51c3.55-2.06,6.91-4.4,9.71-7.43
		c0.28-0.28,0.57-0.56,0.8-0.91c0.23-0.4,0.23-0.79-0.11-1.14c-0.29-0.23-0.64-0.34-0.97-0.23c-0.23,0.12-0.46,0.23-0.69,0.35
		c-5.54,3.2-11.36,5.71-17.18,8.22c-1.2,0.51-2.46,1.02-3.83,1.08c-1.54,0.06-2-0.63-1.37-2c0.57-1.31,1.54-2.4,2.62-3.37
		c2.12-1.82,4.46-3.48,6.74-5.08c2.57-1.82,5.08-3.71,7.37-5.82c3.14-2.86,5.65-6.22,7.99-9.7c0.11-0.18,0.17-0.35,0.28-0.52
		c0.23-0.45,0.46-0.91,0.12-1.43c-0.4-0.57-0.97-0.51-1.54-0.34c-1.32,0.34-2.63,0.69-3.88,1.03c-3.09,0.8-6.23,1.37-9.43,0.8
		c-1.14-0.23-2.22-0.46-3.19-1.09c-1.54-0.97-2-2.85,0.28-3.88c2.86-1.26,5.71-2.63,8.57-3.82c3.48-1.49,6.91-3.09,10.28-4.8
		c3.3-1.65,6.73-2,10.33-1.54c3.48,0.46,7.02,0.91,10.56,0.8c1.6-0.06,3.2-0.29,4.74-0.57c1.94-0.34,3.54-1.32,4.97-2.63
		c2.74-2.57,5.02-5.54,7.36-8.45c2.39-2.92,4.6-5.94,6.69-9.06c0.42-0.62,0.83-1.25,1.23-1.88c0.04-0.06,0.08-0.12,0.12-0.18
		c0.77-1.2,1.53-2.42,2.26-3.65c0.05-0.08,0.1-0.16,0.15-0.24c2.97-4.97,6.45-9.6,9.76-14.33c0.35-0.5,0.7-1.01,1.04-1.51
		c3.52-5.11,6.92-10.27,10.09-15.62c0.29-0.46,0.51-0.91,0.69-1.37c0.11-0.34,0.05-0.69-0.23-0.97c-0.4-0.29-0.86-0.34-1.14,0
		c-0.74,0.91-1.49,0.45-2.28,0.06c-4.63-2.46-9.25-4.91-13.88-7.31c-0.11-0.11-0.29-0.17-0.4-0.23c-0.63-0.29-0.8-0.63-0.28-1.2
		c0.45-0.51,0.85-1.03,1.25-1.54c6.28-7.94,10.68-16.84,13.48-26.55c0.45-1.54,0.74-3.19,0.97-4.79c0.11-0.92,0.28-1.03,1.02-0.52
		c1.26,0.75,2.46,1.54,3.6,2.4c4.91,3.6,9.93,7.02,14.67,10.9c4.57,3.66,9.02,7.43,12.79,11.94c2.46,2.91,4.45,6.11,5.71,9.76
		C338.9,172.16,338.9,175.59,337.47,179.01z"/>
	<path class="st1" d="M162.32,208.76c-0.01,0-0.02,0-0.03,0.01c0.01,0.04,0.03,0.07,0.03,0.11V208.76z"/>
	<path class="st1" d="M238.36,285.72C238.37,285.72,238.37,285.72,238.36,285.72c-0.04-0.02-0.07-0.04-0.11-0.06L238.36,285.72z"/>
</g>
<g id="Layer_2">
</g>
<path class="st1" d="M231.74,125.01c-0.11-3.6,0.52-7.77,1.37-11.93c0.11-0.57,0.23-1.2,0.63-1.71c0.23-0.29,0.57-0.46,0.97-0.34
	c0.4,0.11,0.57,0.4,0.63,0.8c0.06,0.62-0.11,1.2-0.23,1.83c-0.86,4.05-1.43,8.16-1.37,12.33c0.17,9.36,2.28,18.33,6.33,26.83
	c0.17,0.34,0.34,0.74,0.46,1.14c0.11,0.4,0,0.69-0.34,0.92c-0.34,0.23-0.68,0.17-1.03-0.06c-0.46-0.29-0.69-0.8-0.91-1.2
	c-0.92-1.6-1.6-3.31-2.23-5.08c-2.8-7.36-4.4-14.9-4.34-23.52H231.74z"/>
<path class="st1" d="M100.66,97.77c-2.97,0-4.79-1.54-5.36-4.17c-0.11-0.52-0.23-1.03-0.23-1.54c0-2.91-1.03-5.48-2.45-7.94
	c-0.23-0.4-0.46-0.8-0.63-1.2c-0.17-0.4-0.11-0.8,0.29-1.08c0.4-0.23,0.8-0.17,1.14,0.11c0.29,0.29,0.52,0.63,0.74,0.97
	c1.89,2.85,2.97,6.05,3.14,9.48c0,0.74,0.11,1.43,0.57,2.06c0.57,0.74,1.31,1.08,2.23,1.14c0.51,0,1.03,0,1.54,0
	c0.57,0,1.03,0.29,1.08,0.85c0,0.63-0.4,0.92-0.91,1.08c-0.46,0.11-0.92,0.17-1.09,0.23H100.66z"/>
<path class="st1" d="M134.23,54.84c0.4-0.45,0.62-0.68,0.8-0.85c1.6-1.48,3.6-1.14,4.57,0.8c0.74,1.48,0.63,3.08,0,4.57
	c-0.06,0.17-0.23,0.34-0.34,0.52c-0.4,0.4-0.8,0.62-1.37,0.29c-0.45-0.29-0.51-0.74-0.34-1.2c0.11-0.4,0.28-0.74,0.4-1.14
	c0.06-0.4,0.06-0.8,0-1.2c0-0.52-0.17-1.08-0.68-1.26c-0.63-0.23-0.92,0.34-1.2,0.74c-0.34,0.46-0.57,0.97-0.92,1.43
	c-0.68,0.86-1.6,0.8-2.11-0.11c-1.15-2.06-1.48-4.34-1.09-6.68c0.06-0.34,0.29-0.69,0.52-0.91c0.34-0.4,0.8-0.74,1.31-0.46
	c0.57,0.29,0.52,0.8,0.29,1.31c-0.57,1.37-0.4,2.68,0.11,4.22L134.23,54.84z"/>
<path class="st1" d="M89.93,73.85c-0.69,0-1.31-0.11-1.37-0.8c-0.06-0.8,0.62-0.97,1.26-1.08c3.31-0.63,6.11-2.23,8.68-4.28
	c0.57-0.46,1.08-0.97,1.6-1.43c0.29-0.23,0.51-0.46,0.91-0.52c0.74-0.11,1.31,0.46,1.08,1.2c-0.11,0.34-0.34,0.63-0.62,0.85
	c-3.14,2.8-6.57,5.03-10.73,5.94c-0.29,0.06-0.62,0.11-0.8,0.17V73.85z"/>
<path class="st1" d="M97.92,81.27c-0.57,0-0.85-0.11-1.03-0.51c-0.17-0.4,0-0.69,0.29-0.97c0.17-0.11,0.34-0.22,0.51-0.34
	c2.4-1.48,4.23-3.48,5.66-5.94c0.17-0.29,0.28-0.52,0.45-0.8c0.34-0.51,0.74-1.03,1.48-0.68c0.57,0.22,0.63,0.85,0.23,1.77
	c-0.06,0.17-0.17,0.34-0.29,0.52c-1.48,2.45-3.31,4.51-5.65,6.17c-0.57,0.4-1.08,0.74-1.66,0.74V81.27z"/>
<path class="st1" d="M116.82,93.95c-0.11,0.74-0.69,0.97-1.26,1.2c-1.99,0.85-3.71,2.17-5.19,3.77c-0.4,0.4-0.69,0.85-1.08,1.31
	c-0.23,0.28-0.46,0.51-0.74,0.74c-0.29,0.23-0.68,0.29-0.97,0c-0.34-0.23-0.46-0.57-0.29-0.97c0.11-0.34,0.29-0.69,0.52-0.97
	c1.77-2.34,3.94-4.28,6.56-5.65c0.46-0.23,0.92-0.45,1.43-0.45c0.63,0,0.97,0.28,1.03,0.91V93.95z"/>
<path class="st1" d="M273.02,217.44"/>
<path class="st5" d="M290.05,241.66c4.32-5.98,10.19-12.36,12.63-13.96"/>
<path class="st5" d="M279.38,209.81c4.26-6.14,10.3-14.62,11.86-17.26"/>
<path class="st6" d="M71.37,41.42c0,0-1.41-9.59,9.55-19.5c7.44-6.73,19.4-4.21,19.4-4.21s3.56-9.52,14.13-9.76
	c8.06-0.18,11.55,5.95,11.55,5.95s10.38-3.27,21.75,12.1c4.79,6.47,3.13,13.97,3.13,13.97s9.71,6.19,10.7,14.82
	c0.98,8.63-3.74,14.21-3.74,14.21l-10.38-8.68c0,0-3.53-18.58-14.92-16.75c-5.65,0.91-4.17,8.8-4.17,8.8s-2.38,12.1-16.47,7.72
	C96.7,55.37,96.15,48.28,96.15,48.28S90.62,60.5,86.08,62.53c-4.55,2.02-4.55,2.02-4.55,2.02s-8.87,20.66-19.35,5.27
	C51.94,54.79,71.37,41.42,71.37,41.42z"/>
</svg>
