<svg xmlns="http://www.w3.org/2000/svg" xmlns:xlink="http://www.w3.org/1999/xlink" width="40" zoomAndPan="magnify" viewBox="0 0 30 30.000001" height="40" preserveAspectRatio="xMidYMid meet" version="1.0"><defs><filter x="0%" y="0%" width="100%" height="100%" id="f5acab400b"><feColorMatrix values="0 0 0 0 1 0 0 0 0 1 0 0 0 0 1 0 0 0 1 0" color-interpolation-filters="sRGB"/></filter><clipPath id="e5356ec06d"><path d="M 1.273438 14 L 24 14 L 24 23 L 1.273438 23 Z M 1.273438 14 " clip-rule="nonzero"/></clipPath><clipPath id="9019e0bcf4"><path d="M 3 0.652344 L 28.71875 0.652344 L 28.71875 28.234375 L 3 28.234375 Z M 3 0.652344 " clip-rule="nonzero"/></clipPath><mask id="efbc7f4d71"><g filter="url(#f5acab400b)"><rect x="-3" width="36" fill="#000000" y="-3" height="36.000001" fill-opacity="0.3"/></g></mask><clipPath id="83f22d919d"><path d="M 0.34375 0.792969 L 6.148438 0.792969 L 6.148438 6.601562 L 0.34375 6.601562 Z M 0.34375 0.792969 " clip-rule="nonzero"/></clipPath><clipPath id="4c2df2975b"><rect x="0" width="7" y="0" height="7"/></clipPath></defs><g clip-path="url(#e5356ec06d)"><path fill="#791660" d="M 14.996094 14.511719 C 14.996094 16.808594 16.855469 18.667969 19.152344 18.667969 C 21.449219 18.667969 23.308594 16.808594 23.308594 14.511719 Z M 5.292969 14.511719 C 7.589844 14.511719 9.453125 16.371094 9.453125 18.667969 C 9.453125 20.964844 7.589844 22.828125 5.292969 22.828125 C 3 22.828125 1.136719 20.964844 1.136719 18.667969 C 1.136719 16.371094 3 14.511719 5.292969 14.511719 Z M 5.292969 20.402344 C 6.25 20.402344 7.027344 19.625 7.027344 18.667969 C 7.027344 17.710938 6.25 16.9375 5.292969 16.9375 C 4.339844 16.9375 3.5625 17.710938 3.5625 18.667969 C 3.5625 19.625 4.339844 20.402344 5.292969 20.402344 Z M 5.292969 20.402344 " fill-opacity="1" fill-rule="nonzero"/></g><g clip-path="url(#9019e0bcf4)"><path fill="#791660" d="M 6.679688 21.441406 L 6.679688 22.828125 C 6.679688 24.355469 7.921875 25.597656 9.453125 25.597656 L 14.996094 25.597656 C 16.523438 25.597656 17.765625 24.355469 17.765625 22.828125 L 17.765625 17.171875 C 13.074219 16.496094 9.453125 12.457031 9.453125 7.550781 L 9.453125 3.425781 C 9.453125 1.894531 10.695312 0.652344 12.222656 0.652344 L 14.996094 0.652344 L 14.996094 3.425781 L 12.222656 3.425781 L 12.222656 7.582031 C 12.222656 11.402344 15.332031 14.511719 19.152344 14.511719 C 22.972656 14.511719 26.082031 11.402344 26.082031 7.550781 L 26.082031 3.425781 L 23.308594 3.425781 L 23.308594 0.652344 L 26.082031 0.652344 C 26.820312 0.652344 27.519531 0.941406 28.042969 1.464844 C 28.566406 1.988281 28.855469 2.6875 28.855469 3.425781 L 28.855469 7.582031 C 28.855469 12.460938 25.234375 16.496094 20.539062 17.171875 L 20.539062 22.828125 C 20.539062 25.882812 18.050781 28.371094 14.996094 28.371094 L 9.453125 28.371094 C 6.394531 28.371094 3.910156 25.882812 3.910156 22.828125 L 3.910156 21.441406 Z M 6.679688 21.441406 " fill-opacity="1" fill-rule="nonzero"/></g><g mask="url(#efbc7f4d71)"><g transform="matrix(1, 0, 0, 1, 2, 15)"><g clip-path="url(#4c2df2975b)"><g clip-path="url(#83f22d919d)"><path fill="#791660" d="M 3.292969 0.898438 C 3.664062 0.898438 4.015625 0.96875 4.355469 1.109375 C 4.695312 1.25 4.996094 1.449219 5.253906 1.710938 C 5.515625 1.96875 5.714844 2.269531 5.855469 2.609375 C 5.996094 2.949219 6.066406 3.300781 6.066406 3.667969 C 6.066406 4.035156 5.996094 4.390625 5.855469 4.730469 C 5.714844 5.070312 5.515625 5.367188 5.253906 5.628906 C 4.996094 5.890625 4.695312 6.089844 4.355469 6.230469 C 4.015625 6.371094 3.664062 6.441406 3.292969 6.441406 C 2.925781 6.441406 2.574219 6.371094 2.234375 6.230469 C 1.894531 6.089844 1.59375 5.890625 1.335938 5.628906 C 1.074219 5.367188 0.875 5.070312 0.734375 4.730469 C 0.59375 4.390625 0.523438 4.035156 0.523438 3.667969 C 0.523438 3.300781 0.59375 2.949219 0.734375 2.609375 C 0.875 2.269531 1.074219 1.96875 1.335938 1.710938 C 1.59375 1.449219 1.894531 1.25 2.234375 1.109375 C 2.574219 0.96875 2.925781 0.898438 3.292969 0.898438 Z M 3.292969 0.898438 " fill-opacity="1" fill-rule="nonzero"/></g></g></g></g></svg>