<svg xmlns="http://www.w3.org/2000/svg" xmlns:xlink="http://www.w3.org/1999/xlink" width="40" zoomAndPan="magnify" viewBox="0 0 30 30.000001" height="40" preserveAspectRatio="xMidYMid meet" version="1.0"><defs><clipPath id="f04664b39e"><path d="M 1.214844 2.902344 L 28.78125 2.902344 L 28.78125 27.582031 L 1.214844 27.582031 Z M 1.214844 2.902344 " clip-rule="nonzero"/></clipPath></defs><g clip-path="url(#f04664b39e)"><path fill="#004225" d="M 25.15625 2.917969 C 25.320312 2.914062 25.480469 2.945312 25.636719 3.011719 C 25.84375 3.132812 26.027344 3.285156 26.183594 3.46875 L 26.503906 3.828125 L 27.25 3.871094 C 27.546875 3.882812 27.839844 3.925781 28.128906 3.996094 C 28.433594 4.15625 28.457031 4.34375 28.539062 7.25 C 28.652344 11.007812 28.609375 13.324219 28.402344 14.085938 C 27.988281 15.460938 27.246094 16.625 26.175781 17.578125 L 25.671875 18.042969 L 25.886719 18.347656 C 26.136719 18.683594 26.160156 18.882812 25.984375 19.035156 C 25.167969 19.625 24.273438 20.050781 23.300781 20.308594 L 22.890625 20.421875 L 22.890625 21.191406 C 22.921875 21.539062 22.882812 21.875 22.777344 22.207031 C 22.625 22.511719 22.578125 22.535156 22.128906 22.59375 C 21.761719 22.640625 21.753906 22.648438 21.707031 22.898438 C 21.59375 23.707031 21.332031 24.464844 20.921875 25.171875 C 20.558594 25.71875 20.113281 26.195312 19.589844 26.597656 C 19.019531 26.914062 18.417969 27.148438 17.78125 27.304688 C 16.53125 27.578125 14.640625 27.273438 13.324219 26.582031 C 12.613281 26.242188 12.019531 25.757812 11.539062 25.132812 C 10.398438 23.738281 10.199219 22.824219 10.28125 19.300781 C 10.304688 18.164062 10.34375 15.917969 10.367188 14.300781 C 10.410156 11.488281 10.410156 11.351562 10.265625 10.785156 C 10.144531 10.183594 9.839844 9.691406 9.351562 9.316406 C 9.007812 9.007812 8.609375 8.800781 8.15625 8.703125 C 7.703125 8.601562 7.257812 8.621094 6.8125 8.757812 C 6.261719 8.929688 5.804688 9.238281 5.433594 9.679688 C 5.007812 10.328125 5.007812 10.3125 4.96875 13.796875 L 4.929688 17.015625 L 4.398438 17.191406 C 4.097656 17.296875 3.808594 17.421875 3.527344 17.570312 C 3.207031 17.761719 2.539062 18.433594 2.539062 18.570312 C 2.539062 18.636719 2.660156 18.570312 4.289062 17.625 C 5.007812 17.210938 5.214844 17.058594 5.199219 16.960938 C 5.121094 16.578125 5.578125 16.527344 6.234375 16.839844 C 6.855469 17.144531 7.316406 17.609375 7.613281 18.234375 C 7.851562 18.714844 7.859375 18.769531 7.859375 19.550781 C 7.859375 20.367188 7.859375 20.390625 7.582031 20.933594 C 7.445312 21.238281 7.261719 21.515625 7.035156 21.765625 C 6.8125 22.015625 6.550781 22.226562 6.261719 22.394531 C 5.96875 22.5625 5.660156 22.683594 5.332031 22.753906 C 5.003906 22.828125 4.671875 22.847656 4.335938 22.816406 C 3.996094 22.796875 3.667969 22.722656 3.351562 22.589844 C 3.039062 22.457031 2.753906 22.273438 2.503906 22.042969 C 2.253906 21.8125 2.050781 21.542969 1.894531 21.238281 C 1.738281 20.9375 1.636719 20.617188 1.59375 20.277344 C 1.539062 19.898438 1.546875 19.523438 1.625 19.148438 C 1.699219 18.773438 1.839844 18.421875 2.035156 18.097656 C 2.234375 17.769531 2.480469 17.484375 2.777344 17.246094 C 3.074219 17.003906 3.402344 16.820312 3.765625 16.695312 L 4.109375 16.585938 L 4.144531 13.53125 C 4.167969 11.847656 4.214844 10.328125 4.253906 10.152344 C 4.414062 9.394531 4.828125 8.808594 5.488281 8.402344 C 7.097656 7.363281 8.8125 7.53125 10.144531 8.867188 C 10.628906 9.304688 10.945312 9.84375 11.089844 10.480469 C 11.195312 10.886719 11.21875 11.265625 11.21875 13.484375 C 11.21875 14.878906 11.1875 17.273438 11.152344 18.804688 C 11.082031 21.734375 11.121094 22.464844 11.386719 23.242188 C 11.640625 23.910156 12.023438 24.488281 12.539062 24.980469 C 12.902344 25.378906 13.328125 25.683594 13.828125 25.894531 C 15.023438 26.496094 16.546875 26.75 17.585938 26.527344 C 19.019531 26.222656 19.878906 25.566406 20.480469 24.339844 C 20.65625 23.980469 20.804688 23.613281 20.929688 23.234375 C 21 23 21.070312 22.761719 21.089844 22.714844 C 21.105469 22.664062 20.976562 22.617188 20.6875 22.585938 C 20.015625 22.511719 20.015625 22.511719 19.976562 21.429688 L 19.949219 20.5 L 19.332031 20.34375 C 18.253906 20.070312 16.929688 19.347656 16.753906 18.929688 C 16.675781 18.730469 16.683594 18.675781 16.851562 18.386719 L 17.042969 18.058594 L 16.539062 17.578125 C 15.589844 16.6875 14.925781 15.617188 14.558594 14.371094 L 14.359375 13.730469 L 14.335938 10.183594 C 14.316406 6.640625 14.382812 4.558594 14.527344 4.285156 C 14.648438 4.0625 14.984375 3.988281 15.800781 3.988281 C 16.386719 3.988281 16.539062 3.964844 16.539062 3.878906 C 16.539062 3.71875 16.90625 3.332031 17.15625 3.226562 C 17.566406 3.09375 17.976562 3.097656 18.386719 3.230469 C 18.734375 3.4375 18.972656 3.734375 19.101562 4.117188 C 19.167969 4.507812 19.085938 4.863281 18.851562 5.183594 C 18.445312 5.792969 17.3125 5.785156 16.761719 5.160156 L 16.503906 4.863281 L 15.808594 4.824219 L 15.109375 4.789062 L 15.113281 8.652344 C 15.113281 10.777344 15.144531 12.792969 15.183594 13.125 C 15.332031 14.496094 15.886719 15.675781 16.84375 16.664062 C 17.035156 16.886719 17.242188 17.085938 17.46875 17.265625 C 17.613281 17.179688 17.738281 17.074219 17.84375 16.945312 C 17.96875 16.789062 18.125 16.679688 18.316406 16.625 C 18.601562 16.699219 18.875 16.804688 19.132812 16.945312 C 19.539062 17.164062 19.972656 17.308594 20.429688 17.378906 C 21.578125 17.574219 22.675781 17.417969 23.722656 16.90625 C 23.914062 16.789062 24.121094 16.714844 24.347656 16.695312 C 24.566406 16.695312 24.644531 16.746094 24.917969 17.089844 L 25.238281 17.480469 L 25.824219 16.855469 C 26.816406 15.796875 27.417969 14.789062 27.65625 13.765625 C 27.769531 13.300781 27.785156 12.898438 27.769531 10.589844 C 27.761719 9.140625 27.738281 7.195312 27.707031 6.289062 C 27.664062 4.628906 27.664062 4.628906 27.503906 4.628906 C 27.410156 4.628906 27.152344 4.605469 26.921875 4.582031 L 26.496094 4.535156 L 26.40625 4.796875 C 26.273438 5.066406 26.074219 5.265625 25.800781 5.394531 C 25.53125 5.523438 25.25 5.550781 24.957031 5.480469 C 24.480469 5.316406 24.148438 5.003906 23.957031 4.535156 C 23.8125 4.089844 23.902344 3.699219 24.226562 3.363281 C 24.328125 3.246094 24.457031 3.167969 24.605469 3.125 C 24.691406 3.121094 24.761719 3.085938 24.820312 3.019531 C 24.917969 2.9375 25.027344 2.90625 25.15625 2.917969 Z M 24.957031 3.515625 C 24.71875 3.507812 24.605469 3.683594 24.613281 4.046875 C 24.613281 4.398438 24.691406 4.550781 24.941406 4.6875 C 25.117188 4.808594 25.296875 4.816406 25.480469 4.714844 C 25.664062 4.613281 25.753906 4.457031 25.75 4.246094 C 25.730469 4.078125 25.664062 3.929688 25.550781 3.800781 C 25.4375 3.675781 25.296875 3.59375 25.132812 3.550781 C 25.074219 3.53125 25.015625 3.519531 24.957031 3.515625 Z M 17.8125 3.941406 C 17.585938 3.929688 17.425781 4.027344 17.335938 4.238281 C 17.246094 4.445312 17.28125 4.628906 17.449219 4.789062 C 17.644531 5.007812 18.414062 4.910156 18.445312 4.65625 C 18.417969 4.359375 18.273438 4.136719 18.011719 3.988281 C 17.949219 3.964844 17.882812 3.949219 17.8125 3.941406 Z M 5.457031 17.242188 C 5.3125 17.242188 5.121094 17.359375 4.496094 17.769531 C 4.007812 18.082031 3.335938 18.492188 2.996094 18.675781 C 2.746094 18.796875 2.519531 18.953125 2.316406 19.140625 C 2.277344 19.214844 2.261719 19.292969 2.261719 19.378906 C 2.292969 19.515625 3.03125 19.082031 3.46875 18.660156 C 3.710938 18.386719 4.011719 18.210938 4.367188 18.128906 C 4.640625 18.027344 4.902344 17.894531 5.152344 17.738281 L 5.832031 17.359375 L 5.601562 17.273438 C 5.554688 17.257812 5.507812 17.246094 5.457031 17.242188 Z M 24.238281 17.394531 C 24.027344 17.472656 23.820312 17.566406 23.621094 17.671875 C 23.28125 17.851562 22.917969 17.984375 22.539062 18.066406 C 22.140625 18.132812 21.792969 18.308594 21.503906 18.59375 C 21.183594 18.828125 20.726562 19.164062 20.480469 19.332031 C 20.238281 19.5 20.054688 19.660156 20.078125 19.699219 C 20.160156 19.753906 20.246094 19.773438 20.34375 19.757812 C 20.503906 19.757812 20.917969 19.53125 21.785156 18.972656 C 22.457031 18.546875 23.277344 18.019531 23.621094 17.824219 C 23.84375 17.703125 24.050781 17.5625 24.246094 17.402344 C 24.246094 17.394531 24.246094 17.394531 24.238281 17.394531 Z M 18.347656 17.425781 C 18.296875 17.417969 18.265625 17.4375 18.25 17.488281 C 18.21875 17.546875 18.042969 17.800781 17.859375 18.042969 C 17.683594 18.28125 17.5625 18.476562 17.59375 18.476562 C 18.042969 18.246094 18.476562 17.980469 18.886719 17.683594 C 18.894531 17.664062 18.757812 17.585938 18.597656 17.515625 C 18.519531 17.472656 18.4375 17.441406 18.347656 17.425781 Z M 6.128906 17.570312 C 6.019531 17.570312 5.882812 17.65625 5.601562 17.832031 L 5.160156 18.113281 L 5.378906 18.226562 C 5.664062 18.371094 5.640625 18.371094 6.136719 18.066406 L 6.546875 17.816406 L 6.386719 17.683594 C 6.28125 17.609375 6.21875 17.5625 6.128906 17.570312 Z M 24.414062 17.601562 L 23.707031 18.066406 C 23.316406 18.316406 22.496094 18.84375 21.867188 19.234375 C 21.460938 19.464844 21.070312 19.730469 20.703125 20.027344 C 20.679688 20.097656 20.679688 20.171875 20.695312 20.246094 C 20.710938 20.367188 20.910156 20.269531 22.042969 19.589844 C 22.777344 19.15625 23.683594 18.621094 24.066406 18.402344 L 24.765625 18.003906 L 24.589844 17.800781 Z M 19.214844 17.859375 C 19.039062 17.867188 18.859375 17.984375 18.371094 18.296875 C 17.683594 18.738281 17.675781 18.746094 17.835938 18.851562 C 17.988281 18.949219 18.035156 18.933594 18.476562 18.667969 C 18.734375 18.507812 19.109375 18.28125 19.300781 18.164062 C 19.628906 17.96875 19.636719 17.953125 19.46875 17.90625 C 19.386719 17.878906 19.300781 17.863281 19.214844 17.859375 Z M 6.714844 18.035156 C 6.644531 18.027344 6.515625 18.089844 6.265625 18.25 C 5.851562 18.507812 5.832031 18.539062 5.945312 18.636719 C 6.066406 18.746094 6.105469 18.730469 6.433594 18.507812 C 6.820312 18.242188 6.851562 18.203125 6.761719 18.066406 C 6.75 18.046875 6.738281 18.035156 6.714844 18.035156 Z M 20.078125 18.050781 C 19.699219 18.164062 19.351562 18.339844 19.039062 18.585938 C 18.300781 19.058594 18.242188 19.117188 18.378906 19.1875 C 18.582031 19.292969 18.597656 19.292969 19.003906 19.011719 C 19.199219 18.867188 19.589844 18.621094 19.871094 18.449219 C 20.414062 18.136719 20.449219 18.050781 20.078125 18.050781 Z M 24.964844 18.203125 L 23.835938 18.851562 C 23.21875 19.210938 22.683594 19.53125 22.644531 19.558594 C 22.355469 19.828125 24.414062 19.15625 25.15625 18.746094 L 25.316406 18.660156 L 25.140625 18.433594 Z M 21.097656 18.203125 C 20.832031 18.203125 20.695312 18.28125 19.925781 18.769531 C 19.414062 19.089844 18.988281 19.363281 18.972656 19.378906 C 18.957031 19.394531 19.027344 19.429688 19.117188 19.46875 C 19.589844 19.644531 19.605469 19.636719 20.617188 18.921875 L 21.601562 18.234375 L 21.222656 18.210938 C 21.175781 18.210938 21.136719 18.203125 21.097656 18.203125 Z M 6.988281 18.410156 C 6.847656 18.488281 6.710938 18.574219 6.585938 18.675781 C 6.378906 18.820312 6.203125 18.941406 6.195312 18.949219 C 6.1875 19.03125 6.203125 19.113281 6.234375 19.1875 L 6.289062 19.40625 L 6.730469 19.125 C 7.171875 18.851562 7.171875 18.84375 7.105469 18.628906 C 7.082031 18.550781 7.042969 18.476562 6.988281 18.410156 Z M 4.632812 18.699219 C 4.25 18.683594 3.949219 18.832031 3.726562 19.140625 C 3.625 19.289062 3.570312 19.457031 3.566406 19.636719 C 3.5625 19.820312 3.605469 19.984375 3.703125 20.140625 C 3.847656 20.46875 3.910156 20.527344 4.167969 20.605469 C 4.484375 20.738281 4.789062 20.722656 5.089844 20.558594 C 5.21875 20.503906 5.332031 20.421875 5.425781 20.316406 C 5.523438 20.214844 5.589844 20.09375 5.632812 19.960938 C 5.675781 19.824219 5.691406 19.6875 5.675781 19.546875 C 5.65625 19.40625 5.613281 19.277344 5.539062 19.15625 C 5.320312 18.84375 5.015625 18.691406 4.632812 18.699219 Z M 7.253906 19.1875 L 6.898438 19.386719 C 6.378906 19.683594 6.273438 19.773438 6.226562 20.03125 C 6.203125 20.164062 6.210938 20.269531 6.234375 20.261719 C 6.421875 20.179688 6.597656 20.085938 6.769531 19.972656 C 7.21875 19.699219 7.253906 19.660156 7.253906 19.429688 Z M 3.109375 19.339844 L 2.734375 19.554688 C 2.53125 19.675781 2.316406 19.796875 2.261719 19.828125 C 2.203125 19.867188 2.1875 19.941406 2.21875 20.039062 C 2.269531 20.230469 2.269531 20.230469 2.734375 19.972656 C 3.054688 19.789062 3.109375 19.726562 3.109375 19.546875 Z M 22.265625 19.804688 C 22.144531 19.851562 22.03125 19.910156 21.921875 19.980469 C 21.6875 20.109375 21.335938 20.324219 21.121094 20.453125 C 20.777344 20.679688 20.75 20.710938 20.75 20.980469 C 20.738281 21.074219 20.746094 21.167969 20.769531 21.261719 C 20.777344 21.253906 21 21.125 21.265625 20.957031 C 21.535156 20.796875 21.847656 20.605469 21.960938 20.535156 C 22.121094 20.453125 22.179688 20.359375 22.179688 20.230469 C 22.183594 20.113281 22.207031 20.003906 22.257812 19.894531 C 22.289062 19.84375 22.296875 19.8125 22.28125 19.8125 C 22.273438 19.804688 22.273438 19.804688 22.265625 19.804688 Z M 3.148438 19.996094 C 2.851562 20.136719 2.578125 20.3125 2.324219 20.519531 C 2.339844 20.585938 2.363281 20.648438 2.398438 20.703125 C 2.492188 20.878906 2.507812 20.871094 2.917969 20.605469 C 3.207031 20.40625 3.246094 20.34375 3.214844 20.191406 C 3.203125 20.125 3.179688 20.058594 3.148438 19.996094 Z M 7.171875 20.085938 C 6.953125 20.1875 6.742188 20.304688 6.539062 20.4375 C 6.203125 20.652344 5.457031 21.070312 4.878906 21.375 C 4.511719 21.550781 4.160156 21.753906 3.824219 21.984375 C 3.824219 22.015625 3.925781 22.054688 4.046875 22.078125 C 4.148438 22.101562 4.25 22.117188 4.351562 22.121094 C 4.421875 22.121094 5.9375 21.277344 6.769531 20.773438 C 6.933594 20.679688 7.050781 20.542969 7.109375 20.359375 C 7.148438 20.273438 7.171875 20.183594 7.171875 20.085938 Z M 3.414062 20.597656 C 3.261719 20.640625 3.125 20.707031 3.003906 20.804688 C 2.660156 21.023438 2.621094 21.078125 2.683594 21.199219 C 2.78125 21.382812 2.851562 21.375 3.375 21.09375 C 3.816406 20.863281 3.839844 20.804688 3.558594 20.644531 C 3.515625 20.613281 3.464844 20.597656 3.414062 20.597656 Z M 22.179688 20.679688 L 21.914062 20.839844 C 21.761719 20.925781 21.441406 21.117188 21.199219 21.261719 C 20.824219 21.472656 20.757812 21.550781 20.757812 21.710938 C 20.75 21.824219 20.785156 21.910156 20.839844 21.910156 C 21.085938 21.796875 21.320312 21.671875 21.550781 21.527344 C 22.128906 21.183594 22.175781 21.144531 22.175781 20.917969 Z M 4.039062 21.046875 C 3.976562 21.039062 3.933594 21.046875 3.925781 21.0625 C 3.777344 21.175781 3.621094 21.269531 3.453125 21.34375 L 3.019531 21.566406 L 3.222656 21.703125 C 3.300781 21.757812 3.378906 21.804688 3.46875 21.839844 C 3.84375 21.65625 4.203125 21.4375 4.542969 21.191406 C 4.542969 21.136719 4.214844 21.054688 4.039062 21.046875 Z M 6.730469 21.070312 C 6.675781 21.09375 6.625 21.125 6.578125 21.160156 C 6.457031 21.238281 6.035156 21.480469 5.648438 21.710938 C 4.953125 22.113281 4.878906 22.214844 5.402344 22.023438 C 5.835938 21.863281 6.214844 21.625 6.539062 21.296875 C 6.675781 21.144531 6.738281 21.078125 6.730469 21.070312 Z M 22.144531 21.414062 L 21.746094 21.664062 L 21.359375 21.910156 L 21.761719 21.910156 C 21.910156 21.921875 22.054688 21.90625 22.195312 21.855469 C 22.210938 21.773438 22.203125 21.691406 22.179688 21.609375 Z M 22.144531 21.414062 " fill-opacity="1" fill-rule="nonzero"/></g></svg>